G04*
G04 #@! TF.GenerationSoftware,Altium Limited,Altium Designer,19.1.8 (144)*
G04*
G04 Layer_Physical_Order=2*
G04 Layer_Color=16711680*
%FSLAX25Y25*%
%MOIN*%
G70*
G01*
G75*
%ADD11C,0.01000*%
%ADD14C,0.03000*%
%ADD17C,0.02000*%
%ADD19C,0.01181*%
%ADD38C,0.03937*%
%ADD49C,0.06000*%
%ADD50O,0.09843X0.05906*%
%ADD51R,0.09843X0.05906*%
%ADD52C,0.05512*%
%ADD53O,0.06693X0.03543*%
%ADD54O,0.09449X0.03543*%
%ADD55O,0.02559X0.02441*%
%ADD56C,0.01968*%
G36*
X408879Y157122D02*
X171122D01*
Y488878D01*
X408879Y488878D01*
Y157122D01*
D02*
G37*
%LPC*%
G36*
X357500Y479469D02*
Y476000D01*
X360969D01*
X360897Y476544D01*
X360494Y477517D01*
X359853Y478353D01*
X359017Y478994D01*
X358044Y479397D01*
X357500Y479469D01*
D02*
G37*
G36*
X356500D02*
X355956Y479397D01*
X354983Y478994D01*
X354147Y478353D01*
X353506Y477517D01*
X353103Y476544D01*
X353031Y476000D01*
X356500D01*
Y479469D01*
D02*
G37*
G36*
X360969Y475000D02*
X357500D01*
Y471531D01*
X358044Y471603D01*
X359017Y472006D01*
X359853Y472647D01*
X360494Y473483D01*
X360897Y474456D01*
X360969Y475000D01*
D02*
G37*
G36*
X356500D02*
X353031D01*
X353103Y474456D01*
X353506Y473483D01*
X354147Y472647D01*
X354983Y472006D01*
X355956Y471603D01*
X356500Y471531D01*
Y475000D01*
D02*
G37*
G36*
X321969Y460583D02*
X318032D01*
X317104Y460461D01*
X316240Y460103D01*
X315498Y459534D01*
X314928Y458792D01*
X314570Y457928D01*
X314448Y457000D01*
X314570Y456073D01*
X314928Y455208D01*
X315498Y454466D01*
X316240Y453897D01*
X317104Y453539D01*
X318032Y453417D01*
X321969D01*
X322896Y453539D01*
X323760Y453897D01*
X324502Y454466D01*
X325072Y455208D01*
X325430Y456073D01*
X325552Y457000D01*
X325430Y457928D01*
X325072Y458792D01*
X324502Y459534D01*
X323760Y460103D01*
X322896Y460461D01*
X321969Y460583D01*
D02*
G37*
G36*
X261968D02*
X258032D01*
X257104Y460461D01*
X256240Y460103D01*
X255498Y459534D01*
X254928Y458792D01*
X254570Y457928D01*
X254448Y457000D01*
X254570Y456073D01*
X254928Y455208D01*
X255498Y454466D01*
X256240Y453897D01*
X257104Y453539D01*
X258032Y453417D01*
X261968D01*
X262896Y453539D01*
X263760Y453897D01*
X264502Y454466D01*
X265072Y455208D01*
X265430Y456073D01*
X265552Y457000D01*
X265430Y457928D01*
X265072Y458792D01*
X264502Y459534D01*
X263760Y460103D01*
X262896Y460461D01*
X261968Y460583D01*
D02*
G37*
G36*
X321969Y450583D02*
X318032D01*
X317104Y450461D01*
X316240Y450103D01*
X315498Y449534D01*
X314928Y448792D01*
X314570Y447928D01*
X314448Y447000D01*
X314570Y446072D01*
X314928Y445208D01*
X315498Y444466D01*
X316240Y443897D01*
X317104Y443539D01*
X318032Y443417D01*
X321969D01*
X322896Y443539D01*
X323760Y443897D01*
X324502Y444466D01*
X325072Y445208D01*
X325430Y446072D01*
X325552Y447000D01*
X325430Y447928D01*
X325072Y448792D01*
X324502Y449534D01*
X323760Y450103D01*
X322896Y450461D01*
X321969Y450583D01*
D02*
G37*
G36*
X261968D02*
X258032D01*
X257104Y450461D01*
X256240Y450103D01*
X255498Y449534D01*
X254928Y448792D01*
X254570Y447928D01*
X254448Y447000D01*
X254570Y446072D01*
X254928Y445208D01*
X255498Y444466D01*
X256240Y443897D01*
X257104Y443539D01*
X258032Y443417D01*
X261968D01*
X262896Y443539D01*
X263760Y443897D01*
X264502Y444466D01*
X265072Y445208D01*
X265430Y446072D01*
X265552Y447000D01*
X265430Y447928D01*
X265072Y448792D01*
X264502Y449534D01*
X263760Y450103D01*
X262896Y450461D01*
X261968Y450583D01*
D02*
G37*
G36*
X321969Y440583D02*
X318032D01*
X317104Y440461D01*
X316240Y440103D01*
X315498Y439534D01*
X314928Y438792D01*
X314570Y437927D01*
X314448Y437000D01*
X314570Y436072D01*
X314928Y435208D01*
X315498Y434466D01*
X316240Y433897D01*
X317104Y433539D01*
X318032Y433417D01*
X321969D01*
X322896Y433539D01*
X323760Y433897D01*
X324502Y434466D01*
X325072Y435208D01*
X325430Y436072D01*
X325552Y437000D01*
X325430Y437927D01*
X325072Y438792D01*
X324502Y439534D01*
X323760Y440103D01*
X322896Y440461D01*
X321969Y440583D01*
D02*
G37*
G36*
X261968D02*
X258032D01*
X257104Y440461D01*
X256240Y440103D01*
X255498Y439534D01*
X254928Y438792D01*
X254570Y437927D01*
X254448Y437000D01*
X254570Y436072D01*
X254928Y435208D01*
X255498Y434466D01*
X256240Y433897D01*
X257104Y433539D01*
X258032Y433417D01*
X261968D01*
X262896Y433539D01*
X263760Y433897D01*
X264502Y434466D01*
X265072Y435208D01*
X265430Y436072D01*
X265552Y437000D01*
X265430Y437927D01*
X265072Y438792D01*
X264502Y439534D01*
X263760Y440103D01*
X262896Y440461D01*
X261968Y440583D01*
D02*
G37*
G36*
Y430583D02*
X258032D01*
X257104Y430461D01*
X256240Y430103D01*
X255498Y429534D01*
X254928Y428792D01*
X254570Y427927D01*
X254448Y427000D01*
X254570Y426073D01*
X254928Y425208D01*
X255498Y424466D01*
X256240Y423897D01*
X257104Y423539D01*
X258032Y423417D01*
X261968D01*
X262896Y423539D01*
X263760Y423897D01*
X264502Y424466D01*
X265072Y425208D01*
X265430Y426073D01*
X265552Y427000D01*
X265430Y427927D01*
X265072Y428792D01*
X264502Y429534D01*
X263760Y430103D01*
X262896Y430461D01*
X261968Y430583D01*
D02*
G37*
G36*
X321969Y430583D02*
X318032D01*
X317104Y430461D01*
X316240Y430103D01*
X315498Y429534D01*
X314928Y428792D01*
X314570Y427927D01*
X314448Y427000D01*
X314570Y426073D01*
X314928Y425208D01*
X315498Y424466D01*
X316240Y423897D01*
X317104Y423539D01*
X318032Y423417D01*
X321969D01*
X322896Y423539D01*
X323760Y423897D01*
X324502Y424466D01*
X325072Y425208D01*
X325430Y426073D01*
X325552Y427000D01*
X325430Y427927D01*
X325072Y428792D01*
X324502Y429534D01*
X323760Y430103D01*
X322896Y430461D01*
X321969Y430583D01*
D02*
G37*
G36*
Y420583D02*
X318032D01*
X317104Y420461D01*
X316240Y420103D01*
X315498Y419534D01*
X314928Y418792D01*
X314570Y417928D01*
X314448Y417000D01*
X314570Y416073D01*
X314928Y415208D01*
X315498Y414466D01*
X316240Y413897D01*
X317104Y413539D01*
X318032Y413417D01*
X321969D01*
X322896Y413539D01*
X323760Y413897D01*
X324502Y414466D01*
X325072Y415208D01*
X325430Y416073D01*
X325552Y417000D01*
X325430Y417928D01*
X325072Y418792D01*
X324502Y419534D01*
X323760Y420103D01*
X322896Y420461D01*
X321969Y420583D01*
D02*
G37*
G36*
X261968D02*
X258032D01*
X257104Y420461D01*
X256240Y420103D01*
X255498Y419534D01*
X254928Y418792D01*
X254570Y417928D01*
X254448Y417000D01*
X254570Y416073D01*
X254928Y415208D01*
X255498Y414466D01*
X256240Y413897D01*
X257104Y413539D01*
X258032Y413417D01*
X261968D01*
X262896Y413539D01*
X263760Y413897D01*
X264502Y414466D01*
X265072Y415208D01*
X265430Y416073D01*
X265552Y417000D01*
X265430Y417928D01*
X265072Y418792D01*
X264502Y419534D01*
X263760Y420103D01*
X262896Y420461D01*
X261968Y420583D01*
D02*
G37*
G36*
X321969Y410583D02*
X318032D01*
X317104Y410461D01*
X316240Y410103D01*
X315498Y409534D01*
X314928Y408792D01*
X314570Y407927D01*
X314448Y407000D01*
X314570Y406073D01*
X314928Y405208D01*
X315498Y404466D01*
X316240Y403897D01*
X317104Y403539D01*
X318032Y403417D01*
X321969D01*
X322896Y403539D01*
X323760Y403897D01*
X324502Y404466D01*
X325072Y405208D01*
X325430Y406073D01*
X325552Y407000D01*
X325430Y407927D01*
X325072Y408792D01*
X324502Y409534D01*
X323760Y410103D01*
X322896Y410461D01*
X321969Y410583D01*
D02*
G37*
G36*
X261968D02*
X258032D01*
X257104Y410461D01*
X256240Y410103D01*
X255498Y409534D01*
X254928Y408792D01*
X254570Y407927D01*
X254448Y407000D01*
X254570Y406073D01*
X254928Y405208D01*
X255498Y404466D01*
X256240Y403897D01*
X257104Y403539D01*
X258032Y403417D01*
X261968D01*
X262896Y403539D01*
X263760Y403897D01*
X264502Y404466D01*
X265072Y405208D01*
X265430Y406073D01*
X265552Y407000D01*
X265430Y407927D01*
X265072Y408792D01*
X264502Y409534D01*
X263760Y410103D01*
X262896Y410461D01*
X261968Y410583D01*
D02*
G37*
G36*
X321969Y400583D02*
X318032D01*
X317104Y400461D01*
X316240Y400103D01*
X315498Y399534D01*
X314928Y398792D01*
X314570Y397927D01*
X314448Y397000D01*
X314570Y396073D01*
X314928Y395208D01*
X315498Y394466D01*
X316240Y393897D01*
X317104Y393539D01*
X318032Y393417D01*
X321969D01*
X322896Y393539D01*
X323760Y393897D01*
X324502Y394466D01*
X325072Y395208D01*
X325430Y396073D01*
X325552Y397000D01*
X325430Y397927D01*
X325072Y398792D01*
X324502Y399534D01*
X323760Y400103D01*
X322896Y400461D01*
X321969Y400583D01*
D02*
G37*
G36*
X261968D02*
X258032D01*
X257104Y400461D01*
X256240Y400103D01*
X255498Y399534D01*
X254928Y398792D01*
X254570Y397927D01*
X254448Y397000D01*
X254570Y396073D01*
X254928Y395208D01*
X255498Y394466D01*
X256240Y393897D01*
X257104Y393539D01*
X258032Y393417D01*
X261968D01*
X262896Y393539D01*
X263760Y393897D01*
X264502Y394466D01*
X265072Y395208D01*
X265430Y396073D01*
X265552Y397000D01*
X265430Y397927D01*
X265072Y398792D01*
X264502Y399534D01*
X263760Y400103D01*
X262896Y400461D01*
X261968Y400583D01*
D02*
G37*
G36*
Y390583D02*
X258032D01*
X257104Y390461D01*
X256240Y390103D01*
X255498Y389534D01*
X254928Y388792D01*
X254570Y387927D01*
X254448Y387000D01*
X254570Y386073D01*
X254928Y385208D01*
X255498Y384466D01*
X256240Y383897D01*
X257104Y383539D01*
X258032Y383417D01*
X261968D01*
X262896Y383539D01*
X263760Y383897D01*
X264502Y384466D01*
X265072Y385208D01*
X265430Y386073D01*
X265552Y387000D01*
X265430Y387927D01*
X265072Y388792D01*
X264502Y389534D01*
X263760Y390103D01*
X262896Y390461D01*
X261968Y390583D01*
D02*
G37*
G36*
X321969Y390583D02*
X318032D01*
X317104Y390461D01*
X316240Y390103D01*
X315498Y389534D01*
X314928Y388792D01*
X314570Y387927D01*
X314448Y387000D01*
X314570Y386072D01*
X314928Y385208D01*
X315498Y384466D01*
X316240Y383897D01*
X317104Y383539D01*
X318032Y383417D01*
X321969D01*
X322896Y383539D01*
X323760Y383897D01*
X324502Y384466D01*
X325072Y385208D01*
X325430Y386072D01*
X325552Y387000D01*
X325430Y387927D01*
X325072Y388792D01*
X324502Y389534D01*
X323760Y390103D01*
X322896Y390461D01*
X321969Y390583D01*
D02*
G37*
G36*
Y380583D02*
X318032D01*
X317104Y380461D01*
X316240Y380103D01*
X315498Y379534D01*
X314928Y378792D01*
X314570Y377927D01*
X314448Y377000D01*
X314570Y376073D01*
X314928Y375208D01*
X315498Y374466D01*
X316240Y373897D01*
X317104Y373539D01*
X318032Y373417D01*
X321969D01*
X322896Y373539D01*
X323760Y373897D01*
X324502Y374466D01*
X325072Y375208D01*
X325430Y376073D01*
X325552Y377000D01*
X325430Y377927D01*
X325072Y378792D01*
X324502Y379534D01*
X323760Y380103D01*
X322896Y380461D01*
X321969Y380583D01*
D02*
G37*
G36*
X261968Y380583D02*
X258032D01*
X257104Y380461D01*
X256240Y380103D01*
X255498Y379534D01*
X254928Y378792D01*
X254570Y377927D01*
X254448Y377000D01*
X254570Y376073D01*
X254928Y375208D01*
X255498Y374466D01*
X256240Y373897D01*
X257104Y373539D01*
X258032Y373417D01*
X261968D01*
X262896Y373539D01*
X263760Y373897D01*
X264502Y374466D01*
X265072Y375208D01*
X265430Y376073D01*
X265552Y377000D01*
X265430Y377927D01*
X265072Y378792D01*
X264502Y379534D01*
X263760Y380103D01*
X262896Y380461D01*
X261968Y380583D01*
D02*
G37*
G36*
X321969Y370583D02*
X318032D01*
X317104Y370461D01*
X316240Y370103D01*
X315498Y369534D01*
X314928Y368792D01*
X314570Y367927D01*
X314448Y367000D01*
X314570Y366073D01*
X314928Y365208D01*
X315498Y364466D01*
X316240Y363897D01*
X317104Y363539D01*
X318032Y363417D01*
X321969D01*
X322896Y363539D01*
X323760Y363897D01*
X324502Y364466D01*
X325072Y365208D01*
X325430Y366073D01*
X325552Y367000D01*
X325430Y367927D01*
X325072Y368792D01*
X324502Y369534D01*
X323760Y370103D01*
X322896Y370461D01*
X321969Y370583D01*
D02*
G37*
G36*
X261968D02*
X258032D01*
X257104Y370461D01*
X256240Y370103D01*
X255498Y369534D01*
X254928Y368792D01*
X254570Y367927D01*
X254448Y367000D01*
X254570Y366073D01*
X254928Y365208D01*
X255498Y364466D01*
X256240Y363897D01*
X257104Y363539D01*
X258032Y363417D01*
X261968D01*
X262896Y363539D01*
X263760Y363897D01*
X264502Y364466D01*
X265072Y365208D01*
X265430Y366073D01*
X265552Y367000D01*
X265430Y367927D01*
X265072Y368792D01*
X264502Y369534D01*
X263760Y370103D01*
X262896Y370461D01*
X261968Y370583D01*
D02*
G37*
G36*
X321969Y360583D02*
X318032D01*
X317104Y360461D01*
X316240Y360103D01*
X315498Y359534D01*
X314928Y358792D01*
X314570Y357927D01*
X314448Y357000D01*
X314570Y356073D01*
X314928Y355208D01*
X315498Y354466D01*
X316240Y353897D01*
X317104Y353539D01*
X318032Y353417D01*
X321969D01*
X322896Y353539D01*
X323760Y353897D01*
X324502Y354466D01*
X325072Y355208D01*
X325430Y356073D01*
X325552Y357000D01*
X325430Y357927D01*
X325072Y358792D01*
X324502Y359534D01*
X323760Y360103D01*
X322896Y360461D01*
X321969Y360583D01*
D02*
G37*
G36*
X261968D02*
X258032D01*
X257104Y360461D01*
X256240Y360103D01*
X255498Y359534D01*
X254928Y358792D01*
X254570Y357927D01*
X254448Y357000D01*
X254570Y356073D01*
X254928Y355208D01*
X255498Y354466D01*
X256240Y353897D01*
X257104Y353539D01*
X258032Y353417D01*
X261968D01*
X262896Y353539D01*
X263760Y353897D01*
X264502Y354466D01*
X265072Y355208D01*
X265430Y356073D01*
X265552Y357000D01*
X265430Y357927D01*
X265072Y358792D01*
X264502Y359534D01*
X263760Y360103D01*
X262896Y360461D01*
X261968Y360583D01*
D02*
G37*
G36*
X321969Y350583D02*
X318032D01*
X317104Y350461D01*
X316240Y350103D01*
X315498Y349534D01*
X314928Y348792D01*
X314570Y347927D01*
X314448Y347000D01*
X314570Y346073D01*
X314928Y345208D01*
X315498Y344466D01*
X316240Y343897D01*
X317104Y343539D01*
X318032Y343417D01*
X321969D01*
X322896Y343539D01*
X323760Y343897D01*
X324502Y344466D01*
X325072Y345208D01*
X325430Y346073D01*
X325552Y347000D01*
X325430Y347927D01*
X325072Y348792D01*
X324502Y349534D01*
X323760Y350103D01*
X322896Y350461D01*
X321969Y350583D01*
D02*
G37*
G36*
X261968D02*
X258032D01*
X257104Y350461D01*
X256240Y350103D01*
X255498Y349534D01*
X254928Y348792D01*
X254570Y347927D01*
X254448Y347000D01*
X254570Y346073D01*
X254928Y345208D01*
X255498Y344466D01*
X256240Y343897D01*
X257104Y343539D01*
X258032Y343417D01*
X261968D01*
X262896Y343539D01*
X263760Y343897D01*
X264502Y344466D01*
X265072Y345208D01*
X265430Y346073D01*
X265552Y347000D01*
X265430Y347927D01*
X265072Y348792D01*
X264502Y349534D01*
X263760Y350103D01*
X262896Y350461D01*
X261968Y350583D01*
D02*
G37*
G36*
Y340583D02*
X258032D01*
X257104Y340461D01*
X256240Y340103D01*
X255498Y339534D01*
X254928Y338792D01*
X254570Y337927D01*
X254448Y337000D01*
X254570Y336073D01*
X254928Y335208D01*
X255498Y334466D01*
X256240Y333897D01*
X257104Y333539D01*
X258032Y333417D01*
X261968D01*
X262896Y333539D01*
X263760Y333897D01*
X264502Y334466D01*
X265072Y335208D01*
X265430Y336073D01*
X265552Y337000D01*
X265430Y337927D01*
X265072Y338792D01*
X264502Y339534D01*
X263760Y340103D01*
X262896Y340461D01*
X261968Y340583D01*
D02*
G37*
G36*
X321969Y340583D02*
X318032D01*
X317104Y340461D01*
X316240Y340103D01*
X315498Y339534D01*
X314928Y338792D01*
X314570Y337927D01*
X314448Y337000D01*
X314570Y336072D01*
X314928Y335208D01*
X315498Y334466D01*
X316240Y333897D01*
X317104Y333539D01*
X318032Y333417D01*
X321969D01*
X322896Y333539D01*
X323760Y333897D01*
X324502Y334466D01*
X325072Y335208D01*
X325430Y336072D01*
X325552Y337000D01*
X325430Y337927D01*
X325072Y338792D01*
X324502Y339534D01*
X323760Y340103D01*
X322896Y340461D01*
X321969Y340583D01*
D02*
G37*
G36*
Y330583D02*
X318032D01*
X317104Y330461D01*
X316240Y330103D01*
X315498Y329534D01*
X314928Y328792D01*
X314570Y327927D01*
X314448Y327000D01*
X314570Y326073D01*
X314928Y325208D01*
X315498Y324466D01*
X316240Y323897D01*
X317104Y323539D01*
X318032Y323417D01*
X321969D01*
X322896Y323539D01*
X323760Y323897D01*
X324502Y324466D01*
X325072Y325208D01*
X325430Y326073D01*
X325552Y327000D01*
X325430Y327927D01*
X325072Y328792D01*
X324502Y329534D01*
X323760Y330103D01*
X322896Y330461D01*
X321969Y330583D01*
D02*
G37*
G36*
X261968D02*
X258032D01*
X257104Y330461D01*
X256240Y330103D01*
X255498Y329534D01*
X254928Y328792D01*
X254570Y327927D01*
X254448Y327000D01*
X254570Y326073D01*
X254928Y325208D01*
X255498Y324466D01*
X256240Y323897D01*
X257104Y323539D01*
X258032Y323417D01*
X261968D01*
X262896Y323539D01*
X263760Y323897D01*
X264502Y324466D01*
X265072Y325208D01*
X265430Y326073D01*
X265552Y327000D01*
X265430Y327927D01*
X265072Y328792D01*
X264502Y329534D01*
X263760Y330103D01*
X262896Y330461D01*
X261968Y330583D01*
D02*
G37*
G36*
X321969Y320583D02*
X318032D01*
X317104Y320461D01*
X316240Y320103D01*
X315498Y319534D01*
X314928Y318792D01*
X314570Y317927D01*
X314448Y317000D01*
X314570Y316073D01*
X314928Y315208D01*
X315498Y314466D01*
X316240Y313897D01*
X317104Y313539D01*
X318032Y313417D01*
X321969D01*
X322896Y313539D01*
X323760Y313897D01*
X324502Y314466D01*
X325072Y315208D01*
X325430Y316073D01*
X325552Y317000D01*
X325430Y317927D01*
X325072Y318792D01*
X324502Y319534D01*
X323760Y320103D01*
X322896Y320461D01*
X321969Y320583D01*
D02*
G37*
G36*
X261968D02*
X258032D01*
X257104Y320461D01*
X256240Y320103D01*
X255498Y319534D01*
X254928Y318792D01*
X254570Y317927D01*
X254448Y317000D01*
X254570Y316073D01*
X254928Y315208D01*
X255498Y314466D01*
X256240Y313897D01*
X257104Y313539D01*
X258032Y313417D01*
X261968D01*
X262896Y313539D01*
X263760Y313897D01*
X264502Y314466D01*
X265072Y315208D01*
X265430Y316073D01*
X265552Y317000D01*
X265430Y317927D01*
X265072Y318792D01*
X264502Y319534D01*
X263760Y320103D01*
X262896Y320461D01*
X261968Y320583D01*
D02*
G37*
G36*
X321969Y310583D02*
X318032D01*
X317104Y310461D01*
X316240Y310103D01*
X315498Y309534D01*
X314928Y308792D01*
X314570Y307927D01*
X314448Y307000D01*
X314570Y306073D01*
X314928Y305208D01*
X315498Y304466D01*
X316240Y303897D01*
X317104Y303539D01*
X318032Y303417D01*
X321969D01*
X322896Y303539D01*
X323760Y303897D01*
X324502Y304466D01*
X325072Y305208D01*
X325430Y306073D01*
X325552Y307000D01*
X325430Y307927D01*
X325072Y308792D01*
X324502Y309534D01*
X323760Y310103D01*
X322896Y310461D01*
X321969Y310583D01*
D02*
G37*
G36*
X261968D02*
X258032D01*
X257104Y310461D01*
X256240Y310103D01*
X255498Y309534D01*
X254928Y308792D01*
X254570Y307927D01*
X254448Y307000D01*
X254570Y306073D01*
X254928Y305208D01*
X255498Y304466D01*
X256240Y303897D01*
X257104Y303539D01*
X258032Y303417D01*
X261968D01*
X262896Y303539D01*
X263760Y303897D01*
X264502Y304466D01*
X265072Y305208D01*
X265430Y306073D01*
X265552Y307000D01*
X265430Y307927D01*
X265072Y308792D01*
X264502Y309534D01*
X263760Y310103D01*
X262896Y310461D01*
X261968Y310583D01*
D02*
G37*
G36*
X321969Y300583D02*
X318032D01*
X317104Y300461D01*
X316240Y300103D01*
X315498Y299534D01*
X314928Y298792D01*
X314570Y297927D01*
X314448Y297000D01*
X314570Y296073D01*
X314928Y295208D01*
X315498Y294466D01*
X316240Y293897D01*
X317104Y293539D01*
X318032Y293417D01*
X321969D01*
X322896Y293539D01*
X323760Y293897D01*
X324502Y294466D01*
X325072Y295208D01*
X325430Y296073D01*
X325552Y297000D01*
X325430Y297927D01*
X325072Y298792D01*
X324502Y299534D01*
X323760Y300103D01*
X322896Y300461D01*
X321969Y300583D01*
D02*
G37*
G36*
X261968D02*
X258032D01*
X257104Y300461D01*
X256240Y300103D01*
X255498Y299534D01*
X254928Y298792D01*
X254570Y297927D01*
X254448Y297000D01*
X254570Y296073D01*
X254928Y295208D01*
X255498Y294466D01*
X256240Y293897D01*
X257104Y293539D01*
X258032Y293417D01*
X261968D01*
X262896Y293539D01*
X263760Y293897D01*
X264502Y294466D01*
X265072Y295208D01*
X265430Y296073D01*
X265552Y297000D01*
X265430Y297927D01*
X265072Y298792D01*
X264502Y299534D01*
X263760Y300103D01*
X262896Y300461D01*
X261968Y300583D01*
D02*
G37*
G36*
X321969Y290583D02*
X318032D01*
X317104Y290461D01*
X316240Y290103D01*
X315498Y289534D01*
X314928Y288792D01*
X314570Y287928D01*
X314448Y287000D01*
X314570Y286073D01*
X314928Y285208D01*
X315498Y284466D01*
X316240Y283897D01*
X317104Y283539D01*
X318032Y283417D01*
X321969D01*
X322896Y283539D01*
X323760Y283897D01*
X324502Y284466D01*
X325072Y285208D01*
X325430Y286073D01*
X325552Y287000D01*
X325430Y287928D01*
X325072Y288792D01*
X324502Y289534D01*
X323760Y290103D01*
X322896Y290461D01*
X321969Y290583D01*
D02*
G37*
G36*
X261968Y290583D02*
X258032D01*
X257104Y290461D01*
X256240Y290103D01*
X255498Y289534D01*
X254928Y288792D01*
X254570Y287927D01*
X254448Y287000D01*
X254570Y286073D01*
X254928Y285208D01*
X255498Y284466D01*
X256240Y283897D01*
X257104Y283539D01*
X258032Y283417D01*
X261968D01*
X262896Y283539D01*
X263760Y283897D01*
X264502Y284466D01*
X265072Y285208D01*
X265430Y286073D01*
X265552Y287000D01*
X265430Y287927D01*
X265072Y288792D01*
X264502Y289534D01*
X263760Y290103D01*
X262896Y290461D01*
X261968Y290583D01*
D02*
G37*
G36*
X321969Y280583D02*
X318032D01*
X317104Y280461D01*
X316240Y280103D01*
X315498Y279534D01*
X314928Y278792D01*
X314570Y277927D01*
X314448Y277000D01*
X314570Y276073D01*
X314928Y275208D01*
X315498Y274466D01*
X316240Y273897D01*
X317104Y273539D01*
X318032Y273417D01*
X321969D01*
X322896Y273539D01*
X323760Y273897D01*
X324502Y274466D01*
X325072Y275208D01*
X325430Y276073D01*
X325552Y277000D01*
X325430Y277927D01*
X325072Y278792D01*
X324502Y279534D01*
X323760Y280103D01*
X322896Y280461D01*
X321969Y280583D01*
D02*
G37*
G36*
X261968D02*
X258032D01*
X257104Y280461D01*
X256240Y280103D01*
X255498Y279534D01*
X254928Y278792D01*
X254570Y277927D01*
X254448Y277000D01*
X254570Y276073D01*
X254928Y275208D01*
X255498Y274466D01*
X256240Y273897D01*
X257104Y273539D01*
X258032Y273417D01*
X261968D01*
X262896Y273539D01*
X263760Y273897D01*
X264502Y274466D01*
X265072Y275208D01*
X265430Y276073D01*
X265552Y277000D01*
X265430Y277927D01*
X265072Y278792D01*
X264502Y279534D01*
X263760Y280103D01*
X262896Y280461D01*
X261968Y280583D01*
D02*
G37*
G36*
X325921Y270953D02*
X320500D01*
Y267500D01*
X325921D01*
Y270953D01*
D02*
G37*
G36*
X319500D02*
X314079D01*
Y267500D01*
X319500D01*
Y270953D01*
D02*
G37*
G36*
X261968Y270583D02*
X258032D01*
X257104Y270461D01*
X256240Y270103D01*
X255498Y269534D01*
X254928Y268792D01*
X254570Y267927D01*
X254448Y267000D01*
X254570Y266073D01*
X254928Y265208D01*
X255498Y264466D01*
X256240Y263897D01*
X257104Y263539D01*
X258032Y263417D01*
X261968D01*
X262896Y263539D01*
X263760Y263897D01*
X264502Y264466D01*
X265072Y265208D01*
X265430Y266073D01*
X265552Y267000D01*
X265430Y267927D01*
X265072Y268792D01*
X264502Y269534D01*
X263760Y270103D01*
X262896Y270461D01*
X261968Y270583D01*
D02*
G37*
G36*
X325921Y266500D02*
X320500D01*
Y263047D01*
X325921D01*
Y266500D01*
D02*
G37*
G36*
X319500D02*
X314079D01*
Y263047D01*
X319500D01*
Y266500D01*
D02*
G37*
G36*
X202409Y251150D02*
X199956D01*
Y248855D01*
X205139D01*
X205109Y249078D01*
X204830Y249753D01*
X204386Y250332D01*
X203807Y250776D01*
X203133Y251055D01*
X202409Y251150D01*
D02*
G37*
G36*
X198956D02*
X196503D01*
X195780Y251055D01*
X195106Y250776D01*
X194527Y250332D01*
X194082Y249753D01*
X193803Y249078D01*
X193774Y248855D01*
X198956D01*
Y251150D01*
D02*
G37*
G36*
X187724Y250773D02*
X184574D01*
X183649Y250589D01*
X182864Y250065D01*
X182340Y249280D01*
X182156Y248355D01*
X182340Y247430D01*
X182864Y246645D01*
X183649Y246121D01*
X184574Y245937D01*
X187724D01*
X188649Y246121D01*
X189434Y246645D01*
X189958Y247430D01*
X190142Y248355D01*
X189958Y249280D01*
X189434Y250065D01*
X188649Y250589D01*
X187724Y250773D01*
D02*
G37*
G36*
X318000Y247131D02*
X304000D01*
X303376Y247007D01*
X302847Y246654D01*
X302493Y246124D01*
X302369Y245500D01*
X302493Y244876D01*
X302847Y244346D01*
X303376Y243993D01*
X304000Y243869D01*
X318000D01*
X318624Y243993D01*
X319153Y244346D01*
X319507Y244876D01*
X319631Y245500D01*
X319507Y246124D01*
X319153Y246654D01*
X318624Y247007D01*
X318000Y247131D01*
D02*
G37*
G36*
X374500Y241385D02*
X373624Y241269D01*
X372808Y240931D01*
X372107Y240393D01*
X371569Y239692D01*
X371231Y238876D01*
X371115Y238000D01*
X371231Y237124D01*
X371569Y236308D01*
X372107Y235607D01*
X372808Y235069D01*
X373624Y234731D01*
X374500Y234615D01*
X375376Y234731D01*
X376192Y235069D01*
X376893Y235607D01*
X377431Y236308D01*
X377769Y237124D01*
X377885Y238000D01*
X377769Y238876D01*
X377431Y239692D01*
X376893Y240393D01*
X376192Y240931D01*
X375376Y241269D01*
X374500Y241385D01*
D02*
G37*
G36*
X205139Y247855D02*
X193774D01*
X193803Y247632D01*
X194082Y246957D01*
X194527Y246378D01*
X195106Y245934D01*
X195780Y245655D01*
X196503Y245560D01*
X196858D01*
X196967Y245060D01*
X196340Y244641D01*
X195849Y243906D01*
X195776Y243540D01*
X198000D01*
Y242540D01*
X195776D01*
X195817Y242334D01*
X195521Y241834D01*
X192757D01*
X191938Y241671D01*
X191243Y241207D01*
X189486Y239450D01*
X189022Y238755D01*
X188859Y237936D01*
Y224757D01*
X189022Y223938D01*
X189486Y223243D01*
X191257Y221473D01*
X191951Y221008D01*
X192771Y220845D01*
X195538D01*
X195823Y220345D01*
X195776Y220114D01*
X198000D01*
X200224D01*
X200181Y220326D01*
X200472Y220736D01*
X200842D01*
X201133Y220326D01*
X201090Y220114D01*
X203314D01*
X205538D01*
X205465Y220480D01*
X204974Y221215D01*
X205044Y221770D01*
X205292Y222142D01*
X205455Y222961D01*
X205292Y223780D01*
X204828Y224475D01*
X204820Y224483D01*
X204685Y224661D01*
Y224994D01*
X205088Y225597D01*
X205229Y226307D01*
X205088Y227017D01*
X204685Y227620D01*
X204519Y227730D01*
Y228231D01*
X204685Y228342D01*
X205088Y228944D01*
X205229Y229654D01*
X205088Y230364D01*
X204685Y230966D01*
X204520Y231077D01*
Y231577D01*
X204685Y231687D01*
X205088Y232290D01*
X205229Y233000D01*
X205088Y233710D01*
X204685Y234313D01*
X204519Y234423D01*
Y234924D01*
X204685Y235034D01*
X205088Y235637D01*
X205229Y236347D01*
X205088Y237057D01*
X204685Y237660D01*
Y238084D01*
X204828Y238179D01*
X205292Y238874D01*
X205455Y239693D01*
X205292Y240512D01*
X205044Y240884D01*
X204974Y241439D01*
X205465Y242174D01*
X205538Y242540D01*
X203314D01*
Y243540D01*
X205538D01*
X205465Y243906D01*
X204974Y244641D01*
X204239Y245132D01*
X203521Y245274D01*
X203468Y245794D01*
X203807Y245934D01*
X204386Y246378D01*
X204830Y246957D01*
X205109Y247632D01*
X205139Y247855D01*
D02*
G37*
G36*
X200224Y219114D02*
X198500D01*
Y217438D01*
X198925Y217522D01*
X199660Y218013D01*
X200151Y218748D01*
X200224Y219114D01*
D02*
G37*
G36*
X205538D02*
X203814D01*
Y217438D01*
X204239Y217522D01*
X204974Y218013D01*
X205465Y218748D01*
X205538Y219114D01*
D02*
G37*
G36*
X202814D02*
X201090D01*
X201163Y218748D01*
X201654Y218013D01*
X202389Y217522D01*
X202814Y217438D01*
Y219114D01*
D02*
G37*
G36*
X197500D02*
X195776D01*
X195849Y218748D01*
X196340Y218013D01*
X197075Y217522D01*
X197500Y217438D01*
Y219114D01*
D02*
G37*
G36*
X355000Y214214D02*
X355000Y214214D01*
X349879D01*
X349879Y214214D01*
X349414Y214122D01*
X349020Y213858D01*
X349020Y213858D01*
X347752Y212590D01*
X347260Y212492D01*
X346736Y212142D01*
X346386Y211618D01*
X346263Y211000D01*
X346386Y210382D01*
X346736Y209858D01*
X347260Y209508D01*
X347878Y209385D01*
X348497Y209508D01*
X349021Y209858D01*
X349371Y210382D01*
X349469Y210873D01*
X350381Y211786D01*
X351748D01*
X351848Y211286D01*
X351381Y211093D01*
X350761Y210617D01*
X350286Y209997D01*
X349986Y209275D01*
X349950Y209000D01*
X352878D01*
Y208500D01*
X353378D01*
Y205572D01*
X353653Y205608D01*
X354376Y205907D01*
X354996Y206383D01*
X355440Y206961D01*
X355496Y206962D01*
X355940Y206624D01*
Y200381D01*
X355661Y199965D01*
X355563Y199473D01*
X349304Y193214D01*
X336535D01*
X336118Y193492D01*
X335500Y193615D01*
X334882Y193492D01*
X334465Y193214D01*
X277303D01*
X271362Y199155D01*
X271264Y199646D01*
X270914Y200170D01*
X270390Y200521D01*
X269772Y200644D01*
X269153Y200521D01*
X268630Y200170D01*
X268279Y199646D01*
X268156Y199028D01*
X268279Y198410D01*
X268630Y197886D01*
X269153Y197536D01*
X269645Y197438D01*
X275942Y191142D01*
X275942Y191142D01*
X276336Y190878D01*
X276800Y190786D01*
X276800Y190786D01*
X334465D01*
X334882Y190508D01*
X335500Y190385D01*
X336118Y190508D01*
X336535Y190786D01*
X349807D01*
X349807Y190786D01*
X350272Y190878D01*
X350665Y191142D01*
X357280Y197756D01*
X357772Y197854D01*
X358296Y198204D01*
X358646Y198728D01*
X358769Y199346D01*
X358646Y199965D01*
X358367Y200381D01*
Y210846D01*
X358367Y210846D01*
X358275Y211311D01*
X358012Y211705D01*
X358012Y211705D01*
X355858Y213858D01*
X355465Y214122D01*
X355000Y214214D01*
D02*
G37*
G36*
X202409Y216717D02*
X196503D01*
X195578Y216533D01*
X194793Y216009D01*
X194269Y215224D01*
X194085Y214299D01*
X194269Y213374D01*
X194793Y212589D01*
X195578Y212065D01*
X196503Y211881D01*
X202409D01*
X203334Y212065D01*
X204119Y212589D01*
X204643Y213374D01*
X204827Y214299D01*
X204643Y215224D01*
X204119Y216009D01*
X203334Y216533D01*
X202409Y216717D01*
D02*
G37*
G36*
X187724D02*
X184574D01*
X183649Y216533D01*
X182864Y216009D01*
X182340Y215224D01*
X182156Y214299D01*
X182340Y213374D01*
X182864Y212589D01*
X183649Y212065D01*
X184574Y211881D01*
X187724D01*
X188649Y212065D01*
X189434Y212589D01*
X189958Y213374D01*
X190142Y214299D01*
X189958Y215224D01*
X189434Y216009D01*
X188649Y216533D01*
X187724Y216717D01*
D02*
G37*
G36*
X323378Y211428D02*
Y209000D01*
X325807D01*
X325770Y209275D01*
X325471Y209997D01*
X324996Y210617D01*
X324376Y211093D01*
X323653Y211392D01*
X323378Y211428D01*
D02*
G37*
G36*
X322378D02*
X322104Y211392D01*
X321381Y211093D01*
X320761Y210617D01*
X320286Y209997D01*
X319986Y209275D01*
X319950Y209000D01*
X322378D01*
Y211428D01*
D02*
G37*
G36*
X325807Y208000D02*
X323378D01*
Y205572D01*
X323653Y205608D01*
X324376Y205907D01*
X324996Y206383D01*
X325471Y207003D01*
X325770Y207725D01*
X325807Y208000D01*
D02*
G37*
G36*
X352378Y208000D02*
X349950D01*
X349986Y207725D01*
X350286Y207003D01*
X350761Y206383D01*
X351381Y205907D01*
X352103Y205608D01*
X352378Y205572D01*
Y208000D01*
D02*
G37*
G36*
X322378Y208000D02*
X319950D01*
X319986Y207725D01*
X320286Y207003D01*
X320761Y206383D01*
X321381Y205907D01*
X322104Y205608D01*
X322378Y205572D01*
Y208000D01*
D02*
G37*
G36*
X342878Y207615D02*
X342260Y207492D01*
X341736Y207142D01*
X341386Y206618D01*
X341263Y206000D01*
X341386Y205382D01*
X341736Y204858D01*
X342260Y204508D01*
X342878Y204385D01*
X343497Y204508D01*
X344021Y204858D01*
X344371Y205382D01*
X344494Y206000D01*
X344371Y206618D01*
X344021Y207142D01*
X343497Y207492D01*
X342878Y207615D01*
D02*
G37*
G36*
X337878D02*
X337260Y207492D01*
X336736Y207142D01*
X336386Y206618D01*
X336263Y206000D01*
X336386Y205382D01*
X336736Y204858D01*
X337260Y204508D01*
X337878Y204385D01*
X338497Y204508D01*
X339021Y204858D01*
X339371Y205382D01*
X339494Y206000D01*
X339371Y206618D01*
X339021Y207142D01*
X338497Y207492D01*
X337878Y207615D01*
D02*
G37*
G36*
X332878D02*
X332260Y207492D01*
X331736Y207142D01*
X331386Y206618D01*
X331263Y206000D01*
X331386Y205382D01*
X331736Y204858D01*
X332260Y204508D01*
X332878Y204385D01*
X333497Y204508D01*
X334021Y204858D01*
X334371Y205382D01*
X334494Y206000D01*
X334371Y206618D01*
X334021Y207142D01*
X333497Y207492D01*
X332878Y207615D01*
D02*
G37*
G36*
X347878D02*
X347260Y207492D01*
X346736Y207142D01*
X346386Y206618D01*
X346263Y206000D01*
X346386Y205382D01*
X346736Y204858D01*
X346757Y204844D01*
Y200843D01*
X345535Y199622D01*
X341156D01*
X341142Y199642D01*
X340618Y199992D01*
X340000Y200115D01*
X339382Y199992D01*
X338858Y199642D01*
X338508Y199118D01*
X338385Y198500D01*
X338508Y197882D01*
X338858Y197358D01*
X339382Y197008D01*
X340000Y196885D01*
X340618Y197008D01*
X341142Y197358D01*
X341156Y197378D01*
X346000D01*
X346000Y197378D01*
X346429Y197464D01*
X346793Y197707D01*
X348672Y199585D01*
X348672Y199585D01*
X348915Y199949D01*
X349000Y200378D01*
X349000Y200378D01*
Y204844D01*
X349021Y204858D01*
X349371Y205382D01*
X349494Y206000D01*
X349371Y206618D01*
X349021Y207142D01*
X348497Y207492D01*
X347878Y207615D01*
D02*
G37*
G36*
X327878D02*
X327260Y207492D01*
X326736Y207142D01*
X326386Y206618D01*
X326263Y206000D01*
X326386Y205382D01*
X326736Y204858D01*
X326757Y204844D01*
Y202622D01*
X326757Y202622D01*
X326842Y202192D01*
X327085Y201829D01*
X330007Y198907D01*
X330371Y198664D01*
X330800Y198578D01*
X330800Y198578D01*
X331344D01*
X331358Y198558D01*
X331882Y198208D01*
X332500Y198085D01*
X333118Y198208D01*
X333642Y198558D01*
X333992Y199082D01*
X334115Y199700D01*
X333992Y200318D01*
X333642Y200842D01*
X333118Y201192D01*
X332500Y201315D01*
X331882Y201192D01*
X331358Y200842D01*
X330957Y201130D01*
X329000Y203086D01*
Y204844D01*
X329021Y204858D01*
X329371Y205382D01*
X329494Y206000D01*
X329371Y206618D01*
X329021Y207142D01*
X328497Y207492D01*
X327878Y207615D01*
D02*
G37*
G36*
X238000Y184722D02*
Y181500D01*
X241223D01*
X241159Y181981D01*
X240781Y182894D01*
X240179Y183679D01*
X239394Y184281D01*
X238480Y184659D01*
X238000Y184722D01*
D02*
G37*
G36*
X237000D02*
X236520Y184659D01*
X235606Y184281D01*
X234821Y183679D01*
X234219Y182894D01*
X233841Y181981D01*
X233777Y181500D01*
X237000D01*
Y184722D01*
D02*
G37*
G36*
X310653Y184385D02*
X309777Y184269D01*
X308961Y183931D01*
X308260Y183394D01*
X307722Y182692D01*
X307384Y181876D01*
X307269Y181000D01*
X307384Y180124D01*
X307722Y179308D01*
X308260Y178606D01*
X308961Y178069D01*
X309777Y177731D01*
X310653Y177615D01*
X311530Y177731D01*
X312346Y178069D01*
X313047Y178606D01*
X313585Y179308D01*
X313923Y180124D01*
X314038Y181000D01*
X313923Y181876D01*
X313585Y182692D01*
X313047Y183394D01*
X312346Y183931D01*
X311530Y184269D01*
X310653Y184385D01*
D02*
G37*
G36*
X270500D02*
X269624Y184269D01*
X268808Y183931D01*
X268107Y183394D01*
X267569Y182692D01*
X267231Y181876D01*
X267115Y181000D01*
X267231Y180124D01*
X267569Y179308D01*
X268107Y178606D01*
X268808Y178069D01*
X269624Y177731D01*
X270500Y177615D01*
X271376Y177731D01*
X272192Y178069D01*
X272894Y178606D01*
X273431Y179308D01*
X273769Y180124D01*
X273885Y181000D01*
X273769Y181876D01*
X273431Y182692D01*
X272894Y183394D01*
X272192Y183931D01*
X271376Y184269D01*
X270500Y184385D01*
D02*
G37*
G36*
X241223Y180500D02*
X238000D01*
Y177278D01*
X238480Y177341D01*
X239394Y177719D01*
X240179Y178321D01*
X240781Y179106D01*
X241159Y180019D01*
X241223Y180500D01*
D02*
G37*
G36*
X237000D02*
X233777D01*
X233841Y180019D01*
X234219Y179106D01*
X234821Y178321D01*
X235606Y177719D01*
X236520Y177341D01*
X237000Y177278D01*
Y180500D01*
D02*
G37*
%LPD*%
G36*
X196262Y237111D02*
X196226Y237057D01*
X196085Y236347D01*
X196226Y235637D01*
X196628Y235034D01*
X196795Y234924D01*
Y234423D01*
X196628Y234313D01*
X196226Y233710D01*
X196085Y233000D01*
X196226Y232290D01*
X196628Y231687D01*
X196794Y231577D01*
Y231077D01*
X196628Y230966D01*
X196226Y230364D01*
X196085Y229654D01*
X196226Y228944D01*
X196628Y228342D01*
X196795Y228231D01*
Y227730D01*
X196628Y227620D01*
X196226Y227017D01*
X196085Y226307D01*
X196220Y225628D01*
X196219Y225520D01*
X196009Y225128D01*
X193658D01*
X193141Y225644D01*
Y237049D01*
X193644Y237552D01*
X196026D01*
X196262Y237111D01*
D02*
G37*
D11*
X347878Y200378D02*
Y206000D01*
X346000Y198500D02*
X347878Y200378D01*
X340000Y198500D02*
X346000D01*
X330800Y199700D02*
X332500D01*
X327878Y202622D02*
X330800Y199700D01*
X327878Y202622D02*
Y206000D01*
D14*
X192771Y222987D02*
X203289D01*
X191000Y224757D02*
X192771Y222987D01*
X203289D02*
X203314Y222961D01*
X191000Y224757D02*
Y237936D01*
X192757Y239693D01*
X198000D01*
X203314D01*
D17*
X304000Y245500D02*
X318000D01*
D19*
X349879Y213000D02*
X355000D01*
X347878Y211000D02*
X349879Y213000D01*
X357154Y199346D02*
Y210846D01*
X355000Y213000D02*
X357154Y210846D01*
X335500Y192000D02*
X349807D01*
X276800D02*
X335500D01*
X349807D02*
X357154Y199346D01*
X269772Y199028D02*
X276800Y192000D01*
D38*
X322878Y208500D02*
D03*
X352878D02*
D03*
D49*
X357000Y475500D02*
D03*
D50*
X260000Y457000D02*
D03*
Y447000D02*
D03*
Y437000D02*
D03*
Y427000D02*
D03*
Y417000D02*
D03*
Y407000D02*
D03*
Y397000D02*
D03*
Y387000D02*
D03*
Y377000D02*
D03*
Y367000D02*
D03*
Y357000D02*
D03*
Y347000D02*
D03*
Y337000D02*
D03*
Y327000D02*
D03*
Y317000D02*
D03*
Y307000D02*
D03*
Y297000D02*
D03*
Y287000D02*
D03*
Y277000D02*
D03*
Y267000D02*
D03*
X320000Y457000D02*
D03*
Y447000D02*
D03*
Y437000D02*
D03*
Y427000D02*
D03*
Y417000D02*
D03*
Y407000D02*
D03*
Y397000D02*
D03*
Y387000D02*
D03*
Y377000D02*
D03*
Y367000D02*
D03*
Y357000D02*
D03*
Y347000D02*
D03*
Y337000D02*
D03*
Y327000D02*
D03*
Y317000D02*
D03*
Y307000D02*
D03*
Y297000D02*
D03*
Y287000D02*
D03*
Y277000D02*
D03*
D51*
Y267000D02*
D03*
D52*
X270500Y181000D02*
D03*
X237500D02*
D03*
X374500Y238000D02*
D03*
X310653Y181000D02*
D03*
D53*
X186149Y248355D02*
D03*
Y214299D02*
D03*
D54*
X199456D02*
D03*
Y248355D02*
D03*
D55*
X198000Y243040D02*
D03*
Y239693D02*
D03*
Y236347D02*
D03*
Y233000D02*
D03*
Y229654D02*
D03*
Y226307D02*
D03*
Y222961D02*
D03*
Y219614D02*
D03*
X203314D02*
D03*
Y222961D02*
D03*
Y226307D02*
D03*
Y229654D02*
D03*
Y233000D02*
D03*
Y236347D02*
D03*
Y239693D02*
D03*
Y243040D02*
D03*
D56*
X259500Y247500D02*
D03*
X299500Y237500D02*
D03*
X332500Y199700D02*
D03*
X327878Y211000D02*
D03*
X337878D02*
D03*
X342878D02*
D03*
Y206000D02*
D03*
X337878D02*
D03*
X332878D02*
D03*
X327878D02*
D03*
X347878Y211000D02*
D03*
Y206000D02*
D03*
X177000Y205500D02*
D03*
Y215500D02*
D03*
Y225500D02*
D03*
Y235500D02*
D03*
Y245500D02*
D03*
Y255500D02*
D03*
X316000Y200000D02*
D03*
X306000D02*
D03*
X291000Y195000D02*
D03*
X281000D02*
D03*
X231000Y190000D02*
D03*
X241000D02*
D03*
X250000D02*
D03*
X309500Y412500D02*
D03*
X299500D02*
D03*
X289500D02*
D03*
X279500D02*
D03*
X269500D02*
D03*
X314500Y282500D02*
D03*
X299500D02*
D03*
X289500D02*
D03*
X279500D02*
D03*
X269500D02*
D03*
X249500D02*
D03*
X239500D02*
D03*
X229500D02*
D03*
X219500D02*
D03*
X209500D02*
D03*
Y247500D02*
D03*
X219500D02*
D03*
X229500D02*
D03*
X239500D02*
D03*
X249500D02*
D03*
X269500D02*
D03*
Y237500D02*
D03*
X259500D02*
D03*
X249500D02*
D03*
X239500D02*
D03*
Y227500D02*
D03*
X249500D02*
D03*
X259500D02*
D03*
X279500D02*
D03*
X289500D02*
D03*
X299500D02*
D03*
X329500D02*
D03*
X319500D02*
D03*
X309500D02*
D03*
Y237500D02*
D03*
X279500D02*
D03*
X289500D02*
D03*
Y247500D02*
D03*
X279500D02*
D03*
X266000Y185500D02*
D03*
X298000Y200500D02*
D03*
X229500Y213500D02*
D03*
Y207000D02*
D03*
X236000Y201500D02*
D03*
X262000Y202000D02*
D03*
X272000Y201500D02*
D03*
X332500Y175500D02*
D03*
X317500Y182000D02*
D03*
X316000Y212500D02*
D03*
X286900Y214860D02*
D03*
X281000Y219500D02*
D03*
X286000D02*
D03*
X334500Y196000D02*
D03*
X340000Y198500D02*
D03*
X335500Y192000D02*
D03*
X292500Y210500D02*
D03*
X301000Y219500D02*
D03*
X296000D02*
D03*
X291000D02*
D03*
X251200Y218500D02*
D03*
X276000Y219500D02*
D03*
X266000Y218500D02*
D03*
X261000D02*
D03*
X269772Y199028D02*
D03*
X339713Y186165D02*
D03*
X344044D02*
D03*
X339713Y181835D02*
D03*
X344044D02*
D03*
X242100Y200100D02*
D03*
X265900Y199200D02*
D03*
X256000Y218500D02*
D03*
X256300Y210500D02*
D03*
X241500Y218000D02*
D03*
X276400Y210500D02*
D03*
X286500Y179500D02*
D03*
X296500Y180000D02*
D03*
X383000Y209000D02*
D03*
X352500Y182900D02*
D03*
X349000Y195500D02*
D03*
X345500Y202500D02*
D03*
X357154Y199346D02*
D03*
X304000Y245500D02*
D03*
X318000D02*
D03*
X286900Y205860D02*
D03*
Y208860D02*
D03*
Y211860D02*
D03*
X250900Y214900D02*
D03*
Y211900D02*
D03*
Y208900D02*
D03*
Y205900D02*
D03*
M02*
