M48
;Layer_Color=9474304
;FILE_FORMAT=2:5
INCH,TZ
;TYPE=PLATED
T1F00S00C0.01181
T2F00S00C0.01575
T4F00S00C0.02756
T5F00S00C0.03543
T6F00S00C0.03937
%
T01
X317500Y182000
X316000Y200000
Y212500
X327878Y211000
Y206000
X332878
X337878
Y211000
X342878
Y206000
X347878
Y211000
X345500Y202500
X340000Y198500
X334500Y196000
X335500Y192000
X339713Y186165
X344044
Y181835
X339713
X332500Y175500
Y199700
X349000Y195500
X357154Y199346
X352500Y182900
X383000Y209000
X329500Y227500
X319500
X318000Y245500
X314500Y282500
X299500
X289500
X279500
X269500
X249500
X239500
X229500
X219500
X209500
Y247500
X219500
X229500
X239500
X249500
X259500
X269500
Y237500
X259500
X249500
X239500
Y227500
X249500
X259500
X261000Y218500
X266000
X256000
X251200
X250900Y214900
Y211900
Y208900
Y205900
X256300Y210500
X262000Y202000
X265900Y199200
X269772Y199028
X272000Y201500
X276400Y210500
X276000Y219500
X281000
X286000
X291000
X296000
X301000
X299500Y227500
Y237500
X309500
Y227500
X289500
X279500
Y237500
X289500
Y247500
X279500
X304000Y245500
X292500Y210500
X286900Y211860
Y214860
Y208860
Y205860
X291000Y195000
X281000
X286500Y179500
X296500Y180000
X298000Y200500
X306000Y200000
X266000Y185500
X250000Y190000
X241000
X231000
X236000Y201500
X242100Y200100
X241500Y218000
X229500Y213500
Y207000
X177000Y205500
Y215500
Y225500
Y235500
Y245500
Y255500
X269500Y412500
X279500
X289500
X299500
X309500
T02
X198000Y219614
Y222961
Y226307
Y229654
Y233000
Y236347
Y239693
Y243040
X203314
Y239693
Y236347
Y233000
Y229654
Y226307
Y222961
Y219614
T04
X322878Y208500
X352878
T05
X320000Y267000
Y277000
Y287000
Y297000
Y307000
X374500Y238000
X310653Y181000
X270500
X237500
X260000Y267000
Y277000
Y287000
Y297000
Y307000
Y317000
Y327000
Y337000
Y347000
Y357000
Y367000
Y377000
Y387000
Y397000
Y407000
Y417000
Y427000
Y437000
Y447000
Y457000
X320000
Y447000
Y437000
Y427000
Y417000
Y407000
Y397000
Y387000
Y377000
Y367000
Y357000
Y347000
Y337000
Y327000
Y317000
T06
X357000Y475500
M30
