G04*
G04 #@! TF.GenerationSoftware,Altium Limited,Altium Designer,19.1.8 (144)*
G04*
G04 Layer_Physical_Order=2*
G04 Layer_Color=16711680*
%FSLAX25Y25*%
%MOIN*%
G70*
G01*
G75*
%ADD10C,0.01000*%
%ADD17C,0.02000*%
%ADD20C,0.01181*%
%ADD47C,0.03000*%
%ADD49O,0.09843X0.05906*%
%ADD50R,0.09843X0.05906*%
%ADD51R,0.03780X0.03780*%
%ADD52C,0.03780*%
%ADD53C,0.05512*%
%ADD54O,0.06693X0.03543*%
%ADD55O,0.09449X0.03543*%
%ADD56O,0.02559X0.02441*%
%ADD57C,0.01968*%
G36*
X408879Y157122D02*
X171122D01*
Y488878D01*
X408879Y488878D01*
Y157122D01*
D02*
G37*
%LPC*%
G36*
X265521Y445553D02*
X254479D01*
Y438447D01*
X265521D01*
Y445553D01*
D02*
G37*
G36*
X321969Y445583D02*
X318032D01*
X317104Y445461D01*
X316240Y445103D01*
X315498Y444534D01*
X314928Y443792D01*
X314570Y442928D01*
X314448Y442000D01*
X314570Y441073D01*
X314928Y440208D01*
X315498Y439466D01*
X316240Y438897D01*
X317104Y438539D01*
X318032Y438417D01*
X321969D01*
X322896Y438539D01*
X323760Y438897D01*
X324502Y439466D01*
X325072Y440208D01*
X325430Y441073D01*
X325552Y442000D01*
X325430Y442928D01*
X325072Y443792D01*
X324502Y444534D01*
X323760Y445103D01*
X322896Y445461D01*
X321969Y445583D01*
D02*
G37*
G36*
Y435583D02*
X318032D01*
X317104Y435461D01*
X316240Y435103D01*
X315498Y434534D01*
X314928Y433792D01*
X314570Y432928D01*
X314448Y432000D01*
X314570Y431073D01*
X314928Y430208D01*
X315498Y429466D01*
X316240Y428897D01*
X317104Y428539D01*
X318032Y428417D01*
X321969D01*
X322896Y428539D01*
X323760Y428897D01*
X324502Y429466D01*
X325072Y430208D01*
X325430Y431073D01*
X325552Y432000D01*
X325430Y432928D01*
X325072Y433792D01*
X324502Y434534D01*
X323760Y435103D01*
X322896Y435461D01*
X321969Y435583D01*
D02*
G37*
G36*
X261968D02*
X258032D01*
X257104Y435461D01*
X256240Y435103D01*
X255498Y434534D01*
X254928Y433792D01*
X254570Y432928D01*
X254448Y432000D01*
X254570Y431073D01*
X254928Y430208D01*
X255498Y429466D01*
X256240Y428897D01*
X257104Y428539D01*
X258032Y428417D01*
X261968D01*
X262896Y428539D01*
X263760Y428897D01*
X264502Y429466D01*
X265072Y430208D01*
X265430Y431073D01*
X265552Y432000D01*
X265430Y432928D01*
X265072Y433792D01*
X264502Y434534D01*
X263760Y435103D01*
X262896Y435461D01*
X261968Y435583D01*
D02*
G37*
G36*
X321969Y425583D02*
X318032D01*
X317104Y425461D01*
X316240Y425103D01*
X315498Y424534D01*
X314928Y423792D01*
X314570Y422928D01*
X314448Y422000D01*
X314570Y421072D01*
X314928Y420208D01*
X315498Y419466D01*
X316240Y418897D01*
X317104Y418539D01*
X318032Y418417D01*
X321969D01*
X322896Y418539D01*
X323760Y418897D01*
X324502Y419466D01*
X325072Y420208D01*
X325430Y421072D01*
X325552Y422000D01*
X325430Y422928D01*
X325072Y423792D01*
X324502Y424534D01*
X323760Y425103D01*
X322896Y425461D01*
X321969Y425583D01*
D02*
G37*
G36*
X261968D02*
X258032D01*
X257104Y425461D01*
X256240Y425103D01*
X255498Y424534D01*
X254928Y423792D01*
X254570Y422928D01*
X254448Y422000D01*
X254570Y421072D01*
X254928Y420208D01*
X255498Y419466D01*
X256240Y418897D01*
X257104Y418539D01*
X258032Y418417D01*
X261968D01*
X262896Y418539D01*
X263760Y418897D01*
X264502Y419466D01*
X265072Y420208D01*
X265430Y421072D01*
X265552Y422000D01*
X265430Y422928D01*
X265072Y423792D01*
X264502Y424534D01*
X263760Y425103D01*
X262896Y425461D01*
X261968Y425583D01*
D02*
G37*
G36*
X321969Y415583D02*
X318032D01*
X317104Y415461D01*
X316240Y415103D01*
X315498Y414534D01*
X314928Y413792D01*
X314570Y412927D01*
X314448Y412000D01*
X314570Y411072D01*
X314928Y410208D01*
X315498Y409466D01*
X316240Y408897D01*
X317104Y408539D01*
X318032Y408417D01*
X321969D01*
X322896Y408539D01*
X323760Y408897D01*
X324502Y409466D01*
X325072Y410208D01*
X325430Y411072D01*
X325552Y412000D01*
X325430Y412927D01*
X325072Y413792D01*
X324502Y414534D01*
X323760Y415103D01*
X322896Y415461D01*
X321969Y415583D01*
D02*
G37*
G36*
X261968D02*
X258032D01*
X257104Y415461D01*
X256240Y415103D01*
X255498Y414534D01*
X254928Y413792D01*
X254570Y412927D01*
X254448Y412000D01*
X254570Y411072D01*
X254928Y410208D01*
X255498Y409466D01*
X256240Y408897D01*
X257104Y408539D01*
X258032Y408417D01*
X261968D01*
X262896Y408539D01*
X263760Y408897D01*
X264502Y409466D01*
X265072Y410208D01*
X265430Y411072D01*
X265552Y412000D01*
X265430Y412927D01*
X265072Y413792D01*
X264502Y414534D01*
X263760Y415103D01*
X262896Y415461D01*
X261968Y415583D01*
D02*
G37*
G36*
X321969Y405583D02*
X318032D01*
X317104Y405461D01*
X316240Y405103D01*
X315498Y404534D01*
X314928Y403792D01*
X314570Y402927D01*
X314448Y402000D01*
X314570Y401073D01*
X314928Y400208D01*
X315498Y399466D01*
X316240Y398897D01*
X317104Y398539D01*
X318032Y398417D01*
X321969D01*
X322896Y398539D01*
X323760Y398897D01*
X324502Y399466D01*
X325072Y400208D01*
X325430Y401073D01*
X325552Y402000D01*
X325430Y402927D01*
X325072Y403792D01*
X324502Y404534D01*
X323760Y405103D01*
X322896Y405461D01*
X321969Y405583D01*
D02*
G37*
G36*
X261968D02*
X258032D01*
X257104Y405461D01*
X256240Y405103D01*
X255498Y404534D01*
X254928Y403792D01*
X254570Y402927D01*
X254448Y402000D01*
X254570Y401073D01*
X254928Y400208D01*
X255498Y399466D01*
X256240Y398897D01*
X257104Y398539D01*
X258032Y398417D01*
X261968D01*
X262896Y398539D01*
X263760Y398897D01*
X264502Y399466D01*
X265072Y400208D01*
X265430Y401073D01*
X265552Y402000D01*
X265430Y402927D01*
X265072Y403792D01*
X264502Y404534D01*
X263760Y405103D01*
X262896Y405461D01*
X261968Y405583D01*
D02*
G37*
G36*
X321969Y395583D02*
X318032D01*
X317104Y395461D01*
X316240Y395103D01*
X315498Y394534D01*
X314928Y393792D01*
X314570Y392927D01*
X314448Y392000D01*
X314570Y391073D01*
X314928Y390208D01*
X315498Y389466D01*
X316240Y388897D01*
X317104Y388539D01*
X318032Y388417D01*
X321969D01*
X322896Y388539D01*
X323760Y388897D01*
X324502Y389466D01*
X325072Y390208D01*
X325430Y391073D01*
X325552Y392000D01*
X325430Y392927D01*
X325072Y393792D01*
X324502Y394534D01*
X323760Y395103D01*
X322896Y395461D01*
X321969Y395583D01*
D02*
G37*
G36*
X261968D02*
X258032D01*
X257104Y395461D01*
X256240Y395103D01*
X255498Y394534D01*
X254928Y393792D01*
X254570Y392927D01*
X254448Y392000D01*
X254570Y391073D01*
X254928Y390208D01*
X255498Y389466D01*
X256240Y388897D01*
X257104Y388539D01*
X258032Y388417D01*
X261968D01*
X262896Y388539D01*
X263760Y388897D01*
X264502Y389466D01*
X265072Y390208D01*
X265430Y391073D01*
X265552Y392000D01*
X265430Y392927D01*
X265072Y393792D01*
X264502Y394534D01*
X263760Y395103D01*
X262896Y395461D01*
X261968Y395583D01*
D02*
G37*
G36*
X321969Y385583D02*
X318032D01*
X317104Y385461D01*
X316240Y385103D01*
X315498Y384534D01*
X314928Y383792D01*
X314570Y382927D01*
X314448Y382000D01*
X314570Y381073D01*
X314928Y380208D01*
X315498Y379466D01*
X316240Y378897D01*
X317104Y378539D01*
X318032Y378417D01*
X321969D01*
X322896Y378539D01*
X323760Y378897D01*
X324502Y379466D01*
X325072Y380208D01*
X325430Y381073D01*
X325552Y382000D01*
X325430Y382927D01*
X325072Y383792D01*
X324502Y384534D01*
X323760Y385103D01*
X322896Y385461D01*
X321969Y385583D01*
D02*
G37*
G36*
X261968D02*
X258032D01*
X257104Y385461D01*
X256240Y385103D01*
X255498Y384534D01*
X254928Y383792D01*
X254570Y382927D01*
X254448Y382000D01*
X254570Y381073D01*
X254928Y380208D01*
X255498Y379466D01*
X256240Y378897D01*
X257104Y378539D01*
X258032Y378417D01*
X261968D01*
X262896Y378539D01*
X263760Y378897D01*
X264502Y379466D01*
X265072Y380208D01*
X265430Y381073D01*
X265552Y382000D01*
X265430Y382927D01*
X265072Y383792D01*
X264502Y384534D01*
X263760Y385103D01*
X262896Y385461D01*
X261968Y385583D01*
D02*
G37*
G36*
X321969Y375583D02*
X318032D01*
X317104Y375461D01*
X316240Y375103D01*
X315498Y374534D01*
X314928Y373792D01*
X314570Y372927D01*
X314448Y372000D01*
X314570Y371073D01*
X314928Y370208D01*
X315498Y369466D01*
X316240Y368897D01*
X317104Y368539D01*
X318032Y368417D01*
X321969D01*
X322896Y368539D01*
X323760Y368897D01*
X324502Y369466D01*
X325072Y370208D01*
X325430Y371073D01*
X325552Y372000D01*
X325430Y372927D01*
X325072Y373792D01*
X324502Y374534D01*
X323760Y375103D01*
X322896Y375461D01*
X321969Y375583D01*
D02*
G37*
G36*
X261968D02*
X258032D01*
X257104Y375461D01*
X256240Y375103D01*
X255498Y374534D01*
X254928Y373792D01*
X254570Y372927D01*
X254448Y372000D01*
X254570Y371073D01*
X254928Y370208D01*
X255498Y369466D01*
X256240Y368897D01*
X257104Y368539D01*
X258032Y368417D01*
X261968D01*
X262896Y368539D01*
X263760Y368897D01*
X264502Y369466D01*
X265072Y370208D01*
X265430Y371073D01*
X265552Y372000D01*
X265430Y372927D01*
X265072Y373792D01*
X264502Y374534D01*
X263760Y375103D01*
X262896Y375461D01*
X261968Y375583D01*
D02*
G37*
G36*
X321969Y365583D02*
X318032D01*
X317104Y365461D01*
X316240Y365103D01*
X315498Y364534D01*
X314928Y363792D01*
X314570Y362927D01*
X314448Y362000D01*
X314570Y361073D01*
X314928Y360208D01*
X315498Y359466D01*
X316240Y358897D01*
X317104Y358539D01*
X318032Y358417D01*
X321969D01*
X322896Y358539D01*
X323760Y358897D01*
X324502Y359466D01*
X325072Y360208D01*
X325430Y361073D01*
X325552Y362000D01*
X325430Y362927D01*
X325072Y363792D01*
X324502Y364534D01*
X323760Y365103D01*
X322896Y365461D01*
X321969Y365583D01*
D02*
G37*
G36*
X261968D02*
X258032D01*
X257104Y365461D01*
X256240Y365103D01*
X255498Y364534D01*
X254928Y363792D01*
X254570Y362927D01*
X254448Y362000D01*
X254570Y361073D01*
X254928Y360208D01*
X255498Y359466D01*
X256240Y358897D01*
X257104Y358539D01*
X258032Y358417D01*
X261968D01*
X262896Y358539D01*
X263760Y358897D01*
X264502Y359466D01*
X265072Y360208D01*
X265430Y361073D01*
X265552Y362000D01*
X265430Y362927D01*
X265072Y363792D01*
X264502Y364534D01*
X263760Y365103D01*
X262896Y365461D01*
X261968Y365583D01*
D02*
G37*
G36*
X321969Y355583D02*
X318032D01*
X317104Y355461D01*
X316240Y355103D01*
X315498Y354534D01*
X314928Y353792D01*
X314570Y352927D01*
X314448Y352000D01*
X314570Y351073D01*
X314928Y350208D01*
X315498Y349466D01*
X316240Y348897D01*
X317104Y348539D01*
X318032Y348417D01*
X321969D01*
X322896Y348539D01*
X323760Y348897D01*
X324502Y349466D01*
X325072Y350208D01*
X325430Y351073D01*
X325552Y352000D01*
X325430Y352927D01*
X325072Y353792D01*
X324502Y354534D01*
X323760Y355103D01*
X322896Y355461D01*
X321969Y355583D01*
D02*
G37*
G36*
X261968D02*
X258032D01*
X257104Y355461D01*
X256240Y355103D01*
X255498Y354534D01*
X254928Y353792D01*
X254570Y352927D01*
X254448Y352000D01*
X254570Y351073D01*
X254928Y350208D01*
X255498Y349466D01*
X256240Y348897D01*
X257104Y348539D01*
X258032Y348417D01*
X261968D01*
X262896Y348539D01*
X263760Y348897D01*
X264502Y349466D01*
X265072Y350208D01*
X265430Y351073D01*
X265552Y352000D01*
X265430Y352927D01*
X265072Y353792D01*
X264502Y354534D01*
X263760Y355103D01*
X262896Y355461D01*
X261968Y355583D01*
D02*
G37*
G36*
X321969Y345583D02*
X318032D01*
X317104Y345461D01*
X316240Y345103D01*
X315498Y344534D01*
X314928Y343792D01*
X314570Y342927D01*
X314448Y342000D01*
X314570Y341073D01*
X314928Y340208D01*
X315498Y339466D01*
X316240Y338897D01*
X317104Y338539D01*
X318032Y338417D01*
X321969D01*
X322896Y338539D01*
X323760Y338897D01*
X324502Y339466D01*
X325072Y340208D01*
X325430Y341073D01*
X325552Y342000D01*
X325430Y342927D01*
X325072Y343792D01*
X324502Y344534D01*
X323760Y345103D01*
X322896Y345461D01*
X321969Y345583D01*
D02*
G37*
G36*
X261968D02*
X258032D01*
X257104Y345461D01*
X256240Y345103D01*
X255498Y344534D01*
X254928Y343792D01*
X254570Y342927D01*
X254448Y342000D01*
X254570Y341073D01*
X254928Y340208D01*
X255498Y339466D01*
X256240Y338897D01*
X257104Y338539D01*
X258032Y338417D01*
X261968D01*
X262896Y338539D01*
X263760Y338897D01*
X264502Y339466D01*
X265072Y340208D01*
X265430Y341073D01*
X265552Y342000D01*
X265430Y342927D01*
X265072Y343792D01*
X264502Y344534D01*
X263760Y345103D01*
X262896Y345461D01*
X261968Y345583D01*
D02*
G37*
G36*
X321969Y335583D02*
X318032D01*
X317104Y335461D01*
X316240Y335103D01*
X315498Y334534D01*
X314928Y333792D01*
X314570Y332927D01*
X314448Y332000D01*
X314570Y331073D01*
X314928Y330208D01*
X315498Y329466D01*
X316240Y328897D01*
X317104Y328539D01*
X318032Y328417D01*
X321969D01*
X322896Y328539D01*
X323760Y328897D01*
X324502Y329466D01*
X325072Y330208D01*
X325430Y331073D01*
X325552Y332000D01*
X325430Y332927D01*
X325072Y333792D01*
X324502Y334534D01*
X323760Y335103D01*
X322896Y335461D01*
X321969Y335583D01*
D02*
G37*
G36*
X261968D02*
X258032D01*
X257104Y335461D01*
X256240Y335103D01*
X255498Y334534D01*
X254928Y333792D01*
X254570Y332927D01*
X254448Y332000D01*
X254570Y331073D01*
X254928Y330208D01*
X255498Y329466D01*
X256240Y328897D01*
X257104Y328539D01*
X258032Y328417D01*
X261968D01*
X262896Y328539D01*
X263760Y328897D01*
X264502Y329466D01*
X265072Y330208D01*
X265430Y331073D01*
X265552Y332000D01*
X265430Y332927D01*
X265072Y333792D01*
X264502Y334534D01*
X263760Y335103D01*
X262896Y335461D01*
X261968Y335583D01*
D02*
G37*
G36*
X321969Y325583D02*
X318032D01*
X317104Y325461D01*
X316240Y325103D01*
X315498Y324534D01*
X314928Y323792D01*
X314570Y322927D01*
X314448Y322000D01*
X314570Y321073D01*
X314928Y320208D01*
X315498Y319466D01*
X316240Y318897D01*
X317104Y318539D01*
X318032Y318417D01*
X321969D01*
X322896Y318539D01*
X323760Y318897D01*
X324502Y319466D01*
X325072Y320208D01*
X325430Y321073D01*
X325552Y322000D01*
X325430Y322927D01*
X325072Y323792D01*
X324502Y324534D01*
X323760Y325103D01*
X322896Y325461D01*
X321969Y325583D01*
D02*
G37*
G36*
X261968D02*
X258032D01*
X257104Y325461D01*
X256240Y325103D01*
X255498Y324534D01*
X254928Y323792D01*
X254570Y322927D01*
X254448Y322000D01*
X254570Y321073D01*
X254928Y320208D01*
X255498Y319466D01*
X256240Y318897D01*
X257104Y318539D01*
X258032Y318417D01*
X261968D01*
X262896Y318539D01*
X263760Y318897D01*
X264502Y319466D01*
X265072Y320208D01*
X265430Y321073D01*
X265552Y322000D01*
X265430Y322927D01*
X265072Y323792D01*
X264502Y324534D01*
X263760Y325103D01*
X262896Y325461D01*
X261968Y325583D01*
D02*
G37*
G36*
X321969Y315583D02*
X318032D01*
X317104Y315461D01*
X316240Y315103D01*
X315498Y314534D01*
X314928Y313792D01*
X314570Y312927D01*
X314448Y312000D01*
X314570Y311073D01*
X314928Y310208D01*
X315498Y309466D01*
X316240Y308897D01*
X317104Y308539D01*
X318032Y308417D01*
X321969D01*
X322896Y308539D01*
X323760Y308897D01*
X324502Y309466D01*
X325072Y310208D01*
X325430Y311073D01*
X325552Y312000D01*
X325430Y312927D01*
X325072Y313792D01*
X324502Y314534D01*
X323760Y315103D01*
X322896Y315461D01*
X321969Y315583D01*
D02*
G37*
G36*
X261968D02*
X258032D01*
X257104Y315461D01*
X256240Y315103D01*
X255498Y314534D01*
X254928Y313792D01*
X254570Y312927D01*
X254448Y312000D01*
X254570Y311073D01*
X254928Y310208D01*
X255498Y309466D01*
X256240Y308897D01*
X257104Y308539D01*
X258032Y308417D01*
X261968D01*
X262896Y308539D01*
X263760Y308897D01*
X264502Y309466D01*
X265072Y310208D01*
X265430Y311073D01*
X265552Y312000D01*
X265430Y312927D01*
X265072Y313792D01*
X264502Y314534D01*
X263760Y315103D01*
X262896Y315461D01*
X261968Y315583D01*
D02*
G37*
G36*
X321969Y305583D02*
X318032D01*
X317104Y305461D01*
X316240Y305103D01*
X315498Y304534D01*
X314928Y303792D01*
X314570Y302927D01*
X314448Y302000D01*
X314570Y301073D01*
X314928Y300208D01*
X315498Y299466D01*
X316240Y298897D01*
X317104Y298539D01*
X318032Y298417D01*
X321969D01*
X322896Y298539D01*
X323760Y298897D01*
X324502Y299466D01*
X325072Y300208D01*
X325430Y301073D01*
X325552Y302000D01*
X325430Y302927D01*
X325072Y303792D01*
X324502Y304534D01*
X323760Y305103D01*
X322896Y305461D01*
X321969Y305583D01*
D02*
G37*
G36*
X261968D02*
X258032D01*
X257104Y305461D01*
X256240Y305103D01*
X255498Y304534D01*
X254928Y303792D01*
X254570Y302927D01*
X254448Y302000D01*
X254570Y301073D01*
X254928Y300208D01*
X255498Y299466D01*
X256240Y298897D01*
X257104Y298539D01*
X258032Y298417D01*
X261968D01*
X262896Y298539D01*
X263760Y298897D01*
X264502Y299466D01*
X265072Y300208D01*
X265430Y301073D01*
X265552Y302000D01*
X265430Y302927D01*
X265072Y303792D01*
X264502Y304534D01*
X263760Y305103D01*
X262896Y305461D01*
X261968Y305583D01*
D02*
G37*
G36*
X321969Y295583D02*
X318032D01*
X317104Y295461D01*
X316240Y295103D01*
X315498Y294534D01*
X314928Y293792D01*
X314570Y292927D01*
X314448Y292000D01*
X314570Y291073D01*
X314928Y290208D01*
X315498Y289466D01*
X316240Y288897D01*
X317104Y288539D01*
X318032Y288417D01*
X321969D01*
X322896Y288539D01*
X323760Y288897D01*
X324502Y289466D01*
X325072Y290208D01*
X325430Y291073D01*
X325552Y292000D01*
X325430Y292927D01*
X325072Y293792D01*
X324502Y294534D01*
X323760Y295103D01*
X322896Y295461D01*
X321969Y295583D01*
D02*
G37*
G36*
X261968D02*
X258032D01*
X257104Y295461D01*
X256240Y295103D01*
X255498Y294534D01*
X254928Y293792D01*
X254570Y292927D01*
X254448Y292000D01*
X254570Y291073D01*
X254928Y290208D01*
X255498Y289466D01*
X256240Y288897D01*
X257104Y288539D01*
X258032Y288417D01*
X261968D01*
X262896Y288539D01*
X263760Y288897D01*
X264502Y289466D01*
X265072Y290208D01*
X265430Y291073D01*
X265552Y292000D01*
X265430Y292927D01*
X265072Y293792D01*
X264502Y294534D01*
X263760Y295103D01*
X262896Y295461D01*
X261968Y295583D01*
D02*
G37*
G36*
X321969Y285583D02*
X318032D01*
X317104Y285461D01*
X316240Y285103D01*
X315498Y284534D01*
X314928Y283792D01*
X314570Y282927D01*
X314448Y282000D01*
X314570Y281073D01*
X314928Y280208D01*
X315498Y279466D01*
X316240Y278897D01*
X317104Y278539D01*
X318032Y278417D01*
X321969D01*
X322896Y278539D01*
X323760Y278897D01*
X324502Y279466D01*
X325072Y280208D01*
X325430Y281073D01*
X325552Y282000D01*
X325430Y282927D01*
X325072Y283792D01*
X324502Y284534D01*
X323760Y285103D01*
X322896Y285461D01*
X321969Y285583D01*
D02*
G37*
G36*
X261968D02*
X258032D01*
X257104Y285461D01*
X256240Y285103D01*
X255498Y284534D01*
X254928Y283792D01*
X254570Y282927D01*
X254448Y282000D01*
X254570Y281073D01*
X254928Y280208D01*
X255498Y279466D01*
X256240Y278897D01*
X257104Y278539D01*
X258032Y278417D01*
X261968D01*
X262896Y278539D01*
X263760Y278897D01*
X264502Y279466D01*
X265072Y280208D01*
X265430Y281073D01*
X265552Y282000D01*
X265430Y282927D01*
X265072Y283792D01*
X264502Y284534D01*
X263760Y285103D01*
X262896Y285461D01*
X261968Y285583D01*
D02*
G37*
G36*
X321969Y275583D02*
X318032D01*
X317104Y275461D01*
X316240Y275103D01*
X315498Y274534D01*
X314928Y273792D01*
X314570Y272927D01*
X314448Y272000D01*
X314570Y271073D01*
X314928Y270208D01*
X315498Y269466D01*
X316240Y268897D01*
X317104Y268539D01*
X318032Y268417D01*
X321969D01*
X322896Y268539D01*
X323760Y268897D01*
X324502Y269466D01*
X325072Y270208D01*
X325430Y271073D01*
X325552Y272000D01*
X325430Y272927D01*
X325072Y273792D01*
X324502Y274534D01*
X323760Y275103D01*
X322896Y275461D01*
X321969Y275583D01*
D02*
G37*
G36*
X261968D02*
X258032D01*
X257104Y275461D01*
X256240Y275103D01*
X255498Y274534D01*
X254928Y273792D01*
X254570Y272927D01*
X254448Y272000D01*
X254570Y271073D01*
X254928Y270208D01*
X255498Y269466D01*
X256240Y268897D01*
X257104Y268539D01*
X258032Y268417D01*
X261968D01*
X262896Y268539D01*
X263760Y268897D01*
X264502Y269466D01*
X265072Y270208D01*
X265430Y271073D01*
X265552Y272000D01*
X265430Y272927D01*
X265072Y273792D01*
X264502Y274534D01*
X263760Y275103D01*
X262896Y275461D01*
X261968Y275583D01*
D02*
G37*
G36*
X321969Y265583D02*
X318032D01*
X317104Y265461D01*
X316240Y265103D01*
X315498Y264534D01*
X314928Y263792D01*
X314570Y262927D01*
X314448Y262000D01*
X314570Y261073D01*
X314928Y260208D01*
X315498Y259466D01*
X316240Y258897D01*
X317104Y258539D01*
X318032Y258417D01*
X321969D01*
X322896Y258539D01*
X323760Y258897D01*
X324502Y259466D01*
X325072Y260208D01*
X325430Y261073D01*
X325552Y262000D01*
X325430Y262927D01*
X325072Y263792D01*
X324502Y264534D01*
X323760Y265103D01*
X322896Y265461D01*
X321969Y265583D01*
D02*
G37*
G36*
X261968D02*
X258032D01*
X257104Y265461D01*
X256240Y265103D01*
X255498Y264534D01*
X254928Y263792D01*
X254570Y262927D01*
X254448Y262000D01*
X254570Y261073D01*
X254928Y260208D01*
X255498Y259466D01*
X256240Y258897D01*
X257104Y258539D01*
X258032Y258417D01*
X261968D01*
X262896Y258539D01*
X263760Y258897D01*
X264502Y259466D01*
X265072Y260208D01*
X265430Y261073D01*
X265552Y262000D01*
X265430Y262927D01*
X265072Y263792D01*
X264502Y264534D01*
X263760Y265103D01*
X262896Y265461D01*
X261968Y265583D01*
D02*
G37*
G36*
X321969Y255987D02*
X320500D01*
Y252500D01*
X325889D01*
X325819Y253032D01*
X325421Y253993D01*
X324788Y254819D01*
X323962Y255453D01*
X323000Y255851D01*
X321969Y255987D01*
D02*
G37*
G36*
X319500D02*
X318032D01*
X317000Y255851D01*
X316038Y255453D01*
X315212Y254819D01*
X314579Y253993D01*
X314180Y253032D01*
X314110Y252500D01*
X319500D01*
Y255987D01*
D02*
G37*
G36*
X202409Y251150D02*
X199956D01*
Y248855D01*
X205139D01*
X205109Y249078D01*
X204830Y249753D01*
X204386Y250332D01*
X203807Y250776D01*
X203133Y251055D01*
X202409Y251150D01*
D02*
G37*
G36*
X198956D02*
X196503D01*
X195780Y251055D01*
X195106Y250776D01*
X194527Y250332D01*
X194082Y249753D01*
X193803Y249078D01*
X193774Y248855D01*
X198956D01*
Y251150D01*
D02*
G37*
G36*
X261968Y255583D02*
X258032D01*
X257104Y255461D01*
X256240Y255103D01*
X255498Y254534D01*
X254928Y253792D01*
X254570Y252927D01*
X254448Y252000D01*
X254570Y251073D01*
X254928Y250208D01*
X255498Y249466D01*
X256240Y248897D01*
X257104Y248539D01*
X258032Y248417D01*
X261968D01*
X262896Y248539D01*
X263760Y248897D01*
X264502Y249466D01*
X265072Y250208D01*
X265430Y251073D01*
X265552Y252000D01*
X265430Y252927D01*
X265072Y253792D01*
X264502Y254534D01*
X263760Y255103D01*
X262896Y255461D01*
X261968Y255583D01*
D02*
G37*
G36*
X325889Y251500D02*
X320500D01*
Y248013D01*
X321969D01*
X323000Y248149D01*
X323962Y248547D01*
X324788Y249181D01*
X325421Y250007D01*
X325819Y250968D01*
X325889Y251500D01*
D02*
G37*
G36*
X319500D02*
X314110D01*
X314180Y250968D01*
X314579Y250007D01*
X315212Y249181D01*
X316038Y248547D01*
X317000Y248149D01*
X318032Y248013D01*
X319500D01*
Y251500D01*
D02*
G37*
G36*
X187724Y250773D02*
X184574D01*
X183649Y250589D01*
X182864Y250065D01*
X182340Y249280D01*
X182156Y248355D01*
X182340Y247430D01*
X182864Y246645D01*
X183649Y246121D01*
X184574Y245937D01*
X187724D01*
X188649Y246121D01*
X189434Y246645D01*
X189958Y247430D01*
X190142Y248355D01*
X189958Y249280D01*
X189434Y250065D01*
X188649Y250589D01*
X187724Y250773D01*
D02*
G37*
G36*
X318000Y247131D02*
X304000D01*
X303376Y247007D01*
X302847Y246654D01*
X302493Y246124D01*
X302369Y245500D01*
X302493Y244876D01*
X302847Y244346D01*
X303376Y243993D01*
X304000Y243869D01*
X318000D01*
X318624Y243993D01*
X319153Y244346D01*
X319507Y244876D01*
X319631Y245500D01*
X319507Y246124D01*
X319153Y246654D01*
X318624Y247007D01*
X318000Y247131D01*
D02*
G37*
G36*
X351000Y240385D02*
X350124Y240269D01*
X349308Y239931D01*
X348606Y239393D01*
X348069Y238692D01*
X347730Y237876D01*
X347615Y237000D01*
X347730Y236124D01*
X348069Y235308D01*
X348606Y234607D01*
X349308Y234069D01*
X350124Y233731D01*
X351000Y233615D01*
X351876Y233731D01*
X352692Y234069D01*
X353394Y234607D01*
X353931Y235308D01*
X354270Y236124D01*
X354385Y237000D01*
X354270Y237876D01*
X353931Y238692D01*
X353394Y239393D01*
X352692Y239931D01*
X351876Y240269D01*
X351000Y240385D01*
D02*
G37*
G36*
X205139Y247855D02*
X193774D01*
X193803Y247632D01*
X194082Y246957D01*
X194527Y246378D01*
X195106Y245934D01*
X195780Y245655D01*
X196503Y245560D01*
X196858D01*
X196967Y245060D01*
X196340Y244641D01*
X195849Y243906D01*
X195776Y243540D01*
X198000D01*
Y242540D01*
X195776D01*
X195817Y242334D01*
X195521Y241834D01*
X192757D01*
X191938Y241671D01*
X191243Y241207D01*
X189486Y239450D01*
X189022Y238755D01*
X188859Y237936D01*
Y224757D01*
X189022Y223938D01*
X189486Y223243D01*
X191257Y221473D01*
X191951Y221008D01*
X192771Y220845D01*
X195538D01*
X195823Y220345D01*
X195776Y220114D01*
X198000D01*
X200224D01*
X200181Y220326D01*
X200472Y220736D01*
X200842D01*
X201133Y220326D01*
X201090Y220114D01*
X203314D01*
X205538D01*
X205465Y220480D01*
X204974Y221215D01*
X205044Y221770D01*
X205292Y222142D01*
X205455Y222961D01*
X205292Y223780D01*
X204828Y224475D01*
X204820Y224483D01*
X204685Y224661D01*
Y224994D01*
X205088Y225597D01*
X205229Y226307D01*
X205088Y227017D01*
X204685Y227620D01*
X204519Y227730D01*
Y228231D01*
X204685Y228342D01*
X205088Y228944D01*
X205229Y229654D01*
X205088Y230364D01*
X204685Y230966D01*
X204520Y231077D01*
Y231577D01*
X204685Y231687D01*
X205088Y232290D01*
X205229Y233000D01*
X205088Y233710D01*
X204685Y234313D01*
X204519Y234423D01*
Y234924D01*
X204685Y235034D01*
X205088Y235637D01*
X205229Y236347D01*
X205088Y237057D01*
X204685Y237660D01*
Y238084D01*
X204828Y238179D01*
X205292Y238874D01*
X205455Y239693D01*
X205292Y240512D01*
X205044Y240884D01*
X204974Y241439D01*
X205465Y242174D01*
X205538Y242540D01*
X203314D01*
Y243540D01*
X205538D01*
X205465Y243906D01*
X204974Y244641D01*
X204239Y245132D01*
X203521Y245274D01*
X203468Y245794D01*
X203807Y245934D01*
X204386Y246378D01*
X204830Y246957D01*
X205109Y247632D01*
X205139Y247855D01*
D02*
G37*
G36*
X200224Y219114D02*
X198500D01*
Y217438D01*
X198925Y217522D01*
X199660Y218013D01*
X200151Y218748D01*
X200224Y219114D01*
D02*
G37*
G36*
X205538D02*
X203814D01*
Y217438D01*
X204239Y217522D01*
X204974Y218013D01*
X205465Y218748D01*
X205538Y219114D01*
D02*
G37*
G36*
X202814D02*
X201090D01*
X201163Y218748D01*
X201654Y218013D01*
X202389Y217522D01*
X202814Y217438D01*
Y219114D01*
D02*
G37*
G36*
X197500D02*
X195776D01*
X195849Y218748D01*
X196340Y218013D01*
X197075Y217522D01*
X197500Y217438D01*
Y219114D01*
D02*
G37*
G36*
X202409Y216717D02*
X196503D01*
X195578Y216533D01*
X194793Y216009D01*
X194269Y215224D01*
X194085Y214299D01*
X194269Y213374D01*
X194793Y212589D01*
X195578Y212065D01*
X196503Y211881D01*
X202409D01*
X203334Y212065D01*
X204119Y212589D01*
X204643Y213374D01*
X204827Y214299D01*
X204643Y215224D01*
X204119Y216009D01*
X203334Y216533D01*
X202409Y216717D01*
D02*
G37*
G36*
X187724D02*
X184574D01*
X183649Y216533D01*
X182864Y216009D01*
X182340Y215224D01*
X182156Y214299D01*
X182340Y213374D01*
X182864Y212589D01*
X183649Y212065D01*
X184574Y211881D01*
X187724D01*
X188649Y212065D01*
X189434Y212589D01*
X189958Y213374D01*
X190142Y214299D01*
X189958Y215224D01*
X189434Y216009D01*
X188649Y216533D01*
X187724Y216717D01*
D02*
G37*
G36*
X328378Y213849D02*
Y211500D01*
X330727D01*
X330694Y211754D01*
X330403Y212457D01*
X329939Y213061D01*
X329336Y213524D01*
X328633Y213815D01*
X328378Y213849D01*
D02*
G37*
G36*
X327378D02*
X327124Y213815D01*
X326421Y213524D01*
X325817Y213061D01*
X325354Y212457D01*
X325063Y211754D01*
X325030Y211500D01*
X327378D01*
Y213849D01*
D02*
G37*
G36*
X337378D02*
X337124Y213815D01*
X336421Y213524D01*
X335817Y213061D01*
X335354Y212457D01*
X335063Y211754D01*
X335030Y211500D01*
X337378D01*
Y213849D01*
D02*
G37*
G36*
X343378D02*
Y211000D01*
X342378D01*
Y213849D01*
X342124Y213815D01*
X341421Y213524D01*
X340817Y213061D01*
X340628Y212815D01*
X340128D01*
X339939Y213061D01*
X339336Y213524D01*
X338633Y213815D01*
X338378Y213849D01*
Y211000D01*
X337878D01*
Y210500D01*
X335030D01*
X335063Y210246D01*
X335354Y209543D01*
X335817Y208939D01*
X336319Y208554D01*
X336396Y208004D01*
X336083Y207795D01*
X335658Y207158D01*
X335099D01*
X334674Y207795D01*
X333850Y208345D01*
X332878Y208539D01*
X331907Y208345D01*
X331083Y207795D01*
X330658Y207158D01*
X330099D01*
X329674Y207795D01*
X329360Y208004D01*
X329438Y208554D01*
X329939Y208939D01*
X330403Y209543D01*
X330694Y210246D01*
X330727Y210500D01*
X327878D01*
X325030D01*
X325063Y210246D01*
X325354Y209543D01*
X325817Y208939D01*
X326319Y208554D01*
X326396Y208004D01*
X326083Y207795D01*
X325533Y206972D01*
X325340Y206000D01*
X325533Y205029D01*
X326083Y204205D01*
X326757Y203755D01*
Y202622D01*
X326757Y202622D01*
X326842Y202192D01*
X327085Y201829D01*
X330007Y198907D01*
X330371Y198664D01*
X330800Y198578D01*
X330800Y198578D01*
X331776D01*
X331882Y198508D01*
X332500Y198385D01*
X333118Y198508D01*
X333642Y198858D01*
X333992Y199382D01*
X334115Y200000D01*
X333992Y200618D01*
X333642Y201142D01*
X333118Y201492D01*
X332500Y201615D01*
X331882Y201492D01*
X331358Y201142D01*
X330981Y201105D01*
X329000Y203086D01*
Y203755D01*
X329674Y204205D01*
X330099Y204842D01*
X330658D01*
X331083Y204205D01*
X331907Y203655D01*
X332878Y203461D01*
X333850Y203655D01*
X334674Y204205D01*
X335099Y204842D01*
X335658D01*
X336083Y204205D01*
X336907Y203655D01*
X337878Y203461D01*
X338850Y203655D01*
X339673Y204205D01*
X340099Y204842D01*
X340658D01*
X341083Y204205D01*
X341907Y203655D01*
X342878Y203461D01*
X343850Y203655D01*
X344673Y204205D01*
X345099Y204842D01*
X345658D01*
X346083Y204205D01*
X346757Y203755D01*
Y201895D01*
X344654Y199793D01*
X344654Y199793D01*
X344483Y199622D01*
X341156D01*
X341142Y199642D01*
X340618Y199992D01*
X340000Y200115D01*
X339382Y199992D01*
X338858Y199642D01*
X338508Y199118D01*
X338385Y198500D01*
X338508Y197882D01*
X338858Y197358D01*
X339382Y197008D01*
X340000Y196885D01*
X340618Y197008D01*
X341142Y197358D01*
X341156Y197378D01*
X344948D01*
X344948Y197378D01*
X345377Y197464D01*
X345741Y197707D01*
X346241Y198207D01*
X346241Y198207D01*
X348672Y200638D01*
X348915Y201002D01*
X349000Y201431D01*
X349000Y201431D01*
Y203755D01*
X349674Y204205D01*
X350224Y205029D01*
X350417Y206000D01*
X350224Y206972D01*
X349674Y207795D01*
X349351Y208010D01*
X349503Y208510D01*
X350368D01*
Y209786D01*
X352997D01*
X355940Y206844D01*
Y200381D01*
X355661Y199965D01*
X355563Y199473D01*
X349304Y193214D01*
X336535D01*
X336118Y193492D01*
X335500Y193615D01*
X334882Y193492D01*
X334465Y193214D01*
X277303D01*
X271362Y199155D01*
X271264Y199646D01*
X270914Y200170D01*
X270390Y200521D01*
X269772Y200644D01*
X269153Y200521D01*
X268630Y200170D01*
X268279Y199646D01*
X268156Y199028D01*
X268279Y198410D01*
X268630Y197886D01*
X269153Y197536D01*
X269645Y197438D01*
X275942Y191142D01*
X275942Y191142D01*
X276336Y190878D01*
X276800Y190786D01*
X276800Y190786D01*
X334465D01*
X334882Y190508D01*
X335500Y190385D01*
X336118Y190508D01*
X336535Y190786D01*
X349807D01*
X349807Y190786D01*
X350272Y190878D01*
X350665Y191142D01*
X357280Y197756D01*
X357772Y197854D01*
X358296Y198204D01*
X358646Y198728D01*
X358769Y199346D01*
X358646Y199965D01*
X358367Y200381D01*
Y207347D01*
X358275Y207811D01*
X358012Y208205D01*
X358012Y208205D01*
X354358Y211858D01*
X353964Y212122D01*
X353500Y212214D01*
X353500Y212214D01*
X350368D01*
Y213490D01*
X345389D01*
Y213213D01*
X345335Y213195D01*
X344889Y213100D01*
X344336Y213524D01*
X343633Y213815D01*
X343378Y213849D01*
D02*
G37*
G36*
X238000Y184485D02*
Y181262D01*
X241223D01*
X241159Y181743D01*
X240781Y182656D01*
X240179Y183441D01*
X239394Y184043D01*
X238480Y184421D01*
X238000Y184485D01*
D02*
G37*
G36*
X237000D02*
X236520Y184421D01*
X235606Y184043D01*
X234821Y183441D01*
X234219Y182656D01*
X233841Y181743D01*
X233777Y181262D01*
X237000D01*
Y184485D01*
D02*
G37*
G36*
X310653Y184147D02*
X309777Y184032D01*
X308961Y183694D01*
X308260Y183156D01*
X307722Y182455D01*
X307384Y181638D01*
X307269Y180762D01*
X307384Y179886D01*
X307722Y179070D01*
X308260Y178369D01*
X308961Y177831D01*
X309777Y177493D01*
X310653Y177377D01*
X311530Y177493D01*
X312346Y177831D01*
X313047Y178369D01*
X313585Y179070D01*
X313923Y179886D01*
X314038Y180762D01*
X313923Y181638D01*
X313585Y182455D01*
X313047Y183156D01*
X312346Y183694D01*
X311530Y184032D01*
X310653Y184147D01*
D02*
G37*
G36*
X267500D02*
X266624Y184032D01*
X265808Y183694D01*
X265107Y183156D01*
X264569Y182455D01*
X264230Y181638D01*
X264115Y180762D01*
X264230Y179886D01*
X264569Y179070D01*
X265107Y178369D01*
X265808Y177831D01*
X266624Y177493D01*
X267500Y177377D01*
X268376Y177493D01*
X269192Y177831D01*
X269894Y178369D01*
X270431Y179070D01*
X270770Y179886D01*
X270885Y180762D01*
X270770Y181638D01*
X270431Y182455D01*
X269894Y183156D01*
X269192Y183694D01*
X268376Y184032D01*
X267500Y184147D01*
D02*
G37*
G36*
X241223Y180262D02*
X238000D01*
Y177040D01*
X238480Y177103D01*
X239394Y177481D01*
X240179Y178084D01*
X240781Y178868D01*
X241159Y179782D01*
X241223Y180262D01*
D02*
G37*
G36*
X237000D02*
X233777D01*
X233841Y179782D01*
X234219Y178868D01*
X234821Y178084D01*
X235606Y177481D01*
X236520Y177103D01*
X237000Y177040D01*
Y180262D01*
D02*
G37*
%LPD*%
G36*
X196262Y237111D02*
X196226Y237057D01*
X196085Y236347D01*
X196226Y235637D01*
X196628Y235034D01*
X196795Y234924D01*
Y234423D01*
X196628Y234313D01*
X196226Y233710D01*
X196085Y233000D01*
X196226Y232290D01*
X196628Y231687D01*
X196794Y231577D01*
Y231077D01*
X196628Y230966D01*
X196226Y230364D01*
X196085Y229654D01*
X196226Y228944D01*
X196628Y228342D01*
X196795Y228231D01*
Y227730D01*
X196628Y227620D01*
X196226Y227017D01*
X196085Y226307D01*
X196220Y225628D01*
X196219Y225520D01*
X196009Y225128D01*
X193658D01*
X193141Y225644D01*
Y237049D01*
X193644Y237552D01*
X196026D01*
X196262Y237111D01*
D02*
G37*
D10*
X340000Y198500D02*
X344948D01*
X345448Y199000D01*
X330800Y199700D02*
X332500D01*
X345448Y199000D02*
X347878Y201431D01*
Y206000D01*
X327878Y202622D02*
X330800Y199700D01*
X327878Y202622D02*
Y206000D01*
D17*
X304000Y245500D02*
X318000D01*
D20*
X335500Y192000D02*
X349807D01*
X276800D02*
X335500D01*
X349807D02*
X357154Y199346D01*
X269772Y199028D02*
X276800Y192000D01*
X357154Y199346D02*
Y207347D01*
X353500Y211000D02*
X357154Y207347D01*
X347878Y211000D02*
X353500D01*
D47*
X192771Y222987D02*
X203289D01*
X191000Y224757D02*
X192771Y222987D01*
X203289D02*
X203314Y222961D01*
X191000Y224757D02*
Y237936D01*
X192757Y239693D01*
X198000D01*
X203314D01*
D49*
X320000Y252000D02*
D03*
Y262000D02*
D03*
Y272000D02*
D03*
Y282000D02*
D03*
Y292000D02*
D03*
Y302000D02*
D03*
Y312000D02*
D03*
Y322000D02*
D03*
Y332000D02*
D03*
Y342000D02*
D03*
Y352000D02*
D03*
Y362000D02*
D03*
Y372000D02*
D03*
Y382000D02*
D03*
Y392000D02*
D03*
Y402000D02*
D03*
Y412000D02*
D03*
Y422000D02*
D03*
Y432000D02*
D03*
Y442000D02*
D03*
X260000Y252000D02*
D03*
Y262000D02*
D03*
Y272000D02*
D03*
Y282000D02*
D03*
Y292000D02*
D03*
Y302000D02*
D03*
Y312000D02*
D03*
Y322000D02*
D03*
Y332000D02*
D03*
Y342000D02*
D03*
Y352000D02*
D03*
Y362000D02*
D03*
Y372000D02*
D03*
Y382000D02*
D03*
Y392000D02*
D03*
Y402000D02*
D03*
Y412000D02*
D03*
Y422000D02*
D03*
Y432000D02*
D03*
D50*
Y442000D02*
D03*
D51*
X347878Y211000D02*
D03*
D52*
Y206000D02*
D03*
X342878Y211000D02*
D03*
Y206000D02*
D03*
X337878Y211000D02*
D03*
Y206000D02*
D03*
X332878D02*
D03*
X327878Y211000D02*
D03*
Y206000D02*
D03*
D53*
X267500Y180762D02*
D03*
X237500D02*
D03*
X351000Y237000D02*
D03*
X310653Y180762D02*
D03*
D54*
X186149Y248355D02*
D03*
Y214299D02*
D03*
D55*
X199456D02*
D03*
Y248355D02*
D03*
D56*
X198000Y243040D02*
D03*
Y239693D02*
D03*
Y236347D02*
D03*
Y233000D02*
D03*
Y229654D02*
D03*
Y226307D02*
D03*
Y222961D02*
D03*
Y219614D02*
D03*
X203314D02*
D03*
Y222961D02*
D03*
Y226307D02*
D03*
Y229654D02*
D03*
Y233000D02*
D03*
Y236347D02*
D03*
Y239693D02*
D03*
Y243040D02*
D03*
D57*
X177000Y205500D02*
D03*
Y215500D02*
D03*
Y225500D02*
D03*
Y235500D02*
D03*
Y245500D02*
D03*
Y255500D02*
D03*
X316000Y200000D02*
D03*
X306000D02*
D03*
X291000Y195000D02*
D03*
X281000D02*
D03*
X231000Y190000D02*
D03*
X241000D02*
D03*
X250000D02*
D03*
X309500Y397500D02*
D03*
X299500D02*
D03*
X289500D02*
D03*
X279500D02*
D03*
X269500D02*
D03*
X314500Y267500D02*
D03*
X299500D02*
D03*
X289500D02*
D03*
X279500D02*
D03*
X269500D02*
D03*
X249500D02*
D03*
X239500D02*
D03*
X229500D02*
D03*
X219500D02*
D03*
X209500D02*
D03*
Y247500D02*
D03*
X219500D02*
D03*
X229500D02*
D03*
X239500D02*
D03*
X249500D02*
D03*
X269500D02*
D03*
Y237500D02*
D03*
X259500D02*
D03*
X249500D02*
D03*
X239500D02*
D03*
Y227500D02*
D03*
X249500D02*
D03*
X259500D02*
D03*
X279500D02*
D03*
X289500D02*
D03*
X299500D02*
D03*
X329500D02*
D03*
X319500D02*
D03*
X309500D02*
D03*
Y237500D02*
D03*
X279500D02*
D03*
X289500D02*
D03*
Y247500D02*
D03*
X279500D02*
D03*
Y259500D02*
D03*
X271000Y185000D02*
D03*
X298000Y201500D02*
D03*
X229500Y213500D02*
D03*
Y207000D02*
D03*
X236000Y201500D02*
D03*
X262000Y202000D02*
D03*
X272000Y201500D02*
D03*
X332500Y175500D02*
D03*
X317500Y182000D02*
D03*
X313500Y207000D02*
D03*
X286900Y214860D02*
D03*
X281000Y219500D02*
D03*
X286000D02*
D03*
X334500Y196000D02*
D03*
X340000Y198500D02*
D03*
X335500Y192000D02*
D03*
X332500Y200000D02*
D03*
X292500Y210500D02*
D03*
X301000Y219500D02*
D03*
X296000D02*
D03*
X291000D02*
D03*
X251200Y218500D02*
D03*
X276000Y219500D02*
D03*
X266000Y218500D02*
D03*
X261000D02*
D03*
X269772Y199028D02*
D03*
X339713Y186165D02*
D03*
X344044D02*
D03*
X339713Y181835D02*
D03*
X344044D02*
D03*
X242100Y200100D02*
D03*
X265900Y199200D02*
D03*
X256000Y218500D02*
D03*
X256300Y210500D02*
D03*
X241500Y218000D02*
D03*
X276400Y210500D02*
D03*
X286500Y179500D02*
D03*
X296000Y181500D02*
D03*
X383000Y209000D02*
D03*
X352500Y182900D02*
D03*
X349000Y195500D02*
D03*
X345200Y201700D02*
D03*
X357154Y199346D02*
D03*
X304000Y245500D02*
D03*
X318000D02*
D03*
X286900Y205860D02*
D03*
Y208860D02*
D03*
Y211860D02*
D03*
X250900Y214900D02*
D03*
Y211900D02*
D03*
Y208900D02*
D03*
Y205900D02*
D03*
M02*
