G04*
G04 #@! TF.GenerationSoftware,Altium Limited,Altium Designer,19.1.8 (144)*
G04*
G04 Layer_Physical_Order=1*
G04 Layer_Color=255*
%FSLAX25Y25*%
%MOIN*%
G70*
G01*
G75*
%ADD10C,0.00984*%
%ADD12C,0.01000*%
%ADD15C,0.02000*%
%ADD20C,0.01500*%
%ADD39R,0.03543X0.01181*%
%ADD40R,0.01181X0.03543*%
%ADD41R,0.07087X0.07087*%
%ADD42R,0.07087X0.06299*%
%ADD43R,0.03937X0.04331*%
%ADD44R,0.04331X0.03937*%
G04:AMPARAMS|DCode=45|XSize=39.37mil|YSize=21.65mil|CornerRadius=5.41mil|HoleSize=0mil|Usage=FLASHONLY|Rotation=0.000|XOffset=0mil|YOffset=0mil|HoleType=Round|Shape=RoundedRectangle|*
%AMROUNDEDRECTD45*
21,1,0.03937,0.01083,0,0,0.0*
21,1,0.02854,0.02165,0,0,0.0*
1,1,0.01083,0.01427,-0.00541*
1,1,0.01083,-0.01427,-0.00541*
1,1,0.01083,-0.01427,0.00541*
1,1,0.01083,0.01427,0.00541*
%
%ADD45ROUNDEDRECTD45*%
%ADD46R,0.04000X0.03000*%
%ADD47R,0.03937X0.05906*%
%ADD48C,0.01181*%
%ADD49C,0.02165*%
%ADD50C,0.02500*%
%ADD51C,0.01575*%
%ADD52C,0.03000*%
%ADD53R,0.03780X0.03780*%
%ADD54C,0.03780*%
%ADD55C,0.05512*%
%ADD56O,0.06693X0.03543*%
%ADD57O,0.09449X0.03543*%
%ADD58O,0.02559X0.02441*%
%ADD59R,0.10000X0.05000*%
%ADD60O,0.10000X0.05000*%
%ADD61C,0.01968*%
G36*
X148878Y-94878D02*
X-88878D01*
Y236878D01*
X148878Y236878D01*
Y-94878D01*
D02*
G37*
%LPC*%
G36*
X114919Y192569D02*
X109388D01*
Y191415D01*
X107612D01*
Y192569D01*
X102081D01*
Y187432D01*
X107612D01*
Y188585D01*
X109388D01*
Y187432D01*
X114919D01*
Y192569D01*
D02*
G37*
G36*
X5600Y193100D02*
X-5600D01*
Y191415D01*
X-35235D01*
Y192569D01*
X-40765D01*
Y187432D01*
X-35235D01*
Y188585D01*
X-5600D01*
Y186900D01*
X5600D01*
Y193100D01*
D02*
G37*
G36*
X-41928Y192569D02*
X-47458D01*
Y191415D01*
X-49235D01*
Y192569D01*
X-54765D01*
Y187432D01*
X-49235D01*
Y188585D01*
X-47458D01*
Y187432D01*
X-41928D01*
Y192569D01*
D02*
G37*
G36*
X62500Y193127D02*
X57500D01*
X56691Y193020D01*
X55937Y192708D01*
X55289Y192211D01*
X54792Y191563D01*
X54480Y190809D01*
X54373Y190000D01*
X54480Y189191D01*
X54792Y188437D01*
X55289Y187789D01*
X55937Y187292D01*
X56691Y186980D01*
X57500Y186873D01*
X62500D01*
X63309Y186980D01*
X64063Y187292D01*
X64711Y187789D01*
X65208Y188437D01*
X65270Y188585D01*
X95388D01*
Y187432D01*
X100919D01*
Y192569D01*
X95388D01*
Y191415D01*
X65270D01*
X65208Y191563D01*
X64711Y192211D01*
X64063Y192708D01*
X63309Y193020D01*
X62500Y193127D01*
D02*
G37*
G36*
X114919Y182569D02*
X109388D01*
Y181415D01*
X107612D01*
Y182569D01*
X102081D01*
Y177431D01*
X107612D01*
Y178585D01*
X109388D01*
Y177431D01*
X114919D01*
Y182569D01*
D02*
G37*
G36*
X2500Y183127D02*
X-2500D01*
X-3309Y183020D01*
X-4063Y182708D01*
X-4711Y182211D01*
X-5208Y181563D01*
X-5269Y181415D01*
X-35235D01*
Y182569D01*
X-40765D01*
Y177431D01*
X-35235D01*
Y178585D01*
X-5269D01*
X-5208Y178437D01*
X-4711Y177789D01*
X-4063Y177292D01*
X-3309Y176980D01*
X-2500Y176873D01*
X2500D01*
X3309Y176980D01*
X4063Y177292D01*
X4711Y177789D01*
X5208Y178437D01*
X5520Y179191D01*
X5627Y180000D01*
X5520Y180809D01*
X5208Y181563D01*
X4711Y182211D01*
X4063Y182708D01*
X3309Y183020D01*
X2500Y183127D01*
D02*
G37*
G36*
X-41928Y182569D02*
X-47458D01*
Y181415D01*
X-49235D01*
Y182569D01*
X-54765D01*
Y177431D01*
X-49235D01*
Y178585D01*
X-47458D01*
Y177431D01*
X-41928D01*
Y182569D01*
D02*
G37*
G36*
X62500Y183127D02*
X57500D01*
X56691Y183020D01*
X55937Y182708D01*
X55289Y182211D01*
X54792Y181563D01*
X54480Y180809D01*
X54373Y180000D01*
X54480Y179191D01*
X54792Y178437D01*
X55289Y177789D01*
X55937Y177292D01*
X56691Y176980D01*
X57500Y176873D01*
X62500D01*
X63309Y176980D01*
X64063Y177292D01*
X64711Y177789D01*
X65208Y178437D01*
X65270Y178585D01*
X95388D01*
Y177431D01*
X100919D01*
Y182569D01*
X95388D01*
Y181415D01*
X65270D01*
X65208Y181563D01*
X64711Y182211D01*
X64063Y182708D01*
X63309Y183020D01*
X62500Y183127D01*
D02*
G37*
G36*
X114919Y172569D02*
X109388D01*
Y171415D01*
X107612D01*
Y172569D01*
X102081D01*
Y167431D01*
X107612D01*
Y168585D01*
X109388D01*
Y167431D01*
X114919D01*
Y172569D01*
D02*
G37*
G36*
X2500Y173127D02*
X-2500D01*
X-3309Y173020D01*
X-4063Y172708D01*
X-4711Y172211D01*
X-5208Y171563D01*
X-5269Y171415D01*
X-35235D01*
Y172569D01*
X-40765D01*
Y167431D01*
X-35235D01*
Y168585D01*
X-5269D01*
X-5208Y168437D01*
X-4711Y167789D01*
X-4063Y167292D01*
X-3309Y166980D01*
X-2500Y166873D01*
X2500D01*
X3309Y166980D01*
X4063Y167292D01*
X4711Y167789D01*
X5208Y168437D01*
X5520Y169191D01*
X5627Y170000D01*
X5520Y170809D01*
X5208Y171563D01*
X4711Y172211D01*
X4063Y172708D01*
X3309Y173020D01*
X2500Y173127D01*
D02*
G37*
G36*
X-41928Y172569D02*
X-47458D01*
Y171415D01*
X-49235D01*
Y172569D01*
X-54765D01*
Y167431D01*
X-49235D01*
Y168585D01*
X-47458D01*
Y167431D01*
X-41928D01*
Y172569D01*
D02*
G37*
G36*
X62500Y173127D02*
X57500D01*
X56691Y173020D01*
X55937Y172708D01*
X55289Y172211D01*
X54792Y171563D01*
X54480Y170809D01*
X54373Y170000D01*
X54480Y169191D01*
X54792Y168437D01*
X55289Y167789D01*
X55937Y167292D01*
X56691Y166980D01*
X57500Y166873D01*
X62500D01*
X63309Y166980D01*
X64063Y167292D01*
X64711Y167789D01*
X65208Y168437D01*
X65270Y168585D01*
X95388D01*
Y167431D01*
X100919D01*
Y172569D01*
X95388D01*
Y171415D01*
X65270D01*
X65208Y171563D01*
X64711Y172211D01*
X64063Y172708D01*
X63309Y173020D01*
X62500Y173127D01*
D02*
G37*
G36*
X114919Y162568D02*
X109388D01*
Y161415D01*
X107612D01*
Y162568D01*
X102081D01*
Y157431D01*
X107612D01*
Y158585D01*
X109388D01*
Y157431D01*
X114919D01*
Y162568D01*
D02*
G37*
G36*
X2500Y163127D02*
X-2500D01*
X-3309Y163020D01*
X-4063Y162708D01*
X-4711Y162211D01*
X-5208Y161563D01*
X-5269Y161415D01*
X-35235D01*
Y162568D01*
X-40765D01*
Y157431D01*
X-35235D01*
Y158585D01*
X-5269D01*
X-5208Y158437D01*
X-4711Y157789D01*
X-4063Y157292D01*
X-3309Y156980D01*
X-2500Y156873D01*
X2500D01*
X3309Y156980D01*
X4063Y157292D01*
X4711Y157789D01*
X5208Y158437D01*
X5520Y159191D01*
X5627Y160000D01*
X5520Y160809D01*
X5208Y161563D01*
X4711Y162211D01*
X4063Y162708D01*
X3309Y163020D01*
X2500Y163127D01*
D02*
G37*
G36*
X-41928Y162568D02*
X-47458D01*
Y161415D01*
X-49235D01*
Y162568D01*
X-54765D01*
Y157431D01*
X-49235D01*
Y158585D01*
X-47458D01*
Y157431D01*
X-41928D01*
Y162568D01*
D02*
G37*
G36*
X62500Y163127D02*
X57500D01*
X56691Y163020D01*
X55937Y162708D01*
X55289Y162211D01*
X54792Y161563D01*
X54480Y160809D01*
X54373Y160000D01*
X54480Y159191D01*
X54792Y158437D01*
X55289Y157789D01*
X55937Y157292D01*
X56691Y156980D01*
X57500Y156873D01*
X62500D01*
X63309Y156980D01*
X64063Y157292D01*
X64711Y157789D01*
X65208Y158437D01*
X65270Y158585D01*
X95388D01*
Y157431D01*
X100919D01*
Y162568D01*
X95388D01*
Y161415D01*
X65270D01*
X65208Y161563D01*
X64711Y162211D01*
X64063Y162708D01*
X63309Y163020D01*
X62500Y163127D01*
D02*
G37*
G36*
X114919Y152568D02*
X109388D01*
Y151415D01*
X107612D01*
Y152568D01*
X102081D01*
Y147432D01*
X107612D01*
Y148585D01*
X109388D01*
Y147432D01*
X114919D01*
Y152568D01*
D02*
G37*
G36*
X62500Y153127D02*
X57500D01*
X56691Y153020D01*
X55937Y152708D01*
X55289Y152211D01*
X54792Y151563D01*
X54480Y150809D01*
X54373Y150000D01*
X54480Y149191D01*
X54792Y148437D01*
X55289Y147789D01*
X55937Y147292D01*
X56691Y146980D01*
X57500Y146873D01*
X62500D01*
X63309Y146980D01*
X64063Y147292D01*
X64711Y147789D01*
X65208Y148437D01*
X65270Y148585D01*
X95388D01*
Y147432D01*
X100919D01*
Y152568D01*
X95388D01*
Y151415D01*
X65270D01*
X65208Y151563D01*
X64711Y152211D01*
X64063Y152708D01*
X63309Y153020D01*
X62500Y153127D01*
D02*
G37*
G36*
X2500D02*
X-2500D01*
X-3309Y153020D01*
X-4063Y152708D01*
X-4711Y152211D01*
X-5208Y151563D01*
X-5520Y150809D01*
X-5627Y150000D01*
X-5520Y149191D01*
X-5208Y148437D01*
X-4711Y147789D01*
X-4063Y147292D01*
X-3309Y146980D01*
X-2500Y146873D01*
X2500D01*
X3309Y146980D01*
X4063Y147292D01*
X4711Y147789D01*
X5208Y148437D01*
X5520Y149191D01*
X5627Y150000D01*
X5520Y150809D01*
X5208Y151563D01*
X4711Y152211D01*
X4063Y152708D01*
X3309Y153020D01*
X2500Y153127D01*
D02*
G37*
G36*
X114919Y142569D02*
X109388D01*
Y141415D01*
X107612D01*
Y142569D01*
X102081D01*
Y137432D01*
X107612D01*
Y138585D01*
X109388D01*
Y137432D01*
X114919D01*
Y142569D01*
D02*
G37*
G36*
X62500Y143127D02*
X57500D01*
X56691Y143020D01*
X55937Y142708D01*
X55289Y142211D01*
X54792Y141563D01*
X54730Y141415D01*
X52000D01*
X51459Y141307D01*
X51000Y141000D01*
X47500Y137500D01*
X47193Y137041D01*
X47085Y136500D01*
X47085Y-5500D01*
X47193Y-6041D01*
X47500Y-6500D01*
X57000Y-16000D01*
X57459Y-16307D01*
X58000Y-16415D01*
X87954D01*
X88069Y-16692D01*
X88607Y-17393D01*
X89308Y-17931D01*
X90124Y-18270D01*
X91000Y-18385D01*
X91876Y-18270D01*
X92154Y-18154D01*
X100585Y-26586D01*
Y-29888D01*
X99432D01*
Y-35419D01*
X104569D01*
Y-29888D01*
X103415D01*
Y-26000D01*
X103307Y-25459D01*
X103000Y-25000D01*
X94154Y-16154D01*
X94270Y-15876D01*
X94385Y-15000D01*
X94270Y-14124D01*
X93931Y-13308D01*
X93393Y-12607D01*
X92692Y-12069D01*
X91876Y-11731D01*
X91000Y-11615D01*
X90124Y-11731D01*
X89308Y-12069D01*
X88607Y-12607D01*
X88069Y-13308D01*
X87954Y-13585D01*
X58586D01*
X49915Y-4914D01*
X49915Y135914D01*
X52586Y138585D01*
X54730D01*
X54792Y138437D01*
X55289Y137789D01*
X55937Y137292D01*
X56691Y136980D01*
X57500Y136873D01*
X62500D01*
X63309Y136980D01*
X64063Y137292D01*
X64711Y137789D01*
X65208Y138437D01*
X65270Y138585D01*
X95388D01*
Y137432D01*
X100919D01*
Y142569D01*
X95388D01*
Y141415D01*
X65270D01*
X65208Y141563D01*
X64711Y142211D01*
X64063Y142708D01*
X63309Y143020D01*
X62500Y143127D01*
D02*
G37*
G36*
X2500D02*
X-2500D01*
X-3309Y143020D01*
X-4063Y142708D01*
X-4711Y142211D01*
X-5208Y141563D01*
X-5520Y140809D01*
X-5627Y140000D01*
X-5520Y139191D01*
X-5208Y138437D01*
X-4711Y137789D01*
X-4063Y137292D01*
X-3309Y136980D01*
X-2500Y136873D01*
X2500D01*
X3309Y136980D01*
X4063Y137292D01*
X4711Y137789D01*
X5208Y138437D01*
X5520Y139191D01*
X5627Y140000D01*
X5520Y140809D01*
X5208Y141563D01*
X4711Y142211D01*
X4063Y142708D01*
X3309Y143020D01*
X2500Y143127D01*
D02*
G37*
G36*
X114919Y132569D02*
X109388D01*
Y131415D01*
X107612D01*
Y132569D01*
X102081D01*
Y127431D01*
X107612D01*
Y128585D01*
X109388D01*
Y127431D01*
X114919D01*
Y132569D01*
D02*
G37*
G36*
X62500Y133127D02*
X57500D01*
X56691Y133020D01*
X55937Y132708D01*
X55289Y132211D01*
X54792Y131563D01*
X54480Y130809D01*
X54373Y130000D01*
X54480Y129191D01*
X54792Y128437D01*
X55289Y127789D01*
X55937Y127292D01*
X56691Y126980D01*
X57500Y126873D01*
X62500D01*
X63309Y126980D01*
X64063Y127292D01*
X64711Y127789D01*
X65208Y128437D01*
X65270Y128585D01*
X95388D01*
Y127431D01*
X100919D01*
Y132569D01*
X95388D01*
Y131415D01*
X65270D01*
X65208Y131563D01*
X64711Y132211D01*
X64063Y132708D01*
X63309Y133020D01*
X62500Y133127D01*
D02*
G37*
G36*
X2500D02*
X-2500D01*
X-3309Y133020D01*
X-4063Y132708D01*
X-4711Y132211D01*
X-5208Y131563D01*
X-5520Y130809D01*
X-5627Y130000D01*
X-5520Y129191D01*
X-5208Y128437D01*
X-4711Y127789D01*
X-4063Y127292D01*
X-3309Y126980D01*
X-2500Y126873D01*
X2500D01*
X3309Y126980D01*
X4063Y127292D01*
X4711Y127789D01*
X5208Y128437D01*
X5520Y129191D01*
X5627Y130000D01*
X5520Y130809D01*
X5208Y131563D01*
X4711Y132211D01*
X4063Y132708D01*
X3309Y133020D01*
X2500Y133127D01*
D02*
G37*
G36*
X114919Y122569D02*
X109388D01*
Y121415D01*
X107612D01*
Y122569D01*
X102081D01*
Y117431D01*
X107612D01*
Y118585D01*
X109388D01*
Y117431D01*
X114919D01*
Y122569D01*
D02*
G37*
G36*
X62500Y123127D02*
X57500D01*
X56691Y123020D01*
X55937Y122708D01*
X55289Y122211D01*
X54792Y121563D01*
X54480Y120809D01*
X54373Y120000D01*
X54480Y119191D01*
X54792Y118437D01*
X55289Y117789D01*
X55937Y117292D01*
X56691Y116980D01*
X57500Y116873D01*
X62500D01*
X63309Y116980D01*
X64063Y117292D01*
X64711Y117789D01*
X65208Y118437D01*
X65270Y118585D01*
X95388D01*
Y117431D01*
X100919D01*
Y122569D01*
X95388D01*
Y121415D01*
X65270D01*
X65208Y121563D01*
X64711Y122211D01*
X64063Y122708D01*
X63309Y123020D01*
X62500Y123127D01*
D02*
G37*
G36*
X2500D02*
X-2500D01*
X-3309Y123020D01*
X-4063Y122708D01*
X-4711Y122211D01*
X-5208Y121563D01*
X-5520Y120809D01*
X-5627Y120000D01*
X-5520Y119191D01*
X-5208Y118437D01*
X-4711Y117789D01*
X-4063Y117292D01*
X-3309Y116980D01*
X-2500Y116873D01*
X2500D01*
X3309Y116980D01*
X4063Y117292D01*
X4711Y117789D01*
X5208Y118437D01*
X5520Y119191D01*
X5627Y120000D01*
X5520Y120809D01*
X5208Y121563D01*
X4711Y122211D01*
X4063Y122708D01*
X3309Y123020D01*
X2500Y123127D01*
D02*
G37*
G36*
X114919Y112568D02*
X109388D01*
Y111415D01*
X107612D01*
Y112568D01*
X102081D01*
Y107431D01*
X107612D01*
Y108585D01*
X109388D01*
Y107431D01*
X114919D01*
Y112568D01*
D02*
G37*
G36*
X2500Y113127D02*
X-2500D01*
X-3309Y113020D01*
X-4063Y112708D01*
X-4711Y112211D01*
X-5208Y111563D01*
X-5269Y111415D01*
X-35235D01*
Y112568D01*
X-40765D01*
Y107431D01*
X-35235D01*
Y108585D01*
X-5269D01*
X-5208Y108437D01*
X-4711Y107789D01*
X-4063Y107292D01*
X-3309Y106980D01*
X-2500Y106873D01*
X2500D01*
X3309Y106980D01*
X4063Y107292D01*
X4711Y107789D01*
X5208Y108437D01*
X5520Y109191D01*
X5627Y110000D01*
X5520Y110809D01*
X5208Y111563D01*
X4711Y112211D01*
X4063Y112708D01*
X3309Y113020D01*
X2500Y113127D01*
D02*
G37*
G36*
X-41928Y112568D02*
X-47458D01*
Y111415D01*
X-49235D01*
Y112568D01*
X-54765D01*
Y107431D01*
X-49235D01*
Y108585D01*
X-47458D01*
Y107431D01*
X-41928D01*
Y112568D01*
D02*
G37*
G36*
X62500Y113127D02*
X57500D01*
X56691Y113020D01*
X55937Y112708D01*
X55289Y112211D01*
X54792Y111563D01*
X54480Y110809D01*
X54373Y110000D01*
X54480Y109191D01*
X54792Y108437D01*
X55289Y107789D01*
X55937Y107292D01*
X56691Y106980D01*
X57500Y106873D01*
X62500D01*
X63309Y106980D01*
X64063Y107292D01*
X64711Y107789D01*
X65208Y108437D01*
X65270Y108585D01*
X95388D01*
Y107431D01*
X100919D01*
Y112568D01*
X95388D01*
Y111415D01*
X65270D01*
X65208Y111563D01*
X64711Y112211D01*
X64063Y112708D01*
X63309Y113020D01*
X62500Y113127D01*
D02*
G37*
G36*
X114919Y102568D02*
X109388D01*
Y101415D01*
X107612D01*
Y102568D01*
X102081D01*
Y97431D01*
X107612D01*
Y98585D01*
X109388D01*
Y97431D01*
X114919D01*
Y102568D01*
D02*
G37*
G36*
X2500Y103127D02*
X-2500D01*
X-3309Y103020D01*
X-4063Y102708D01*
X-4711Y102211D01*
X-5208Y101563D01*
X-5269Y101415D01*
X-35235D01*
Y102568D01*
X-40765D01*
Y97431D01*
X-35235D01*
Y98585D01*
X-5269D01*
X-5208Y98437D01*
X-4711Y97789D01*
X-4063Y97292D01*
X-3309Y96980D01*
X-2500Y96873D01*
X2500D01*
X3309Y96980D01*
X4063Y97292D01*
X4711Y97789D01*
X5208Y98437D01*
X5520Y99191D01*
X5627Y100000D01*
X5520Y100809D01*
X5208Y101563D01*
X4711Y102211D01*
X4063Y102708D01*
X3309Y103020D01*
X2500Y103127D01*
D02*
G37*
G36*
X-41928Y102568D02*
X-47458D01*
Y101415D01*
X-49235D01*
Y102568D01*
X-54765D01*
Y97431D01*
X-49235D01*
Y98585D01*
X-47458D01*
Y97431D01*
X-41928D01*
Y102568D01*
D02*
G37*
G36*
X62500Y103127D02*
X57500D01*
X56691Y103020D01*
X55937Y102708D01*
X55289Y102211D01*
X54792Y101563D01*
X54480Y100809D01*
X54373Y100000D01*
X54480Y99191D01*
X54792Y98437D01*
X55289Y97789D01*
X55937Y97292D01*
X56691Y96980D01*
X57500Y96873D01*
X62500D01*
X63309Y96980D01*
X64063Y97292D01*
X64711Y97789D01*
X65208Y98437D01*
X65270Y98585D01*
X95388D01*
Y97431D01*
X100919D01*
Y102568D01*
X95388D01*
Y101415D01*
X65270D01*
X65208Y101563D01*
X64711Y102211D01*
X64063Y102708D01*
X63309Y103020D01*
X62500Y103127D01*
D02*
G37*
G36*
X114919Y92568D02*
X109388D01*
Y91415D01*
X107612D01*
Y92568D01*
X102081D01*
Y87432D01*
X107612D01*
Y88585D01*
X109388D01*
Y87432D01*
X114919D01*
Y92568D01*
D02*
G37*
G36*
X2500Y93127D02*
X-2500D01*
X-3309Y93020D01*
X-4063Y92708D01*
X-4711Y92211D01*
X-5208Y91563D01*
X-5269Y91415D01*
X-35235D01*
Y92568D01*
X-40765D01*
Y87432D01*
X-35235D01*
Y88585D01*
X-5269D01*
X-5208Y88437D01*
X-4711Y87789D01*
X-4063Y87292D01*
X-3309Y86980D01*
X-2500Y86873D01*
X2500D01*
X3309Y86980D01*
X4063Y87292D01*
X4711Y87789D01*
X5208Y88437D01*
X5520Y89191D01*
X5627Y90000D01*
X5520Y90809D01*
X5208Y91563D01*
X4711Y92211D01*
X4063Y92708D01*
X3309Y93020D01*
X2500Y93127D01*
D02*
G37*
G36*
X-41928Y92568D02*
X-47458D01*
Y91415D01*
X-49235D01*
Y92568D01*
X-54765D01*
Y87432D01*
X-49235D01*
Y88585D01*
X-47458D01*
Y87432D01*
X-41928D01*
Y92568D01*
D02*
G37*
G36*
X62500Y93127D02*
X57500D01*
X56691Y93020D01*
X55937Y92708D01*
X55289Y92211D01*
X54792Y91563D01*
X54480Y90809D01*
X54373Y90000D01*
X54480Y89191D01*
X54792Y88437D01*
X55289Y87789D01*
X55937Y87292D01*
X56691Y86980D01*
X57500Y86873D01*
X62500D01*
X63309Y86980D01*
X64063Y87292D01*
X64711Y87789D01*
X65208Y88437D01*
X65270Y88585D01*
X95388D01*
Y87432D01*
X100919D01*
Y92568D01*
X95388D01*
Y91415D01*
X65270D01*
X65208Y91563D01*
X64711Y92211D01*
X64063Y92708D01*
X63309Y93020D01*
X62500Y93127D01*
D02*
G37*
G36*
X114919Y82569D02*
X109388D01*
Y81415D01*
X107612D01*
Y82569D01*
X102081D01*
Y77431D01*
X107612D01*
Y78585D01*
X109388D01*
Y77431D01*
X114919D01*
Y82569D01*
D02*
G37*
G36*
X2500Y83127D02*
X-2500D01*
X-3309Y83020D01*
X-4063Y82708D01*
X-4711Y82211D01*
X-5208Y81563D01*
X-5269Y81415D01*
X-35235D01*
Y82569D01*
X-40765D01*
Y77431D01*
X-35235D01*
Y78585D01*
X-5269D01*
X-5208Y78437D01*
X-4711Y77789D01*
X-4063Y77292D01*
X-3309Y76980D01*
X-2500Y76873D01*
X2500D01*
X3309Y76980D01*
X4063Y77292D01*
X4711Y77789D01*
X5208Y78437D01*
X5520Y79191D01*
X5627Y80000D01*
X5520Y80809D01*
X5208Y81563D01*
X4711Y82211D01*
X4063Y82708D01*
X3309Y83020D01*
X2500Y83127D01*
D02*
G37*
G36*
X-41928Y82569D02*
X-47458D01*
Y81415D01*
X-49235D01*
Y82569D01*
X-54765D01*
Y77431D01*
X-49235D01*
Y78585D01*
X-47458D01*
Y77431D01*
X-41928D01*
Y82569D01*
D02*
G37*
G36*
X62500Y83127D02*
X57500D01*
X56691Y83020D01*
X55937Y82708D01*
X55289Y82211D01*
X54792Y81563D01*
X54480Y80809D01*
X54373Y80000D01*
X54480Y79191D01*
X54792Y78437D01*
X55289Y77789D01*
X55937Y77292D01*
X56691Y76980D01*
X57500Y76873D01*
X62500D01*
X63309Y76980D01*
X64063Y77292D01*
X64711Y77789D01*
X65208Y78437D01*
X65270Y78585D01*
X95388D01*
Y77431D01*
X100919D01*
Y82569D01*
X95388D01*
Y81415D01*
X65270D01*
X65208Y81563D01*
X64711Y82211D01*
X64063Y82708D01*
X63309Y83020D01*
X62500Y83127D01*
D02*
G37*
G36*
X114919Y72569D02*
X109388D01*
Y71415D01*
X107612D01*
Y72569D01*
X102081D01*
Y67431D01*
X107612D01*
Y68585D01*
X109388D01*
Y67431D01*
X114919D01*
Y72569D01*
D02*
G37*
G36*
X2500Y73127D02*
X-2500D01*
X-3309Y73020D01*
X-4063Y72708D01*
X-4711Y72211D01*
X-5208Y71563D01*
X-5269Y71415D01*
X-35235D01*
Y72569D01*
X-40765D01*
Y67431D01*
X-35235D01*
Y68585D01*
X-5269D01*
X-5208Y68437D01*
X-4711Y67789D01*
X-4063Y67292D01*
X-3309Y66980D01*
X-2500Y66873D01*
X2500D01*
X3309Y66980D01*
X4063Y67292D01*
X4711Y67789D01*
X5208Y68437D01*
X5520Y69191D01*
X5627Y70000D01*
X5520Y70809D01*
X5208Y71563D01*
X4711Y72211D01*
X4063Y72708D01*
X3309Y73020D01*
X2500Y73127D01*
D02*
G37*
G36*
X-41928Y72569D02*
X-47458D01*
Y71415D01*
X-49235D01*
Y72569D01*
X-54765D01*
Y67431D01*
X-49235D01*
Y68585D01*
X-47458D01*
Y67431D01*
X-41928D01*
Y72569D01*
D02*
G37*
G36*
X62500Y73127D02*
X57500D01*
X56691Y73020D01*
X55937Y72708D01*
X55289Y72211D01*
X54792Y71563D01*
X54480Y70809D01*
X54373Y70000D01*
X54480Y69191D01*
X54792Y68437D01*
X55289Y67789D01*
X55937Y67292D01*
X56691Y66980D01*
X57500Y66873D01*
X62500D01*
X63309Y66980D01*
X64063Y67292D01*
X64711Y67789D01*
X65208Y68437D01*
X65270Y68585D01*
X95388D01*
Y67431D01*
X100919D01*
Y72569D01*
X95388D01*
Y71415D01*
X65270D01*
X65208Y71563D01*
X64711Y72211D01*
X64063Y72708D01*
X63309Y73020D01*
X62500Y73127D01*
D02*
G37*
G36*
X114919Y62568D02*
X109388D01*
Y61415D01*
X107612D01*
Y62568D01*
X102081D01*
Y57432D01*
X107612D01*
Y58585D01*
X109388D01*
Y57432D01*
X114919D01*
Y62568D01*
D02*
G37*
G36*
X2500Y63127D02*
X-2500D01*
X-3309Y63020D01*
X-4063Y62708D01*
X-4711Y62211D01*
X-5208Y61563D01*
X-5269Y61415D01*
X-35235D01*
Y62568D01*
X-40765D01*
Y57432D01*
X-35235D01*
Y58585D01*
X-5269D01*
X-5208Y58437D01*
X-4711Y57789D01*
X-4063Y57292D01*
X-3309Y56980D01*
X-2500Y56873D01*
X2500D01*
X3309Y56980D01*
X4063Y57292D01*
X4711Y57789D01*
X5208Y58437D01*
X5520Y59191D01*
X5627Y60000D01*
X5520Y60809D01*
X5208Y61563D01*
X4711Y62211D01*
X4063Y62708D01*
X3309Y63020D01*
X2500Y63127D01*
D02*
G37*
G36*
X-41928Y62568D02*
X-47458D01*
Y61415D01*
X-49235D01*
Y62568D01*
X-54765D01*
Y57432D01*
X-49235D01*
Y58585D01*
X-47458D01*
Y57432D01*
X-41928D01*
Y62568D01*
D02*
G37*
G36*
X62500Y63127D02*
X57500D01*
X56691Y63020D01*
X55937Y62708D01*
X55289Y62211D01*
X54792Y61563D01*
X54480Y60809D01*
X54373Y60000D01*
X54480Y59191D01*
X54792Y58437D01*
X55289Y57789D01*
X55937Y57292D01*
X56691Y56980D01*
X57500Y56873D01*
X62500D01*
X63309Y56980D01*
X64063Y57292D01*
X64711Y57789D01*
X65208Y58437D01*
X65270Y58585D01*
X95388D01*
Y57432D01*
X100919D01*
Y62568D01*
X95388D01*
Y61415D01*
X65270D01*
X65208Y61563D01*
X64711Y62211D01*
X64063Y62708D01*
X63309Y63020D01*
X62500Y63127D01*
D02*
G37*
G36*
X114919Y52569D02*
X109388D01*
Y51415D01*
X107612D01*
Y52569D01*
X102081D01*
Y47431D01*
X107612D01*
Y48585D01*
X109388D01*
Y47431D01*
X114919D01*
Y52569D01*
D02*
G37*
G36*
X2500Y53127D02*
X-2500D01*
X-3309Y53020D01*
X-4063Y52708D01*
X-4711Y52211D01*
X-5208Y51563D01*
X-5269Y51415D01*
X-35235D01*
Y52569D01*
X-40765D01*
Y47431D01*
X-35235D01*
Y48585D01*
X-5269D01*
X-5208Y48437D01*
X-4711Y47789D01*
X-4063Y47292D01*
X-3309Y46980D01*
X-2500Y46873D01*
X2500D01*
X3309Y46980D01*
X4063Y47292D01*
X4711Y47789D01*
X5208Y48437D01*
X5520Y49191D01*
X5627Y50000D01*
X5520Y50809D01*
X5208Y51563D01*
X4711Y52211D01*
X4063Y52708D01*
X3309Y53020D01*
X2500Y53127D01*
D02*
G37*
G36*
X-41928Y52569D02*
X-47458D01*
Y51415D01*
X-49235D01*
Y52569D01*
X-54765D01*
Y47431D01*
X-49235D01*
Y48585D01*
X-47458D01*
Y47431D01*
X-41928D01*
Y52569D01*
D02*
G37*
G36*
X62500Y53127D02*
X57500D01*
X56691Y53020D01*
X55937Y52708D01*
X55289Y52211D01*
X54792Y51563D01*
X54480Y50809D01*
X54373Y50000D01*
X54480Y49191D01*
X54792Y48437D01*
X55289Y47789D01*
X55937Y47292D01*
X56691Y46980D01*
X57500Y46873D01*
X62500D01*
X63309Y46980D01*
X64063Y47292D01*
X64711Y47789D01*
X65208Y48437D01*
X65270Y48585D01*
X95388D01*
Y47431D01*
X100919D01*
Y52569D01*
X95388D01*
Y51415D01*
X65270D01*
X65208Y51563D01*
X64711Y52211D01*
X64063Y52708D01*
X63309Y53020D01*
X62500Y53127D01*
D02*
G37*
G36*
X114919Y42568D02*
X109388D01*
Y41415D01*
X107612D01*
Y42568D01*
X102081D01*
Y37431D01*
X107612D01*
Y38585D01*
X109388D01*
Y37431D01*
X114919D01*
Y42568D01*
D02*
G37*
G36*
X2500Y43127D02*
X-2500D01*
X-3309Y43020D01*
X-4063Y42708D01*
X-4711Y42211D01*
X-5208Y41563D01*
X-5269Y41415D01*
X-35235D01*
Y42568D01*
X-40765D01*
Y37431D01*
X-35235D01*
Y38585D01*
X-5269D01*
X-5208Y38437D01*
X-4711Y37789D01*
X-4063Y37292D01*
X-3309Y36980D01*
X-2500Y36873D01*
X2500D01*
X3309Y36980D01*
X4063Y37292D01*
X4711Y37789D01*
X5208Y38437D01*
X5520Y39191D01*
X5627Y40000D01*
X5520Y40809D01*
X5208Y41563D01*
X4711Y42211D01*
X4063Y42708D01*
X3309Y43020D01*
X2500Y43127D01*
D02*
G37*
G36*
X-41928Y42568D02*
X-47458D01*
Y41415D01*
X-49235D01*
Y42568D01*
X-54765D01*
Y37431D01*
X-49235D01*
Y38585D01*
X-47458D01*
Y37431D01*
X-41928D01*
Y42568D01*
D02*
G37*
G36*
X62500Y43127D02*
X57500D01*
X56691Y43020D01*
X55937Y42708D01*
X55289Y42211D01*
X54792Y41563D01*
X54480Y40809D01*
X54373Y40000D01*
X54480Y39191D01*
X54792Y38437D01*
X55289Y37789D01*
X55937Y37292D01*
X56691Y36980D01*
X57500Y36873D01*
X62500D01*
X63309Y36980D01*
X64063Y37292D01*
X64711Y37789D01*
X65208Y38437D01*
X65270Y38585D01*
X95388D01*
Y37431D01*
X100919D01*
Y42568D01*
X95388D01*
Y41415D01*
X65270D01*
X65208Y41563D01*
X64711Y42211D01*
X64063Y42708D01*
X63309Y43020D01*
X62500Y43127D01*
D02*
G37*
G36*
X114919Y32568D02*
X109388D01*
Y31415D01*
X107612D01*
Y32568D01*
X102081D01*
Y27431D01*
X107612D01*
Y28585D01*
X109388D01*
Y27431D01*
X114919D01*
Y32568D01*
D02*
G37*
G36*
X2500Y33127D02*
X-2500D01*
X-3309Y33020D01*
X-4063Y32708D01*
X-4711Y32211D01*
X-5208Y31563D01*
X-5269Y31415D01*
X-35235D01*
Y32568D01*
X-40765D01*
Y27431D01*
X-35235D01*
Y28585D01*
X-5269D01*
X-5208Y28437D01*
X-4711Y27789D01*
X-4063Y27292D01*
X-3309Y26980D01*
X-2500Y26873D01*
X2500D01*
X3309Y26980D01*
X4063Y27292D01*
X4711Y27789D01*
X5208Y28437D01*
X5520Y29191D01*
X5627Y30000D01*
X5520Y30809D01*
X5208Y31563D01*
X4711Y32211D01*
X4063Y32708D01*
X3309Y33020D01*
X2500Y33127D01*
D02*
G37*
G36*
X-41928Y32568D02*
X-47458D01*
Y31415D01*
X-49235D01*
Y32568D01*
X-54765D01*
Y27431D01*
X-49235D01*
Y28585D01*
X-47458D01*
Y27431D01*
X-41928D01*
Y32568D01*
D02*
G37*
G36*
X62500Y33127D02*
X57500D01*
X56691Y33020D01*
X55937Y32708D01*
X55289Y32211D01*
X54792Y31563D01*
X54480Y30809D01*
X54373Y30000D01*
X54480Y29191D01*
X54792Y28437D01*
X55289Y27789D01*
X55937Y27292D01*
X56691Y26980D01*
X57500Y26873D01*
X62500D01*
X63309Y26980D01*
X64063Y27292D01*
X64711Y27789D01*
X65208Y28437D01*
X65270Y28585D01*
X95388D01*
Y27431D01*
X100919D01*
Y32568D01*
X95388D01*
Y31415D01*
X65270D01*
X65208Y31563D01*
X64711Y32211D01*
X64063Y32708D01*
X63309Y33020D01*
X62500Y33127D01*
D02*
G37*
G36*
X114919Y22569D02*
X109388D01*
Y21415D01*
X107612D01*
Y22569D01*
X102081D01*
Y17432D01*
X107612D01*
Y18585D01*
X109388D01*
Y17432D01*
X114919D01*
Y22569D01*
D02*
G37*
G36*
X2500Y23127D02*
X-2500D01*
X-3309Y23020D01*
X-4063Y22708D01*
X-4711Y22211D01*
X-5208Y21563D01*
X-5269Y21415D01*
X-35235D01*
Y22569D01*
X-40765D01*
Y17432D01*
X-35235D01*
Y18585D01*
X-5269D01*
X-5208Y18437D01*
X-4711Y17789D01*
X-4063Y17292D01*
X-3309Y16980D01*
X-2500Y16873D01*
X2500D01*
X3309Y16980D01*
X4063Y17292D01*
X4711Y17789D01*
X5208Y18437D01*
X5520Y19191D01*
X5627Y20000D01*
X5520Y20809D01*
X5208Y21563D01*
X4711Y22211D01*
X4063Y22708D01*
X3309Y23020D01*
X2500Y23127D01*
D02*
G37*
G36*
X-41928Y22569D02*
X-47458D01*
Y21415D01*
X-49235D01*
Y22569D01*
X-54765D01*
Y17432D01*
X-49235D01*
Y18585D01*
X-47458D01*
Y17432D01*
X-41928D01*
Y22569D01*
D02*
G37*
G36*
X62500Y23127D02*
X57500D01*
X56691Y23020D01*
X55937Y22708D01*
X55289Y22211D01*
X54792Y21563D01*
X54480Y20809D01*
X54373Y20000D01*
X54480Y19191D01*
X54792Y18437D01*
X55289Y17789D01*
X55937Y17292D01*
X56691Y16980D01*
X57500Y16873D01*
X62500D01*
X63309Y16980D01*
X64063Y17292D01*
X64711Y17789D01*
X65208Y18437D01*
X65270Y18585D01*
X95388D01*
Y17432D01*
X100919D01*
Y22569D01*
X95388D01*
Y21415D01*
X65270D01*
X65208Y21563D01*
X64711Y22211D01*
X64063Y22708D01*
X63309Y23020D01*
X62500Y23127D01*
D02*
G37*
G36*
X114919Y12569D02*
X109388D01*
Y11415D01*
X107612D01*
Y12569D01*
X102081D01*
Y7431D01*
X107612D01*
Y8585D01*
X109388D01*
Y7431D01*
X114919D01*
Y12569D01*
D02*
G37*
G36*
X62500Y13127D02*
X57500D01*
X56691Y13020D01*
X55937Y12708D01*
X55289Y12211D01*
X54792Y11563D01*
X54480Y10809D01*
X54373Y10000D01*
X54480Y9191D01*
X54792Y8437D01*
X55289Y7789D01*
X55937Y7292D01*
X56691Y6980D01*
X57500Y6873D01*
X62500D01*
X63309Y6980D01*
X64063Y7292D01*
X64711Y7789D01*
X65208Y8437D01*
X65270Y8585D01*
X95388D01*
Y7431D01*
X100919D01*
Y12569D01*
X95388D01*
Y11415D01*
X65270D01*
X65208Y11563D01*
X64711Y12211D01*
X64063Y12708D01*
X63309Y13020D01*
X62500Y13127D01*
D02*
G37*
G36*
X-55928Y192569D02*
X-61458D01*
Y187432D01*
X-60324D01*
Y182569D01*
X-61458D01*
Y177431D01*
X-60324D01*
Y172569D01*
X-61458D01*
Y167431D01*
X-60324D01*
Y162568D01*
X-61458D01*
Y157431D01*
X-60324D01*
Y112568D01*
X-61458D01*
Y107431D01*
X-60324D01*
Y102568D01*
X-61458D01*
Y97431D01*
X-60324D01*
Y92568D01*
X-61458D01*
Y87432D01*
X-60324D01*
Y82569D01*
X-61458D01*
Y77431D01*
X-60324D01*
Y72569D01*
X-61458D01*
Y67431D01*
X-60324D01*
Y62568D01*
X-61458D01*
Y57432D01*
X-60324D01*
Y52569D01*
X-61458D01*
Y47431D01*
X-60324D01*
Y42568D01*
X-61458D01*
Y37431D01*
X-60324D01*
Y32568D01*
X-61458D01*
Y27431D01*
X-60324D01*
Y22569D01*
X-61458D01*
Y17432D01*
X-60324D01*
Y12569D01*
X-61458D01*
Y7431D01*
X-60301D01*
Y7000D01*
X-60176Y6376D01*
X-59823Y5847D01*
X-58492Y4516D01*
X-57963Y4162D01*
X-57339Y4038D01*
X-19345D01*
X-14153Y-1154D01*
X-13624Y-1507D01*
X-13000Y-1631D01*
X-5156D01*
X-4711Y-2211D01*
X-4063Y-2708D01*
X-3309Y-3020D01*
X-2500Y-3127D01*
X2500D01*
X3309Y-3020D01*
X4063Y-2708D01*
X4711Y-2211D01*
X5156Y-1631D01*
X36824D01*
X42369Y-7176D01*
Y-32239D01*
X38357D01*
Y-36169D01*
X34225D01*
X34187Y-36143D01*
X33742Y-36055D01*
X30888D01*
X30443Y-36143D01*
X30065Y-36396D01*
X29813Y-36773D01*
X29724Y-37218D01*
Y-38301D01*
X29813Y-38747D01*
X30065Y-39124D01*
X30443Y-39376D01*
X30888Y-39465D01*
X33742D01*
X33911Y-39431D01*
X38357D01*
Y-39738D01*
X46643D01*
Y-38131D01*
X49868D01*
X54215Y-42479D01*
Y-54931D01*
X53081D01*
Y-59531D01*
X52681D01*
Y-62000D01*
X55847D01*
Y-62500D01*
X56346D01*
Y-65469D01*
X58278D01*
Y-68435D01*
X56598Y-70116D01*
X55668D01*
X55431Y-69545D01*
X54893Y-68844D01*
X54192Y-68306D01*
X53376Y-67968D01*
X52500Y-67853D01*
X51624Y-67968D01*
X50808Y-68306D01*
X50107Y-68844D01*
X49569Y-69545D01*
X49231Y-70362D01*
X49115Y-71238D01*
X49231Y-72114D01*
X49569Y-72930D01*
X50107Y-73631D01*
X50808Y-74169D01*
X51624Y-74507D01*
X52500Y-74623D01*
X53376Y-74507D01*
X54192Y-74169D01*
X54893Y-73631D01*
X55431Y-72930D01*
X55668Y-72359D01*
X57062D01*
X57062Y-72359D01*
X57491Y-72274D01*
X57855Y-72031D01*
X60193Y-69693D01*
X60193Y-69693D01*
X60436Y-69329D01*
X60522Y-68900D01*
X60522Y-68900D01*
Y-58400D01*
X60436Y-57971D01*
X60193Y-57607D01*
X60193Y-57607D01*
X59293Y-56707D01*
X58929Y-56464D01*
X58612Y-56401D01*
Y-54931D01*
X57478D01*
Y-41803D01*
X57354Y-41179D01*
X57000Y-40650D01*
X51697Y-35346D01*
X51168Y-34993D01*
X50543Y-34869D01*
X46643D01*
Y-32239D01*
X45631D01*
Y-6500D01*
X45507Y-5876D01*
X45153Y-5347D01*
X38653Y1154D01*
X38124Y1507D01*
X37500Y1631D01*
X5156D01*
X4711Y2211D01*
X4063Y2708D01*
X3309Y3020D01*
X2500Y3127D01*
X-2500D01*
X-3309Y3020D01*
X-4063Y2708D01*
X-4711Y2211D01*
X-5156Y1631D01*
X-12324D01*
X-17516Y6823D01*
X-18045Y7176D01*
X-18669Y7301D01*
X-34789D01*
X-35235Y7431D01*
X-35235Y7801D01*
Y8585D01*
X-5269D01*
X-5208Y8437D01*
X-4711Y7789D01*
X-4063Y7292D01*
X-3309Y6980D01*
X-2500Y6873D01*
X2500D01*
X3309Y6980D01*
X4063Y7292D01*
X4711Y7789D01*
X5208Y8437D01*
X5520Y9191D01*
X5627Y10000D01*
X5520Y10809D01*
X5208Y11563D01*
X4711Y12211D01*
X4063Y12708D01*
X3309Y13020D01*
X2500Y13127D01*
X-2500D01*
X-3309Y13020D01*
X-4063Y12708D01*
X-4711Y12211D01*
X-5208Y11563D01*
X-5269Y11415D01*
X-35235D01*
Y12569D01*
X-40765D01*
X-40765Y7431D01*
X-41211Y7301D01*
X-41482D01*
X-41928Y7431D01*
X-41928Y7801D01*
Y12569D01*
X-47458D01*
Y11415D01*
X-49235D01*
Y12569D01*
X-54765D01*
X-54765Y7431D01*
X-55211Y7301D01*
X-55482D01*
X-55928Y7431D01*
Y12569D01*
X-57062D01*
Y17432D01*
X-55928D01*
Y22569D01*
X-57062D01*
Y27431D01*
X-55928D01*
Y32568D01*
X-57062D01*
Y37431D01*
X-55928D01*
Y42568D01*
X-57062D01*
Y47431D01*
X-55928D01*
Y52569D01*
X-57062D01*
Y57432D01*
X-55928D01*
Y62568D01*
X-57062D01*
Y67431D01*
X-55928D01*
Y72569D01*
X-57062D01*
Y77431D01*
X-55928D01*
Y82569D01*
X-57062D01*
Y87432D01*
X-55928D01*
Y92568D01*
X-57062D01*
Y97431D01*
X-55928D01*
Y102568D01*
X-57062D01*
Y107431D01*
X-55928D01*
Y112568D01*
X-57062D01*
Y157431D01*
X-55928D01*
Y162568D01*
X-57062D01*
Y167431D01*
X-55928D01*
Y172569D01*
X-57062D01*
Y177431D01*
X-55928D01*
Y182569D01*
X-57062D01*
Y187432D01*
X-55928D01*
Y192569D01*
D02*
G37*
G36*
X62500Y3530D02*
X60500D01*
Y500D01*
X65964D01*
X65910Y914D01*
X65557Y1765D01*
X64996Y2496D01*
X64265Y3057D01*
X63414Y3410D01*
X62500Y3530D01*
D02*
G37*
G36*
X59500D02*
X57500D01*
X56586Y3410D01*
X55735Y3057D01*
X55004Y2496D01*
X54443Y1765D01*
X54090Y914D01*
X54036Y500D01*
X59500D01*
Y3530D01*
D02*
G37*
G36*
X-39488Y969D02*
X-42154D01*
Y-1500D01*
X-39488D01*
Y969D01*
D02*
G37*
G36*
X-43154D02*
X-45819D01*
Y-1500D01*
X-43154D01*
Y969D01*
D02*
G37*
G36*
X-57591Y-850D02*
X-60044D01*
Y-3145D01*
X-54861D01*
X-54891Y-2922D01*
X-55170Y-2247D01*
X-55614Y-1668D01*
X-56193Y-1224D01*
X-56867Y-945D01*
X-57591Y-850D01*
D02*
G37*
G36*
X-61044D02*
X-63497D01*
X-64220Y-945D01*
X-64894Y-1224D01*
X-65473Y-1668D01*
X-65918Y-2247D01*
X-66197Y-2922D01*
X-66226Y-3145D01*
X-61044D01*
Y-850D01*
D02*
G37*
G36*
X65964Y-500D02*
X60500D01*
Y-3530D01*
X62500D01*
X63414Y-3410D01*
X64265Y-3057D01*
X64996Y-2496D01*
X65557Y-1765D01*
X65910Y-914D01*
X65964Y-500D01*
D02*
G37*
G36*
X59500D02*
X54036D01*
X54090Y-914D01*
X54443Y-1765D01*
X55004Y-2496D01*
X55735Y-3057D01*
X56586Y-3410D01*
X57500Y-3530D01*
X59500D01*
Y-500D01*
D02*
G37*
G36*
X-39488Y-2500D02*
X-42154D01*
Y-4969D01*
X-39488D01*
Y-2500D01*
D02*
G37*
G36*
X-43154D02*
X-45819D01*
Y-4969D01*
X-43154D01*
Y-2500D01*
D02*
G37*
G36*
X-72276Y-1227D02*
X-75426D01*
X-76351Y-1411D01*
X-77136Y-1935D01*
X-77660Y-2720D01*
X-77844Y-3645D01*
X-77660Y-4570D01*
X-77136Y-5355D01*
X-76351Y-5879D01*
X-75426Y-6063D01*
X-72276D01*
X-71351Y-5879D01*
X-70566Y-5355D01*
X-70042Y-4570D01*
X-69858Y-3645D01*
X-70042Y-2720D01*
X-70566Y-1935D01*
X-71351Y-1411D01*
X-72276Y-1227D01*
D02*
G37*
G36*
X121612Y192569D02*
X116081D01*
Y187432D01*
X117215D01*
Y182569D01*
X116081D01*
Y177431D01*
X117215D01*
Y172569D01*
X116081D01*
Y167431D01*
X117215D01*
Y162568D01*
X116081D01*
Y157431D01*
X117215D01*
Y152568D01*
X116081D01*
Y147432D01*
X117215D01*
Y142569D01*
X116081D01*
Y137432D01*
X117215D01*
Y132569D01*
X116081D01*
Y127431D01*
X117215D01*
Y122569D01*
X116081D01*
Y117431D01*
X117215D01*
Y112568D01*
X116081D01*
Y107431D01*
X117215D01*
Y102568D01*
X116081D01*
Y97431D01*
X117215D01*
Y92568D01*
X116081D01*
Y87432D01*
X117215D01*
Y82569D01*
X116081D01*
Y77431D01*
X117215D01*
Y72569D01*
X116081D01*
Y67431D01*
X117215D01*
Y62568D01*
X116081D01*
Y57432D01*
X117215D01*
Y52569D01*
X116081D01*
Y47431D01*
X117215D01*
Y42568D01*
X116081D01*
Y37431D01*
X117215D01*
Y32568D01*
X116081D01*
Y27431D01*
X117215D01*
Y22569D01*
X116081D01*
Y17432D01*
X117215D01*
Y12569D01*
X116081D01*
Y7431D01*
X117215D01*
Y5707D01*
X113639Y2131D01*
X74500D01*
X73876Y2007D01*
X73347Y1654D01*
X66824Y-4869D01*
X58000D01*
X57376Y-4993D01*
X56846Y-5347D01*
X56493Y-5876D01*
X56369Y-6500D01*
X56493Y-7124D01*
X56846Y-7654D01*
X57376Y-8007D01*
X58000Y-8131D01*
X67500D01*
X68124Y-8007D01*
X68654Y-7654D01*
X75176Y-1131D01*
X114315D01*
X114939Y-1007D01*
X115469Y-654D01*
X120000Y3878D01*
X120354Y4407D01*
X120478Y5032D01*
Y7431D01*
X121612D01*
Y12569D01*
X120478D01*
Y17432D01*
X121612D01*
Y22569D01*
X120478D01*
Y27431D01*
X121612D01*
Y32568D01*
X120478D01*
Y37431D01*
X121612D01*
Y42568D01*
X120478D01*
Y47431D01*
X121612D01*
Y52569D01*
X120478D01*
Y57432D01*
X121612D01*
Y62568D01*
X120478D01*
Y67431D01*
X121612D01*
Y72569D01*
X120478D01*
Y77431D01*
X121612D01*
Y82569D01*
X120478D01*
Y87432D01*
X121612D01*
Y92568D01*
X120478D01*
Y97431D01*
X121612D01*
Y102568D01*
X120478D01*
Y107431D01*
X121612D01*
Y112568D01*
X120478D01*
Y117431D01*
X121612D01*
Y122569D01*
X120478D01*
Y127431D01*
X121612D01*
Y132569D01*
X120478D01*
Y137432D01*
X121612D01*
Y142569D01*
X120478D01*
Y147432D01*
X121612D01*
Y152568D01*
X120478D01*
Y157431D01*
X121612D01*
Y162568D01*
X120478D01*
Y167431D01*
X121612D01*
Y172569D01*
X120478D01*
Y177431D01*
X121612D01*
Y182569D01*
X120478D01*
Y187432D01*
X121612D01*
Y192569D01*
D02*
G37*
G36*
X-46581Y569D02*
X-52112D01*
Y-4569D01*
X-51019D01*
Y-8468D01*
X-50856Y-9288D01*
X-50604Y-9666D01*
X-50871Y-10166D01*
X-54207D01*
X-54503Y-9666D01*
X-54462Y-9460D01*
X-56686D01*
Y-8460D01*
X-54462D01*
X-54535Y-8094D01*
X-55026Y-7359D01*
X-55761Y-6868D01*
X-56479Y-6725D01*
X-56532Y-6206D01*
X-56193Y-6066D01*
X-55614Y-5622D01*
X-55170Y-5043D01*
X-54891Y-4369D01*
X-54861Y-4145D01*
X-66226D01*
X-66197Y-4369D01*
X-65918Y-5043D01*
X-65473Y-5622D01*
X-64894Y-6066D01*
X-64220Y-6345D01*
X-63497Y-6440D01*
X-63142D01*
X-63033Y-6940D01*
X-63660Y-7359D01*
X-64151Y-8094D01*
X-64224Y-8460D01*
X-62000D01*
Y-9460D01*
X-64224D01*
X-64151Y-9826D01*
X-63660Y-10561D01*
X-63372Y-10754D01*
Y-10994D01*
X-63774Y-11597D01*
X-63915Y-12307D01*
X-63774Y-13017D01*
X-63372Y-13620D01*
X-63206Y-13730D01*
Y-14230D01*
X-63372Y-14341D01*
X-63774Y-14943D01*
X-63915Y-15653D01*
X-63774Y-16363D01*
X-63372Y-16965D01*
X-63205Y-17076D01*
Y-17576D01*
X-63372Y-17687D01*
X-63774Y-18290D01*
X-63915Y-19000D01*
X-63774Y-19710D01*
X-63372Y-20312D01*
X-63218Y-20415D01*
Y-20931D01*
X-63372Y-21034D01*
X-63774Y-21636D01*
X-63915Y-22346D01*
X-63774Y-23056D01*
X-63372Y-23659D01*
X-63276Y-23722D01*
X-63245Y-24233D01*
X-63580Y-24571D01*
X-65693D01*
X-65693Y-24571D01*
X-66122Y-24657D01*
X-66486Y-24900D01*
X-68793Y-27207D01*
X-69036Y-27571D01*
X-69122Y-28000D01*
X-69122Y-28000D01*
Y-40000D01*
X-69122Y-40000D01*
X-69036Y-40429D01*
X-68793Y-40793D01*
X-66293Y-43293D01*
X-66293Y-43293D01*
X-65929Y-43536D01*
X-65500Y-43622D01*
X-52000D01*
X-52000Y-43622D01*
X-51571Y-43536D01*
X-51207Y-43293D01*
X-48707Y-40793D01*
X-48707Y-40793D01*
X-48464Y-40429D01*
X-48378Y-40000D01*
Y-30618D01*
X-47329Y-29568D01*
X-43581D01*
Y-24431D01*
X-49112D01*
Y-28179D01*
X-50293Y-29360D01*
X-50536Y-29724D01*
X-50622Y-30154D01*
X-50622Y-30154D01*
Y-39535D01*
X-52465Y-41378D01*
X-65035D01*
X-66878Y-39535D01*
Y-28465D01*
X-65228Y-26815D01*
X-63499D01*
X-63372Y-27005D01*
X-63206Y-27116D01*
Y-27616D01*
X-63372Y-27727D01*
X-63774Y-28329D01*
X-63915Y-29039D01*
X-63774Y-29749D01*
X-63372Y-30351D01*
Y-30592D01*
X-63660Y-30785D01*
X-64151Y-31520D01*
X-64224Y-31886D01*
X-62000D01*
X-59776D01*
X-59849Y-31520D01*
X-60340Y-30785D01*
X-60628Y-30592D01*
Y-30351D01*
X-60226Y-29749D01*
X-60085Y-29039D01*
X-60226Y-28329D01*
X-60628Y-27727D01*
X-60794Y-27616D01*
Y-27116D01*
X-60628Y-27005D01*
X-60226Y-26403D01*
X-60085Y-25693D01*
X-60226Y-24983D01*
X-60628Y-24381D01*
X-60724Y-24317D01*
X-60755Y-23806D01*
X-60420Y-23468D01*
X-58185D01*
X-58058Y-23659D01*
X-57891Y-23769D01*
Y-24270D01*
X-58058Y-24381D01*
X-58460Y-24983D01*
X-58601Y-25693D01*
X-58460Y-26403D01*
X-58058Y-27005D01*
X-57892Y-27116D01*
Y-27616D01*
X-58058Y-27727D01*
X-58460Y-28329D01*
X-58601Y-29039D01*
X-58460Y-29749D01*
X-58058Y-30351D01*
Y-30592D01*
X-58346Y-30785D01*
X-58837Y-31520D01*
X-58910Y-31886D01*
X-56686D01*
X-54462D01*
X-54535Y-31520D01*
X-55026Y-30785D01*
X-55314Y-30592D01*
Y-30351D01*
X-54912Y-29749D01*
X-54771Y-29039D01*
X-54912Y-28329D01*
X-55314Y-27727D01*
X-55480Y-27616D01*
Y-27116D01*
X-55314Y-27005D01*
X-54912Y-26403D01*
X-54771Y-25693D01*
X-54912Y-24983D01*
X-55314Y-24381D01*
X-55481Y-24270D01*
Y-23769D01*
X-55314Y-23659D01*
X-54912Y-23056D01*
X-54771Y-22346D01*
X-54912Y-21636D01*
X-55314Y-21034D01*
X-55480Y-20923D01*
Y-20423D01*
X-55314Y-20312D01*
X-54912Y-19710D01*
X-54771Y-19000D01*
X-54912Y-18290D01*
X-55314Y-17687D01*
X-55409Y-17624D01*
X-55441Y-17113D01*
X-55106Y-16774D01*
X-53812D01*
X-50793Y-19793D01*
X-50793Y-19793D01*
X-50429Y-20036D01*
X-50000Y-20121D01*
X-49112D01*
Y-21568D01*
X-43581D01*
Y-16432D01*
X-49112D01*
Y-17694D01*
X-49612Y-17802D01*
X-52466Y-14948D01*
X-52380Y-14604D01*
X-52273Y-14448D01*
X-49899D01*
Y-14553D01*
X-44762D01*
Y-7447D01*
X-46737D01*
Y-4569D01*
X-46581D01*
Y569D01*
D02*
G37*
G36*
X-36488Y-16032D02*
X-39154D01*
Y-18500D01*
X-36488D01*
Y-16032D01*
D02*
G37*
G36*
X-40154D02*
X-42819D01*
Y-18500D01*
X-40154D01*
Y-16032D01*
D02*
G37*
G36*
X-36488Y-19500D02*
X-39154D01*
Y-21969D01*
X-36488D01*
Y-19500D01*
D02*
G37*
G36*
X-40154D02*
X-42819D01*
Y-21969D01*
X-40154D01*
Y-19500D01*
D02*
G37*
G36*
X-36488Y-24032D02*
X-39154D01*
Y-26500D01*
X-36488D01*
Y-24032D01*
D02*
G37*
G36*
X-40154D02*
X-42819D01*
Y-26500D01*
X-40154D01*
Y-24032D01*
D02*
G37*
G36*
X-36488Y-27500D02*
X-39154D01*
Y-29969D01*
X-36488D01*
Y-27500D01*
D02*
G37*
G36*
X-40154D02*
X-42819D01*
Y-29969D01*
X-40154D01*
Y-27500D01*
D02*
G37*
G36*
X-59776Y-32886D02*
X-61500D01*
Y-34562D01*
X-61075Y-34478D01*
X-60340Y-33987D01*
X-59849Y-33252D01*
X-59776Y-32886D01*
D02*
G37*
G36*
X-54462D02*
X-56186D01*
Y-34562D01*
X-55761Y-34478D01*
X-55026Y-33987D01*
X-54535Y-33252D01*
X-54462Y-32886D01*
D02*
G37*
G36*
X-57186D02*
X-58910D01*
X-58837Y-33252D01*
X-58346Y-33987D01*
X-57611Y-34478D01*
X-57186Y-34562D01*
Y-32886D01*
D02*
G37*
G36*
X-62500D02*
X-64224D01*
X-64151Y-33252D01*
X-63660Y-33987D01*
X-62925Y-34478D01*
X-62500Y-34562D01*
Y-32886D01*
D02*
G37*
G36*
X10143Y-32239D02*
X1857D01*
Y-36546D01*
X-1335D01*
X-1435Y-36396D01*
X-1812Y-36143D01*
X-2258Y-36055D01*
X-5112D01*
X-5557Y-36143D01*
X-5935Y-36396D01*
X-6187Y-36773D01*
X-6276Y-37218D01*
Y-38301D01*
X-6187Y-38747D01*
X-5935Y-39124D01*
X-5557Y-39376D01*
X-5112Y-39465D01*
X-2258D01*
X-1812Y-39376D01*
X-1435Y-39124D01*
X-1335Y-38974D01*
X1857D01*
Y-39738D01*
X10143D01*
Y-37202D01*
X10985D01*
X11786Y-38003D01*
Y-52465D01*
X11508Y-52882D01*
X11385Y-53500D01*
X11508Y-54118D01*
X11717Y-54431D01*
X11534Y-54931D01*
X8581D01*
Y-59531D01*
X8181D01*
Y-62000D01*
X11347D01*
Y-62500D01*
X11846D01*
Y-65469D01*
X13686D01*
Y-68697D01*
X12359Y-70024D01*
X10630D01*
X10431Y-69545D01*
X9894Y-68844D01*
X9192Y-68306D01*
X8376Y-67968D01*
X7500Y-67853D01*
X6624Y-67968D01*
X5808Y-68306D01*
X5107Y-68844D01*
X4569Y-69545D01*
X4231Y-70362D01*
X4115Y-71238D01*
X4231Y-72114D01*
X4569Y-72930D01*
X5107Y-73631D01*
X5808Y-74169D01*
X6624Y-74507D01*
X7500Y-74623D01*
X8376Y-74507D01*
X9192Y-74169D01*
X9894Y-73631D01*
X10431Y-72930D01*
X10630Y-72452D01*
X12862D01*
X12862Y-72452D01*
X13327Y-72359D01*
X13721Y-72096D01*
X15758Y-70058D01*
X15758Y-70058D01*
X16022Y-69665D01*
X16114Y-69200D01*
Y-58400D01*
X16022Y-57936D01*
X15758Y-57542D01*
X15758Y-57542D01*
X14858Y-56642D01*
X14465Y-56379D01*
X14168Y-56320D01*
X14226Y-56032D01*
X14226Y-56031D01*
Y-54517D01*
X14492Y-54118D01*
X14615Y-53500D01*
X14492Y-52882D01*
X14214Y-52465D01*
Y-37500D01*
X14214Y-37500D01*
X14121Y-37036D01*
X13858Y-36642D01*
X13858Y-36642D01*
X12347Y-35130D01*
X11953Y-34867D01*
X11488Y-34774D01*
X11488Y-34774D01*
X10143D01*
Y-32239D01*
D02*
G37*
G36*
X-57591Y-35283D02*
X-63497D01*
X-64422Y-35467D01*
X-65206Y-35991D01*
X-65731Y-36776D01*
X-65915Y-37701D01*
X-65731Y-38626D01*
X-65206Y-39411D01*
X-64422Y-39935D01*
X-63497Y-40119D01*
X-57591D01*
X-56666Y-39935D01*
X-55881Y-39411D01*
X-55357Y-38626D01*
X-55173Y-37701D01*
X-55357Y-36776D01*
X-55881Y-35991D01*
X-56666Y-35467D01*
X-57591Y-35283D01*
D02*
G37*
G36*
X-72276D02*
X-75426D01*
X-76351Y-35467D01*
X-77136Y-35991D01*
X-77660Y-36776D01*
X-77844Y-37701D01*
X-77660Y-38626D01*
X-77136Y-39411D01*
X-76351Y-39935D01*
X-75426Y-40119D01*
X-72276D01*
X-71351Y-39935D01*
X-70566Y-39411D01*
X-70042Y-38626D01*
X-69858Y-37701D01*
X-70042Y-36776D01*
X-70566Y-35991D01*
X-71351Y-35467D01*
X-72276Y-35283D01*
D02*
G37*
G36*
X68378Y-38151D02*
Y-40500D01*
X70727D01*
X70694Y-40246D01*
X70403Y-39543D01*
X69939Y-38939D01*
X69336Y-38476D01*
X68633Y-38185D01*
X68378Y-38151D01*
D02*
G37*
G36*
X67378D02*
X67124Y-38185D01*
X66421Y-38476D01*
X65817Y-38939D01*
X65354Y-39543D01*
X65063Y-40246D01*
X65030Y-40500D01*
X67378D01*
Y-38151D01*
D02*
G37*
G36*
X77378D02*
X77124Y-38185D01*
X76421Y-38476D01*
X75817Y-38939D01*
X75354Y-39543D01*
X75063Y-40246D01*
X75030Y-40500D01*
X77378D01*
Y-38151D01*
D02*
G37*
G36*
X-36101Y-7447D02*
X-41238D01*
Y-14553D01*
X-36101D01*
Y-13886D01*
X-33281D01*
X-30386Y-16781D01*
Y-28000D01*
Y-32239D01*
X-32643D01*
Y-39738D01*
X-24357D01*
Y-32239D01*
X-26614D01*
Y-29886D01*
X-15716D01*
Y-36055D01*
X-15742D01*
X-16187Y-36143D01*
X-16565Y-36396D01*
X-16817Y-36773D01*
X-16818Y-36776D01*
X-16898D01*
X-17327Y-36862D01*
X-17691Y-37105D01*
X-17691Y-37105D01*
X-18793Y-38207D01*
X-19036Y-38571D01*
X-19122Y-39000D01*
X-19121Y-39000D01*
Y-44500D01*
X-19122Y-44500D01*
X-19036Y-44929D01*
X-18793Y-45293D01*
X-17915Y-46171D01*
X-17915Y-46171D01*
X-17551Y-46414D01*
X-17122Y-46499D01*
X-16635D01*
X-16565Y-46604D01*
X-16187Y-46857D01*
X-15742Y-46945D01*
X-12888D01*
X-12443Y-46857D01*
X-12065Y-46604D01*
X-11813Y-46227D01*
X-11724Y-45781D01*
Y-44699D01*
X-11813Y-44254D01*
X-12039Y-43915D01*
X-12062Y-43843D01*
X-12012Y-43310D01*
X-11777Y-43153D01*
X-11436Y-42643D01*
X-11316Y-42041D01*
Y-42000D01*
X-14315D01*
Y-41000D01*
X-11316D01*
Y-40959D01*
X-11436Y-40357D01*
X-11777Y-39847D01*
X-12012Y-39690D01*
X-12062Y-39158D01*
X-12039Y-39085D01*
X-11813Y-38747D01*
X-11724Y-38301D01*
Y-37218D01*
X-11813Y-36773D01*
X-12065Y-36396D01*
X-12284Y-36249D01*
Y-29886D01*
X16219D01*
X19799Y-33466D01*
Y-36153D01*
X19435Y-36396D01*
X19183Y-36773D01*
X19094Y-37218D01*
Y-38301D01*
X19183Y-38747D01*
X19409Y-39085D01*
X19432Y-39158D01*
X19382Y-39690D01*
X19147Y-39847D01*
X18806Y-40357D01*
X18686Y-40959D01*
Y-41000D01*
X24684D01*
Y-40959D01*
X24564Y-40357D01*
X24223Y-39847D01*
X23988Y-39690D01*
X23938Y-39158D01*
X23961Y-39085D01*
X24187Y-38747D01*
X24276Y-38301D01*
Y-37218D01*
X24187Y-36773D01*
X23935Y-36396D01*
X23571Y-36153D01*
Y-32685D01*
X23428Y-31963D01*
X23019Y-31351D01*
X18334Y-26666D01*
X17722Y-26257D01*
X17000Y-26114D01*
X-26614D01*
Y-16000D01*
X-26757Y-15278D01*
X-27166Y-14666D01*
X-31166Y-10666D01*
X-31778Y-10257D01*
X-32500Y-10114D01*
X-36101D01*
Y-7447D01*
D02*
G37*
G36*
X137311Y-41618D02*
X134811D01*
Y-43618D01*
X137311D01*
Y-41618D01*
D02*
G37*
G36*
X133811D02*
X131311D01*
Y-43618D01*
X133811D01*
Y-41618D01*
D02*
G37*
G36*
X113689D02*
X111189D01*
Y-43618D01*
X113689D01*
Y-41618D01*
D02*
G37*
G36*
X110189D02*
X107689D01*
Y-43618D01*
X110189D01*
Y-41618D01*
D02*
G37*
G36*
X47043Y-42862D02*
X43000D01*
Y-46512D01*
X47043D01*
Y-42862D01*
D02*
G37*
G36*
X10543D02*
X6500D01*
Y-46512D01*
X10543D01*
Y-42862D01*
D02*
G37*
G36*
X-23957D02*
X-28000D01*
Y-46512D01*
X-23957D01*
Y-42862D01*
D02*
G37*
G36*
X42000D02*
X37957D01*
Y-46512D01*
X42000D01*
Y-42862D01*
D02*
G37*
G36*
X5500D02*
X1457D01*
Y-46512D01*
X5500D01*
Y-42862D01*
D02*
G37*
G36*
X-29000D02*
X-33043D01*
Y-46512D01*
X-29000D01*
Y-42862D01*
D02*
G37*
G36*
X137311Y-44618D02*
X134811D01*
Y-46618D01*
X137311D01*
Y-44618D01*
D02*
G37*
G36*
X133811D02*
X131311D01*
Y-46618D01*
X133811D01*
Y-44618D01*
D02*
G37*
G36*
X113689D02*
X111189D01*
Y-46618D01*
X113689D01*
Y-44618D01*
D02*
G37*
G36*
X110189D02*
X107689D01*
Y-46618D01*
X110189D01*
Y-44618D01*
D02*
G37*
G36*
X104569Y-36581D02*
X99432D01*
Y-40395D01*
X84446Y-55380D01*
X83984Y-55189D01*
Y-55079D01*
X84000Y-55000D01*
Y-48245D01*
X84674Y-47795D01*
X85099Y-47158D01*
X85658D01*
X86083Y-47795D01*
X86907Y-48345D01*
X87878Y-48539D01*
X88850Y-48345D01*
X89674Y-47795D01*
X90224Y-46971D01*
X90417Y-46000D01*
X90224Y-45029D01*
X89674Y-44205D01*
X89351Y-43990D01*
X89503Y-43490D01*
X90368D01*
Y-38510D01*
X85389D01*
Y-38787D01*
X85335Y-38805D01*
X84889Y-38900D01*
X84336Y-38476D01*
X83633Y-38185D01*
X83378Y-38151D01*
Y-41000D01*
X82378D01*
Y-38151D01*
X82124Y-38185D01*
X81421Y-38476D01*
X80817Y-38939D01*
X80628Y-39185D01*
X80128D01*
X79939Y-38939D01*
X79336Y-38476D01*
X78633Y-38185D01*
X78378Y-38151D01*
Y-41000D01*
X77878D01*
Y-41500D01*
X75030D01*
X75063Y-41754D01*
X75354Y-42457D01*
X75817Y-43061D01*
X76319Y-43446D01*
X76396Y-43996D01*
X76083Y-44205D01*
X75658Y-44842D01*
X75099D01*
X74673Y-44205D01*
X73850Y-43655D01*
X72878Y-43461D01*
X71907Y-43655D01*
X71083Y-44205D01*
X70658Y-44842D01*
X70099D01*
X69674Y-44205D01*
X69361Y-43996D01*
X69438Y-43446D01*
X69939Y-43061D01*
X70403Y-42457D01*
X70694Y-41754D01*
X70727Y-41500D01*
X67878D01*
X65030D01*
X65063Y-41754D01*
X65354Y-42457D01*
X65817Y-43061D01*
X66319Y-43446D01*
X66396Y-43996D01*
X66083Y-44205D01*
X65533Y-45029D01*
X65340Y-46000D01*
X65533Y-46971D01*
X66083Y-47795D01*
X66907Y-48345D01*
X67878Y-48539D01*
X68088Y-48497D01*
X68335Y-48958D01*
X64607Y-52685D01*
X64364Y-53049D01*
X64278Y-53478D01*
X64278Y-53478D01*
Y-66400D01*
X64278Y-66400D01*
X64364Y-66829D01*
X64607Y-67193D01*
X67160Y-69746D01*
X67160Y-69746D01*
X67524Y-69989D01*
X67953Y-70074D01*
X73404D01*
Y-70143D01*
X77335D01*
Y-70543D01*
X77735D01*
Y-74474D01*
X77735D01*
X77740Y-74974D01*
X74335Y-78378D01*
X41965D01*
X18621Y-55035D01*
Y-47465D01*
X19381Y-46705D01*
X19586D01*
X19813Y-46857D01*
X20258Y-46945D01*
X23112D01*
X23558Y-46857D01*
X23935Y-46604D01*
X24187Y-46227D01*
X24276Y-45781D01*
Y-44699D01*
X24187Y-44254D01*
X23961Y-43915D01*
X23938Y-43843D01*
X23988Y-43310D01*
X24223Y-43153D01*
X24564Y-42643D01*
X24684Y-42041D01*
Y-42000D01*
X18686D01*
Y-42041D01*
X18806Y-42643D01*
X19147Y-43153D01*
X19382Y-43310D01*
X19432Y-43843D01*
X19409Y-43915D01*
X19183Y-44254D01*
X18916Y-44462D01*
X18487Y-44548D01*
X18123Y-44791D01*
X18123Y-44791D01*
X16707Y-46207D01*
X16464Y-46571D01*
X16378Y-47000D01*
X16378Y-47000D01*
Y-55500D01*
X16378Y-55500D01*
X16464Y-55929D01*
X16707Y-56293D01*
X40707Y-80293D01*
X40707Y-80293D01*
X41071Y-80536D01*
X41500Y-80622D01*
X41500Y-80622D01*
X74800D01*
X74800Y-80622D01*
X75229Y-80536D01*
X75593Y-80293D01*
X79719Y-76167D01*
X79719Y-76167D01*
X79962Y-75803D01*
X80047Y-75374D01*
Y-74474D01*
X86022D01*
Y-70543D01*
X86422D01*
Y-70143D01*
X90352D01*
Y-68175D01*
Y-64261D01*
X98236D01*
X98236Y-64261D01*
X98701Y-64169D01*
X99094Y-63906D01*
X100888Y-62112D01*
X105069D01*
Y-60096D01*
X108089D01*
Y-60982D01*
X113289D01*
Y-60096D01*
X131711D01*
Y-60982D01*
X136911D01*
Y-56782D01*
X131711D01*
Y-57668D01*
X113289D01*
Y-56782D01*
X108089D01*
Y-57668D01*
X105069D01*
Y-56581D01*
X99932D01*
Y-59635D01*
X97733Y-61833D01*
X87981D01*
X87864Y-61857D01*
X86422D01*
Y-61457D01*
X86022D01*
Y-60015D01*
X86045Y-59898D01*
Y-57215D01*
X101148Y-42112D01*
X104569D01*
Y-36581D01*
D02*
G37*
G36*
X47043Y-47512D02*
X43000D01*
Y-51161D01*
X47043D01*
Y-47512D01*
D02*
G37*
G36*
X42000D02*
X37957D01*
Y-51161D01*
X42000D01*
Y-47512D01*
D02*
G37*
G36*
X10543D02*
X6500D01*
Y-51161D01*
X10543D01*
Y-47512D01*
D02*
G37*
G36*
X5500D02*
X1457D01*
Y-51161D01*
X5500D01*
Y-47512D01*
D02*
G37*
G36*
X-23957D02*
X-28000D01*
Y-51161D01*
X-23957D01*
Y-47512D01*
D02*
G37*
G36*
X-29000D02*
X-33043D01*
Y-51161D01*
X-29000D01*
Y-47512D01*
D02*
G37*
G36*
X105069Y-49888D02*
X99932D01*
Y-51440D01*
X98188D01*
X97772Y-51161D01*
X97154Y-51038D01*
X96535Y-51161D01*
X96011Y-51511D01*
X95661Y-52035D01*
X95538Y-52653D01*
X95661Y-53272D01*
X96011Y-53796D01*
X96535Y-54146D01*
X97154Y-54269D01*
X97772Y-54146D01*
X98188Y-53867D01*
X99932D01*
Y-55419D01*
X105069D01*
Y-49888D01*
D02*
G37*
G36*
X26319Y-49031D02*
X23654D01*
Y-51500D01*
X26319D01*
Y-49031D01*
D02*
G37*
G36*
X22654D02*
X19988D01*
Y-51500D01*
X22654D01*
Y-49031D01*
D02*
G37*
G36*
X-9528D02*
X-12193D01*
Y-51500D01*
X-9528D01*
Y-49031D01*
D02*
G37*
G36*
X-13193D02*
X-15858D01*
Y-51500D01*
X-13193D01*
Y-49031D01*
D02*
G37*
G36*
X33742Y-43535D02*
X30888D01*
X30443Y-43624D01*
X30065Y-43876D01*
X29813Y-44254D01*
X29724Y-44699D01*
Y-45552D01*
X29720Y-45573D01*
X29724Y-45594D01*
Y-45781D01*
X29813Y-46227D01*
X29883Y-46331D01*
Y-49431D01*
X27081D01*
Y-54568D01*
X32612D01*
Y-49431D01*
X32310D01*
Y-46945D01*
X33742D01*
X34187Y-46857D01*
X34565Y-46604D01*
X34817Y-46227D01*
X34906Y-45781D01*
Y-44699D01*
X34817Y-44254D01*
X34565Y-43876D01*
X34187Y-43624D01*
X33742Y-43535D01*
D02*
G37*
G36*
X-2258D02*
X-5112D01*
X-5557Y-43624D01*
X-5935Y-43876D01*
X-6187Y-44254D01*
X-6276Y-44699D01*
Y-45781D01*
X-6187Y-46227D01*
X-6056Y-46423D01*
Y-49431D01*
X-8765D01*
Y-54568D01*
X-3235D01*
Y-49431D01*
X-3629D01*
Y-46945D01*
X-2258D01*
X-1812Y-46857D01*
X-1435Y-46604D01*
X-1183Y-46227D01*
X-1094Y-45781D01*
Y-44699D01*
X-1183Y-44254D01*
X-1435Y-43876D01*
X-1812Y-43624D01*
X-2258Y-43535D01*
D02*
G37*
G36*
X26319Y-52500D02*
X23654D01*
Y-54969D01*
X26319D01*
Y-52500D01*
D02*
G37*
G36*
X22654D02*
X19988D01*
Y-54969D01*
X22654D01*
Y-52500D01*
D02*
G37*
G36*
X-9528D02*
X-12193D01*
Y-54969D01*
X-9528D01*
Y-52500D01*
D02*
G37*
G36*
X-13193D02*
X-15858D01*
Y-54969D01*
X-13193D01*
Y-52500D01*
D02*
G37*
G36*
X51919Y-54931D02*
X46388D01*
Y-60069D01*
Y-65069D01*
X51919D01*
Y-60069D01*
Y-54931D01*
D02*
G37*
G36*
X7419D02*
X1888D01*
Y-60069D01*
Y-65069D01*
X7419D01*
Y-60069D01*
Y-54931D01*
D02*
G37*
G36*
X55347Y-63000D02*
X52681D01*
Y-65469D01*
X55347D01*
Y-63000D01*
D02*
G37*
G36*
X10847D02*
X8181D01*
Y-65469D01*
X10847D01*
Y-63000D01*
D02*
G37*
G36*
X-22000Y-67515D02*
Y-70738D01*
X-18778D01*
X-18841Y-70257D01*
X-19219Y-69344D01*
X-19821Y-68559D01*
X-20606Y-67957D01*
X-21520Y-67579D01*
X-22000Y-67515D01*
D02*
G37*
G36*
X-23000D02*
X-23481Y-67579D01*
X-24394Y-67957D01*
X-25179Y-68559D01*
X-25781Y-69344D01*
X-26159Y-70257D01*
X-26223Y-70738D01*
X-23000D01*
Y-67515D01*
D02*
G37*
G36*
X-18778Y-71738D02*
X-22000D01*
Y-74960D01*
X-21520Y-74897D01*
X-20606Y-74519D01*
X-19821Y-73917D01*
X-19219Y-73132D01*
X-18841Y-72218D01*
X-18778Y-71738D01*
D02*
G37*
G36*
X-23000D02*
X-26223D01*
X-26159Y-72218D01*
X-25781Y-73132D01*
X-25179Y-73917D01*
X-24394Y-74519D01*
X-23481Y-74897D01*
X-23000Y-74960D01*
Y-71738D01*
D02*
G37*
%LPD*%
G36*
X81083Y-47795D02*
X81757Y-48245D01*
Y-54516D01*
X81257Y-54723D01*
X78041Y-51507D01*
X77677Y-51264D01*
X77248Y-51178D01*
X77248Y-51178D01*
X74970D01*
X74933Y-51131D01*
X74786Y-50678D01*
X77084Y-48381D01*
X77878Y-48539D01*
X78850Y-48345D01*
X79673Y-47795D01*
X80099Y-47158D01*
X80658D01*
X81083Y-47795D01*
D02*
G37*
D10*
X-39654Y-27000D02*
X-34000D01*
X-39654Y-19000D02*
X-34000D01*
D12*
X75776Y-65016D02*
X80894D01*
X71141Y-50000D02*
X73878D01*
X67200Y-53941D02*
X71141Y-50000D01*
X67200Y-65800D02*
Y-53941D01*
Y-65800D02*
X68384Y-66984D01*
X65400Y-53478D02*
X72878Y-46000D01*
X65400Y-66400D02*
Y-53478D01*
Y-66400D02*
X67953Y-68953D01*
X59400Y-68900D02*
Y-58400D01*
X52500Y-71238D02*
X57062D01*
X59400Y-68900D01*
X80894Y-59898D02*
Y-55947D01*
X77248Y-52300D02*
X80894Y-55947D01*
X72500Y-52300D02*
X77248D01*
X73878Y-50000D02*
X77878Y-46000D01*
X58500Y-57500D02*
X59400Y-58400D01*
X67953Y-68953D02*
X75776D01*
X68384Y-66984D02*
X75776D01*
X78500Y-56762D02*
Y-56500D01*
Y-56762D02*
X78835Y-57097D01*
Y-59807D02*
Y-57097D01*
Y-59807D02*
X78926Y-59898D01*
X71000Y-63543D02*
Y-63346D01*
Y-63543D02*
X72469Y-65012D01*
X75772D01*
X75776Y-65016D01*
X18916Y-45584D02*
X21341D01*
X17500Y-47000D02*
X18916Y-45584D01*
X17500Y-55500D02*
Y-47000D01*
X-16898Y-37898D02*
X-14315D01*
X-17122Y-45378D02*
X-14315D01*
X-18000Y-39000D02*
X-16898Y-37898D01*
X-18000Y-44500D02*
Y-39000D01*
Y-44500D02*
X-17122Y-45378D01*
X55847Y-57500D02*
X58500D01*
X78926Y-59898D02*
X79000Y-59823D01*
X41500Y-79500D02*
X74800D01*
X78926Y-75374D01*
Y-72102D01*
X17500Y-55500D02*
X41500Y-79500D01*
X49154Y-62500D02*
Y-57500D01*
X4654Y-62500D02*
Y-57500D01*
X21341Y-45584D02*
X21685Y-45240D01*
X82878Y-55000D02*
Y-46000D01*
X82863Y-55016D02*
X82878Y-55000D01*
X82863Y-59898D02*
Y-55016D01*
X80894Y-65016D02*
X81878Y-66000D01*
X-49500Y-40000D02*
Y-30154D01*
X-52000Y-42500D02*
X-49500Y-40000D01*
X-65500Y-42500D02*
X-52000D01*
X-68000Y-40000D02*
X-65500Y-42500D01*
X-68000Y-40000D02*
Y-28000D01*
X-49500Y-30154D02*
X-48012Y-28665D01*
Y-28468D01*
X-46543Y-27000D01*
X-46347D01*
X-68000Y-28000D02*
X-65693Y-25693D01*
X-62000D01*
Y-22346D02*
X-56686D01*
X-62000D02*
Y-19000D01*
X-56686D01*
X-50000D02*
X-46347D01*
X-53347Y-15653D02*
X-50000Y-19000D01*
X-56686Y-15653D02*
X-53347D01*
D15*
X44000Y-35988D02*
Y-6500D01*
X41932Y-37800D02*
X43606Y-36126D01*
X32315Y-37800D02*
X41932D01*
X43606Y-36126D02*
X44000D01*
X37500Y0D02*
X44000Y-6500D01*
X0Y0D02*
X37500D01*
X58000Y-6500D02*
X67500D01*
X74500Y500D01*
X114315D01*
X118846Y5032D01*
Y10000D01*
X55847Y-57500D02*
Y-41803D01*
X50543Y-36500D02*
X55847Y-41803D01*
X44512Y-36500D02*
X50543D01*
X44000Y-35988D02*
X44512Y-36500D01*
X-57339Y5669D02*
X-18669D01*
X-58669Y7000D02*
Y9976D01*
Y7000D02*
X-57339Y5669D01*
X-13000Y0D02*
X0D01*
X-18669Y5669D02*
X-13000Y0D01*
X-58693Y10000D02*
X-58669Y9976D01*
X118846Y180000D02*
Y190000D01*
Y170000D02*
Y180000D01*
Y160000D02*
Y170000D01*
Y150000D02*
Y160000D01*
Y140000D02*
Y150000D01*
Y130000D02*
Y140000D01*
Y120000D02*
Y130000D01*
Y110000D02*
Y120000D01*
Y100000D02*
Y110000D01*
Y90000D02*
Y100000D01*
Y80000D02*
Y90000D01*
Y70000D02*
Y80000D01*
Y60000D02*
Y70000D01*
Y50000D02*
Y60000D01*
Y40000D02*
Y50000D01*
Y30000D02*
Y40000D01*
Y20000D02*
Y30000D01*
Y10000D02*
Y20000D01*
X-58693Y180000D02*
Y190000D01*
Y170000D02*
Y180000D01*
Y160000D02*
Y170000D01*
Y110000D02*
Y160000D01*
Y100000D02*
Y110000D01*
Y90000D02*
Y100000D01*
Y80000D02*
Y90000D01*
Y70000D02*
Y80000D01*
Y60000D02*
Y70000D01*
Y50000D02*
Y60000D01*
Y40000D02*
Y50000D01*
Y30000D02*
Y40000D01*
Y20000D02*
Y30000D01*
Y10000D02*
Y20000D01*
D20*
X-6000Y-52138D02*
X-4843Y-50980D01*
Y-45711D02*
X-4510Y-45378D01*
X29878Y-53000D02*
X31096Y-51781D01*
X29847Y-53000D02*
X29878D01*
X31096Y-45573D02*
X31429Y-45240D01*
X32315D01*
X-4510Y-45378D02*
X-3685D01*
D39*
X75776Y-63047D02*
D03*
Y-65016D02*
D03*
Y-66984D02*
D03*
Y-68953D02*
D03*
X87981D02*
D03*
Y-66984D02*
D03*
Y-65016D02*
D03*
Y-63047D02*
D03*
D40*
X78926Y-72102D02*
D03*
X80894D02*
D03*
X82863D02*
D03*
X84831D02*
D03*
Y-59898D02*
D03*
X82863D02*
D03*
X80894D02*
D03*
X78926D02*
D03*
D41*
X81878Y-66000D02*
D03*
D42*
X42500Y-47012D02*
D03*
Y-35988D02*
D03*
X6000Y-47012D02*
D03*
Y-35988D02*
D03*
X-28500D02*
D03*
Y-47012D02*
D03*
D43*
X70600Y-63446D02*
D03*
Y-56753D02*
D03*
X102000Y-32653D02*
D03*
Y-39347D02*
D03*
X102500Y-52653D02*
D03*
Y-59346D02*
D03*
D44*
X23154Y-52000D02*
D03*
X29847D02*
D03*
X-6000D02*
D03*
X-12693D02*
D03*
X55847Y-62500D02*
D03*
X49154D02*
D03*
X55847Y-57500D02*
D03*
X49154D02*
D03*
X-49347Y-2000D02*
D03*
X-42654D02*
D03*
X-46347Y-27000D02*
D03*
X-39654D02*
D03*
X-46347Y-19000D02*
D03*
X-39654D02*
D03*
X11347Y-57500D02*
D03*
X4654D02*
D03*
X11347Y-62500D02*
D03*
X4654D02*
D03*
X-52000Y190000D02*
D03*
X-58693D02*
D03*
X-52000Y180000D02*
D03*
X-58693D02*
D03*
X-52000Y170000D02*
D03*
X-58693D02*
D03*
X-52000Y160000D02*
D03*
X-58693D02*
D03*
X-52000Y110000D02*
D03*
X-58693D02*
D03*
X-52000Y100000D02*
D03*
X-58693D02*
D03*
X-52000Y90000D02*
D03*
X-58693D02*
D03*
X-52000Y80000D02*
D03*
X-58693D02*
D03*
X-52000Y70000D02*
D03*
X-58693D02*
D03*
X-52000Y60000D02*
D03*
X-58693D02*
D03*
X-52000Y50000D02*
D03*
X-58693D02*
D03*
X-52000Y40000D02*
D03*
X-58693D02*
D03*
X-52000Y30000D02*
D03*
X-58693D02*
D03*
X-52000Y20000D02*
D03*
X-58693D02*
D03*
X-44693Y190000D02*
D03*
X-38000D02*
D03*
X-44693Y180000D02*
D03*
X-38000D02*
D03*
X-44693Y170000D02*
D03*
X-38000D02*
D03*
X-44693Y160000D02*
D03*
X-38000D02*
D03*
X-44693Y110000D02*
D03*
X-38000D02*
D03*
X-44693Y100000D02*
D03*
X-38000D02*
D03*
X-44693Y90000D02*
D03*
X-38000D02*
D03*
X-44693Y80000D02*
D03*
X-38000D02*
D03*
X-44693Y70000D02*
D03*
X-38000D02*
D03*
X-44693Y60000D02*
D03*
X-38000D02*
D03*
X-44693Y50000D02*
D03*
X-38000D02*
D03*
X-44693Y40000D02*
D03*
X-38000D02*
D03*
X-44693Y30000D02*
D03*
X-38000D02*
D03*
X-44693Y20000D02*
D03*
X-38000D02*
D03*
X-44693Y10000D02*
D03*
X-38000D02*
D03*
X98154Y190000D02*
D03*
X104847D02*
D03*
X98154Y180000D02*
D03*
X104847D02*
D03*
X98154Y170000D02*
D03*
X104847D02*
D03*
X98154Y160000D02*
D03*
X104847D02*
D03*
X98154Y150000D02*
D03*
X104847D02*
D03*
X98154Y140000D02*
D03*
X104847D02*
D03*
X98154Y130000D02*
D03*
X104847D02*
D03*
X98154Y120000D02*
D03*
X104847D02*
D03*
X98154Y110000D02*
D03*
X104847D02*
D03*
X98154Y100000D02*
D03*
X104847D02*
D03*
X98154Y90000D02*
D03*
X104847D02*
D03*
X98154Y80000D02*
D03*
X104847D02*
D03*
X98154Y70000D02*
D03*
X104847D02*
D03*
X98154Y60000D02*
D03*
X104847D02*
D03*
X98154Y50000D02*
D03*
X104847D02*
D03*
X98154Y40000D02*
D03*
X104847D02*
D03*
X98154Y30000D02*
D03*
X104847D02*
D03*
X98154Y20000D02*
D03*
X104847D02*
D03*
X98154Y10000D02*
D03*
X104847D02*
D03*
X112153Y130000D02*
D03*
X118846D02*
D03*
X112153Y120000D02*
D03*
X118846D02*
D03*
X112153Y110000D02*
D03*
X118846D02*
D03*
X112153Y100000D02*
D03*
X118846D02*
D03*
X112153Y90000D02*
D03*
X118846D02*
D03*
X112153Y80000D02*
D03*
X118846D02*
D03*
X112153Y70000D02*
D03*
X118846D02*
D03*
X112153Y60000D02*
D03*
X118846D02*
D03*
X112153Y50000D02*
D03*
X118846D02*
D03*
X112153Y40000D02*
D03*
X118846D02*
D03*
X112153Y140000D02*
D03*
X118846D02*
D03*
X112153Y150000D02*
D03*
X118846D02*
D03*
X112153Y160000D02*
D03*
X118846D02*
D03*
X112153Y170000D02*
D03*
X118846D02*
D03*
X112153Y180000D02*
D03*
X118846D02*
D03*
X112153Y190000D02*
D03*
X118846D02*
D03*
X-52000Y10000D02*
D03*
X-58693D02*
D03*
X112153Y30000D02*
D03*
X118846D02*
D03*
X112153Y20000D02*
D03*
X118846D02*
D03*
X112153Y10000D02*
D03*
X118846D02*
D03*
D45*
X32315Y-45240D02*
D03*
Y-37760D02*
D03*
X21685Y-45240D02*
D03*
Y-41500D02*
D03*
Y-37760D02*
D03*
X-3685Y-45240D02*
D03*
Y-37760D02*
D03*
X-14315Y-45240D02*
D03*
Y-41500D02*
D03*
Y-37760D02*
D03*
D46*
X134311Y-58882D02*
D03*
Y-44118D02*
D03*
X110689D02*
D03*
Y-58882D02*
D03*
D47*
X-38669Y-11000D02*
D03*
X-47331D02*
D03*
D48*
X70225Y-56000D02*
X71000D01*
X69878Y-55654D02*
X70225Y-56000D01*
X75720Y-60444D02*
Y-58720D01*
Y-63047D02*
Y-60444D01*
X73921Y-56921D02*
X75720Y-58720D01*
X14900Y-69200D02*
Y-58400D01*
X7500Y-71238D02*
X12862D01*
X14900Y-69200D01*
X11347Y-57500D02*
X14000D01*
X14900Y-58400D01*
X71267Y-56921D02*
X73921D01*
X71000Y-56653D02*
X71267Y-56921D01*
X75720Y-63047D02*
X75776D01*
X13000Y-53500D02*
Y-37500D01*
Y-53976D02*
Y-53500D01*
Y-53976D02*
X13012Y-53988D01*
Y-56032D02*
Y-53988D01*
X11488Y-35988D02*
X13000Y-37500D01*
X11945Y-57098D02*
X13012Y-56032D01*
X-3685Y-37760D02*
X4228D01*
X6000Y-35988D02*
X11488D01*
X-4843Y-50980D02*
Y-45711D01*
X102401Y-58882D02*
X110689D01*
X98236Y-63047D02*
X102401Y-58882D01*
X87981Y-63047D02*
X98236D01*
X97154Y-52653D02*
X102500D01*
X84831Y-56712D02*
X102000Y-39543D01*
X84831Y-59898D02*
Y-56712D01*
X110689Y-58882D02*
X134311D01*
X102000Y-39543D02*
Y-39347D01*
X31096Y-51781D02*
Y-45573D01*
D49*
X-14000Y-37898D02*
Y-28000D01*
X-14315Y-37898D02*
X-14000D01*
D50*
X-28500Y-35988D02*
Y-28000D01*
Y-36126D02*
Y-35988D01*
X-14000Y-28000D02*
X17000D01*
X-28500D02*
X-14000D01*
X-28500D02*
Y-16000D01*
X21685Y-36800D02*
Y-32685D01*
X17000Y-28000D02*
X21685Y-32685D01*
X-32500Y-12000D02*
X-28500Y-16000D01*
X-38000Y-12000D02*
X-32500D01*
D51*
X102000Y-32653D02*
Y-26000D01*
X91000Y-15000D02*
X102000Y-26000D01*
X58000Y-15000D02*
X91000D01*
X48500Y-5500D02*
X58000Y-15000D01*
X48500Y136500D02*
X52000Y140000D01*
X48500Y136500D02*
X48500Y-5500D01*
X52000Y140000D02*
X60000D01*
Y190000D02*
X98000D01*
X104693D02*
X112000D01*
X60000Y180000D02*
X98000D01*
X104693D02*
X112000D01*
X60000Y170000D02*
X98000D01*
X104693D02*
X112000D01*
X104693Y160000D02*
X112000D01*
X60000D02*
X98000D01*
X60000Y150000D02*
X98000D01*
X104693D02*
X112000D01*
X60000Y140000D02*
X98000D01*
X104693D02*
X112000D01*
X60000Y130000D02*
X98000D01*
X104693D02*
X112000D01*
X104693Y120000D02*
X112000D01*
X60000D02*
X98000D01*
X60000Y110000D02*
X98000D01*
X104693D02*
X112000D01*
X60000Y100000D02*
X98000D01*
X104693D02*
X112000D01*
X60000Y90000D02*
X98000D01*
X104693D02*
X112000D01*
X104693Y80000D02*
X112000D01*
X60000D02*
X98000D01*
X60000Y70000D02*
X98000D01*
X104693D02*
X112000D01*
X60000Y60000D02*
X98000D01*
X104693D02*
X112000D01*
X60000Y50000D02*
X98000D01*
X104693D02*
X112000D01*
X104693Y40000D02*
X112000D01*
X60000D02*
X98000D01*
X60000Y30000D02*
X98000D01*
X104693D02*
X112000D01*
X60000Y20000D02*
X98000D01*
X104693D02*
X112000D01*
X60000Y10000D02*
X98000D01*
X104693D02*
X112000D01*
X-38000Y110000D02*
X0D01*
X-52000D02*
X-44693D01*
X-38000Y100000D02*
X0D01*
X-52000D02*
X-44693D01*
X-38000Y90000D02*
X0D01*
X-52000D02*
X-44693D01*
X-52000Y80000D02*
X-44693D01*
X-38000D02*
X0D01*
X-38000Y70000D02*
X0D01*
X-52000D02*
X-44693D01*
X-38000Y60000D02*
X0D01*
X-52000D02*
X-44693D01*
X-38000Y50000D02*
X0D01*
X-52000D02*
X-44693D01*
X-52000Y40000D02*
X-44693D01*
X-38000D02*
X0D01*
X-38000Y30000D02*
X0D01*
X-52000D02*
X-44693D01*
X-38000Y20000D02*
X0D01*
X-52000D02*
X-44693D01*
X-38000Y10000D02*
X0D01*
X-52000D02*
X-44693D01*
X-52000Y160000D02*
X-44693D01*
X-38000D02*
X0D01*
X-52000Y170000D02*
X-44693D01*
X-38000D02*
X0D01*
X-52000Y180000D02*
X-44693D01*
X-38000D02*
X0D01*
X-38000Y190000D02*
X0D01*
X-52000D02*
X-44693D01*
D52*
X-47331Y-11000D02*
Y-10016D01*
X-48878Y-8468D02*
X-47331Y-10016D01*
X-48878Y-8468D02*
Y-2468D01*
X-49347Y-2000D02*
X-48878Y-2468D01*
X-47638Y-12307D02*
X-47089Y-11758D01*
X-56686Y-12307D02*
X-47638D01*
D53*
X87878Y-41000D02*
D03*
D54*
Y-46000D02*
D03*
X82878Y-41000D02*
D03*
Y-46000D02*
D03*
X77878Y-41000D02*
D03*
Y-46000D02*
D03*
X72878D02*
D03*
X67878Y-41000D02*
D03*
Y-46000D02*
D03*
D55*
X7500Y-71238D02*
D03*
X-22500D02*
D03*
X91000Y-15000D02*
D03*
X52500Y-71238D02*
D03*
D56*
X-73851Y-3645D02*
D03*
Y-37701D02*
D03*
D57*
X-60544D02*
D03*
Y-3645D02*
D03*
D58*
X-62000Y-8960D02*
D03*
Y-12307D02*
D03*
Y-15653D02*
D03*
Y-19000D02*
D03*
Y-22346D02*
D03*
Y-25693D02*
D03*
Y-29039D02*
D03*
Y-32386D02*
D03*
X-56686D02*
D03*
Y-29039D02*
D03*
Y-25693D02*
D03*
Y-22346D02*
D03*
Y-19000D02*
D03*
Y-15653D02*
D03*
Y-12307D02*
D03*
Y-8960D02*
D03*
D59*
X0Y190000D02*
D03*
D60*
Y180000D02*
D03*
Y170000D02*
D03*
Y160000D02*
D03*
Y150000D02*
D03*
Y140000D02*
D03*
Y130000D02*
D03*
Y120000D02*
D03*
Y110000D02*
D03*
Y100000D02*
D03*
Y90000D02*
D03*
Y80000D02*
D03*
Y70000D02*
D03*
Y60000D02*
D03*
Y50000D02*
D03*
Y40000D02*
D03*
Y30000D02*
D03*
Y20000D02*
D03*
Y10000D02*
D03*
Y0D02*
D03*
X60000Y190000D02*
D03*
Y180000D02*
D03*
Y170000D02*
D03*
Y160000D02*
D03*
Y150000D02*
D03*
Y140000D02*
D03*
Y130000D02*
D03*
Y120000D02*
D03*
Y110000D02*
D03*
Y100000D02*
D03*
Y90000D02*
D03*
Y80000D02*
D03*
Y70000D02*
D03*
Y60000D02*
D03*
Y50000D02*
D03*
Y40000D02*
D03*
Y30000D02*
D03*
Y20000D02*
D03*
Y10000D02*
D03*
Y0D02*
D03*
D61*
X79713Y-63835D02*
D03*
X84044D02*
D03*
X79713Y-68165D02*
D03*
X84044D02*
D03*
X75720Y-60444D02*
D03*
X72500Y-52300D02*
D03*
X-17900Y-51900D02*
D03*
X5900Y-52800D02*
D03*
X-1500Y-33100D02*
D03*
X-800Y-41300D02*
D03*
X-900Y-49600D02*
D03*
X-20400Y-33400D02*
D03*
X16400Y-41500D02*
D03*
X20600Y-66600D02*
D03*
X41500Y-69900D02*
D03*
X122000Y-50700D02*
D03*
X70800Y-73300D02*
D03*
X92500Y-67100D02*
D03*
X89500Y-56700D02*
D03*
X85200Y-50300D02*
D03*
X80000D02*
D03*
X78500Y-56500D02*
D03*
X13000Y-53500D02*
D03*
X97154Y-52653D02*
D03*
X44000Y-6500D02*
D03*
X58000D02*
D03*
X26900Y-46140D02*
D03*
Y-43140D02*
D03*
Y-40140D02*
D03*
Y-37140D02*
D03*
X-9100Y-37100D02*
D03*
Y-40100D02*
D03*
Y-43100D02*
D03*
Y-46100D02*
D03*
X-34000Y-27000D02*
D03*
Y-19000D02*
D03*
M02*
