G04*
G04 #@! TF.GenerationSoftware,Altium Limited,Altium Designer,19.1.8 (144)*
G04*
G04 Layer_Color=8388736*
%FSLAX25Y25*%
%MOIN*%
G70*
G01*
G75*
%ADD23R,0.04800X0.03800*%
%ADD24R,0.04737X0.06706*%
%ADD25R,0.04737X0.05131*%
%ADD26R,0.05131X0.04737*%
%ADD27R,0.04343X0.01981*%
%ADD28R,0.01981X0.04343*%
%ADD29R,0.07887X0.07887*%
G04:AMPARAMS|DCode=30|XSize=47.37mil|YSize=29.65mil|CornerRadius=9.41mil|HoleSize=0mil|Usage=FLASHONLY|Rotation=0.000|XOffset=0mil|YOffset=0mil|HoleType=Round|Shape=RoundedRectangle|*
%AMROUNDEDRECTD30*
21,1,0.04737,0.01083,0,0,0.0*
21,1,0.02854,0.02965,0,0,0.0*
1,1,0.01883,0.01427,-0.00541*
1,1,0.01883,-0.01427,-0.00541*
1,1,0.01883,-0.01427,0.00541*
1,1,0.01883,0.01427,0.00541*
%
%ADD30ROUNDEDRECTD30*%
%ADD31O,0.10642X0.06706*%
%ADD32R,0.10642X0.06706*%
%ADD33R,0.04580X0.04580*%
%ADD34C,0.04580*%
%ADD35C,0.06312*%
%ADD36O,0.07493X0.04343*%
%ADD37O,0.10249X0.04343*%
%ADD38O,0.03359X0.03241*%
%ADD39C,0.02769*%
D23*
X394311Y207882D02*
D03*
Y193118D02*
D03*
X370689D02*
D03*
Y207882D02*
D03*
D24*
X224331Y233000D02*
D03*
X215669D02*
D03*
X224331Y225000D02*
D03*
X215669D02*
D03*
D25*
X272000Y213347D02*
D03*
Y206653D02*
D03*
X329500Y193347D02*
D03*
Y186653D02*
D03*
X298000Y206653D02*
D03*
Y213347D02*
D03*
X236000Y206653D02*
D03*
Y213347D02*
D03*
X262000Y206653D02*
D03*
Y213347D02*
D03*
X362500Y199346D02*
D03*
Y192654D02*
D03*
D26*
X289347Y190000D02*
D03*
X282653D02*
D03*
X283154Y200000D02*
D03*
X289846D02*
D03*
X254000D02*
D03*
X247307D02*
D03*
X350753Y228500D02*
D03*
X357447D02*
D03*
X314000Y189500D02*
D03*
X307307D02*
D03*
X314000Y194500D02*
D03*
X307307D02*
D03*
X216653Y241000D02*
D03*
X223346D02*
D03*
X216653Y207500D02*
D03*
X223346D02*
D03*
X216653Y213500D02*
D03*
X223346D02*
D03*
X271346Y194500D02*
D03*
X264653D02*
D03*
X271346Y189500D02*
D03*
X264653D02*
D03*
X208000Y442000D02*
D03*
X201307D02*
D03*
X208000Y432000D02*
D03*
X201307D02*
D03*
X208000Y422000D02*
D03*
X201307D02*
D03*
X208000Y412000D02*
D03*
X201307D02*
D03*
X208000Y362000D02*
D03*
X201307D02*
D03*
X208000Y352000D02*
D03*
X201307D02*
D03*
X208000Y342000D02*
D03*
X201307D02*
D03*
X208000Y332000D02*
D03*
X201307D02*
D03*
X208000Y322000D02*
D03*
X201307D02*
D03*
X208000Y312000D02*
D03*
X201307D02*
D03*
X208000Y302000D02*
D03*
X201307D02*
D03*
X208000Y292000D02*
D03*
X201307D02*
D03*
X208000Y282000D02*
D03*
X201307D02*
D03*
X208000Y272000D02*
D03*
X201307D02*
D03*
X215307Y442000D02*
D03*
X222000D02*
D03*
X215307Y432000D02*
D03*
X222000D02*
D03*
X215307Y422000D02*
D03*
X222000D02*
D03*
X215307Y412000D02*
D03*
X222000D02*
D03*
X215307Y362000D02*
D03*
X222000D02*
D03*
X215307Y352000D02*
D03*
X222000D02*
D03*
X215307Y342000D02*
D03*
X222000D02*
D03*
X215307Y332000D02*
D03*
X222000D02*
D03*
X215307Y322000D02*
D03*
X222000D02*
D03*
X215307Y312000D02*
D03*
X222000D02*
D03*
X215307Y302000D02*
D03*
X222000D02*
D03*
X215307Y292000D02*
D03*
X222000D02*
D03*
X215307Y282000D02*
D03*
X222000D02*
D03*
X215307Y272000D02*
D03*
X222000D02*
D03*
X358154Y442000D02*
D03*
X364846D02*
D03*
X358154Y432000D02*
D03*
X364846D02*
D03*
X358154Y422000D02*
D03*
X364846D02*
D03*
X358154Y412000D02*
D03*
X364846D02*
D03*
X358154Y402000D02*
D03*
X364846D02*
D03*
X358154Y392000D02*
D03*
X364846D02*
D03*
X358154Y382000D02*
D03*
X364846D02*
D03*
X358154Y372000D02*
D03*
X364846D02*
D03*
X358154Y362000D02*
D03*
X364846D02*
D03*
X358154Y352000D02*
D03*
X364846D02*
D03*
X358154Y342000D02*
D03*
X364846D02*
D03*
X358154Y332000D02*
D03*
X364846D02*
D03*
X358154Y322000D02*
D03*
X364846D02*
D03*
X358154Y312000D02*
D03*
X364846D02*
D03*
X358154Y302000D02*
D03*
X364846D02*
D03*
X358154Y292000D02*
D03*
X364846D02*
D03*
X358154Y282000D02*
D03*
X364846D02*
D03*
X358154Y272000D02*
D03*
X364846D02*
D03*
X358154Y262000D02*
D03*
X364846D02*
D03*
X372153Y382000D02*
D03*
X378847D02*
D03*
X372153Y372000D02*
D03*
X378847D02*
D03*
X372153Y362000D02*
D03*
X378847D02*
D03*
X372153Y352000D02*
D03*
X378847D02*
D03*
X372153Y342000D02*
D03*
X378847D02*
D03*
X372153Y332000D02*
D03*
X378847D02*
D03*
X372153Y322000D02*
D03*
X378847D02*
D03*
X372153Y312000D02*
D03*
X378847D02*
D03*
X372153Y302000D02*
D03*
X378847D02*
D03*
X372153Y292000D02*
D03*
X378847D02*
D03*
X372153Y392000D02*
D03*
X378847D02*
D03*
X372153Y402000D02*
D03*
X378847D02*
D03*
X372153Y412000D02*
D03*
X378847D02*
D03*
X372153Y422000D02*
D03*
X378847D02*
D03*
X372153Y432000D02*
D03*
X378847D02*
D03*
X372153Y442000D02*
D03*
X378847D02*
D03*
X372153Y282000D02*
D03*
X378847D02*
D03*
X372153Y272000D02*
D03*
X378847D02*
D03*
X372153Y262000D02*
D03*
X378847D02*
D03*
D27*
X335776Y186953D02*
D03*
Y184984D02*
D03*
Y183016D02*
D03*
Y181047D02*
D03*
X347981D02*
D03*
Y183016D02*
D03*
Y184984D02*
D03*
Y186953D02*
D03*
D28*
X338926Y177898D02*
D03*
X340894D02*
D03*
X342863D02*
D03*
X344831D02*
D03*
Y190102D02*
D03*
X342863D02*
D03*
X340894D02*
D03*
X338926D02*
D03*
D29*
X341878Y184000D02*
D03*
D30*
X292315Y206760D02*
D03*
Y214240D02*
D03*
X281685Y206760D02*
D03*
Y210500D02*
D03*
Y214240D02*
D03*
X256315Y206760D02*
D03*
Y214240D02*
D03*
X245685Y206760D02*
D03*
Y210500D02*
D03*
Y214240D02*
D03*
D31*
X320000Y252000D02*
D03*
Y262000D02*
D03*
Y272000D02*
D03*
Y282000D02*
D03*
Y292000D02*
D03*
Y302000D02*
D03*
Y312000D02*
D03*
Y322000D02*
D03*
Y332000D02*
D03*
Y342000D02*
D03*
Y352000D02*
D03*
Y362000D02*
D03*
Y372000D02*
D03*
Y382000D02*
D03*
Y392000D02*
D03*
Y402000D02*
D03*
Y412000D02*
D03*
Y422000D02*
D03*
Y432000D02*
D03*
Y442000D02*
D03*
X260000Y252000D02*
D03*
Y262000D02*
D03*
Y272000D02*
D03*
Y282000D02*
D03*
Y292000D02*
D03*
Y302000D02*
D03*
Y312000D02*
D03*
Y322000D02*
D03*
Y332000D02*
D03*
Y342000D02*
D03*
Y352000D02*
D03*
Y362000D02*
D03*
Y372000D02*
D03*
Y382000D02*
D03*
Y392000D02*
D03*
Y402000D02*
D03*
Y412000D02*
D03*
Y422000D02*
D03*
Y432000D02*
D03*
D32*
Y442000D02*
D03*
D33*
X347878Y211000D02*
D03*
D34*
Y206000D02*
D03*
X342878Y211000D02*
D03*
Y206000D02*
D03*
X337878Y211000D02*
D03*
Y206000D02*
D03*
X332878D02*
D03*
X327878Y211000D02*
D03*
Y206000D02*
D03*
D35*
X267500Y180762D02*
D03*
X237500D02*
D03*
X351000Y237000D02*
D03*
X310653Y180762D02*
D03*
D36*
X186149Y248355D02*
D03*
Y214299D02*
D03*
D37*
X199456D02*
D03*
Y248355D02*
D03*
D38*
X198000Y243040D02*
D03*
Y239693D02*
D03*
Y236347D02*
D03*
Y233000D02*
D03*
Y229654D02*
D03*
Y226307D02*
D03*
Y222961D02*
D03*
Y219614D02*
D03*
X203314D02*
D03*
Y222961D02*
D03*
Y226307D02*
D03*
Y229654D02*
D03*
Y233000D02*
D03*
Y236347D02*
D03*
Y239693D02*
D03*
Y243040D02*
D03*
D39*
X339713Y186165D02*
D03*
X344044D02*
D03*
X339713Y181835D02*
D03*
X344044D02*
D03*
M02*
