G04*
G04 #@! TF.GenerationSoftware,Altium Limited,Altium Designer,19.1.8 (144)*
G04*
G04 Layer_Physical_Order=2*
G04 Layer_Color=16711680*
%FSLAX25Y25*%
%MOIN*%
G70*
G01*
G75*
%ADD12C,0.01000*%
%ADD15C,0.02000*%
%ADD46C,0.01181*%
%ADD47C,0.03000*%
%ADD49R,0.03780X0.03780*%
%ADD50C,0.03780*%
%ADD51C,0.05512*%
%ADD52O,0.06693X0.03543*%
%ADD53O,0.09449X0.03543*%
%ADD54O,0.02559X0.02441*%
%ADD55R,0.10000X0.05000*%
%ADD56O,0.10000X0.05000*%
%ADD57C,0.01968*%
G36*
X408879Y157122D02*
X171122D01*
Y488878D01*
X408879Y488878D01*
Y157122D01*
D02*
G37*
%LPC*%
G36*
X265600Y445100D02*
X254400D01*
Y438900D01*
X265600D01*
Y445100D01*
D02*
G37*
G36*
X322500Y445127D02*
X317500D01*
X316691Y445020D01*
X315937Y444708D01*
X315289Y444211D01*
X314792Y443563D01*
X314480Y442809D01*
X314373Y442000D01*
X314480Y441191D01*
X314792Y440437D01*
X315289Y439789D01*
X315937Y439292D01*
X316691Y438980D01*
X317500Y438873D01*
X322500D01*
X323309Y438980D01*
X324063Y439292D01*
X324711Y439789D01*
X325208Y440437D01*
X325520Y441191D01*
X325627Y442000D01*
X325520Y442809D01*
X325208Y443563D01*
X324711Y444211D01*
X324063Y444708D01*
X323309Y445020D01*
X322500Y445127D01*
D02*
G37*
G36*
Y435127D02*
X317500D01*
X316691Y435020D01*
X315937Y434708D01*
X315289Y434211D01*
X314792Y433563D01*
X314480Y432809D01*
X314373Y432000D01*
X314480Y431191D01*
X314792Y430437D01*
X315289Y429789D01*
X315937Y429292D01*
X316691Y428980D01*
X317500Y428873D01*
X322500D01*
X323309Y428980D01*
X324063Y429292D01*
X324711Y429789D01*
X325208Y430437D01*
X325520Y431191D01*
X325627Y432000D01*
X325520Y432809D01*
X325208Y433563D01*
X324711Y434211D01*
X324063Y434708D01*
X323309Y435020D01*
X322500Y435127D01*
D02*
G37*
G36*
X262500D02*
X257500D01*
X256691Y435020D01*
X255937Y434708D01*
X255289Y434211D01*
X254792Y433563D01*
X254480Y432809D01*
X254373Y432000D01*
X254480Y431191D01*
X254792Y430437D01*
X255289Y429789D01*
X255937Y429292D01*
X256691Y428980D01*
X257500Y428873D01*
X262500D01*
X263309Y428980D01*
X264063Y429292D01*
X264711Y429789D01*
X265208Y430437D01*
X265520Y431191D01*
X265627Y432000D01*
X265520Y432809D01*
X265208Y433563D01*
X264711Y434211D01*
X264063Y434708D01*
X263309Y435020D01*
X262500Y435127D01*
D02*
G37*
G36*
X322500Y425127D02*
X317500D01*
X316691Y425020D01*
X315937Y424708D01*
X315289Y424211D01*
X314792Y423563D01*
X314480Y422809D01*
X314373Y422000D01*
X314480Y421191D01*
X314792Y420437D01*
X315289Y419789D01*
X315937Y419292D01*
X316691Y418980D01*
X317500Y418873D01*
X322500D01*
X323309Y418980D01*
X324063Y419292D01*
X324711Y419789D01*
X325208Y420437D01*
X325520Y421191D01*
X325627Y422000D01*
X325520Y422809D01*
X325208Y423563D01*
X324711Y424211D01*
X324063Y424708D01*
X323309Y425020D01*
X322500Y425127D01*
D02*
G37*
G36*
X262500D02*
X257500D01*
X256691Y425020D01*
X255937Y424708D01*
X255289Y424211D01*
X254792Y423563D01*
X254480Y422809D01*
X254373Y422000D01*
X254480Y421191D01*
X254792Y420437D01*
X255289Y419789D01*
X255937Y419292D01*
X256691Y418980D01*
X257500Y418873D01*
X262500D01*
X263309Y418980D01*
X264063Y419292D01*
X264711Y419789D01*
X265208Y420437D01*
X265520Y421191D01*
X265627Y422000D01*
X265520Y422809D01*
X265208Y423563D01*
X264711Y424211D01*
X264063Y424708D01*
X263309Y425020D01*
X262500Y425127D01*
D02*
G37*
G36*
X322500Y415127D02*
X317500D01*
X316691Y415020D01*
X315937Y414708D01*
X315289Y414211D01*
X314792Y413563D01*
X314480Y412809D01*
X314373Y412000D01*
X314480Y411191D01*
X314792Y410437D01*
X315289Y409789D01*
X315937Y409292D01*
X316691Y408980D01*
X317500Y408873D01*
X322500D01*
X323309Y408980D01*
X324063Y409292D01*
X324711Y409789D01*
X325208Y410437D01*
X325520Y411191D01*
X325627Y412000D01*
X325520Y412809D01*
X325208Y413563D01*
X324711Y414211D01*
X324063Y414708D01*
X323309Y415020D01*
X322500Y415127D01*
D02*
G37*
G36*
X262500D02*
X257500D01*
X256691Y415020D01*
X255937Y414708D01*
X255289Y414211D01*
X254792Y413563D01*
X254480Y412809D01*
X254373Y412000D01*
X254480Y411191D01*
X254792Y410437D01*
X255289Y409789D01*
X255937Y409292D01*
X256691Y408980D01*
X257500Y408873D01*
X262500D01*
X263309Y408980D01*
X264063Y409292D01*
X264711Y409789D01*
X265208Y410437D01*
X265520Y411191D01*
X265627Y412000D01*
X265520Y412809D01*
X265208Y413563D01*
X264711Y414211D01*
X264063Y414708D01*
X263309Y415020D01*
X262500Y415127D01*
D02*
G37*
G36*
X322500Y405127D02*
X317500D01*
X316691Y405020D01*
X315937Y404708D01*
X315289Y404211D01*
X314792Y403563D01*
X314480Y402809D01*
X314373Y402000D01*
X314480Y401191D01*
X314792Y400437D01*
X315289Y399789D01*
X315937Y399292D01*
X316691Y398980D01*
X317500Y398873D01*
X322500D01*
X323309Y398980D01*
X324063Y399292D01*
X324711Y399789D01*
X325208Y400437D01*
X325520Y401191D01*
X325627Y402000D01*
X325520Y402809D01*
X325208Y403563D01*
X324711Y404211D01*
X324063Y404708D01*
X323309Y405020D01*
X322500Y405127D01*
D02*
G37*
G36*
X262500D02*
X257500D01*
X256691Y405020D01*
X255937Y404708D01*
X255289Y404211D01*
X254792Y403563D01*
X254480Y402809D01*
X254373Y402000D01*
X254480Y401191D01*
X254792Y400437D01*
X255289Y399789D01*
X255937Y399292D01*
X256691Y398980D01*
X257500Y398873D01*
X262500D01*
X263309Y398980D01*
X264063Y399292D01*
X264711Y399789D01*
X265208Y400437D01*
X265520Y401191D01*
X265627Y402000D01*
X265520Y402809D01*
X265208Y403563D01*
X264711Y404211D01*
X264063Y404708D01*
X263309Y405020D01*
X262500Y405127D01*
D02*
G37*
G36*
X322500Y395127D02*
X317500D01*
X316691Y395020D01*
X315937Y394708D01*
X315289Y394211D01*
X314792Y393563D01*
X314480Y392809D01*
X314373Y392000D01*
X314480Y391191D01*
X314792Y390437D01*
X315289Y389789D01*
X315937Y389292D01*
X316691Y388980D01*
X317500Y388873D01*
X322500D01*
X323309Y388980D01*
X324063Y389292D01*
X324711Y389789D01*
X325208Y390437D01*
X325520Y391191D01*
X325627Y392000D01*
X325520Y392809D01*
X325208Y393563D01*
X324711Y394211D01*
X324063Y394708D01*
X323309Y395020D01*
X322500Y395127D01*
D02*
G37*
G36*
X262500D02*
X257500D01*
X256691Y395020D01*
X255937Y394708D01*
X255289Y394211D01*
X254792Y393563D01*
X254480Y392809D01*
X254373Y392000D01*
X254480Y391191D01*
X254792Y390437D01*
X255289Y389789D01*
X255937Y389292D01*
X256691Y388980D01*
X257500Y388873D01*
X262500D01*
X263309Y388980D01*
X264063Y389292D01*
X264711Y389789D01*
X265208Y390437D01*
X265520Y391191D01*
X265627Y392000D01*
X265520Y392809D01*
X265208Y393563D01*
X264711Y394211D01*
X264063Y394708D01*
X263309Y395020D01*
X262500Y395127D01*
D02*
G37*
G36*
X322500Y385127D02*
X317500D01*
X316691Y385020D01*
X315937Y384708D01*
X315289Y384211D01*
X314792Y383563D01*
X314480Y382809D01*
X314373Y382000D01*
X314480Y381191D01*
X314792Y380437D01*
X315289Y379789D01*
X315937Y379292D01*
X316691Y378980D01*
X317500Y378873D01*
X322500D01*
X323309Y378980D01*
X324063Y379292D01*
X324711Y379789D01*
X325208Y380437D01*
X325520Y381191D01*
X325627Y382000D01*
X325520Y382809D01*
X325208Y383563D01*
X324711Y384211D01*
X324063Y384708D01*
X323309Y385020D01*
X322500Y385127D01*
D02*
G37*
G36*
X262500D02*
X257500D01*
X256691Y385020D01*
X255937Y384708D01*
X255289Y384211D01*
X254792Y383563D01*
X254480Y382809D01*
X254373Y382000D01*
X254480Y381191D01*
X254792Y380437D01*
X255289Y379789D01*
X255937Y379292D01*
X256691Y378980D01*
X257500Y378873D01*
X262500D01*
X263309Y378980D01*
X264063Y379292D01*
X264711Y379789D01*
X265208Y380437D01*
X265520Y381191D01*
X265627Y382000D01*
X265520Y382809D01*
X265208Y383563D01*
X264711Y384211D01*
X264063Y384708D01*
X263309Y385020D01*
X262500Y385127D01*
D02*
G37*
G36*
X322500Y375127D02*
X317500D01*
X316691Y375020D01*
X315937Y374708D01*
X315289Y374211D01*
X314792Y373563D01*
X314480Y372809D01*
X314373Y372000D01*
X314480Y371191D01*
X314792Y370437D01*
X315289Y369789D01*
X315937Y369292D01*
X316691Y368980D01*
X317500Y368873D01*
X322500D01*
X323309Y368980D01*
X324063Y369292D01*
X324711Y369789D01*
X325208Y370437D01*
X325520Y371191D01*
X325627Y372000D01*
X325520Y372809D01*
X325208Y373563D01*
X324711Y374211D01*
X324063Y374708D01*
X323309Y375020D01*
X322500Y375127D01*
D02*
G37*
G36*
X262500D02*
X257500D01*
X256691Y375020D01*
X255937Y374708D01*
X255289Y374211D01*
X254792Y373563D01*
X254480Y372809D01*
X254373Y372000D01*
X254480Y371191D01*
X254792Y370437D01*
X255289Y369789D01*
X255937Y369292D01*
X256691Y368980D01*
X257500Y368873D01*
X262500D01*
X263309Y368980D01*
X264063Y369292D01*
X264711Y369789D01*
X265208Y370437D01*
X265520Y371191D01*
X265627Y372000D01*
X265520Y372809D01*
X265208Y373563D01*
X264711Y374211D01*
X264063Y374708D01*
X263309Y375020D01*
X262500Y375127D01*
D02*
G37*
G36*
X322500Y365127D02*
X317500D01*
X316691Y365020D01*
X315937Y364708D01*
X315289Y364211D01*
X314792Y363563D01*
X314480Y362809D01*
X314373Y362000D01*
X314480Y361191D01*
X314792Y360437D01*
X315289Y359789D01*
X315937Y359292D01*
X316691Y358980D01*
X317500Y358873D01*
X322500D01*
X323309Y358980D01*
X324063Y359292D01*
X324711Y359789D01*
X325208Y360437D01*
X325520Y361191D01*
X325627Y362000D01*
X325520Y362809D01*
X325208Y363563D01*
X324711Y364211D01*
X324063Y364708D01*
X323309Y365020D01*
X322500Y365127D01*
D02*
G37*
G36*
X262500D02*
X257500D01*
X256691Y365020D01*
X255937Y364708D01*
X255289Y364211D01*
X254792Y363563D01*
X254480Y362809D01*
X254373Y362000D01*
X254480Y361191D01*
X254792Y360437D01*
X255289Y359789D01*
X255937Y359292D01*
X256691Y358980D01*
X257500Y358873D01*
X262500D01*
X263309Y358980D01*
X264063Y359292D01*
X264711Y359789D01*
X265208Y360437D01*
X265520Y361191D01*
X265627Y362000D01*
X265520Y362809D01*
X265208Y363563D01*
X264711Y364211D01*
X264063Y364708D01*
X263309Y365020D01*
X262500Y365127D01*
D02*
G37*
G36*
X322500Y355127D02*
X317500D01*
X316691Y355020D01*
X315937Y354708D01*
X315289Y354211D01*
X314792Y353563D01*
X314480Y352809D01*
X314373Y352000D01*
X314480Y351191D01*
X314792Y350437D01*
X315289Y349789D01*
X315937Y349292D01*
X316691Y348980D01*
X317500Y348873D01*
X322500D01*
X323309Y348980D01*
X324063Y349292D01*
X324711Y349789D01*
X325208Y350437D01*
X325520Y351191D01*
X325627Y352000D01*
X325520Y352809D01*
X325208Y353563D01*
X324711Y354211D01*
X324063Y354708D01*
X323309Y355020D01*
X322500Y355127D01*
D02*
G37*
G36*
X262500D02*
X257500D01*
X256691Y355020D01*
X255937Y354708D01*
X255289Y354211D01*
X254792Y353563D01*
X254480Y352809D01*
X254373Y352000D01*
X254480Y351191D01*
X254792Y350437D01*
X255289Y349789D01*
X255937Y349292D01*
X256691Y348980D01*
X257500Y348873D01*
X262500D01*
X263309Y348980D01*
X264063Y349292D01*
X264711Y349789D01*
X265208Y350437D01*
X265520Y351191D01*
X265627Y352000D01*
X265520Y352809D01*
X265208Y353563D01*
X264711Y354211D01*
X264063Y354708D01*
X263309Y355020D01*
X262500Y355127D01*
D02*
G37*
G36*
X322500Y345127D02*
X317500D01*
X316691Y345020D01*
X315937Y344708D01*
X315289Y344211D01*
X314792Y343563D01*
X314480Y342809D01*
X314373Y342000D01*
X314480Y341191D01*
X314792Y340437D01*
X315289Y339789D01*
X315937Y339292D01*
X316691Y338980D01*
X317500Y338873D01*
X322500D01*
X323309Y338980D01*
X324063Y339292D01*
X324711Y339789D01*
X325208Y340437D01*
X325520Y341191D01*
X325627Y342000D01*
X325520Y342809D01*
X325208Y343563D01*
X324711Y344211D01*
X324063Y344708D01*
X323309Y345020D01*
X322500Y345127D01*
D02*
G37*
G36*
X262500D02*
X257500D01*
X256691Y345020D01*
X255937Y344708D01*
X255289Y344211D01*
X254792Y343563D01*
X254480Y342809D01*
X254373Y342000D01*
X254480Y341191D01*
X254792Y340437D01*
X255289Y339789D01*
X255937Y339292D01*
X256691Y338980D01*
X257500Y338873D01*
X262500D01*
X263309Y338980D01*
X264063Y339292D01*
X264711Y339789D01*
X265208Y340437D01*
X265520Y341191D01*
X265627Y342000D01*
X265520Y342809D01*
X265208Y343563D01*
X264711Y344211D01*
X264063Y344708D01*
X263309Y345020D01*
X262500Y345127D01*
D02*
G37*
G36*
X322500Y335127D02*
X317500D01*
X316691Y335020D01*
X315937Y334708D01*
X315289Y334211D01*
X314792Y333563D01*
X314480Y332809D01*
X314373Y332000D01*
X314480Y331191D01*
X314792Y330437D01*
X315289Y329789D01*
X315937Y329292D01*
X316691Y328980D01*
X317500Y328873D01*
X322500D01*
X323309Y328980D01*
X324063Y329292D01*
X324711Y329789D01*
X325208Y330437D01*
X325520Y331191D01*
X325627Y332000D01*
X325520Y332809D01*
X325208Y333563D01*
X324711Y334211D01*
X324063Y334708D01*
X323309Y335020D01*
X322500Y335127D01*
D02*
G37*
G36*
X262500D02*
X257500D01*
X256691Y335020D01*
X255937Y334708D01*
X255289Y334211D01*
X254792Y333563D01*
X254480Y332809D01*
X254373Y332000D01*
X254480Y331191D01*
X254792Y330437D01*
X255289Y329789D01*
X255937Y329292D01*
X256691Y328980D01*
X257500Y328873D01*
X262500D01*
X263309Y328980D01*
X264063Y329292D01*
X264711Y329789D01*
X265208Y330437D01*
X265520Y331191D01*
X265627Y332000D01*
X265520Y332809D01*
X265208Y333563D01*
X264711Y334211D01*
X264063Y334708D01*
X263309Y335020D01*
X262500Y335127D01*
D02*
G37*
G36*
X322500Y325127D02*
X317500D01*
X316691Y325020D01*
X315937Y324708D01*
X315289Y324211D01*
X314792Y323563D01*
X314480Y322809D01*
X314373Y322000D01*
X314480Y321191D01*
X314792Y320437D01*
X315289Y319789D01*
X315937Y319292D01*
X316691Y318980D01*
X317500Y318873D01*
X322500D01*
X323309Y318980D01*
X324063Y319292D01*
X324711Y319789D01*
X325208Y320437D01*
X325520Y321191D01*
X325627Y322000D01*
X325520Y322809D01*
X325208Y323563D01*
X324711Y324211D01*
X324063Y324708D01*
X323309Y325020D01*
X322500Y325127D01*
D02*
G37*
G36*
X262500D02*
X257500D01*
X256691Y325020D01*
X255937Y324708D01*
X255289Y324211D01*
X254792Y323563D01*
X254480Y322809D01*
X254373Y322000D01*
X254480Y321191D01*
X254792Y320437D01*
X255289Y319789D01*
X255937Y319292D01*
X256691Y318980D01*
X257500Y318873D01*
X262500D01*
X263309Y318980D01*
X264063Y319292D01*
X264711Y319789D01*
X265208Y320437D01*
X265520Y321191D01*
X265627Y322000D01*
X265520Y322809D01*
X265208Y323563D01*
X264711Y324211D01*
X264063Y324708D01*
X263309Y325020D01*
X262500Y325127D01*
D02*
G37*
G36*
X322500Y315127D02*
X317500D01*
X316691Y315020D01*
X315937Y314708D01*
X315289Y314211D01*
X314792Y313563D01*
X314480Y312809D01*
X314373Y312000D01*
X314480Y311191D01*
X314792Y310437D01*
X315289Y309789D01*
X315937Y309292D01*
X316691Y308980D01*
X317500Y308873D01*
X322500D01*
X323309Y308980D01*
X324063Y309292D01*
X324711Y309789D01*
X325208Y310437D01*
X325520Y311191D01*
X325627Y312000D01*
X325520Y312809D01*
X325208Y313563D01*
X324711Y314211D01*
X324063Y314708D01*
X323309Y315020D01*
X322500Y315127D01*
D02*
G37*
G36*
X262500D02*
X257500D01*
X256691Y315020D01*
X255937Y314708D01*
X255289Y314211D01*
X254792Y313563D01*
X254480Y312809D01*
X254373Y312000D01*
X254480Y311191D01*
X254792Y310437D01*
X255289Y309789D01*
X255937Y309292D01*
X256691Y308980D01*
X257500Y308873D01*
X262500D01*
X263309Y308980D01*
X264063Y309292D01*
X264711Y309789D01*
X265208Y310437D01*
X265520Y311191D01*
X265627Y312000D01*
X265520Y312809D01*
X265208Y313563D01*
X264711Y314211D01*
X264063Y314708D01*
X263309Y315020D01*
X262500Y315127D01*
D02*
G37*
G36*
X322500Y305127D02*
X317500D01*
X316691Y305020D01*
X315937Y304708D01*
X315289Y304211D01*
X314792Y303563D01*
X314480Y302809D01*
X314373Y302000D01*
X314480Y301191D01*
X314792Y300437D01*
X315289Y299789D01*
X315937Y299292D01*
X316691Y298980D01*
X317500Y298873D01*
X322500D01*
X323309Y298980D01*
X324063Y299292D01*
X324711Y299789D01*
X325208Y300437D01*
X325520Y301191D01*
X325627Y302000D01*
X325520Y302809D01*
X325208Y303563D01*
X324711Y304211D01*
X324063Y304708D01*
X323309Y305020D01*
X322500Y305127D01*
D02*
G37*
G36*
X262500D02*
X257500D01*
X256691Y305020D01*
X255937Y304708D01*
X255289Y304211D01*
X254792Y303563D01*
X254480Y302809D01*
X254373Y302000D01*
X254480Y301191D01*
X254792Y300437D01*
X255289Y299789D01*
X255937Y299292D01*
X256691Y298980D01*
X257500Y298873D01*
X262500D01*
X263309Y298980D01*
X264063Y299292D01*
X264711Y299789D01*
X265208Y300437D01*
X265520Y301191D01*
X265627Y302000D01*
X265520Y302809D01*
X265208Y303563D01*
X264711Y304211D01*
X264063Y304708D01*
X263309Y305020D01*
X262500Y305127D01*
D02*
G37*
G36*
X322500Y295127D02*
X317500D01*
X316691Y295020D01*
X315937Y294708D01*
X315289Y294211D01*
X314792Y293563D01*
X314480Y292809D01*
X314373Y292000D01*
X314480Y291191D01*
X314792Y290437D01*
X315289Y289789D01*
X315937Y289292D01*
X316691Y288980D01*
X317500Y288873D01*
X322500D01*
X323309Y288980D01*
X324063Y289292D01*
X324711Y289789D01*
X325208Y290437D01*
X325520Y291191D01*
X325627Y292000D01*
X325520Y292809D01*
X325208Y293563D01*
X324711Y294211D01*
X324063Y294708D01*
X323309Y295020D01*
X322500Y295127D01*
D02*
G37*
G36*
X262500D02*
X257500D01*
X256691Y295020D01*
X255937Y294708D01*
X255289Y294211D01*
X254792Y293563D01*
X254480Y292809D01*
X254373Y292000D01*
X254480Y291191D01*
X254792Y290437D01*
X255289Y289789D01*
X255937Y289292D01*
X256691Y288980D01*
X257500Y288873D01*
X262500D01*
X263309Y288980D01*
X264063Y289292D01*
X264711Y289789D01*
X265208Y290437D01*
X265520Y291191D01*
X265627Y292000D01*
X265520Y292809D01*
X265208Y293563D01*
X264711Y294211D01*
X264063Y294708D01*
X263309Y295020D01*
X262500Y295127D01*
D02*
G37*
G36*
X322500Y285127D02*
X317500D01*
X316691Y285020D01*
X315937Y284708D01*
X315289Y284211D01*
X314792Y283563D01*
X314480Y282809D01*
X314373Y282000D01*
X314480Y281191D01*
X314792Y280437D01*
X315289Y279789D01*
X315937Y279292D01*
X316691Y278980D01*
X317500Y278873D01*
X322500D01*
X323309Y278980D01*
X324063Y279292D01*
X324711Y279789D01*
X325208Y280437D01*
X325520Y281191D01*
X325627Y282000D01*
X325520Y282809D01*
X325208Y283563D01*
X324711Y284211D01*
X324063Y284708D01*
X323309Y285020D01*
X322500Y285127D01*
D02*
G37*
G36*
X262500D02*
X257500D01*
X256691Y285020D01*
X255937Y284708D01*
X255289Y284211D01*
X254792Y283563D01*
X254480Y282809D01*
X254373Y282000D01*
X254480Y281191D01*
X254792Y280437D01*
X255289Y279789D01*
X255937Y279292D01*
X256691Y278980D01*
X257500Y278873D01*
X262500D01*
X263309Y278980D01*
X264063Y279292D01*
X264711Y279789D01*
X265208Y280437D01*
X265520Y281191D01*
X265627Y282000D01*
X265520Y282809D01*
X265208Y283563D01*
X264711Y284211D01*
X264063Y284708D01*
X263309Y285020D01*
X262500Y285127D01*
D02*
G37*
G36*
X322500Y275127D02*
X317500D01*
X316691Y275020D01*
X315937Y274708D01*
X315289Y274211D01*
X314792Y273563D01*
X314480Y272809D01*
X314373Y272000D01*
X314480Y271191D01*
X314792Y270437D01*
X315289Y269789D01*
X315937Y269292D01*
X316691Y268980D01*
X317500Y268873D01*
X322500D01*
X323309Y268980D01*
X324063Y269292D01*
X324711Y269789D01*
X325208Y270437D01*
X325520Y271191D01*
X325627Y272000D01*
X325520Y272809D01*
X325208Y273563D01*
X324711Y274211D01*
X324063Y274708D01*
X323309Y275020D01*
X322500Y275127D01*
D02*
G37*
G36*
X262500D02*
X257500D01*
X256691Y275020D01*
X255937Y274708D01*
X255289Y274211D01*
X254792Y273563D01*
X254480Y272809D01*
X254373Y272000D01*
X254480Y271191D01*
X254792Y270437D01*
X255289Y269789D01*
X255937Y269292D01*
X256691Y268980D01*
X257500Y268873D01*
X262500D01*
X263309Y268980D01*
X264063Y269292D01*
X264711Y269789D01*
X265208Y270437D01*
X265520Y271191D01*
X265627Y272000D01*
X265520Y272809D01*
X265208Y273563D01*
X264711Y274211D01*
X264063Y274708D01*
X263309Y275020D01*
X262500Y275127D01*
D02*
G37*
G36*
X322500Y265127D02*
X317500D01*
X316691Y265020D01*
X315937Y264708D01*
X315289Y264211D01*
X314792Y263563D01*
X314480Y262809D01*
X314373Y262000D01*
X314480Y261191D01*
X314792Y260437D01*
X315289Y259789D01*
X315937Y259292D01*
X316691Y258980D01*
X317500Y258873D01*
X322500D01*
X323309Y258980D01*
X324063Y259292D01*
X324711Y259789D01*
X325208Y260437D01*
X325520Y261191D01*
X325627Y262000D01*
X325520Y262809D01*
X325208Y263563D01*
X324711Y264211D01*
X324063Y264708D01*
X323309Y265020D01*
X322500Y265127D01*
D02*
G37*
G36*
X262500D02*
X257500D01*
X256691Y265020D01*
X255937Y264708D01*
X255289Y264211D01*
X254792Y263563D01*
X254480Y262809D01*
X254373Y262000D01*
X254480Y261191D01*
X254792Y260437D01*
X255289Y259789D01*
X255937Y259292D01*
X256691Y258980D01*
X257500Y258873D01*
X262500D01*
X263309Y258980D01*
X264063Y259292D01*
X264711Y259789D01*
X265208Y260437D01*
X265520Y261191D01*
X265627Y262000D01*
X265520Y262809D01*
X265208Y263563D01*
X264711Y264211D01*
X264063Y264708D01*
X263309Y265020D01*
X262500Y265127D01*
D02*
G37*
G36*
X322500Y255530D02*
X320500D01*
Y252500D01*
X325964D01*
X325910Y252914D01*
X325557Y253765D01*
X324996Y254496D01*
X324265Y255057D01*
X323414Y255410D01*
X322500Y255530D01*
D02*
G37*
G36*
X319500D02*
X317500D01*
X316586Y255410D01*
X315735Y255057D01*
X315004Y254496D01*
X314443Y253765D01*
X314090Y252914D01*
X314036Y252500D01*
X319500D01*
Y255530D01*
D02*
G37*
G36*
X262500Y255127D02*
X257500D01*
X256691Y255020D01*
X255937Y254708D01*
X255289Y254211D01*
X254792Y253563D01*
X254480Y252809D01*
X254373Y252000D01*
X254480Y251191D01*
X254792Y250437D01*
X255289Y249789D01*
X255937Y249292D01*
X256691Y248980D01*
X257500Y248873D01*
X262500D01*
X263309Y248980D01*
X264063Y249292D01*
X264711Y249789D01*
X265208Y250437D01*
X265520Y251191D01*
X265627Y252000D01*
X265520Y252809D01*
X265208Y253563D01*
X264711Y254211D01*
X264063Y254708D01*
X263309Y255020D01*
X262500Y255127D01*
D02*
G37*
G36*
X202409Y251150D02*
X199956D01*
Y248855D01*
X205139D01*
X205109Y249078D01*
X204830Y249753D01*
X204386Y250332D01*
X203807Y250776D01*
X203133Y251055D01*
X202409Y251150D01*
D02*
G37*
G36*
X198956D02*
X196503D01*
X195780Y251055D01*
X195106Y250776D01*
X194527Y250332D01*
X194082Y249753D01*
X193803Y249078D01*
X193774Y248855D01*
X198956D01*
Y251150D01*
D02*
G37*
G36*
X325964Y251500D02*
X320500D01*
Y248470D01*
X322500D01*
X323414Y248590D01*
X324265Y248943D01*
X324996Y249504D01*
X325557Y250235D01*
X325910Y251086D01*
X325964Y251500D01*
D02*
G37*
G36*
X319500D02*
X314036D01*
X314090Y251086D01*
X314443Y250235D01*
X315004Y249504D01*
X315735Y248943D01*
X316586Y248590D01*
X317500Y248470D01*
X319500D01*
Y251500D01*
D02*
G37*
G36*
X187724Y250773D02*
X184574D01*
X183649Y250589D01*
X182864Y250065D01*
X182340Y249280D01*
X182156Y248355D01*
X182340Y247430D01*
X182864Y246645D01*
X183649Y246121D01*
X184574Y245937D01*
X187724D01*
X188649Y246121D01*
X189434Y246645D01*
X189958Y247430D01*
X190142Y248355D01*
X189958Y249280D01*
X189434Y250065D01*
X188649Y250589D01*
X187724Y250773D01*
D02*
G37*
G36*
X318000Y247131D02*
X304000D01*
X303376Y247007D01*
X302847Y246654D01*
X302493Y246124D01*
X302369Y245500D01*
X302493Y244876D01*
X302847Y244346D01*
X303376Y243993D01*
X304000Y243869D01*
X318000D01*
X318624Y243993D01*
X319153Y244346D01*
X319507Y244876D01*
X319631Y245500D01*
X319507Y246124D01*
X319153Y246654D01*
X318624Y247007D01*
X318000Y247131D01*
D02*
G37*
G36*
X351000Y240385D02*
X350124Y240269D01*
X349308Y239931D01*
X348606Y239393D01*
X348069Y238692D01*
X347730Y237876D01*
X347615Y237000D01*
X347730Y236124D01*
X348069Y235308D01*
X348606Y234607D01*
X349308Y234069D01*
X350124Y233731D01*
X351000Y233615D01*
X351876Y233731D01*
X352692Y234069D01*
X353394Y234607D01*
X353931Y235308D01*
X354270Y236124D01*
X354385Y237000D01*
X354270Y237876D01*
X353931Y238692D01*
X353394Y239393D01*
X352692Y239931D01*
X351876Y240269D01*
X351000Y240385D01*
D02*
G37*
G36*
X205139Y247855D02*
X193774D01*
X193803Y247632D01*
X194082Y246957D01*
X194527Y246378D01*
X195106Y245934D01*
X195780Y245655D01*
X196503Y245560D01*
X196858D01*
X196967Y245060D01*
X196340Y244641D01*
X195849Y243906D01*
X195776Y243540D01*
X198000D01*
Y242540D01*
X195776D01*
X195817Y242334D01*
X195521Y241834D01*
X192757D01*
X191938Y241671D01*
X191243Y241207D01*
X189486Y239450D01*
X189022Y238755D01*
X188859Y237936D01*
Y224757D01*
X189022Y223938D01*
X189486Y223243D01*
X191257Y221473D01*
X191951Y221008D01*
X192771Y220845D01*
X195538D01*
X195823Y220345D01*
X195776Y220114D01*
X198000D01*
X200224D01*
X200181Y220326D01*
X200472Y220736D01*
X200842D01*
X201133Y220326D01*
X201090Y220114D01*
X203314D01*
X205538D01*
X205465Y220480D01*
X204974Y221215D01*
X205044Y221770D01*
X205292Y222142D01*
X205455Y222961D01*
X205292Y223780D01*
X204828Y224475D01*
X204820Y224483D01*
X204685Y224661D01*
Y224994D01*
X205088Y225597D01*
X205229Y226307D01*
X205088Y227017D01*
X204685Y227620D01*
X204519Y227730D01*
Y228231D01*
X204685Y228342D01*
X205088Y228944D01*
X205229Y229654D01*
X205088Y230364D01*
X204685Y230966D01*
X204520Y231077D01*
Y231577D01*
X204685Y231687D01*
X205088Y232290D01*
X205229Y233000D01*
X205088Y233710D01*
X204685Y234313D01*
X204519Y234423D01*
Y234924D01*
X204685Y235034D01*
X205088Y235637D01*
X205229Y236347D01*
X205088Y237057D01*
X204685Y237660D01*
Y238084D01*
X204828Y238179D01*
X205292Y238874D01*
X205455Y239693D01*
X205292Y240512D01*
X205044Y240884D01*
X204974Y241439D01*
X205465Y242174D01*
X205538Y242540D01*
X203314D01*
Y243540D01*
X205538D01*
X205465Y243906D01*
X204974Y244641D01*
X204239Y245132D01*
X203521Y245274D01*
X203468Y245794D01*
X203807Y245934D01*
X204386Y246378D01*
X204830Y246957D01*
X205109Y247632D01*
X205139Y247855D01*
D02*
G37*
G36*
X200224Y219114D02*
X198500D01*
Y217438D01*
X198925Y217522D01*
X199660Y218013D01*
X200151Y218748D01*
X200224Y219114D01*
D02*
G37*
G36*
X205538D02*
X203814D01*
Y217438D01*
X204239Y217522D01*
X204974Y218013D01*
X205465Y218748D01*
X205538Y219114D01*
D02*
G37*
G36*
X202814D02*
X201090D01*
X201163Y218748D01*
X201654Y218013D01*
X202389Y217522D01*
X202814Y217438D01*
Y219114D01*
D02*
G37*
G36*
X197500D02*
X195776D01*
X195849Y218748D01*
X196340Y218013D01*
X197075Y217522D01*
X197500Y217438D01*
Y219114D01*
D02*
G37*
G36*
X202409Y216717D02*
X196503D01*
X195578Y216533D01*
X194793Y216009D01*
X194269Y215224D01*
X194085Y214299D01*
X194269Y213374D01*
X194793Y212589D01*
X195578Y212065D01*
X196503Y211881D01*
X202409D01*
X203334Y212065D01*
X204119Y212589D01*
X204643Y213374D01*
X204827Y214299D01*
X204643Y215224D01*
X204119Y216009D01*
X203334Y216533D01*
X202409Y216717D01*
D02*
G37*
G36*
X187724D02*
X184574D01*
X183649Y216533D01*
X182864Y216009D01*
X182340Y215224D01*
X182156Y214299D01*
X182340Y213374D01*
X182864Y212589D01*
X183649Y212065D01*
X184574Y211881D01*
X187724D01*
X188649Y212065D01*
X189434Y212589D01*
X189958Y213374D01*
X190142Y214299D01*
X189958Y215224D01*
X189434Y216009D01*
X188649Y216533D01*
X187724Y216717D01*
D02*
G37*
G36*
X328378Y213849D02*
Y211500D01*
X330727D01*
X330694Y211754D01*
X330403Y212457D01*
X329939Y213061D01*
X329336Y213524D01*
X328633Y213815D01*
X328378Y213849D01*
D02*
G37*
G36*
X327378D02*
X327124Y213815D01*
X326421Y213524D01*
X325817Y213061D01*
X325354Y212457D01*
X325063Y211754D01*
X325030Y211500D01*
X327378D01*
Y213849D01*
D02*
G37*
G36*
X337378D02*
X337124Y213815D01*
X336421Y213524D01*
X335817Y213061D01*
X335354Y212457D01*
X335063Y211754D01*
X335030Y211500D01*
X337378D01*
Y213849D01*
D02*
G37*
G36*
X343378D02*
Y211000D01*
X342378D01*
Y213849D01*
X342124Y213815D01*
X341421Y213524D01*
X340817Y213061D01*
X340628Y212815D01*
X340128D01*
X339939Y213061D01*
X339336Y213524D01*
X338633Y213815D01*
X338378Y213849D01*
Y211000D01*
X337878D01*
Y210500D01*
X335030D01*
X335063Y210246D01*
X335354Y209543D01*
X335817Y208939D01*
X336319Y208554D01*
X336396Y208004D01*
X336083Y207795D01*
X335658Y207158D01*
X335099D01*
X334674Y207795D01*
X333850Y208345D01*
X332878Y208539D01*
X331907Y208345D01*
X331083Y207795D01*
X330658Y207158D01*
X330099D01*
X329674Y207795D01*
X329360Y208004D01*
X329438Y208554D01*
X329939Y208939D01*
X330403Y209543D01*
X330694Y210246D01*
X330727Y210500D01*
X327878D01*
X325030D01*
X325063Y210246D01*
X325354Y209543D01*
X325817Y208939D01*
X326319Y208554D01*
X326396Y208004D01*
X326083Y207795D01*
X325533Y206972D01*
X325340Y206000D01*
X325533Y205029D01*
X326083Y204205D01*
X326757Y203755D01*
Y202622D01*
X326757Y202622D01*
X326842Y202192D01*
X327085Y201829D01*
X330007Y198907D01*
X330371Y198664D01*
X330800Y198578D01*
X330800Y198578D01*
X331776D01*
X331882Y198508D01*
X332500Y198385D01*
X333118Y198508D01*
X333642Y198858D01*
X333992Y199382D01*
X334115Y200000D01*
X333992Y200618D01*
X333642Y201142D01*
X333118Y201492D01*
X332500Y201615D01*
X331882Y201492D01*
X331358Y201142D01*
X330981Y201105D01*
X329000Y203086D01*
Y203755D01*
X329674Y204205D01*
X330099Y204842D01*
X330658D01*
X331083Y204205D01*
X331907Y203655D01*
X332878Y203461D01*
X333850Y203655D01*
X334674Y204205D01*
X335099Y204842D01*
X335658D01*
X336083Y204205D01*
X336907Y203655D01*
X337878Y203461D01*
X338850Y203655D01*
X339673Y204205D01*
X340099Y204842D01*
X340658D01*
X341083Y204205D01*
X341907Y203655D01*
X342878Y203461D01*
X343850Y203655D01*
X344673Y204205D01*
X345099Y204842D01*
X345658D01*
X346083Y204205D01*
X346757Y203755D01*
Y201895D01*
X344654Y199793D01*
X344654Y199793D01*
X344483Y199622D01*
X341156D01*
X341142Y199642D01*
X340618Y199992D01*
X340000Y200115D01*
X339382Y199992D01*
X338858Y199642D01*
X338508Y199118D01*
X338385Y198500D01*
X338508Y197882D01*
X338858Y197358D01*
X339382Y197008D01*
X340000Y196885D01*
X340618Y197008D01*
X341142Y197358D01*
X341156Y197378D01*
X344948D01*
X344948Y197378D01*
X345377Y197464D01*
X345741Y197707D01*
X346241Y198207D01*
X346241Y198207D01*
X348672Y200638D01*
X348915Y201002D01*
X349000Y201431D01*
X349000Y201431D01*
Y203755D01*
X349674Y204205D01*
X350224Y205029D01*
X350417Y206000D01*
X350224Y206972D01*
X349674Y207795D01*
X349351Y208010D01*
X349503Y208510D01*
X350368D01*
Y209786D01*
X352997D01*
X355940Y206844D01*
Y200381D01*
X355661Y199965D01*
X355563Y199473D01*
X349304Y193214D01*
X336535D01*
X336118Y193492D01*
X335500Y193615D01*
X334882Y193492D01*
X334465Y193214D01*
X277303D01*
X271362Y199155D01*
X271264Y199646D01*
X270914Y200170D01*
X270390Y200521D01*
X269772Y200644D01*
X269153Y200521D01*
X268630Y200170D01*
X268279Y199646D01*
X268156Y199028D01*
X268279Y198410D01*
X268630Y197886D01*
X269153Y197536D01*
X269645Y197438D01*
X275942Y191142D01*
X275942Y191142D01*
X276336Y190878D01*
X276800Y190786D01*
X276800Y190786D01*
X334465D01*
X334882Y190508D01*
X335500Y190385D01*
X336118Y190508D01*
X336535Y190786D01*
X349807D01*
X349807Y190786D01*
X350272Y190878D01*
X350665Y191142D01*
X357280Y197756D01*
X357772Y197854D01*
X358296Y198204D01*
X358646Y198728D01*
X358769Y199346D01*
X358646Y199965D01*
X358367Y200381D01*
Y207347D01*
X358275Y207811D01*
X358012Y208205D01*
X358012Y208205D01*
X354358Y211858D01*
X353964Y212122D01*
X353500Y212214D01*
X353500Y212214D01*
X350368D01*
Y213490D01*
X345389D01*
Y213213D01*
X345335Y213195D01*
X344889Y213100D01*
X344336Y213524D01*
X343633Y213815D01*
X343378Y213849D01*
D02*
G37*
G36*
X238000Y184485D02*
Y181262D01*
X241223D01*
X241159Y181743D01*
X240781Y182656D01*
X240179Y183441D01*
X239394Y184043D01*
X238480Y184421D01*
X238000Y184485D01*
D02*
G37*
G36*
X237000D02*
X236520Y184421D01*
X235606Y184043D01*
X234821Y183441D01*
X234219Y182656D01*
X233841Y181743D01*
X233777Y181262D01*
X237000D01*
Y184485D01*
D02*
G37*
G36*
X310653Y184147D02*
X309777Y184032D01*
X308961Y183694D01*
X308260Y183156D01*
X307722Y182455D01*
X307384Y181638D01*
X307269Y180762D01*
X307384Y179886D01*
X307722Y179070D01*
X308260Y178369D01*
X308961Y177831D01*
X309777Y177493D01*
X310653Y177377D01*
X311530Y177493D01*
X312346Y177831D01*
X313047Y178369D01*
X313585Y179070D01*
X313923Y179886D01*
X314038Y180762D01*
X313923Y181638D01*
X313585Y182455D01*
X313047Y183156D01*
X312346Y183694D01*
X311530Y184032D01*
X310653Y184147D01*
D02*
G37*
G36*
X267500D02*
X266624Y184032D01*
X265808Y183694D01*
X265107Y183156D01*
X264569Y182455D01*
X264230Y181638D01*
X264115Y180762D01*
X264230Y179886D01*
X264569Y179070D01*
X265107Y178369D01*
X265808Y177831D01*
X266624Y177493D01*
X267500Y177377D01*
X268376Y177493D01*
X269192Y177831D01*
X269894Y178369D01*
X270431Y179070D01*
X270770Y179886D01*
X270885Y180762D01*
X270770Y181638D01*
X270431Y182455D01*
X269894Y183156D01*
X269192Y183694D01*
X268376Y184032D01*
X267500Y184147D01*
D02*
G37*
G36*
X241223Y180262D02*
X238000D01*
Y177040D01*
X238480Y177103D01*
X239394Y177481D01*
X240179Y178084D01*
X240781Y178868D01*
X241159Y179782D01*
X241223Y180262D01*
D02*
G37*
G36*
X237000D02*
X233777D01*
X233841Y179782D01*
X234219Y178868D01*
X234821Y178084D01*
X235606Y177481D01*
X236520Y177103D01*
X237000Y177040D01*
Y180262D01*
D02*
G37*
%LPD*%
G36*
X196262Y237111D02*
X196226Y237057D01*
X196085Y236347D01*
X196226Y235637D01*
X196628Y235034D01*
X196795Y234924D01*
Y234423D01*
X196628Y234313D01*
X196226Y233710D01*
X196085Y233000D01*
X196226Y232290D01*
X196628Y231687D01*
X196794Y231577D01*
Y231077D01*
X196628Y230966D01*
X196226Y230364D01*
X196085Y229654D01*
X196226Y228944D01*
X196628Y228342D01*
X196795Y228231D01*
Y227730D01*
X196628Y227620D01*
X196226Y227017D01*
X196085Y226307D01*
X196220Y225628D01*
X196219Y225520D01*
X196009Y225128D01*
X193658D01*
X193141Y225644D01*
Y237049D01*
X193644Y237552D01*
X196026D01*
X196262Y237111D01*
D02*
G37*
D12*
X340000Y198500D02*
X344948D01*
X345448Y199000D01*
X330800Y199700D02*
X332500D01*
X345448Y199000D02*
X347878Y201431D01*
Y206000D01*
X327878Y202622D02*
X330800Y199700D01*
X327878Y202622D02*
Y206000D01*
D15*
X304000Y245500D02*
X318000D01*
D46*
X335500Y192000D02*
X349807D01*
X276800D02*
X335500D01*
X349807D02*
X357154Y199346D01*
X269772Y199028D02*
X276800Y192000D01*
X357154Y199346D02*
Y207347D01*
X353500Y211000D02*
X357154Y207347D01*
X347878Y211000D02*
X353500D01*
D47*
X192771Y222987D02*
X203289D01*
X191000Y224757D02*
X192771Y222987D01*
X203289D02*
X203314Y222961D01*
X191000Y224757D02*
Y237936D01*
X192757Y239693D01*
X198000D01*
X203314D01*
D49*
X347878Y211000D02*
D03*
D50*
Y206000D02*
D03*
X342878Y211000D02*
D03*
Y206000D02*
D03*
X337878Y211000D02*
D03*
Y206000D02*
D03*
X332878D02*
D03*
X327878Y211000D02*
D03*
Y206000D02*
D03*
D51*
X267500Y180762D02*
D03*
X237500D02*
D03*
X351000Y237000D02*
D03*
X310653Y180762D02*
D03*
D52*
X186149Y248355D02*
D03*
Y214299D02*
D03*
D53*
X199456D02*
D03*
Y248355D02*
D03*
D54*
X198000Y243040D02*
D03*
Y239693D02*
D03*
Y236347D02*
D03*
Y233000D02*
D03*
Y229654D02*
D03*
Y226307D02*
D03*
Y222961D02*
D03*
Y219614D02*
D03*
X203314D02*
D03*
Y222961D02*
D03*
Y226307D02*
D03*
Y229654D02*
D03*
Y233000D02*
D03*
Y236347D02*
D03*
Y239693D02*
D03*
Y243040D02*
D03*
D55*
X260000Y442000D02*
D03*
D56*
Y432000D02*
D03*
Y422000D02*
D03*
Y412000D02*
D03*
Y402000D02*
D03*
Y392000D02*
D03*
Y382000D02*
D03*
Y372000D02*
D03*
Y362000D02*
D03*
Y352000D02*
D03*
Y342000D02*
D03*
Y332000D02*
D03*
Y322000D02*
D03*
Y312000D02*
D03*
Y302000D02*
D03*
Y292000D02*
D03*
Y282000D02*
D03*
Y272000D02*
D03*
Y262000D02*
D03*
Y252000D02*
D03*
X320000Y442000D02*
D03*
Y432000D02*
D03*
Y422000D02*
D03*
Y412000D02*
D03*
Y402000D02*
D03*
Y392000D02*
D03*
Y382000D02*
D03*
Y372000D02*
D03*
Y362000D02*
D03*
Y352000D02*
D03*
Y342000D02*
D03*
Y332000D02*
D03*
Y322000D02*
D03*
Y312000D02*
D03*
Y302000D02*
D03*
Y292000D02*
D03*
Y282000D02*
D03*
Y272000D02*
D03*
Y262000D02*
D03*
Y252000D02*
D03*
D57*
X271000Y185000D02*
D03*
X298000Y201500D02*
D03*
X229500Y213500D02*
D03*
Y207000D02*
D03*
X236000Y201500D02*
D03*
X262000Y202000D02*
D03*
X272000Y201500D02*
D03*
X332500Y175500D02*
D03*
X317500Y182000D02*
D03*
X313500Y207000D02*
D03*
X286900Y214860D02*
D03*
X281000Y219500D02*
D03*
X286000D02*
D03*
X334500Y196000D02*
D03*
X340000Y198500D02*
D03*
X335500Y192000D02*
D03*
X332500Y200000D02*
D03*
X292500Y210500D02*
D03*
X301000Y219500D02*
D03*
X296000D02*
D03*
X291000D02*
D03*
X251200Y218500D02*
D03*
X276000Y219500D02*
D03*
X266000Y218500D02*
D03*
X261000D02*
D03*
X269772Y199028D02*
D03*
X339713Y186165D02*
D03*
X344044D02*
D03*
X339713Y181835D02*
D03*
X344044D02*
D03*
X242100Y200100D02*
D03*
X265900Y199200D02*
D03*
X256000Y218500D02*
D03*
X256300Y210500D02*
D03*
X241500Y218000D02*
D03*
X276400Y210500D02*
D03*
X286500Y179500D02*
D03*
X296000Y181500D02*
D03*
X382000Y201300D02*
D03*
X352500Y182900D02*
D03*
X349000Y195500D02*
D03*
X345200Y201700D02*
D03*
X357154Y199346D02*
D03*
X304000Y245500D02*
D03*
X318000D02*
D03*
X286900Y205860D02*
D03*
Y208860D02*
D03*
Y211860D02*
D03*
X250900Y214900D02*
D03*
Y211900D02*
D03*
Y208900D02*
D03*
Y205900D02*
D03*
M02*
