G04*
G04 #@! TF.GenerationSoftware,Altium Limited,Altium Designer,19.1.8 (144)*
G04*
G04 Layer_Color=32896*
%FSLAX25Y25*%
%MOIN*%
G70*
G01*
G75*
%ADD10C,0.01000*%
D10*
X409457Y468000D02*
X409433Y468998D01*
X409364Y469994D01*
X409248Y470986D01*
X409086Y471972D01*
X408878Y472948D01*
X408626Y473914D01*
X408328Y474867D01*
X407986Y475806D01*
X407602Y476727D01*
X407174Y477630D01*
X406706Y478511D01*
X406196Y479370D01*
X405648Y480205D01*
X405061Y481012D01*
X404437Y481792D01*
X403777Y482542D01*
X403084Y483260D01*
X402357Y483945D01*
X401600Y484596D01*
X400813Y485211D01*
X399998Y485788D01*
X399158Y486327D01*
X398293Y486827D01*
X397406Y487285D01*
X396499Y487702D01*
X395573Y488076D01*
X394631Y488407D01*
X393674Y488693D01*
X392705Y488935D01*
X391726Y489131D01*
X390739Y489281D01*
X389746Y489386D01*
X388749Y489444D01*
X387750Y489455D01*
X386752Y489420D01*
X385757Y489339D01*
X384767Y489212D01*
X383783Y489038D01*
X382809Y488819D01*
X381846Y488555D01*
X380896Y488247D01*
X379962Y487894D01*
X379045Y487499D01*
X378148Y487061D01*
X377272Y486582D01*
X376419Y486063D01*
X375591Y485504D01*
X374790Y484908D01*
X374018Y484275D01*
X373275Y483607D01*
X372565Y482905D01*
X371889Y482171D01*
X371247Y481406D01*
X370641Y480612D01*
X370073Y479791D01*
X369544Y478944D01*
X369055Y478073D01*
X368607Y477181D01*
X368201Y476269D01*
X367837Y475339D01*
X367518Y474393D01*
X367243Y473433D01*
X367012Y472461D01*
X366827Y471480D01*
X366688Y470491D01*
X366596Y469497D01*
X366549Y468499D01*
Y467501D01*
X366596Y466503D01*
X366688Y465509D01*
X366827Y464520D01*
X367012Y463539D01*
X367243Y462567D01*
X367518Y461607D01*
X367837Y460661D01*
X368201Y459731D01*
X368607Y458819D01*
X369055Y457927D01*
X369544Y457056D01*
X370073Y456209D01*
X370641Y455388D01*
X371247Y454594D01*
X371889Y453829D01*
X372565Y453095D01*
X373276Y452393D01*
X374018Y451725D01*
X374790Y451092D01*
X375591Y450496D01*
X376419Y449937D01*
X377272Y449418D01*
X378148Y448939D01*
X379045Y448501D01*
X379962Y448106D01*
X380896Y447753D01*
X381846Y447445D01*
X382809Y447181D01*
X383784Y446962D01*
X384767Y446788D01*
X385757Y446661D01*
X386753Y446580D01*
X387750Y446545D01*
X388749Y446556D01*
X389746Y446614D01*
X390739Y446719D01*
X391726Y446869D01*
X392705Y447065D01*
X393674Y447307D01*
X394631Y447593D01*
X395573Y447924D01*
X396499Y448298D01*
X397406Y448715D01*
X398293Y449173D01*
X399158Y449673D01*
X399998Y450212D01*
X400813Y450789D01*
X401600Y451404D01*
X402357Y452055D01*
X403084Y452740D01*
X403777Y453458D01*
X404437Y454208D01*
X405061Y454988D01*
X405648Y455795D01*
X406196Y456630D01*
X406706Y457489D01*
X407174Y458370D01*
X407602Y459273D01*
X407986Y460194D01*
X408328Y461132D01*
X408626Y462086D01*
X408878Y463052D01*
X409086Y464028D01*
X409248Y465014D01*
X409364Y466006D01*
X409433Y467002D01*
X409457Y468000D01*
X212457Y468000D02*
X212433Y468998D01*
X212364Y469994D01*
X212248Y470986D01*
X212086Y471972D01*
X211878Y472948D01*
X211626Y473914D01*
X211328Y474867D01*
X210986Y475806D01*
X210602Y476727D01*
X210174Y477630D01*
X209706Y478511D01*
X209196Y479370D01*
X208648Y480205D01*
X208061Y481012D01*
X207437Y481792D01*
X206777Y482542D01*
X206084Y483260D01*
X205357Y483945D01*
X204600Y484596D01*
X203813Y485211D01*
X202998Y485788D01*
X202158Y486327D01*
X201293Y486827D01*
X200406Y487285D01*
X199499Y487702D01*
X198573Y488076D01*
X197631Y488407D01*
X196674Y488693D01*
X195705Y488935D01*
X194726Y489131D01*
X193739Y489281D01*
X192746Y489386D01*
X191749Y489444D01*
X190750Y489455D01*
X189752Y489420D01*
X188757Y489339D01*
X187767Y489212D01*
X186783Y489038D01*
X185809Y488819D01*
X184846Y488555D01*
X183897Y488247D01*
X182962Y487894D01*
X182045Y487499D01*
X181148Y487061D01*
X180272Y486582D01*
X179419Y486063D01*
X178591Y485504D01*
X177790Y484908D01*
X177018Y484275D01*
X176276Y483607D01*
X175565Y482905D01*
X174889Y482171D01*
X174247Y481406D01*
X173641Y480612D01*
X173073Y479791D01*
X172544Y478944D01*
X172055Y478073D01*
X171607Y477181D01*
X171201Y476269D01*
X170837Y475339D01*
X170518Y474393D01*
X170243Y473433D01*
X170012Y472461D01*
X169827Y471480D01*
X169688Y470491D01*
X169596Y469497D01*
X169549Y468499D01*
Y467501D01*
X169596Y466503D01*
X169688Y465509D01*
X169827Y464520D01*
X170012Y463539D01*
X170243Y462567D01*
X170518Y461607D01*
X170837Y460661D01*
X171201Y459731D01*
X171607Y458819D01*
X172055Y457927D01*
X172544Y457056D01*
X173073Y456209D01*
X173641Y455388D01*
X174247Y454594D01*
X174889Y453829D01*
X175565Y453095D01*
X176276Y452393D01*
X177018Y451725D01*
X177790Y451092D01*
X178591Y450496D01*
X179419Y449937D01*
X180272Y449418D01*
X181148Y448939D01*
X182045Y448501D01*
X182962Y448106D01*
X183897Y447753D01*
X184846Y447445D01*
X185809Y447181D01*
X186784Y446962D01*
X187767Y446788D01*
X188757Y446661D01*
X189752Y446580D01*
X190750Y446545D01*
X191749Y446556D01*
X192746Y446614D01*
X193739Y446719D01*
X194726Y446869D01*
X195705Y447065D01*
X196674Y447307D01*
X197631Y447593D01*
X198573Y447924D01*
X199499Y448298D01*
X200406Y448715D01*
X201293Y449173D01*
X202158Y449673D01*
X202998Y450212D01*
X203813Y450789D01*
X204600Y451404D01*
X205357Y452055D01*
X206084Y452740D01*
X206777Y453458D01*
X207437Y454208D01*
X208061Y454988D01*
X208648Y455795D01*
X209196Y456630D01*
X209706Y457489D01*
X210174Y458370D01*
X210602Y459273D01*
X210986Y460194D01*
X211328Y461132D01*
X211626Y462086D01*
X211878Y463052D01*
X212086Y464028D01*
X212248Y465014D01*
X212364Y466006D01*
X212433Y467002D01*
X212457Y468000D01*
X409457Y179000D02*
X409433Y179998D01*
X409364Y180994D01*
X409248Y181986D01*
X409086Y182972D01*
X408878Y183948D01*
X408626Y184914D01*
X408328Y185868D01*
X407986Y186806D01*
X407602Y187727D01*
X407174Y188630D01*
X406706Y189511D01*
X406196Y190370D01*
X405648Y191205D01*
X405061Y192012D01*
X404437Y192792D01*
X403777Y193542D01*
X403084Y194260D01*
X402357Y194945D01*
X401600Y195596D01*
X400813Y196211D01*
X399998Y196788D01*
X399158Y197327D01*
X398293Y197827D01*
X397406Y198285D01*
X396499Y198702D01*
X395573Y199076D01*
X394631Y199407D01*
X393674Y199693D01*
X392705Y199934D01*
X391726Y200131D01*
X390739Y200281D01*
X389746Y200386D01*
X388749Y200444D01*
X387750Y200455D01*
X386752Y200420D01*
X385757Y200339D01*
X384767Y200212D01*
X383783Y200038D01*
X382809Y199819D01*
X381846Y199555D01*
X380896Y199247D01*
X379962Y198894D01*
X379045Y198499D01*
X378148Y198061D01*
X377272Y197582D01*
X376419Y197063D01*
X375591Y196504D01*
X374790Y195908D01*
X374018Y195275D01*
X373275Y194607D01*
X372565Y193905D01*
X371889Y193171D01*
X371247Y192406D01*
X370641Y191612D01*
X370073Y190791D01*
X369544Y189944D01*
X369055Y189073D01*
X368607Y188181D01*
X368201Y187269D01*
X367837Y186339D01*
X367518Y185393D01*
X367243Y184433D01*
X367012Y183461D01*
X366827Y182480D01*
X366688Y181491D01*
X366596Y180497D01*
X366549Y179499D01*
Y178501D01*
X366596Y177503D01*
X366688Y176509D01*
X366827Y175520D01*
X367012Y174539D01*
X367243Y173567D01*
X367518Y172607D01*
X367837Y171661D01*
X368201Y170731D01*
X368607Y169819D01*
X369055Y168927D01*
X369544Y168056D01*
X370073Y167209D01*
X370641Y166388D01*
X371247Y165594D01*
X371889Y164829D01*
X372565Y164095D01*
X373276Y163393D01*
X374018Y162725D01*
X374790Y162092D01*
X375591Y161496D01*
X376419Y160937D01*
X377272Y160418D01*
X378148Y159939D01*
X379045Y159501D01*
X379962Y159106D01*
X380896Y158753D01*
X381846Y158445D01*
X382809Y158181D01*
X383784Y157962D01*
X384767Y157788D01*
X385757Y157661D01*
X386753Y157580D01*
X387750Y157545D01*
X388749Y157556D01*
X389746Y157614D01*
X390739Y157719D01*
X391726Y157869D01*
X392705Y158065D01*
X393674Y158307D01*
X394631Y158593D01*
X395573Y158924D01*
X396499Y159298D01*
X397406Y159715D01*
X398293Y160173D01*
X399158Y160673D01*
X399998Y161212D01*
X400813Y161789D01*
X401600Y162404D01*
X402357Y163055D01*
X403084Y163740D01*
X403777Y164458D01*
X404437Y165208D01*
X405061Y165988D01*
X405648Y166795D01*
X406196Y167630D01*
X406706Y168489D01*
X407174Y169370D01*
X407602Y170273D01*
X407986Y171194D01*
X408328Y172133D01*
X408626Y173086D01*
X408878Y174052D01*
X409086Y175028D01*
X409248Y176014D01*
X409364Y177006D01*
X409433Y178002D01*
X409457Y179000D01*
X213457Y178000D02*
X213433Y178998D01*
X213364Y179994D01*
X213248Y180986D01*
X213086Y181972D01*
X212878Y182948D01*
X212626Y183914D01*
X212328Y184868D01*
X211986Y185806D01*
X211602Y186727D01*
X211174Y187630D01*
X210706Y188511D01*
X210196Y189370D01*
X209648Y190205D01*
X209061Y191012D01*
X208437Y191792D01*
X207777Y192542D01*
X207084Y193260D01*
X206357Y193945D01*
X205600Y194596D01*
X204813Y195211D01*
X203998Y195788D01*
X203158Y196327D01*
X202293Y196827D01*
X201406Y197285D01*
X200499Y197702D01*
X199573Y198076D01*
X198630Y198407D01*
X197674Y198693D01*
X196705Y198934D01*
X195726Y199131D01*
X194739Y199281D01*
X193746Y199386D01*
X192749Y199444D01*
X191750Y199455D01*
X190752Y199420D01*
X189757Y199339D01*
X188767Y199212D01*
X187783Y199038D01*
X186809Y198819D01*
X185846Y198555D01*
X184897Y198247D01*
X183962Y197894D01*
X183045Y197499D01*
X182148Y197061D01*
X181272Y196582D01*
X180419Y196063D01*
X179591Y195504D01*
X178790Y194908D01*
X178018Y194275D01*
X177276Y193607D01*
X176565Y192905D01*
X175889Y192171D01*
X175247Y191406D01*
X174641Y190612D01*
X174073Y189791D01*
X173544Y188944D01*
X173055Y188073D01*
X172607Y187181D01*
X172201Y186269D01*
X171837Y185339D01*
X171518Y184393D01*
X171242Y183433D01*
X171012Y182461D01*
X170827Y181480D01*
X170688Y180491D01*
X170596Y179497D01*
X170549Y178499D01*
Y177501D01*
X170596Y176503D01*
X170688Y175509D01*
X170827Y174520D01*
X171012Y173539D01*
X171242Y172567D01*
X171518Y171607D01*
X171837Y170661D01*
X172201Y169731D01*
X172607Y168819D01*
X173055Y167927D01*
X173544Y167056D01*
X174073Y166209D01*
X174641Y165388D01*
X175247Y164594D01*
X175889Y163829D01*
X176565Y163095D01*
X177276Y162393D01*
X178018Y161725D01*
X178790Y161092D01*
X179591Y160496D01*
X180419Y159937D01*
X181272Y159418D01*
X182148Y158939D01*
X183045Y158501D01*
X183962Y158106D01*
X184897Y157753D01*
X185846Y157445D01*
X186809Y157181D01*
X187784Y156962D01*
X188767Y156788D01*
X189757Y156661D01*
X190752Y156580D01*
X191750Y156545D01*
X192749Y156556D01*
X193746Y156614D01*
X194739Y156719D01*
X195726Y156869D01*
X196705Y157065D01*
X197674Y157307D01*
X198630Y157594D01*
X199573Y157924D01*
X200499Y158298D01*
X201406Y158715D01*
X202293Y159173D01*
X203158Y159673D01*
X203998Y160212D01*
X204813Y160789D01*
X205600Y161404D01*
X206357Y162055D01*
X207084Y162740D01*
X207777Y163458D01*
X208437Y164208D01*
X209061Y164988D01*
X209648Y165795D01*
X210196Y166630D01*
X210706Y167489D01*
X211174Y168370D01*
X211602Y169273D01*
X211986Y170194D01*
X212328Y171133D01*
X212626Y172086D01*
X212878Y173052D01*
X213086Y174028D01*
X213248Y175014D01*
X213364Y176005D01*
X213433Y177002D01*
X213457Y178000D01*
X377998Y275500D02*
X373999D01*
X372000Y277499D01*
X373999Y279499D01*
X377998D01*
X372000Y284497D02*
Y282498D01*
X373000Y281498D01*
X374999D01*
X375999Y282498D01*
Y284497D01*
X374999Y285497D01*
X373999D01*
Y281498D01*
X375999Y287496D02*
X372000D01*
X373999D01*
X374999Y288496D01*
X375999Y289495D01*
Y290495D01*
X372000Y293494D02*
Y296493D01*
X373000Y297493D01*
X373999Y296493D01*
Y294494D01*
X374999Y293494D01*
X375999Y294494D01*
Y297493D01*
X372000Y299492D02*
Y301492D01*
Y300492D01*
X375999D01*
Y299492D01*
X372000Y305490D02*
Y307490D01*
X373000Y308489D01*
X374999D01*
X375999Y307490D01*
Y305490D01*
X374999Y304491D01*
X373000D01*
X372000Y305490D01*
Y310489D02*
X375999D01*
Y313488D01*
X374999Y314487D01*
X372000D01*
X373999Y322485D02*
Y326483D01*
X375999Y322485D02*
Y326483D01*
X377998Y334481D02*
X373999D01*
X372000Y336480D01*
X373999Y338480D01*
X377998D01*
X372000Y340479D02*
Y342478D01*
Y341479D01*
X377998D01*
X376998Y340479D01*
X388998Y279499D02*
X389998Y278499D01*
Y276500D01*
X388998Y275500D01*
X385000D01*
X384000Y276500D01*
Y278499D01*
X385000Y279499D01*
X384000Y281498D02*
X389998D01*
Y284497D01*
X388998Y285497D01*
X386999D01*
X385999Y284497D01*
Y281498D01*
X389998Y287496D02*
X384000D01*
Y291495D01*
X389998Y293494D02*
X384000D01*
Y296493D01*
X385000Y297493D01*
X388998D01*
X389998Y296493D01*
Y293494D01*
Y305490D02*
Y309489D01*
Y307490D01*
X384000D01*
Y314487D02*
Y312488D01*
X385000Y311488D01*
X386999D01*
X387999Y312488D01*
Y314487D01*
X386999Y315487D01*
X385999D01*
Y311488D01*
X384000Y317486D02*
Y320485D01*
X385000Y321485D01*
X385999Y320485D01*
Y318486D01*
X386999Y317486D01*
X387999Y318486D01*
Y321485D01*
X388998Y324484D02*
X387999D01*
Y323484D01*
Y325484D01*
Y324484D01*
X385000D01*
X384000Y325484D01*
Y331482D02*
Y329483D01*
X385000Y328483D01*
X386999D01*
X387999Y329483D01*
Y331482D01*
X386999Y332482D01*
X385999D01*
Y328483D01*
X387999Y334481D02*
X384000D01*
X385999D01*
X386999Y335481D01*
X387999Y336480D01*
Y337480D01*
X388998Y350476D02*
X389998Y349476D01*
Y347477D01*
X388998Y346477D01*
X387999D01*
X386999Y347477D01*
Y349476D01*
X385999Y350476D01*
X385000D01*
X384000Y349476D01*
Y347477D01*
X385000Y346477D01*
X384000Y352475D02*
X389998D01*
X387999Y354474D01*
X389998Y356474D01*
X384000D01*
X389998Y358473D02*
X384000D01*
Y361472D01*
X385000Y362472D01*
X388998D01*
X389998Y361472D01*
Y358473D01*
Y370469D02*
X385999D01*
X384000Y372469D01*
X385999Y374468D01*
X389998D01*
X384000Y379466D02*
Y377467D01*
X385000Y376467D01*
X386999D01*
X387999Y377467D01*
Y379466D01*
X386999Y380466D01*
X385999D01*
Y376467D01*
X387999Y382465D02*
X384000D01*
X385999D01*
X386999Y383465D01*
X387999Y384465D01*
Y385464D01*
X384000Y388463D02*
Y391462D01*
X385000Y392462D01*
X385999Y391462D01*
Y389463D01*
X386999Y388463D01*
X387999Y389463D01*
Y392462D01*
X384000Y394461D02*
Y396461D01*
Y395461D01*
X387999D01*
Y394461D01*
X384000Y400460D02*
Y402459D01*
X385000Y403459D01*
X386999D01*
X387999Y402459D01*
Y400460D01*
X386999Y399460D01*
X385000D01*
X384000Y400460D01*
Y405458D02*
X387999D01*
Y408457D01*
X386999Y409457D01*
X384000D01*
M02*
