G04*
G04 #@! TF.GenerationSoftware,Altium Limited,Altium Designer,19.1.8 (144)*
G04*
G04 Layer_Color=32896*
%FSLAX25Y25*%
%MOIN*%
G70*
G01*
G75*
%ADD12C,0.01000*%
D12*
X149457Y216000D02*
X149433Y216998D01*
X149364Y217994D01*
X149248Y218986D01*
X149086Y219971D01*
X148878Y220948D01*
X148626Y221914D01*
X148328Y222867D01*
X147986Y223806D01*
X147602Y224727D01*
X147174Y225630D01*
X146706Y226511D01*
X146196Y227370D01*
X145648Y228205D01*
X145061Y229012D01*
X144437Y229792D01*
X143777Y230542D01*
X143084Y231260D01*
X142357Y231945D01*
X141600Y232596D01*
X140813Y233211D01*
X139998Y233788D01*
X139158Y234327D01*
X138293Y234827D01*
X137406Y235285D01*
X136499Y235702D01*
X135573Y236076D01*
X134631Y236406D01*
X133674Y236693D01*
X132705Y236934D01*
X131726Y237131D01*
X130739Y237281D01*
X129746Y237386D01*
X128749Y237444D01*
X127750Y237455D01*
X126752Y237420D01*
X125757Y237339D01*
X124767Y237212D01*
X123783Y237038D01*
X122809Y236819D01*
X121846Y236555D01*
X120896Y236247D01*
X119962Y235894D01*
X119045Y235499D01*
X118148Y235061D01*
X117272Y234582D01*
X116419Y234063D01*
X115591Y233504D01*
X114790Y232908D01*
X114018Y232275D01*
X113276Y231607D01*
X112565Y230905D01*
X111889Y230171D01*
X111247Y229406D01*
X110641Y228612D01*
X110073Y227791D01*
X109544Y226944D01*
X109055Y226073D01*
X108607Y225181D01*
X108201Y224269D01*
X107837Y223339D01*
X107518Y222393D01*
X107243Y221433D01*
X107012Y220461D01*
X106827Y219480D01*
X106688Y218491D01*
X106596Y217497D01*
X106549Y216499D01*
Y215501D01*
X106596Y214503D01*
X106688Y213509D01*
X106827Y212520D01*
X107012Y211539D01*
X107243Y210567D01*
X107518Y209607D01*
X107837Y208661D01*
X108201Y207731D01*
X108607Y206819D01*
X109055Y205927D01*
X109544Y205056D01*
X110073Y204209D01*
X110641Y203388D01*
X111247Y202594D01*
X111889Y201829D01*
X112565Y201095D01*
X113276Y200393D01*
X114018Y199725D01*
X114790Y199092D01*
X115591Y198496D01*
X116419Y197937D01*
X117272Y197418D01*
X118148Y196939D01*
X119045Y196501D01*
X119962Y196106D01*
X120896Y195753D01*
X121846Y195445D01*
X122809Y195181D01*
X123784Y194962D01*
X124767Y194788D01*
X125757Y194661D01*
X126752Y194580D01*
X127750Y194545D01*
X128749Y194556D01*
X129746Y194614D01*
X130739Y194719D01*
X131726Y194869D01*
X132705Y195065D01*
X133674Y195307D01*
X134631Y195594D01*
X135573Y195924D01*
X136499Y196298D01*
X137406Y196715D01*
X138293Y197173D01*
X139158Y197673D01*
X139998Y198212D01*
X140813Y198789D01*
X141600Y199404D01*
X142357Y200055D01*
X143084Y200740D01*
X143777Y201458D01*
X144437Y202208D01*
X145061Y202988D01*
X145648Y203795D01*
X146196Y204630D01*
X146706Y205488D01*
X147174Y206370D01*
X147602Y207273D01*
X147986Y208194D01*
X148328Y209133D01*
X148626Y210086D01*
X148878Y211052D01*
X149086Y212028D01*
X149248Y213014D01*
X149364Y214005D01*
X149433Y215002D01*
X149457Y216000D01*
X-47543Y216000D02*
X-47567Y216998D01*
X-47636Y217994D01*
X-47752Y218986D01*
X-47914Y219971D01*
X-48122Y220948D01*
X-48375Y221914D01*
X-48672Y222867D01*
X-49014Y223806D01*
X-49398Y224727D01*
X-49826Y225630D01*
X-50294Y226511D01*
X-50804Y227370D01*
X-51352Y228205D01*
X-51939Y229012D01*
X-52563Y229792D01*
X-53223Y230542D01*
X-53916Y231260D01*
X-54643Y231945D01*
X-55400Y232596D01*
X-56187Y233211D01*
X-57002Y233788D01*
X-57842Y234327D01*
X-58707Y234827D01*
X-59594Y235285D01*
X-60501Y235702D01*
X-61427Y236076D01*
X-62370Y236406D01*
X-63326Y236693D01*
X-64295Y236934D01*
X-65274Y237131D01*
X-66261Y237281D01*
X-67254Y237386D01*
X-68251Y237444D01*
X-69250Y237455D01*
X-70248Y237420D01*
X-71243Y237339D01*
X-72233Y237212D01*
X-73217Y237038D01*
X-74191Y236819D01*
X-75154Y236555D01*
X-76104Y236247D01*
X-77038Y235894D01*
X-77955Y235499D01*
X-78852Y235061D01*
X-79728Y234582D01*
X-80581Y234063D01*
X-81409Y233504D01*
X-82210Y232908D01*
X-82982Y232275D01*
X-83724Y231607D01*
X-84435Y230905D01*
X-85111Y230171D01*
X-85753Y229406D01*
X-86359Y228612D01*
X-86927Y227791D01*
X-87456Y226944D01*
X-87945Y226073D01*
X-88393Y225181D01*
X-88799Y224269D01*
X-89163Y223339D01*
X-89482Y222393D01*
X-89758Y221433D01*
X-89988Y220461D01*
X-90173Y219480D01*
X-90312Y218491D01*
X-90404Y217497D01*
X-90451Y216499D01*
Y215501D01*
X-90404Y214503D01*
X-90312Y213509D01*
X-90173Y212520D01*
X-89988Y211539D01*
X-89758Y210567D01*
X-89482Y209607D01*
X-89163Y208661D01*
X-88799Y207731D01*
X-88393Y206819D01*
X-87945Y205927D01*
X-87456Y205056D01*
X-86927Y204209D01*
X-86359Y203388D01*
X-85753Y202594D01*
X-85111Y201829D01*
X-84435Y201095D01*
X-83724Y200393D01*
X-82982Y199725D01*
X-82210Y199092D01*
X-81409Y198496D01*
X-80581Y197937D01*
X-79728Y197418D01*
X-78852Y196939D01*
X-77955Y196501D01*
X-77038Y196106D01*
X-76104Y195753D01*
X-75154Y195445D01*
X-74191Y195181D01*
X-73216Y194962D01*
X-72233Y194788D01*
X-71243Y194661D01*
X-70248Y194580D01*
X-69250Y194545D01*
X-68251Y194556D01*
X-67254Y194614D01*
X-66261Y194719D01*
X-65274Y194869D01*
X-64295Y195065D01*
X-63326Y195307D01*
X-62370Y195594D01*
X-61427Y195924D01*
X-60501Y196298D01*
X-59594Y196715D01*
X-58707Y197173D01*
X-57842Y197673D01*
X-57002Y198212D01*
X-56187Y198789D01*
X-55400Y199404D01*
X-54643Y200055D01*
X-53916Y200740D01*
X-53223Y201458D01*
X-52563Y202208D01*
X-51939Y202988D01*
X-51352Y203795D01*
X-50804Y204630D01*
X-50294Y205488D01*
X-49826Y206370D01*
X-49398Y207273D01*
X-49014Y208194D01*
X-48672Y209133D01*
X-48375Y210086D01*
X-48122Y211052D01*
X-47914Y212028D01*
X-47752Y213014D01*
X-47636Y214005D01*
X-47567Y215002D01*
X-47543Y216000D01*
X149457Y-73000D02*
X149433Y-72002D01*
X149364Y-71006D01*
X149248Y-70014D01*
X149086Y-69029D01*
X148878Y-68052D01*
X148626Y-67086D01*
X148328Y-66132D01*
X147986Y-65194D01*
X147602Y-64273D01*
X147174Y-63370D01*
X146706Y-62489D01*
X146196Y-61630D01*
X145648Y-60795D01*
X145061Y-59988D01*
X144437Y-59208D01*
X143777Y-58458D01*
X143084Y-57740D01*
X142357Y-57055D01*
X141600Y-56404D01*
X140813Y-55789D01*
X139998Y-55212D01*
X139158Y-54673D01*
X138293Y-54173D01*
X137406Y-53715D01*
X136499Y-53298D01*
X135573Y-52924D01*
X134631Y-52593D01*
X133674Y-52307D01*
X132705Y-52065D01*
X131726Y-51869D01*
X130739Y-51719D01*
X129746Y-51614D01*
X128749Y-51556D01*
X127750Y-51545D01*
X126752Y-51580D01*
X125757Y-51661D01*
X124767Y-51788D01*
X123783Y-51962D01*
X122809Y-52181D01*
X121846Y-52445D01*
X120896Y-52753D01*
X119962Y-53106D01*
X119045Y-53501D01*
X118148Y-53939D01*
X117272Y-54418D01*
X116419Y-54937D01*
X115591Y-55496D01*
X114790Y-56092D01*
X114018Y-56725D01*
X113276Y-57393D01*
X112565Y-58095D01*
X111889Y-58829D01*
X111247Y-59594D01*
X110641Y-60388D01*
X110073Y-61209D01*
X109544Y-62056D01*
X109055Y-62927D01*
X108607Y-63819D01*
X108201Y-64731D01*
X107837Y-65661D01*
X107518Y-66607D01*
X107243Y-67567D01*
X107012Y-68539D01*
X106827Y-69520D01*
X106688Y-70509D01*
X106596Y-71503D01*
X106549Y-72501D01*
Y-73499D01*
X106596Y-74497D01*
X106688Y-75491D01*
X106827Y-76480D01*
X107012Y-77461D01*
X107243Y-78433D01*
X107518Y-79393D01*
X107837Y-80339D01*
X108201Y-81269D01*
X108607Y-82181D01*
X109055Y-83073D01*
X109544Y-83944D01*
X110073Y-84791D01*
X110641Y-85612D01*
X111247Y-86406D01*
X111889Y-87171D01*
X112565Y-87905D01*
X113276Y-88607D01*
X114018Y-89275D01*
X114790Y-89908D01*
X115591Y-90504D01*
X116419Y-91063D01*
X117272Y-91582D01*
X118148Y-92061D01*
X119045Y-92499D01*
X119962Y-92894D01*
X120896Y-93247D01*
X121846Y-93555D01*
X122809Y-93819D01*
X123784Y-94038D01*
X124767Y-94212D01*
X125757Y-94339D01*
X126752Y-94420D01*
X127750Y-94455D01*
X128749Y-94444D01*
X129746Y-94386D01*
X130739Y-94281D01*
X131726Y-94131D01*
X132705Y-93935D01*
X133674Y-93693D01*
X134631Y-93406D01*
X135573Y-93076D01*
X136499Y-92702D01*
X137406Y-92285D01*
X138293Y-91827D01*
X139158Y-91327D01*
X139998Y-90788D01*
X140813Y-90211D01*
X141600Y-89596D01*
X142357Y-88945D01*
X143084Y-88260D01*
X143777Y-87542D01*
X144437Y-86792D01*
X145061Y-86013D01*
X145648Y-85205D01*
X146196Y-84370D01*
X146706Y-83512D01*
X147174Y-82630D01*
X147602Y-81727D01*
X147986Y-80806D01*
X148328Y-79868D01*
X148626Y-78914D01*
X148878Y-77948D01*
X149086Y-76972D01*
X149248Y-75986D01*
X149364Y-74994D01*
X149433Y-73998D01*
X149457Y-73000D01*
X-46543Y-74000D02*
X-46567Y-73002D01*
X-46636Y-72006D01*
X-46752Y-71014D01*
X-46914Y-70029D01*
X-47122Y-69052D01*
X-47374Y-68086D01*
X-47672Y-67133D01*
X-48013Y-66194D01*
X-48398Y-65273D01*
X-48826Y-64370D01*
X-49294Y-63489D01*
X-49804Y-62630D01*
X-50352Y-61795D01*
X-50939Y-60988D01*
X-51563Y-60208D01*
X-52223Y-59458D01*
X-52916Y-58740D01*
X-53643Y-58055D01*
X-54400Y-57404D01*
X-55187Y-56789D01*
X-56002Y-56212D01*
X-56842Y-55673D01*
X-57707Y-55173D01*
X-58594Y-54715D01*
X-59501Y-54298D01*
X-60427Y-53924D01*
X-61370Y-53593D01*
X-62326Y-53307D01*
X-63295Y-53066D01*
X-64274Y-52869D01*
X-65261Y-52719D01*
X-66254Y-52614D01*
X-67251Y-52556D01*
X-68250Y-52545D01*
X-69248Y-52580D01*
X-70243Y-52661D01*
X-71233Y-52788D01*
X-72217Y-52962D01*
X-73191Y-53181D01*
X-74154Y-53445D01*
X-75103Y-53753D01*
X-76038Y-54106D01*
X-76955Y-54501D01*
X-77852Y-54939D01*
X-78728Y-55418D01*
X-79581Y-55937D01*
X-80409Y-56496D01*
X-81210Y-57092D01*
X-81982Y-57725D01*
X-82724Y-58393D01*
X-83435Y-59095D01*
X-84111Y-59829D01*
X-84753Y-60594D01*
X-85359Y-61388D01*
X-85927Y-62209D01*
X-86456Y-63056D01*
X-86945Y-63927D01*
X-87393Y-64819D01*
X-87799Y-65731D01*
X-88163Y-66661D01*
X-88482Y-67607D01*
X-88757Y-68567D01*
X-88988Y-69539D01*
X-89173Y-70520D01*
X-89312Y-71509D01*
X-89404Y-72503D01*
X-89451Y-73501D01*
Y-74499D01*
X-89404Y-75497D01*
X-89312Y-76491D01*
X-89173Y-77480D01*
X-88988Y-78461D01*
X-88757Y-79433D01*
X-88482Y-80393D01*
X-88163Y-81339D01*
X-87799Y-82269D01*
X-87393Y-83181D01*
X-86945Y-84073D01*
X-86456Y-84944D01*
X-85927Y-85791D01*
X-85359Y-86612D01*
X-84753Y-87406D01*
X-84111Y-88171D01*
X-83435Y-88905D01*
X-82724Y-89607D01*
X-81982Y-90275D01*
X-81210Y-90908D01*
X-80409Y-91504D01*
X-79581Y-92063D01*
X-78728Y-92582D01*
X-77852Y-93061D01*
X-76955Y-93499D01*
X-76038Y-93894D01*
X-75103Y-94247D01*
X-74154Y-94555D01*
X-73191Y-94819D01*
X-72216Y-95038D01*
X-71233Y-95212D01*
X-70243Y-95339D01*
X-69248Y-95420D01*
X-68250Y-95455D01*
X-67251Y-95444D01*
X-66254Y-95386D01*
X-65261Y-95281D01*
X-64274Y-95131D01*
X-63295Y-94934D01*
X-62326Y-94693D01*
X-61370Y-94406D01*
X-60427Y-94076D01*
X-59501Y-93702D01*
X-58594Y-93285D01*
X-57707Y-92827D01*
X-56842Y-92327D01*
X-56002Y-91788D01*
X-55187Y-91211D01*
X-54400Y-90596D01*
X-53643Y-89945D01*
X-52916Y-89260D01*
X-52223Y-88542D01*
X-51563Y-87792D01*
X-50939Y-87012D01*
X-50352Y-86205D01*
X-49804Y-85370D01*
X-49294Y-84512D01*
X-48826Y-83630D01*
X-48398Y-82727D01*
X-48013Y-81806D01*
X-47672Y-80867D01*
X-47374Y-79914D01*
X-47122Y-78948D01*
X-46914Y-77972D01*
X-46752Y-76986D01*
X-46636Y-75994D01*
X-46567Y-74998D01*
X-46543Y-74000D01*
M02*
