M48
;Layer_Color=9474304
;FILE_FORMAT=2:5
INCH,TZ
;TYPE=PLATED
T1F00S00C0.00787
T2F00S00C0.01181
T3F00S00C0.01575
T4F00S00C0.02362
T6F00S00C0.03150
T7F00S00C0.03543
%
T01
X79713Y-68165
Y-63835
X84044
Y-68165
T02
X70800Y-73300
X75720Y-60444
X78500Y-56500
X80000Y-50300
X85200
X89500Y-56700
X97154Y-52653
X92500Y-67100
X72500Y-52300
X122000Y-50700
X58000Y-6500
X44000
X26900Y-37140
Y-40140
Y-43140
Y-46140
X16400Y-41500
X13000Y-53500
X5900Y-52800
X-900Y-49600
X-800Y-41300
X-1500Y-33100
X-9100Y-37100
Y-40100
Y-43100
Y-46100
X-17900Y-51900
X-20400Y-33400
X-34000Y-27000
Y-19000
X20600Y-66600
X41500Y-69900
T03
X-62000Y-32386
Y-29039
Y-25693
Y-22346
Y-19000
Y-15653
Y-12307
Y-8960
X-56686
Y-12307
Y-15653
Y-19000
Y-22346
Y-25693
Y-29039
Y-32386
T04
X67878Y-46000
X72878
X77878
X82878
X87878
Y-41000
X82878
X77878
X67878
T06
X60000Y0
Y10000
Y20000
Y30000
Y40000
Y50000
Y60000
X0
Y50000
Y40000
Y30000
Y20000
Y10000
Y0
Y70000
Y80000
Y90000
Y100000
Y110000
Y120000
Y130000
Y140000
Y150000
Y160000
Y170000
Y180000
Y190000
X60000
Y180000
Y170000
Y160000
Y150000
Y140000
Y130000
Y120000
Y110000
Y100000
Y90000
Y80000
Y70000
T07
X52500Y-71238
X91000Y-15000
X7500Y-71238
X-22500
M30
