G04*
G04 #@! TF.GenerationSoftware,Altium Limited,Altium Designer,19.1.8 (144)*
G04*
G04 Layer_Color=8388736*
%FSLAX25Y25*%
%MOIN*%
G70*
G01*
G75*
%ADD21R,0.04343X0.01981*%
%ADD22R,0.01981X0.04343*%
%ADD23R,0.07887X0.07887*%
%ADD24R,0.07887X0.07099*%
%ADD25R,0.04737X0.05131*%
%ADD26R,0.05131X0.04737*%
G04:AMPARAMS|DCode=27|XSize=47.37mil|YSize=29.65mil|CornerRadius=9.41mil|HoleSize=0mil|Usage=FLASHONLY|Rotation=0.000|XOffset=0mil|YOffset=0mil|HoleType=Round|Shape=RoundedRectangle|*
%AMROUNDEDRECTD27*
21,1,0.04737,0.01083,0,0,0.0*
21,1,0.02854,0.02965,0,0,0.0*
1,1,0.01883,0.01427,-0.00541*
1,1,0.01883,-0.01427,-0.00541*
1,1,0.01883,-0.01427,0.00541*
1,1,0.01883,0.01427,0.00541*
%
%ADD27ROUNDEDRECTD27*%
%ADD28R,0.04800X0.03800*%
%ADD29R,0.04737X0.06706*%
%ADD30R,0.04580X0.04580*%
%ADD31C,0.04580*%
%ADD32C,0.06312*%
%ADD33O,0.07493X0.04343*%
%ADD34O,0.10249X0.04343*%
%ADD35O,0.03359X0.03241*%
%ADD36R,0.10800X0.05800*%
%ADD37O,0.10800X0.05800*%
%ADD38C,0.02769*%
D21*
X75776Y-63047D02*
D03*
Y-65016D02*
D03*
Y-66984D02*
D03*
Y-68953D02*
D03*
X87981D02*
D03*
Y-66984D02*
D03*
Y-65016D02*
D03*
Y-63047D02*
D03*
D22*
X78926Y-72102D02*
D03*
X80894D02*
D03*
X82863D02*
D03*
X84831D02*
D03*
Y-59898D02*
D03*
X82863D02*
D03*
X80894D02*
D03*
X78926D02*
D03*
D23*
X81878Y-66000D02*
D03*
D24*
X42500Y-47012D02*
D03*
Y-35988D02*
D03*
X6000Y-47012D02*
D03*
Y-35988D02*
D03*
X-28500D02*
D03*
Y-47012D02*
D03*
D25*
X70600Y-63446D02*
D03*
Y-56753D02*
D03*
X102000Y-32653D02*
D03*
Y-39347D02*
D03*
X102500Y-52653D02*
D03*
Y-59346D02*
D03*
D26*
X23154Y-52000D02*
D03*
X29847D02*
D03*
X-6000D02*
D03*
X-12693D02*
D03*
X55847Y-62500D02*
D03*
X49154D02*
D03*
X55847Y-57500D02*
D03*
X49154D02*
D03*
X-49347Y-2000D02*
D03*
X-42654D02*
D03*
X-46347Y-27000D02*
D03*
X-39654D02*
D03*
X-46347Y-19000D02*
D03*
X-39654D02*
D03*
X11347Y-57500D02*
D03*
X4654D02*
D03*
X11347Y-62500D02*
D03*
X4654D02*
D03*
X-52000Y190000D02*
D03*
X-58693D02*
D03*
X-52000Y180000D02*
D03*
X-58693D02*
D03*
X-52000Y170000D02*
D03*
X-58693D02*
D03*
X-52000Y160000D02*
D03*
X-58693D02*
D03*
X-52000Y110000D02*
D03*
X-58693D02*
D03*
X-52000Y100000D02*
D03*
X-58693D02*
D03*
X-52000Y90000D02*
D03*
X-58693D02*
D03*
X-52000Y80000D02*
D03*
X-58693D02*
D03*
X-52000Y70000D02*
D03*
X-58693D02*
D03*
X-52000Y60000D02*
D03*
X-58693D02*
D03*
X-52000Y50000D02*
D03*
X-58693D02*
D03*
X-52000Y40000D02*
D03*
X-58693D02*
D03*
X-52000Y30000D02*
D03*
X-58693D02*
D03*
X-52000Y20000D02*
D03*
X-58693D02*
D03*
X-44693Y190000D02*
D03*
X-38000D02*
D03*
X-44693Y180000D02*
D03*
X-38000D02*
D03*
X-44693Y170000D02*
D03*
X-38000D02*
D03*
X-44693Y160000D02*
D03*
X-38000D02*
D03*
X-44693Y110000D02*
D03*
X-38000D02*
D03*
X-44693Y100000D02*
D03*
X-38000D02*
D03*
X-44693Y90000D02*
D03*
X-38000D02*
D03*
X-44693Y80000D02*
D03*
X-38000D02*
D03*
X-44693Y70000D02*
D03*
X-38000D02*
D03*
X-44693Y60000D02*
D03*
X-38000D02*
D03*
X-44693Y50000D02*
D03*
X-38000D02*
D03*
X-44693Y40000D02*
D03*
X-38000D02*
D03*
X-44693Y30000D02*
D03*
X-38000D02*
D03*
X-44693Y20000D02*
D03*
X-38000D02*
D03*
X-44693Y10000D02*
D03*
X-38000D02*
D03*
X98154Y190000D02*
D03*
X104847D02*
D03*
X98154Y180000D02*
D03*
X104847D02*
D03*
X98154Y170000D02*
D03*
X104847D02*
D03*
X98154Y160000D02*
D03*
X104847D02*
D03*
X98154Y150000D02*
D03*
X104847D02*
D03*
X98154Y140000D02*
D03*
X104847D02*
D03*
X98154Y130000D02*
D03*
X104847D02*
D03*
X98154Y120000D02*
D03*
X104847D02*
D03*
X98154Y110000D02*
D03*
X104847D02*
D03*
X98154Y100000D02*
D03*
X104847D02*
D03*
X98154Y90000D02*
D03*
X104847D02*
D03*
X98154Y80000D02*
D03*
X104847D02*
D03*
X98154Y70000D02*
D03*
X104847D02*
D03*
X98154Y60000D02*
D03*
X104847D02*
D03*
X98154Y50000D02*
D03*
X104847D02*
D03*
X98154Y40000D02*
D03*
X104847D02*
D03*
X98154Y30000D02*
D03*
X104847D02*
D03*
X98154Y20000D02*
D03*
X104847D02*
D03*
X98154Y10000D02*
D03*
X104847D02*
D03*
X112153Y130000D02*
D03*
X118846D02*
D03*
X112153Y120000D02*
D03*
X118846D02*
D03*
X112153Y110000D02*
D03*
X118846D02*
D03*
X112153Y100000D02*
D03*
X118846D02*
D03*
X112153Y90000D02*
D03*
X118846D02*
D03*
X112153Y80000D02*
D03*
X118846D02*
D03*
X112153Y70000D02*
D03*
X118846D02*
D03*
X112153Y60000D02*
D03*
X118846D02*
D03*
X112153Y50000D02*
D03*
X118846D02*
D03*
X112153Y40000D02*
D03*
X118846D02*
D03*
X112153Y140000D02*
D03*
X118846D02*
D03*
X112153Y150000D02*
D03*
X118846D02*
D03*
X112153Y160000D02*
D03*
X118846D02*
D03*
X112153Y170000D02*
D03*
X118846D02*
D03*
X112153Y180000D02*
D03*
X118846D02*
D03*
X112153Y190000D02*
D03*
X118846D02*
D03*
X-52000Y10000D02*
D03*
X-58693D02*
D03*
X112153Y30000D02*
D03*
X118846D02*
D03*
X112153Y20000D02*
D03*
X118846D02*
D03*
X112153Y10000D02*
D03*
X118846D02*
D03*
D27*
X32315Y-45240D02*
D03*
Y-37760D02*
D03*
X21685Y-45240D02*
D03*
Y-41500D02*
D03*
Y-37760D02*
D03*
X-3685Y-45240D02*
D03*
Y-37760D02*
D03*
X-14315Y-45240D02*
D03*
Y-41500D02*
D03*
Y-37760D02*
D03*
D28*
X134311Y-58882D02*
D03*
Y-44118D02*
D03*
X110689D02*
D03*
Y-58882D02*
D03*
D29*
X-38669Y-11000D02*
D03*
X-47331D02*
D03*
D30*
X87878Y-41000D02*
D03*
D31*
Y-46000D02*
D03*
X82878Y-41000D02*
D03*
Y-46000D02*
D03*
X77878Y-41000D02*
D03*
Y-46000D02*
D03*
X72878D02*
D03*
X67878Y-41000D02*
D03*
Y-46000D02*
D03*
D32*
X7500Y-71238D02*
D03*
X-22500D02*
D03*
X91000Y-15000D02*
D03*
X52500Y-71238D02*
D03*
D33*
X-73851Y-3645D02*
D03*
Y-37701D02*
D03*
D34*
X-60544D02*
D03*
Y-3645D02*
D03*
D35*
X-62000Y-8960D02*
D03*
Y-12307D02*
D03*
Y-15653D02*
D03*
Y-19000D02*
D03*
Y-22346D02*
D03*
Y-25693D02*
D03*
Y-29039D02*
D03*
Y-32386D02*
D03*
X-56686D02*
D03*
Y-29039D02*
D03*
Y-25693D02*
D03*
Y-22346D02*
D03*
Y-19000D02*
D03*
Y-15653D02*
D03*
Y-12307D02*
D03*
Y-8960D02*
D03*
D36*
X0Y190000D02*
D03*
D37*
Y180000D02*
D03*
Y170000D02*
D03*
Y160000D02*
D03*
Y150000D02*
D03*
Y140000D02*
D03*
Y130000D02*
D03*
Y120000D02*
D03*
Y110000D02*
D03*
Y100000D02*
D03*
Y90000D02*
D03*
Y80000D02*
D03*
Y70000D02*
D03*
Y60000D02*
D03*
Y50000D02*
D03*
Y40000D02*
D03*
Y30000D02*
D03*
Y20000D02*
D03*
Y10000D02*
D03*
Y0D02*
D03*
X60000Y190000D02*
D03*
Y180000D02*
D03*
Y170000D02*
D03*
Y160000D02*
D03*
Y150000D02*
D03*
Y140000D02*
D03*
Y130000D02*
D03*
Y120000D02*
D03*
Y110000D02*
D03*
Y100000D02*
D03*
Y90000D02*
D03*
Y80000D02*
D03*
Y70000D02*
D03*
Y60000D02*
D03*
Y50000D02*
D03*
Y40000D02*
D03*
Y30000D02*
D03*
Y20000D02*
D03*
Y10000D02*
D03*
Y0D02*
D03*
D38*
X79713Y-63835D02*
D03*
X84044D02*
D03*
X79713Y-68165D02*
D03*
X84044D02*
D03*
M02*
