G04*
G04 #@! TF.GenerationSoftware,Altium Limited,Altium Designer,19.1.8 (144)*
G04*
G04 Layer_Color=16711935*
%FSLAX25Y25*%
%MOIN*%
G70*
G01*
G75*
%ADD31O,0.10642X0.06706*%
%ADD32R,0.10642X0.06706*%
%ADD33R,0.04580X0.04580*%
%ADD34C,0.04580*%
%ADD35C,0.06312*%
%ADD36O,0.07493X0.04343*%
%ADD37O,0.10249X0.04343*%
%ADD38O,0.03359X0.03241*%
%ADD39C,0.02769*%
D31*
X320000Y252000D02*
D03*
Y262000D02*
D03*
Y272000D02*
D03*
Y282000D02*
D03*
Y292000D02*
D03*
Y302000D02*
D03*
Y312000D02*
D03*
Y322000D02*
D03*
Y332000D02*
D03*
Y342000D02*
D03*
Y352000D02*
D03*
Y362000D02*
D03*
Y372000D02*
D03*
Y382000D02*
D03*
Y392000D02*
D03*
Y402000D02*
D03*
Y412000D02*
D03*
Y422000D02*
D03*
Y432000D02*
D03*
Y442000D02*
D03*
X260000Y252000D02*
D03*
Y262000D02*
D03*
Y272000D02*
D03*
Y282000D02*
D03*
Y292000D02*
D03*
Y302000D02*
D03*
Y312000D02*
D03*
Y322000D02*
D03*
Y332000D02*
D03*
Y342000D02*
D03*
Y352000D02*
D03*
Y362000D02*
D03*
Y372000D02*
D03*
Y382000D02*
D03*
Y392000D02*
D03*
Y402000D02*
D03*
Y412000D02*
D03*
Y422000D02*
D03*
Y432000D02*
D03*
D32*
Y442000D02*
D03*
D33*
X347878Y211000D02*
D03*
D34*
Y206000D02*
D03*
X342878Y211000D02*
D03*
Y206000D02*
D03*
X337878Y211000D02*
D03*
Y206000D02*
D03*
X332878D02*
D03*
X327878Y211000D02*
D03*
Y206000D02*
D03*
D35*
X267500Y180762D02*
D03*
X237500D02*
D03*
X351000Y237000D02*
D03*
X310653Y180762D02*
D03*
D36*
X186149Y248355D02*
D03*
Y214299D02*
D03*
D37*
X199456D02*
D03*
Y248355D02*
D03*
D38*
X198000Y243040D02*
D03*
Y239693D02*
D03*
Y236347D02*
D03*
Y233000D02*
D03*
Y229654D02*
D03*
Y226307D02*
D03*
Y222961D02*
D03*
Y219614D02*
D03*
X203314D02*
D03*
Y222961D02*
D03*
Y226307D02*
D03*
Y229654D02*
D03*
Y233000D02*
D03*
Y236347D02*
D03*
Y239693D02*
D03*
Y243040D02*
D03*
D39*
X339713Y186165D02*
D03*
X344044D02*
D03*
X339713Y181835D02*
D03*
X344044D02*
D03*
M02*
