M48
;Layer_Color=9474304
;FILE_FORMAT=2:5
INCH,TZ
;TYPE=PLATED
T1F00S00C0.00787
T2F00S00C0.01181
T3F00S00C0.01575
T4F00S00C0.02362
T6F00S00C0.03150
T7F00S00C0.03543
%
T01
X339713Y181835
Y186165
X344044
Y181835
T02
X317500Y182000
X332500Y175500
X335500Y192000
X334500Y196000
X332500Y200000
X340000Y198500
X345200Y201700
X349000Y195500
X357154Y199346
X352500Y182900
X382000Y201300
X313500Y207000
X318000Y245500
X304000
X301000Y219500
X296000
X291000
X286000
X281000
X276000
X276400Y210500
X286900Y211860
Y214860
Y208860
Y205860
X292500Y210500
X298000Y201500
X296000Y181500
X286500Y179500
X271000Y185000
X269772Y199028
X265900Y199200
X262000Y202000
X272000Y201500
X266000Y218500
X261000
X256000
X251200
X250900Y214900
Y211900
Y208900
Y205900
X256300Y210500
X241500Y218000
X229500Y213500
Y207000
X236000Y201500
X242100Y200100
T03
X198000Y219614
Y222961
Y226307
Y229654
Y233000
Y236347
Y239693
Y243040
X203314
Y239693
Y236347
Y233000
Y229654
Y226307
Y222961
Y219614
T04
X327878Y206000
X332878
X337878
X342878
X347878
Y211000
X342878
X337878
X327878
T06
X320000Y252000
Y262000
Y272000
Y282000
Y292000
Y302000
Y312000
X260000
Y302000
Y292000
Y282000
Y272000
Y262000
Y252000
Y322000
Y332000
Y342000
Y352000
Y362000
Y372000
Y382000
Y392000
Y402000
Y412000
Y422000
Y432000
Y442000
X320000
Y432000
Y422000
Y412000
Y402000
Y392000
Y382000
Y372000
Y362000
Y352000
Y342000
Y332000
Y322000
T07
X351000Y237000
X310653Y180762
X267500
X237500
M30
