G04*
G04 #@! TF.GenerationSoftware,Altium Limited,Altium Designer,19.1.8 (144)*
G04*
G04 Layer_Physical_Order=1*
G04 Layer_Color=255*
%FSLAX25Y25*%
%MOIN*%
G70*
G01*
G75*
%ADD10C,0.01000*%
%ADD17C,0.02000*%
%ADD20C,0.01181*%
%ADD21C,0.01500*%
%ADD39R,0.04000X0.03000*%
%ADD40R,0.03937X0.05906*%
%ADD41R,0.03937X0.04331*%
%ADD42R,0.04331X0.03937*%
%ADD43R,0.03543X0.01181*%
%ADD44R,0.01181X0.03543*%
%ADD45R,0.07087X0.07087*%
G04:AMPARAMS|DCode=46|XSize=39.37mil|YSize=21.65mil|CornerRadius=5.41mil|HoleSize=0mil|Usage=FLASHONLY|Rotation=0.000|XOffset=0mil|YOffset=0mil|HoleType=Round|Shape=RoundedRectangle|*
%AMROUNDEDRECTD46*
21,1,0.03937,0.01083,0,0,0.0*
21,1,0.02854,0.02165,0,0,0.0*
1,1,0.01083,0.01427,-0.00541*
1,1,0.01083,-0.01427,-0.00541*
1,1,0.01083,-0.01427,0.00541*
1,1,0.01083,0.01427,0.00541*
%
%ADD46ROUNDEDRECTD46*%
%ADD47C,0.03000*%
%ADD48C,0.01575*%
%ADD49O,0.09843X0.05906*%
%ADD50R,0.09843X0.05906*%
%ADD51R,0.03780X0.03780*%
%ADD52C,0.03780*%
%ADD53C,0.05512*%
%ADD54O,0.06693X0.03543*%
%ADD55O,0.09449X0.03543*%
%ADD56O,0.02559X0.02441*%
%ADD57C,0.01968*%
G36*
X408879Y157122D02*
X171122D01*
Y488878D01*
X408879Y488878D01*
Y157122D01*
D02*
G37*
%LPC*%
G36*
X374919Y444568D02*
X369388D01*
Y443415D01*
X367612D01*
Y444568D01*
X362081D01*
Y439431D01*
X367612D01*
Y440585D01*
X369388D01*
Y439431D01*
X374919D01*
Y444568D01*
D02*
G37*
G36*
X265521Y445553D02*
X254479D01*
Y443415D01*
X224765D01*
Y444568D01*
X219235D01*
Y439431D01*
X224765D01*
Y440585D01*
X254479D01*
Y438447D01*
X265521D01*
Y445553D01*
D02*
G37*
G36*
X218072Y444568D02*
X212542D01*
Y443415D01*
X210765D01*
Y444568D01*
X205235D01*
Y439431D01*
X210765D01*
Y440585D01*
X212542D01*
Y439431D01*
X218072D01*
Y444568D01*
D02*
G37*
G36*
X321969Y445583D02*
X318032D01*
X317104Y445461D01*
X316240Y445103D01*
X315498Y444534D01*
X314928Y443792D01*
X314570Y442928D01*
X314448Y442000D01*
X314570Y441073D01*
X314928Y440208D01*
X315498Y439466D01*
X316240Y438897D01*
X317104Y438539D01*
X318032Y438417D01*
X321969D01*
X322896Y438539D01*
X323760Y438897D01*
X324502Y439466D01*
X325072Y440208D01*
X325228Y440585D01*
X355388D01*
Y439431D01*
X360919D01*
Y444568D01*
X355388D01*
Y443415D01*
X325228D01*
X325072Y443792D01*
X324502Y444534D01*
X323760Y445103D01*
X322896Y445461D01*
X321969Y445583D01*
D02*
G37*
G36*
X374919Y434569D02*
X369388D01*
Y433415D01*
X367612D01*
Y434569D01*
X362081D01*
Y429431D01*
X367612D01*
Y430585D01*
X369388D01*
Y429431D01*
X374919D01*
Y434569D01*
D02*
G37*
G36*
X261968Y435583D02*
X258032D01*
X257104Y435461D01*
X256240Y435103D01*
X255498Y434534D01*
X254928Y433792D01*
X254772Y433415D01*
X224765D01*
Y434569D01*
X219235D01*
Y429431D01*
X224765D01*
Y430585D01*
X254772D01*
X254928Y430208D01*
X255498Y429466D01*
X256240Y428897D01*
X257104Y428539D01*
X258032Y428417D01*
X261968D01*
X262896Y428539D01*
X263760Y428897D01*
X264502Y429466D01*
X265072Y430208D01*
X265430Y431073D01*
X265552Y432000D01*
X265430Y432928D01*
X265072Y433792D01*
X264502Y434534D01*
X263760Y435103D01*
X262896Y435461D01*
X261968Y435583D01*
D02*
G37*
G36*
X218072Y434569D02*
X212542D01*
Y433415D01*
X210765D01*
Y434569D01*
X205235D01*
Y429431D01*
X210765D01*
Y430585D01*
X212542D01*
Y429431D01*
X218072D01*
Y434569D01*
D02*
G37*
G36*
X321969Y435583D02*
X318032D01*
X317104Y435461D01*
X316240Y435103D01*
X315498Y434534D01*
X314928Y433792D01*
X314570Y432928D01*
X314448Y432000D01*
X314570Y431073D01*
X314928Y430208D01*
X315498Y429466D01*
X316240Y428897D01*
X317104Y428539D01*
X318032Y428417D01*
X321969D01*
X322896Y428539D01*
X323760Y428897D01*
X324502Y429466D01*
X325072Y430208D01*
X325228Y430585D01*
X355388D01*
Y429431D01*
X360919D01*
Y434569D01*
X355388D01*
Y433415D01*
X325228D01*
X325072Y433792D01*
X324502Y434534D01*
X323760Y435103D01*
X322896Y435461D01*
X321969Y435583D01*
D02*
G37*
G36*
X374919Y424569D02*
X369388D01*
Y423415D01*
X367612D01*
Y424569D01*
X362081D01*
Y419431D01*
X367612D01*
Y420585D01*
X369388D01*
Y419431D01*
X374919D01*
Y424569D01*
D02*
G37*
G36*
X261968Y425583D02*
X258032D01*
X257104Y425461D01*
X256240Y425103D01*
X255498Y424534D01*
X254928Y423792D01*
X254772Y423415D01*
X224765D01*
Y424569D01*
X219235D01*
Y419431D01*
X224765D01*
Y420585D01*
X254772D01*
X254928Y420208D01*
X255498Y419466D01*
X256240Y418897D01*
X257104Y418539D01*
X258032Y418417D01*
X261968D01*
X262896Y418539D01*
X263760Y418897D01*
X264502Y419466D01*
X265072Y420208D01*
X265430Y421072D01*
X265552Y422000D01*
X265430Y422928D01*
X265072Y423792D01*
X264502Y424534D01*
X263760Y425103D01*
X262896Y425461D01*
X261968Y425583D01*
D02*
G37*
G36*
X218072Y424569D02*
X212542D01*
Y423415D01*
X210765D01*
Y424569D01*
X205235D01*
Y419431D01*
X210765D01*
Y420585D01*
X212542D01*
Y419431D01*
X218072D01*
Y424569D01*
D02*
G37*
G36*
X321969Y425583D02*
X318032D01*
X317104Y425461D01*
X316240Y425103D01*
X315498Y424534D01*
X314928Y423792D01*
X314570Y422928D01*
X314448Y422000D01*
X314570Y421072D01*
X314928Y420208D01*
X315498Y419466D01*
X316240Y418897D01*
X317104Y418539D01*
X318032Y418417D01*
X321969D01*
X322896Y418539D01*
X323760Y418897D01*
X324502Y419466D01*
X325072Y420208D01*
X325228Y420585D01*
X355388D01*
Y419431D01*
X360919D01*
Y424569D01*
X355388D01*
Y423415D01*
X325228D01*
X325072Y423792D01*
X324502Y424534D01*
X323760Y425103D01*
X322896Y425461D01*
X321969Y425583D01*
D02*
G37*
G36*
X374919Y414569D02*
X369388D01*
Y413415D01*
X367612D01*
Y414569D01*
X362081D01*
Y409432D01*
X367612D01*
Y410585D01*
X369388D01*
Y409432D01*
X374919D01*
Y414569D01*
D02*
G37*
G36*
X261968Y415583D02*
X258032D01*
X257104Y415461D01*
X256240Y415103D01*
X255498Y414534D01*
X254928Y413792D01*
X254772Y413415D01*
X224765D01*
Y414569D01*
X219235D01*
Y409432D01*
X224765D01*
Y410585D01*
X254772D01*
X254928Y410208D01*
X255498Y409466D01*
X256240Y408897D01*
X257104Y408539D01*
X258032Y408417D01*
X261968D01*
X262896Y408539D01*
X263760Y408897D01*
X264502Y409466D01*
X265072Y410208D01*
X265430Y411072D01*
X265552Y412000D01*
X265430Y412927D01*
X265072Y413792D01*
X264502Y414534D01*
X263760Y415103D01*
X262896Y415461D01*
X261968Y415583D01*
D02*
G37*
G36*
X218072Y414569D02*
X212542D01*
Y413415D01*
X210765D01*
Y414569D01*
X205235D01*
Y409432D01*
X210765D01*
Y410585D01*
X212542D01*
Y409432D01*
X218072D01*
Y414569D01*
D02*
G37*
G36*
X321969Y415583D02*
X318032D01*
X317104Y415461D01*
X316240Y415103D01*
X315498Y414534D01*
X314928Y413792D01*
X314570Y412927D01*
X314448Y412000D01*
X314570Y411072D01*
X314928Y410208D01*
X315498Y409466D01*
X316240Y408897D01*
X317104Y408539D01*
X318032Y408417D01*
X321969D01*
X322896Y408539D01*
X323760Y408897D01*
X324502Y409466D01*
X325072Y410208D01*
X325228Y410585D01*
X355388D01*
Y409432D01*
X360919D01*
Y414569D01*
X355388D01*
Y413415D01*
X325228D01*
X325072Y413792D01*
X324502Y414534D01*
X323760Y415103D01*
X322896Y415461D01*
X321969Y415583D01*
D02*
G37*
G36*
X374919Y404568D02*
X369388D01*
Y403415D01*
X367612D01*
Y404568D01*
X362081D01*
Y399431D01*
X367612D01*
Y400585D01*
X369388D01*
Y399431D01*
X374919D01*
Y404568D01*
D02*
G37*
G36*
X321969Y405583D02*
X318032D01*
X317104Y405461D01*
X316240Y405103D01*
X315498Y404534D01*
X314928Y403792D01*
X314570Y402927D01*
X314448Y402000D01*
X314570Y401073D01*
X314928Y400208D01*
X315498Y399466D01*
X316240Y398897D01*
X317104Y398539D01*
X318032Y398417D01*
X321969D01*
X322896Y398539D01*
X323760Y398897D01*
X324502Y399466D01*
X325072Y400208D01*
X325228Y400585D01*
X355388D01*
Y399431D01*
X360919D01*
Y404568D01*
X355388D01*
Y403415D01*
X325228D01*
X325072Y403792D01*
X324502Y404534D01*
X323760Y405103D01*
X322896Y405461D01*
X321969Y405583D01*
D02*
G37*
G36*
X261968D02*
X258032D01*
X257104Y405461D01*
X256240Y405103D01*
X255498Y404534D01*
X254928Y403792D01*
X254570Y402927D01*
X254448Y402000D01*
X254570Y401073D01*
X254928Y400208D01*
X255498Y399466D01*
X256240Y398897D01*
X257104Y398539D01*
X258032Y398417D01*
X261968D01*
X262896Y398539D01*
X263760Y398897D01*
X264502Y399466D01*
X265072Y400208D01*
X265430Y401073D01*
X265552Y402000D01*
X265430Y402927D01*
X265072Y403792D01*
X264502Y404534D01*
X263760Y405103D01*
X262896Y405461D01*
X261968Y405583D01*
D02*
G37*
G36*
X374919Y394568D02*
X369388D01*
Y393415D01*
X367612D01*
Y394568D01*
X362081D01*
Y389432D01*
X367612D01*
Y390585D01*
X369388D01*
Y389432D01*
X374919D01*
Y394568D01*
D02*
G37*
G36*
X321969Y395583D02*
X318032D01*
X317104Y395461D01*
X316240Y395103D01*
X315498Y394534D01*
X314928Y393792D01*
X314772Y393415D01*
X312000D01*
X311459Y393307D01*
X311000Y393000D01*
X307500Y389500D01*
X307193Y389041D01*
X307085Y388500D01*
X307085Y246500D01*
X307193Y245959D01*
X307500Y245500D01*
X317000Y236000D01*
X317459Y235693D01*
X318000Y235585D01*
X347954D01*
X348069Y235308D01*
X348606Y234607D01*
X349308Y234069D01*
X349462Y234005D01*
Y231068D01*
X347988D01*
Y225932D01*
X353519D01*
Y231068D01*
X352291D01*
Y233903D01*
X352692Y234069D01*
X353394Y234607D01*
X353931Y235308D01*
X354270Y236124D01*
X354385Y237000D01*
X354270Y237876D01*
X353931Y238692D01*
X353394Y239393D01*
X352692Y239931D01*
X351876Y240269D01*
X351000Y240385D01*
X350124Y240269D01*
X349308Y239931D01*
X348606Y239393D01*
X348069Y238692D01*
X347954Y238415D01*
X318586D01*
X309915Y247086D01*
X309915Y387914D01*
X312586Y390585D01*
X314772D01*
X314928Y390208D01*
X315498Y389466D01*
X316240Y388897D01*
X317104Y388539D01*
X318032Y388417D01*
X321969D01*
X322896Y388539D01*
X323760Y388897D01*
X324502Y389466D01*
X325072Y390208D01*
X325228Y390585D01*
X355388D01*
Y389432D01*
X360919D01*
Y394568D01*
X355388D01*
Y393415D01*
X325228D01*
X325072Y393792D01*
X324502Y394534D01*
X323760Y395103D01*
X322896Y395461D01*
X321969Y395583D01*
D02*
G37*
G36*
X261968D02*
X258032D01*
X257104Y395461D01*
X256240Y395103D01*
X255498Y394534D01*
X254928Y393792D01*
X254570Y392927D01*
X254448Y392000D01*
X254570Y391073D01*
X254928Y390208D01*
X255498Y389466D01*
X256240Y388897D01*
X257104Y388539D01*
X258032Y388417D01*
X261968D01*
X262896Y388539D01*
X263760Y388897D01*
X264502Y389466D01*
X265072Y390208D01*
X265430Y391073D01*
X265552Y392000D01*
X265430Y392927D01*
X265072Y393792D01*
X264502Y394534D01*
X263760Y395103D01*
X262896Y395461D01*
X261968Y395583D01*
D02*
G37*
G36*
X374919Y384569D02*
X369388D01*
Y383415D01*
X367612D01*
Y384569D01*
X362081D01*
Y379432D01*
X367612D01*
Y380585D01*
X369388D01*
Y379432D01*
X374919D01*
Y384569D01*
D02*
G37*
G36*
X321969Y385583D02*
X318032D01*
X317104Y385461D01*
X316240Y385103D01*
X315498Y384534D01*
X314928Y383792D01*
X314570Y382927D01*
X314448Y382000D01*
X314570Y381073D01*
X314928Y380208D01*
X315498Y379466D01*
X316240Y378897D01*
X317104Y378539D01*
X318032Y378417D01*
X321969D01*
X322896Y378539D01*
X323760Y378897D01*
X324502Y379466D01*
X325072Y380208D01*
X325228Y380585D01*
X355388D01*
Y379432D01*
X360919D01*
Y384569D01*
X355388D01*
Y383415D01*
X325228D01*
X325072Y383792D01*
X324502Y384534D01*
X323760Y385103D01*
X322896Y385461D01*
X321969Y385583D01*
D02*
G37*
G36*
X261968D02*
X258032D01*
X257104Y385461D01*
X256240Y385103D01*
X255498Y384534D01*
X254928Y383792D01*
X254570Y382927D01*
X254448Y382000D01*
X254570Y381073D01*
X254928Y380208D01*
X255498Y379466D01*
X256240Y378897D01*
X257104Y378539D01*
X258032Y378417D01*
X261968D01*
X262896Y378539D01*
X263760Y378897D01*
X264502Y379466D01*
X265072Y380208D01*
X265430Y381073D01*
X265552Y382000D01*
X265430Y382927D01*
X265072Y383792D01*
X264502Y384534D01*
X263760Y385103D01*
X262896Y385461D01*
X261968Y385583D01*
D02*
G37*
G36*
X374919Y374569D02*
X369388D01*
Y373415D01*
X367612D01*
Y374569D01*
X362081D01*
Y369431D01*
X367612D01*
Y370585D01*
X369388D01*
Y369431D01*
X374919D01*
Y374569D01*
D02*
G37*
G36*
X321969Y375583D02*
X318032D01*
X317104Y375461D01*
X316240Y375103D01*
X315498Y374534D01*
X314928Y373792D01*
X314570Y372927D01*
X314448Y372000D01*
X314570Y371073D01*
X314928Y370208D01*
X315498Y369466D01*
X316240Y368897D01*
X317104Y368539D01*
X318032Y368417D01*
X321969D01*
X322896Y368539D01*
X323760Y368897D01*
X324502Y369466D01*
X325072Y370208D01*
X325228Y370585D01*
X355388D01*
Y369431D01*
X360919D01*
Y374569D01*
X355388D01*
Y373415D01*
X325228D01*
X325072Y373792D01*
X324502Y374534D01*
X323760Y375103D01*
X322896Y375461D01*
X321969Y375583D01*
D02*
G37*
G36*
X261968D02*
X258032D01*
X257104Y375461D01*
X256240Y375103D01*
X255498Y374534D01*
X254928Y373792D01*
X254570Y372927D01*
X254448Y372000D01*
X254570Y371073D01*
X254928Y370208D01*
X255498Y369466D01*
X256240Y368897D01*
X257104Y368539D01*
X258032Y368417D01*
X261968D01*
X262896Y368539D01*
X263760Y368897D01*
X264502Y369466D01*
X265072Y370208D01*
X265430Y371073D01*
X265552Y372000D01*
X265430Y372927D01*
X265072Y373792D01*
X264502Y374534D01*
X263760Y375103D01*
X262896Y375461D01*
X261968Y375583D01*
D02*
G37*
G36*
X374919Y364568D02*
X369388D01*
Y363415D01*
X367612D01*
Y364568D01*
X362081D01*
Y359432D01*
X367612D01*
Y360585D01*
X369388D01*
Y359432D01*
X374919D01*
Y364568D01*
D02*
G37*
G36*
X261968Y365583D02*
X258032D01*
X257104Y365461D01*
X256240Y365103D01*
X255498Y364534D01*
X254928Y363792D01*
X254772Y363415D01*
X224765D01*
Y364568D01*
X219235D01*
Y359432D01*
X224765D01*
Y360585D01*
X254772D01*
X254928Y360208D01*
X255498Y359466D01*
X256240Y358897D01*
X257104Y358539D01*
X258032Y358417D01*
X261968D01*
X262896Y358539D01*
X263760Y358897D01*
X264502Y359466D01*
X265072Y360208D01*
X265430Y361073D01*
X265552Y362000D01*
X265430Y362927D01*
X265072Y363792D01*
X264502Y364534D01*
X263760Y365103D01*
X262896Y365461D01*
X261968Y365583D01*
D02*
G37*
G36*
X218072Y364568D02*
X212542D01*
Y363415D01*
X210765D01*
Y364568D01*
X205235D01*
Y359432D01*
X210765D01*
Y360585D01*
X212542D01*
Y359432D01*
X218072D01*
Y364568D01*
D02*
G37*
G36*
X321969Y365583D02*
X318032D01*
X317104Y365461D01*
X316240Y365103D01*
X315498Y364534D01*
X314928Y363792D01*
X314570Y362927D01*
X314448Y362000D01*
X314570Y361073D01*
X314928Y360208D01*
X315498Y359466D01*
X316240Y358897D01*
X317104Y358539D01*
X318032Y358417D01*
X321969D01*
X322896Y358539D01*
X323760Y358897D01*
X324502Y359466D01*
X325072Y360208D01*
X325228Y360585D01*
X355388D01*
Y359432D01*
X360919D01*
Y364568D01*
X355388D01*
Y363415D01*
X325228D01*
X325072Y363792D01*
X324502Y364534D01*
X323760Y365103D01*
X322896Y365461D01*
X321969Y365583D01*
D02*
G37*
G36*
X374919Y354569D02*
X369388D01*
Y353415D01*
X367612D01*
Y354569D01*
X362081D01*
Y349431D01*
X367612D01*
Y350585D01*
X369388D01*
Y349431D01*
X374919D01*
Y354569D01*
D02*
G37*
G36*
X261968Y355583D02*
X258032D01*
X257104Y355461D01*
X256240Y355103D01*
X255498Y354534D01*
X254928Y353792D01*
X254772Y353415D01*
X224765D01*
Y354569D01*
X219235D01*
Y349431D01*
X224765D01*
Y350585D01*
X254772D01*
X254928Y350208D01*
X255498Y349466D01*
X256240Y348897D01*
X257104Y348539D01*
X258032Y348417D01*
X261968D01*
X262896Y348539D01*
X263760Y348897D01*
X264502Y349466D01*
X265072Y350208D01*
X265430Y351073D01*
X265552Y352000D01*
X265430Y352927D01*
X265072Y353792D01*
X264502Y354534D01*
X263760Y355103D01*
X262896Y355461D01*
X261968Y355583D01*
D02*
G37*
G36*
X218072Y354569D02*
X212542D01*
Y353415D01*
X210765D01*
Y354569D01*
X205235D01*
Y349431D01*
X210765D01*
Y350585D01*
X212542D01*
Y349431D01*
X218072D01*
Y354569D01*
D02*
G37*
G36*
X321969Y355583D02*
X318032D01*
X317104Y355461D01*
X316240Y355103D01*
X315498Y354534D01*
X314928Y353792D01*
X314570Y352927D01*
X314448Y352000D01*
X314570Y351073D01*
X314928Y350208D01*
X315498Y349466D01*
X316240Y348897D01*
X317104Y348539D01*
X318032Y348417D01*
X321969D01*
X322896Y348539D01*
X323760Y348897D01*
X324502Y349466D01*
X325072Y350208D01*
X325228Y350585D01*
X355388D01*
Y349431D01*
X360919D01*
Y354569D01*
X355388D01*
Y353415D01*
X325228D01*
X325072Y353792D01*
X324502Y354534D01*
X323760Y355103D01*
X322896Y355461D01*
X321969Y355583D01*
D02*
G37*
G36*
X374919Y344568D02*
X369388D01*
Y343415D01*
X367612D01*
Y344568D01*
X362081D01*
Y339432D01*
X367612D01*
Y340585D01*
X369388D01*
Y339432D01*
X374919D01*
Y344568D01*
D02*
G37*
G36*
X261968Y345583D02*
X258032D01*
X257104Y345461D01*
X256240Y345103D01*
X255498Y344534D01*
X254928Y343792D01*
X254772Y343415D01*
X224765D01*
Y344568D01*
X219235D01*
Y339432D01*
X224765D01*
Y340585D01*
X254772D01*
X254928Y340208D01*
X255498Y339466D01*
X256240Y338897D01*
X257104Y338539D01*
X258032Y338417D01*
X261968D01*
X262896Y338539D01*
X263760Y338897D01*
X264502Y339466D01*
X265072Y340208D01*
X265430Y341073D01*
X265552Y342000D01*
X265430Y342927D01*
X265072Y343792D01*
X264502Y344534D01*
X263760Y345103D01*
X262896Y345461D01*
X261968Y345583D01*
D02*
G37*
G36*
X218072Y344568D02*
X212542D01*
Y343415D01*
X210765D01*
Y344568D01*
X205235D01*
Y339432D01*
X210765D01*
Y340585D01*
X212542D01*
Y339432D01*
X218072D01*
Y344568D01*
D02*
G37*
G36*
X321969Y345583D02*
X318032D01*
X317104Y345461D01*
X316240Y345103D01*
X315498Y344534D01*
X314928Y343792D01*
X314570Y342927D01*
X314448Y342000D01*
X314570Y341073D01*
X314928Y340208D01*
X315498Y339466D01*
X316240Y338897D01*
X317104Y338539D01*
X318032Y338417D01*
X321969D01*
X322896Y338539D01*
X323760Y338897D01*
X324502Y339466D01*
X325072Y340208D01*
X325228Y340585D01*
X355388D01*
Y339432D01*
X360919D01*
Y344568D01*
X355388D01*
Y343415D01*
X325228D01*
X325072Y343792D01*
X324502Y344534D01*
X323760Y345103D01*
X322896Y345461D01*
X321969Y345583D01*
D02*
G37*
G36*
X374919Y334569D02*
X369388D01*
Y333415D01*
X367612D01*
Y334569D01*
X362081D01*
Y329432D01*
X367612D01*
Y330585D01*
X369388D01*
Y329432D01*
X374919D01*
Y334569D01*
D02*
G37*
G36*
X261968Y335583D02*
X258032D01*
X257104Y335461D01*
X256240Y335103D01*
X255498Y334534D01*
X254928Y333792D01*
X254772Y333415D01*
X224765D01*
Y334569D01*
X219235D01*
Y329432D01*
X224765D01*
Y330585D01*
X254772D01*
X254928Y330208D01*
X255498Y329466D01*
X256240Y328897D01*
X257104Y328539D01*
X258032Y328417D01*
X261968D01*
X262896Y328539D01*
X263760Y328897D01*
X264502Y329466D01*
X265072Y330208D01*
X265430Y331073D01*
X265552Y332000D01*
X265430Y332927D01*
X265072Y333792D01*
X264502Y334534D01*
X263760Y335103D01*
X262896Y335461D01*
X261968Y335583D01*
D02*
G37*
G36*
X218072Y334569D02*
X212542D01*
Y333415D01*
X210765D01*
Y334569D01*
X205235D01*
Y329432D01*
X210765D01*
Y330585D01*
X212542D01*
Y329432D01*
X218072D01*
Y334569D01*
D02*
G37*
G36*
X321969Y335583D02*
X318032D01*
X317104Y335461D01*
X316240Y335103D01*
X315498Y334534D01*
X314928Y333792D01*
X314570Y332927D01*
X314448Y332000D01*
X314570Y331073D01*
X314928Y330208D01*
X315498Y329466D01*
X316240Y328897D01*
X317104Y328539D01*
X318032Y328417D01*
X321969D01*
X322896Y328539D01*
X323760Y328897D01*
X324502Y329466D01*
X325072Y330208D01*
X325228Y330585D01*
X355388D01*
Y329432D01*
X360919D01*
Y334569D01*
X355388D01*
Y333415D01*
X325228D01*
X325072Y333792D01*
X324502Y334534D01*
X323760Y335103D01*
X322896Y335461D01*
X321969Y335583D01*
D02*
G37*
G36*
X374919Y324569D02*
X369388D01*
Y323415D01*
X367612D01*
Y324569D01*
X362081D01*
Y319431D01*
X367612D01*
Y320585D01*
X369388D01*
Y319431D01*
X374919D01*
Y324569D01*
D02*
G37*
G36*
X261968Y325583D02*
X258032D01*
X257104Y325461D01*
X256240Y325103D01*
X255498Y324534D01*
X254928Y323792D01*
X254772Y323415D01*
X224765D01*
Y324569D01*
X219235D01*
Y319431D01*
X224765D01*
Y320585D01*
X254772D01*
X254928Y320208D01*
X255498Y319466D01*
X256240Y318897D01*
X257104Y318539D01*
X258032Y318417D01*
X261968D01*
X262896Y318539D01*
X263760Y318897D01*
X264502Y319466D01*
X265072Y320208D01*
X265430Y321073D01*
X265552Y322000D01*
X265430Y322927D01*
X265072Y323792D01*
X264502Y324534D01*
X263760Y325103D01*
X262896Y325461D01*
X261968Y325583D01*
D02*
G37*
G36*
X218072Y324569D02*
X212542D01*
Y323415D01*
X210765D01*
Y324569D01*
X205235D01*
Y319431D01*
X210765D01*
Y320585D01*
X212542D01*
Y319431D01*
X218072D01*
Y324569D01*
D02*
G37*
G36*
X321969Y325583D02*
X318032D01*
X317104Y325461D01*
X316240Y325103D01*
X315498Y324534D01*
X314928Y323792D01*
X314570Y322927D01*
X314448Y322000D01*
X314570Y321073D01*
X314928Y320208D01*
X315498Y319466D01*
X316240Y318897D01*
X317104Y318539D01*
X318032Y318417D01*
X321969D01*
X322896Y318539D01*
X323760Y318897D01*
X324502Y319466D01*
X325072Y320208D01*
X325228Y320585D01*
X355388D01*
Y319431D01*
X360919D01*
Y324569D01*
X355388D01*
Y323415D01*
X325228D01*
X325072Y323792D01*
X324502Y324534D01*
X323760Y325103D01*
X322896Y325461D01*
X321969Y325583D01*
D02*
G37*
G36*
X374919Y314568D02*
X369388D01*
Y313415D01*
X367612D01*
Y314568D01*
X362081D01*
Y309432D01*
X367612D01*
Y310585D01*
X369388D01*
Y309432D01*
X374919D01*
Y314568D01*
D02*
G37*
G36*
X261968Y315583D02*
X258032D01*
X257104Y315461D01*
X256240Y315103D01*
X255498Y314534D01*
X254928Y313792D01*
X254772Y313415D01*
X224765D01*
Y314568D01*
X219235D01*
Y309432D01*
X224765D01*
Y310585D01*
X254772D01*
X254928Y310208D01*
X255498Y309466D01*
X256240Y308897D01*
X257104Y308539D01*
X258032Y308417D01*
X261968D01*
X262896Y308539D01*
X263760Y308897D01*
X264502Y309466D01*
X265072Y310208D01*
X265430Y311073D01*
X265552Y312000D01*
X265430Y312927D01*
X265072Y313792D01*
X264502Y314534D01*
X263760Y315103D01*
X262896Y315461D01*
X261968Y315583D01*
D02*
G37*
G36*
X218072Y314568D02*
X212542D01*
Y313415D01*
X210765D01*
Y314568D01*
X205235D01*
Y309432D01*
X210765D01*
Y310585D01*
X212542D01*
Y309432D01*
X218072D01*
Y314568D01*
D02*
G37*
G36*
X321969Y315583D02*
X318032D01*
X317104Y315461D01*
X316240Y315103D01*
X315498Y314534D01*
X314928Y313792D01*
X314570Y312927D01*
X314448Y312000D01*
X314570Y311073D01*
X314928Y310208D01*
X315498Y309466D01*
X316240Y308897D01*
X317104Y308539D01*
X318032Y308417D01*
X321969D01*
X322896Y308539D01*
X323760Y308897D01*
X324502Y309466D01*
X325072Y310208D01*
X325228Y310585D01*
X355388D01*
Y309432D01*
X360919D01*
Y314568D01*
X355388D01*
Y313415D01*
X325228D01*
X325072Y313792D01*
X324502Y314534D01*
X323760Y315103D01*
X322896Y315461D01*
X321969Y315583D01*
D02*
G37*
G36*
X374919Y304569D02*
X369388D01*
Y303415D01*
X367612D01*
Y304569D01*
X362081D01*
Y299431D01*
X367612D01*
Y300585D01*
X369388D01*
Y299431D01*
X374919D01*
Y304569D01*
D02*
G37*
G36*
X261968Y305583D02*
X258032D01*
X257104Y305461D01*
X256240Y305103D01*
X255498Y304534D01*
X254928Y303792D01*
X254772Y303415D01*
X224765D01*
Y304569D01*
X219235D01*
Y299431D01*
X224765D01*
Y300585D01*
X254772D01*
X254928Y300208D01*
X255498Y299466D01*
X256240Y298897D01*
X257104Y298539D01*
X258032Y298417D01*
X261968D01*
X262896Y298539D01*
X263760Y298897D01*
X264502Y299466D01*
X265072Y300208D01*
X265430Y301073D01*
X265552Y302000D01*
X265430Y302927D01*
X265072Y303792D01*
X264502Y304534D01*
X263760Y305103D01*
X262896Y305461D01*
X261968Y305583D01*
D02*
G37*
G36*
X218072Y304569D02*
X212542D01*
Y303415D01*
X210765D01*
Y304569D01*
X205235D01*
Y299431D01*
X210765D01*
Y300585D01*
X212542D01*
Y299431D01*
X218072D01*
Y304569D01*
D02*
G37*
G36*
X321969Y305583D02*
X318032D01*
X317104Y305461D01*
X316240Y305103D01*
X315498Y304534D01*
X314928Y303792D01*
X314570Y302927D01*
X314448Y302000D01*
X314570Y301073D01*
X314928Y300208D01*
X315498Y299466D01*
X316240Y298897D01*
X317104Y298539D01*
X318032Y298417D01*
X321969D01*
X322896Y298539D01*
X323760Y298897D01*
X324502Y299466D01*
X325072Y300208D01*
X325228Y300585D01*
X355388D01*
Y299431D01*
X360919D01*
Y304569D01*
X355388D01*
Y303415D01*
X325228D01*
X325072Y303792D01*
X324502Y304534D01*
X323760Y305103D01*
X322896Y305461D01*
X321969Y305583D01*
D02*
G37*
G36*
X374919Y294568D02*
X369388D01*
Y293415D01*
X367612D01*
Y294568D01*
X362081D01*
Y289432D01*
X367612D01*
Y290585D01*
X369388D01*
Y289432D01*
X374919D01*
Y294568D01*
D02*
G37*
G36*
X261968Y295583D02*
X258032D01*
X257104Y295461D01*
X256240Y295103D01*
X255498Y294534D01*
X254928Y293792D01*
X254772Y293415D01*
X224765D01*
Y294568D01*
X219235D01*
Y289432D01*
X224765D01*
Y290585D01*
X254772D01*
X254928Y290208D01*
X255498Y289466D01*
X256240Y288897D01*
X257104Y288539D01*
X258032Y288417D01*
X261968D01*
X262896Y288539D01*
X263760Y288897D01*
X264502Y289466D01*
X265072Y290208D01*
X265430Y291073D01*
X265552Y292000D01*
X265430Y292927D01*
X265072Y293792D01*
X264502Y294534D01*
X263760Y295103D01*
X262896Y295461D01*
X261968Y295583D01*
D02*
G37*
G36*
X218072Y294568D02*
X212542D01*
Y293415D01*
X210765D01*
Y294568D01*
X205235D01*
Y289432D01*
X210765D01*
Y290585D01*
X212542D01*
Y289432D01*
X218072D01*
Y294568D01*
D02*
G37*
G36*
X321969Y295583D02*
X318032D01*
X317104Y295461D01*
X316240Y295103D01*
X315498Y294534D01*
X314928Y293792D01*
X314570Y292927D01*
X314448Y292000D01*
X314570Y291073D01*
X314928Y290208D01*
X315498Y289466D01*
X316240Y288897D01*
X317104Y288539D01*
X318032Y288417D01*
X321969D01*
X322896Y288539D01*
X323760Y288897D01*
X324502Y289466D01*
X325072Y290208D01*
X325228Y290585D01*
X355388D01*
Y289432D01*
X360919D01*
Y294568D01*
X355388D01*
Y293415D01*
X325228D01*
X325072Y293792D01*
X324502Y294534D01*
X323760Y295103D01*
X322896Y295461D01*
X321969Y295583D01*
D02*
G37*
G36*
X374919Y284569D02*
X369388D01*
Y283415D01*
X367612D01*
Y284569D01*
X362081D01*
Y279432D01*
X367612D01*
Y280585D01*
X369388D01*
Y279432D01*
X374919D01*
Y284569D01*
D02*
G37*
G36*
X261968Y285583D02*
X258032D01*
X257104Y285461D01*
X256240Y285103D01*
X255498Y284534D01*
X254928Y283792D01*
X254772Y283415D01*
X224765D01*
Y284569D01*
X219235D01*
Y279432D01*
X224765D01*
Y280585D01*
X254772D01*
X254928Y280208D01*
X255498Y279466D01*
X256240Y278897D01*
X257104Y278539D01*
X258032Y278417D01*
X261968D01*
X262896Y278539D01*
X263760Y278897D01*
X264502Y279466D01*
X265072Y280208D01*
X265430Y281073D01*
X265552Y282000D01*
X265430Y282927D01*
X265072Y283792D01*
X264502Y284534D01*
X263760Y285103D01*
X262896Y285461D01*
X261968Y285583D01*
D02*
G37*
G36*
X218072Y284569D02*
X212542D01*
Y283415D01*
X210765D01*
Y284569D01*
X205235D01*
Y279432D01*
X210765D01*
Y280585D01*
X212542D01*
Y279432D01*
X218072D01*
Y284569D01*
D02*
G37*
G36*
X321969Y285583D02*
X318032D01*
X317104Y285461D01*
X316240Y285103D01*
X315498Y284534D01*
X314928Y283792D01*
X314570Y282927D01*
X314448Y282000D01*
X314570Y281073D01*
X314928Y280208D01*
X315498Y279466D01*
X316240Y278897D01*
X317104Y278539D01*
X318032Y278417D01*
X321969D01*
X322896Y278539D01*
X323760Y278897D01*
X324502Y279466D01*
X325072Y280208D01*
X325228Y280585D01*
X355388D01*
Y279432D01*
X360919D01*
Y284569D01*
X355388D01*
Y283415D01*
X325228D01*
X325072Y283792D01*
X324502Y284534D01*
X323760Y285103D01*
X322896Y285461D01*
X321969Y285583D01*
D02*
G37*
G36*
X374919Y274569D02*
X369388D01*
Y273415D01*
X367612D01*
Y274569D01*
X362081D01*
Y269431D01*
X367612D01*
Y270585D01*
X369388D01*
Y269431D01*
X374919D01*
Y274569D01*
D02*
G37*
G36*
X261968Y275583D02*
X258032D01*
X257104Y275461D01*
X256240Y275103D01*
X255498Y274534D01*
X254928Y273792D01*
X254772Y273415D01*
X224765D01*
Y274569D01*
X219235D01*
Y269431D01*
X224765D01*
Y270585D01*
X254772D01*
X254928Y270208D01*
X255498Y269466D01*
X256240Y268897D01*
X257104Y268539D01*
X258032Y268417D01*
X261968D01*
X262896Y268539D01*
X263760Y268897D01*
X264502Y269466D01*
X265072Y270208D01*
X265430Y271073D01*
X265552Y272000D01*
X265430Y272927D01*
X265072Y273792D01*
X264502Y274534D01*
X263760Y275103D01*
X262896Y275461D01*
X261968Y275583D01*
D02*
G37*
G36*
X218072Y274569D02*
X212542D01*
Y273415D01*
X210765D01*
Y274569D01*
X205235D01*
Y269431D01*
X210765D01*
Y270585D01*
X212542D01*
Y269431D01*
X218072D01*
Y274569D01*
D02*
G37*
G36*
X321969Y275583D02*
X318032D01*
X317104Y275461D01*
X316240Y275103D01*
X315498Y274534D01*
X314928Y273792D01*
X314570Y272927D01*
X314448Y272000D01*
X314570Y271073D01*
X314928Y270208D01*
X315498Y269466D01*
X316240Y268897D01*
X317104Y268539D01*
X318032Y268417D01*
X321969D01*
X322896Y268539D01*
X323760Y268897D01*
X324502Y269466D01*
X325072Y270208D01*
X325228Y270585D01*
X355388D01*
Y269431D01*
X360919D01*
Y274569D01*
X355388D01*
Y273415D01*
X325228D01*
X325072Y273792D01*
X324502Y274534D01*
X323760Y275103D01*
X322896Y275461D01*
X321969Y275583D01*
D02*
G37*
G36*
X374919Y264568D02*
X369388D01*
Y263415D01*
X367612D01*
Y264568D01*
X362081D01*
Y259432D01*
X367612D01*
Y260585D01*
X369388D01*
Y259432D01*
X374919D01*
Y264568D01*
D02*
G37*
G36*
X321969Y265583D02*
X318032D01*
X317104Y265461D01*
X316240Y265103D01*
X315498Y264534D01*
X314928Y263792D01*
X314570Y262927D01*
X314448Y262000D01*
X314570Y261073D01*
X314928Y260208D01*
X315498Y259466D01*
X316240Y258897D01*
X317104Y258539D01*
X318032Y258417D01*
X321969D01*
X322896Y258539D01*
X323760Y258897D01*
X324502Y259466D01*
X325072Y260208D01*
X325228Y260585D01*
X355388D01*
Y259432D01*
X360919D01*
Y264568D01*
X355388D01*
Y263415D01*
X325228D01*
X325072Y263792D01*
X324502Y264534D01*
X323760Y265103D01*
X322896Y265461D01*
X321969Y265583D01*
D02*
G37*
G36*
X261968D02*
X258032D01*
X257104Y265461D01*
X256240Y265103D01*
X255498Y264534D01*
X254928Y263792D01*
X254570Y262927D01*
X254448Y262000D01*
X254570Y261073D01*
X254928Y260208D01*
X255498Y259466D01*
X256240Y258897D01*
X257104Y258539D01*
X258032Y258417D01*
X261968D01*
X262896Y258539D01*
X263760Y258897D01*
X264502Y259466D01*
X265072Y260208D01*
X265430Y261073D01*
X265552Y262000D01*
X265430Y262927D01*
X265072Y263792D01*
X264502Y264534D01*
X263760Y265103D01*
X262896Y265461D01*
X261968Y265583D01*
D02*
G37*
G36*
X321969Y255987D02*
X320500D01*
Y252500D01*
X325889D01*
X325819Y253032D01*
X325421Y253993D01*
X324788Y254819D01*
X323962Y255453D01*
X323000Y255851D01*
X321969Y255987D01*
D02*
G37*
G36*
X319500D02*
X318032D01*
X317000Y255851D01*
X316038Y255453D01*
X315212Y254819D01*
X314579Y253993D01*
X314180Y253032D01*
X314110Y252500D01*
X319500D01*
Y255987D01*
D02*
G37*
G36*
X202409Y251150D02*
X199956D01*
Y248855D01*
X205139D01*
X205109Y249078D01*
X204830Y249753D01*
X204386Y250332D01*
X203807Y250776D01*
X203133Y251055D01*
X202409Y251150D01*
D02*
G37*
G36*
X198956D02*
X196503D01*
X195780Y251055D01*
X195106Y250776D01*
X194527Y250332D01*
X194082Y249753D01*
X193803Y249078D01*
X193774Y248855D01*
X198956D01*
Y251150D01*
D02*
G37*
G36*
X325889Y251500D02*
X320500D01*
Y248013D01*
X321969D01*
X323000Y248149D01*
X323962Y248547D01*
X324788Y249181D01*
X325421Y250007D01*
X325819Y250968D01*
X325889Y251500D01*
D02*
G37*
G36*
X319500D02*
X314110D01*
X314180Y250968D01*
X314579Y250007D01*
X315212Y249181D01*
X316038Y248547D01*
X317000Y248149D01*
X318032Y248013D01*
X319500D01*
Y251500D01*
D02*
G37*
G36*
X218468Y250012D02*
X216000D01*
Y247346D01*
X218468D01*
Y250012D01*
D02*
G37*
G36*
X215000D02*
X212531D01*
Y247346D01*
X215000D01*
Y250012D01*
D02*
G37*
G36*
X187724Y250773D02*
X184574D01*
X183649Y250589D01*
X182864Y250065D01*
X182340Y249280D01*
X182156Y248355D01*
X182340Y247430D01*
X182864Y246645D01*
X183649Y246121D01*
X184574Y245937D01*
X187724D01*
X188649Y246121D01*
X189434Y246645D01*
X189958Y247430D01*
X190142Y248355D01*
X189958Y249280D01*
X189434Y250065D01*
X188649Y250589D01*
X187724Y250773D01*
D02*
G37*
G36*
X381612Y444568D02*
X376081D01*
Y439431D01*
X377215D01*
Y434569D01*
X376081D01*
Y429431D01*
X377215D01*
Y424569D01*
X376081D01*
Y419431D01*
X377215D01*
Y414569D01*
X376081D01*
Y409432D01*
X377215D01*
Y404568D01*
X376081D01*
Y399431D01*
X377215D01*
Y394568D01*
X376081D01*
Y389432D01*
X377215D01*
Y384569D01*
X376081D01*
Y379432D01*
X377215D01*
Y374569D01*
X376081D01*
Y369431D01*
X377215D01*
Y364568D01*
X376081D01*
Y359432D01*
X377215D01*
Y354569D01*
X376081D01*
Y349431D01*
X377215D01*
Y344568D01*
X376081D01*
Y339432D01*
X377215D01*
Y334569D01*
X376081D01*
Y329432D01*
X377215D01*
Y324569D01*
X376081D01*
Y319431D01*
X377215D01*
Y314568D01*
X376081D01*
Y309432D01*
X377215D01*
Y304569D01*
X376081D01*
Y299431D01*
X377215D01*
Y294568D01*
X376081D01*
Y289432D01*
X377215D01*
Y284569D01*
X376081D01*
Y279432D01*
X377215D01*
Y274569D01*
X376081D01*
Y269431D01*
X377215D01*
Y264568D01*
X376081D01*
Y259432D01*
X377215D01*
Y257707D01*
X373639Y254131D01*
X334500D01*
X333876Y254007D01*
X333347Y253654D01*
X326824Y247131D01*
X318000D01*
X317376Y247007D01*
X316846Y246654D01*
X316493Y246124D01*
X316369Y245500D01*
X316493Y244876D01*
X316846Y244346D01*
X317376Y243993D01*
X318000Y243869D01*
X327500D01*
X328124Y243993D01*
X328654Y244346D01*
X335176Y250869D01*
X374315D01*
X374939Y250993D01*
X375468Y251346D01*
X380000Y255878D01*
X380354Y256407D01*
X380478Y257031D01*
Y259432D01*
X381612D01*
Y264568D01*
X380478D01*
Y269431D01*
X381612D01*
Y274569D01*
X380478D01*
Y279432D01*
X381612D01*
Y284569D01*
X380478D01*
Y289432D01*
X381612D01*
Y294568D01*
X380478D01*
Y299431D01*
X381612D01*
Y304569D01*
X380478D01*
Y309432D01*
X381612D01*
Y314568D01*
X380478D01*
Y319431D01*
X381612D01*
Y324569D01*
X380478D01*
Y329432D01*
X381612D01*
Y334569D01*
X380478D01*
Y339432D01*
X381612D01*
Y344568D01*
X380478D01*
Y349431D01*
X381612D01*
Y354569D01*
X380478D01*
Y359432D01*
X381612D01*
Y364568D01*
X380478D01*
Y369431D01*
X381612D01*
Y374569D01*
X380478D01*
Y379432D01*
X381612D01*
Y384569D01*
X380478D01*
Y389432D01*
X381612D01*
Y394568D01*
X380478D01*
Y399431D01*
X381612D01*
Y404568D01*
X380478D01*
Y409432D01*
X381612D01*
Y414569D01*
X380478D01*
Y419431D01*
X381612D01*
Y424569D01*
X380478D01*
Y429431D01*
X381612D01*
Y434569D01*
X380478D01*
Y439431D01*
X381612D01*
Y444568D01*
D02*
G37*
G36*
X218468Y246346D02*
X216000D01*
Y243681D01*
X218468D01*
Y246346D01*
D02*
G37*
G36*
X215000D02*
X212531D01*
Y243681D01*
X215000D01*
Y246346D01*
D02*
G37*
G36*
X205139Y247855D02*
X193774D01*
X193803Y247632D01*
X194082Y246957D01*
X194527Y246378D01*
X195106Y245934D01*
X195780Y245655D01*
X196503Y245560D01*
X196858D01*
X196967Y245060D01*
X196340Y244641D01*
X195849Y243906D01*
X195776Y243540D01*
X198000D01*
Y242540D01*
X195776D01*
X195849Y242174D01*
X196340Y241439D01*
X196628Y241246D01*
Y241005D01*
X196226Y240403D01*
X196085Y239693D01*
X196226Y238983D01*
X196628Y238381D01*
X196794Y238270D01*
Y237770D01*
X196628Y237660D01*
X196226Y237057D01*
X196085Y236347D01*
X196226Y235637D01*
X196628Y235034D01*
X196795Y234924D01*
Y234423D01*
X196628Y234313D01*
X196226Y233710D01*
X196085Y233000D01*
X196226Y232290D01*
X196628Y231687D01*
X196782Y231585D01*
Y231069D01*
X196628Y230966D01*
X196226Y230364D01*
X196085Y229654D01*
X196226Y228944D01*
X196628Y228342D01*
X196723Y228278D01*
X196755Y227767D01*
X196420Y227429D01*
X194307D01*
X194307Y227429D01*
X193878Y227343D01*
X193514Y227100D01*
X191207Y224793D01*
X190964Y224429D01*
X190878Y224000D01*
X190878Y224000D01*
Y212000D01*
X190878Y212000D01*
X190964Y211571D01*
X191207Y211207D01*
X193707Y208707D01*
X193707Y208707D01*
X194071Y208464D01*
X194500Y208379D01*
X210035D01*
X211707Y206707D01*
X211707Y206707D01*
X212071Y206464D01*
X212500Y206378D01*
X212500Y206379D01*
X213888D01*
Y204931D01*
X219419D01*
Y210068D01*
X213888D01*
Y208622D01*
X212965D01*
X211293Y210293D01*
X210929Y210536D01*
X210500Y210622D01*
X210500Y210622D01*
X194965D01*
X193122Y212465D01*
Y223535D01*
X194772Y225185D01*
X196501D01*
X196628Y224994D01*
X196794Y224884D01*
Y224384D01*
X196628Y224273D01*
X196226Y223671D01*
X196085Y222961D01*
X196226Y222251D01*
X196628Y221649D01*
Y221408D01*
X196340Y221215D01*
X195849Y220480D01*
X195776Y220114D01*
X198000D01*
X200224D01*
X200151Y220480D01*
X199660Y221215D01*
X199372Y221408D01*
Y221649D01*
X199774Y222251D01*
X199915Y222961D01*
X199774Y223671D01*
X199372Y224273D01*
X199206Y224384D01*
Y224884D01*
X199372Y224994D01*
X199774Y225597D01*
X199915Y226307D01*
X199774Y227017D01*
X199372Y227620D01*
X199276Y227683D01*
X199245Y228194D01*
X199580Y228533D01*
X201815D01*
X201942Y228342D01*
X202109Y228231D01*
Y227730D01*
X201942Y227620D01*
X201540Y227017D01*
X201399Y226307D01*
X201540Y225597D01*
X201942Y224994D01*
X202108Y224884D01*
Y224384D01*
X201942Y224273D01*
X201540Y223671D01*
X201399Y222961D01*
X201540Y222251D01*
X201942Y221649D01*
Y221408D01*
X201654Y221215D01*
X201163Y220480D01*
X201090Y220114D01*
X203314D01*
X205538D01*
X205465Y220480D01*
X204974Y221215D01*
X204685Y221408D01*
Y221649D01*
X205088Y222251D01*
X205229Y222961D01*
X205088Y223671D01*
X204685Y224273D01*
X204520Y224384D01*
Y224884D01*
X204685Y224994D01*
X205088Y225597D01*
X205229Y226307D01*
X205088Y227017D01*
X204685Y227620D01*
X204519Y227730D01*
Y228231D01*
X204685Y228342D01*
X205088Y228944D01*
X205229Y229654D01*
X205088Y230364D01*
X204685Y230966D01*
X204520Y231077D01*
Y231577D01*
X204685Y231687D01*
X205088Y232290D01*
X205229Y233000D01*
X205088Y233710D01*
X204685Y234313D01*
X204591Y234376D01*
X204559Y234887D01*
X204894Y235226D01*
X206188D01*
X207205Y234209D01*
Y215673D01*
X207205Y215673D01*
X207290Y215244D01*
X207533Y214880D01*
X209707Y212707D01*
X209707Y212707D01*
X210071Y212464D01*
X210500Y212379D01*
X213888D01*
Y210931D01*
X219419D01*
Y216069D01*
X213888D01*
Y214621D01*
X210965D01*
X209448Y216138D01*
Y234674D01*
X209448Y234674D01*
X209363Y235103D01*
X209120Y235467D01*
X209120Y235467D01*
X207534Y237052D01*
X207620Y237396D01*
X207727Y237552D01*
X212931D01*
Y237388D01*
X213997D01*
Y236553D01*
X213101D01*
Y229447D01*
X213997D01*
Y228553D01*
X213101D01*
Y221447D01*
X218238D01*
Y225262D01*
X218279Y225468D01*
Y233000D01*
Y239032D01*
X218116Y239851D01*
X218069Y239922D01*
Y242919D01*
X212931D01*
Y241834D01*
X205793D01*
X205497Y242334D01*
X205538Y242540D01*
X203314D01*
Y243540D01*
X205538D01*
X205465Y243906D01*
X204974Y244641D01*
X204239Y245132D01*
X203521Y245274D01*
X203468Y245794D01*
X203807Y245934D01*
X204386Y246378D01*
X204830Y246957D01*
X205109Y247632D01*
X205139Y247855D01*
D02*
G37*
G36*
X200224Y219114D02*
X198500D01*
Y217438D01*
X198925Y217522D01*
X199660Y218013D01*
X200151Y218748D01*
X200224Y219114D01*
D02*
G37*
G36*
X205538D02*
X203814D01*
Y217438D01*
X204239Y217522D01*
X204974Y218013D01*
X205465Y218748D01*
X205538Y219114D01*
D02*
G37*
G36*
X202814D02*
X201090D01*
X201163Y218748D01*
X201654Y218013D01*
X202389Y217522D01*
X202814Y217438D01*
Y219114D01*
D02*
G37*
G36*
X197500D02*
X195776D01*
X195849Y218748D01*
X196340Y218013D01*
X197075Y217522D01*
X197500Y217438D01*
Y219114D01*
D02*
G37*
G36*
X204072Y444568D02*
X198542D01*
Y439431D01*
X199676D01*
Y434569D01*
X198542D01*
Y429431D01*
X199676D01*
Y424569D01*
X198542D01*
Y419431D01*
X199676D01*
Y414569D01*
X198542D01*
Y409432D01*
X199676D01*
Y364568D01*
X198542D01*
Y359432D01*
X199676D01*
Y354569D01*
X198542D01*
Y349431D01*
X199676D01*
Y344568D01*
X198542D01*
Y339432D01*
X199676D01*
Y334569D01*
X198542D01*
Y329432D01*
X199676D01*
Y324569D01*
X198542D01*
Y319431D01*
X199676D01*
Y314568D01*
X198542D01*
Y309432D01*
X199676D01*
Y304569D01*
X198542D01*
Y299431D01*
X199676D01*
Y294568D01*
X198542D01*
Y289432D01*
X199676D01*
Y284569D01*
X198542D01*
Y279432D01*
X199676D01*
Y274569D01*
X198542D01*
Y269431D01*
X199676D01*
Y263362D01*
X199800Y262738D01*
X200153Y262209D01*
X205847Y256516D01*
X206376Y256162D01*
X207000Y256038D01*
X240655D01*
X245847Y250847D01*
X246376Y250493D01*
X247000Y250369D01*
X254862D01*
X254928Y250208D01*
X255498Y249466D01*
X256240Y248897D01*
X257104Y248539D01*
X258032Y248417D01*
X261968D01*
X262896Y248539D01*
X263760Y248897D01*
X264502Y249466D01*
X265072Y250208D01*
X265138Y250369D01*
X296824D01*
X302369Y244824D01*
Y216943D01*
X301257Y215831D01*
X300569D01*
Y216112D01*
X295431D01*
Y215831D01*
X294225D01*
X294187Y215857D01*
X293742Y215945D01*
X290888D01*
X290442Y215857D01*
X290065Y215604D01*
X289813Y215227D01*
X289724Y214781D01*
Y213699D01*
X289813Y213253D01*
X290065Y212876D01*
X290442Y212624D01*
X290888Y212535D01*
X293742D01*
X293911Y212569D01*
X295431D01*
Y210581D01*
X300337D01*
X300643Y210112D01*
X300524Y209819D01*
X298500D01*
Y206654D01*
Y203488D01*
X300811D01*
Y190522D01*
X292112D01*
Y192569D01*
X286581D01*
Y187432D01*
X292112D01*
Y188278D01*
X300811D01*
Y184568D01*
X300811Y184568D01*
X300896Y184139D01*
X301139Y183775D01*
X304945Y179969D01*
X304945Y179969D01*
X305309Y179726D01*
X305738Y179641D01*
X305738Y179641D01*
X307486D01*
X307722Y179070D01*
X308260Y178369D01*
X308961Y177831D01*
X309777Y177493D01*
X310653Y177377D01*
X311530Y177493D01*
X312346Y177831D01*
X313047Y178369D01*
X313585Y179070D01*
X313923Y179886D01*
X314038Y180762D01*
X313923Y181638D01*
X313585Y182455D01*
X313047Y183156D01*
X312346Y183694D01*
X311530Y184032D01*
X310653Y184147D01*
X309777Y184032D01*
X308961Y183694D01*
X308260Y183156D01*
X307722Y182455D01*
X307486Y181884D01*
X306202D01*
X303054Y185032D01*
Y189400D01*
Y213025D01*
X303086Y213047D01*
X305153Y215114D01*
X305507Y215643D01*
X305631Y216268D01*
Y245500D01*
X305507Y246124D01*
X305153Y246654D01*
X298654Y253153D01*
X298124Y253507D01*
X297500Y253631D01*
X265138D01*
X265072Y253792D01*
X264502Y254534D01*
X263760Y255103D01*
X262896Y255461D01*
X261968Y255583D01*
X258032D01*
X257104Y255461D01*
X256240Y255103D01*
X255498Y254534D01*
X254928Y253792D01*
X254862Y253631D01*
X247676D01*
X242484Y258823D01*
X241955Y259176D01*
X241331Y259301D01*
X207676D01*
X202938Y264038D01*
Y269431D01*
X204072D01*
Y274569D01*
X202938D01*
Y279432D01*
X204072D01*
Y284569D01*
X202938D01*
Y289432D01*
X204072D01*
Y294568D01*
X202938D01*
Y299431D01*
X204072D01*
Y304569D01*
X202938D01*
Y309432D01*
X204072D01*
Y314568D01*
X202938D01*
Y319431D01*
X204072D01*
Y324569D01*
X202938D01*
Y329432D01*
X204072D01*
Y334569D01*
X202938D01*
Y339432D01*
X204072D01*
Y344568D01*
X202938D01*
Y349431D01*
X204072D01*
Y354569D01*
X202938D01*
Y359432D01*
X204072D01*
Y364568D01*
X202938D01*
Y409432D01*
X204072D01*
Y414569D01*
X202938D01*
Y419431D01*
X204072D01*
Y424569D01*
X202938D01*
Y429431D01*
X204072D01*
Y434569D01*
X202938D01*
Y439431D01*
X204072D01*
Y444568D01*
D02*
G37*
G36*
X226512Y216469D02*
X223847D01*
Y214000D01*
X226512D01*
Y216469D01*
D02*
G37*
G36*
X222847D02*
X220181D01*
Y214000D01*
X222847D01*
Y216469D01*
D02*
G37*
G36*
X202409Y216717D02*
X196503D01*
X195578Y216533D01*
X194793Y216009D01*
X194269Y215224D01*
X194085Y214299D01*
X194269Y213374D01*
X194793Y212589D01*
X195578Y212065D01*
X196503Y211881D01*
X202409D01*
X203334Y212065D01*
X204119Y212589D01*
X204643Y213374D01*
X204827Y214299D01*
X204643Y215224D01*
X204119Y216009D01*
X203334Y216533D01*
X202409Y216717D01*
D02*
G37*
G36*
X187724D02*
X184574D01*
X183649Y216533D01*
X182864Y216009D01*
X182340Y215224D01*
X182156Y214299D01*
X182340Y213374D01*
X182864Y212589D01*
X183649Y212065D01*
X184574Y211881D01*
X187724D01*
X188649Y212065D01*
X189434Y212589D01*
X189958Y213374D01*
X190142Y214299D01*
X189958Y215224D01*
X189434Y216009D01*
X188649Y216533D01*
X187724Y216717D01*
D02*
G37*
G36*
X328378Y213849D02*
Y211500D01*
X330727D01*
X330694Y211754D01*
X330403Y212457D01*
X329939Y213061D01*
X329336Y213524D01*
X328633Y213815D01*
X328378Y213849D01*
D02*
G37*
G36*
X327378D02*
X327124Y213815D01*
X326421Y213524D01*
X325817Y213061D01*
X325354Y212457D01*
X325063Y211754D01*
X325030Y211500D01*
X327378D01*
Y213849D01*
D02*
G37*
G36*
X337378D02*
X337124Y213815D01*
X336421Y213524D01*
X335817Y213061D01*
X335354Y212457D01*
X335063Y211754D01*
X335030Y211500D01*
X337378D01*
Y213849D01*
D02*
G37*
G36*
X226899Y236553D02*
X221762D01*
Y229447D01*
X226899D01*
Y231624D01*
X261930D01*
X270623Y222930D01*
Y216112D01*
X269431D01*
Y210581D01*
X274569D01*
Y212864D01*
X279056D01*
X279149Y212735D01*
X279147Y212153D01*
X278806Y211643D01*
X278686Y211041D01*
Y211000D01*
X284684D01*
Y211041D01*
X284564Y211643D01*
X284224Y212153D01*
X283988Y212310D01*
X283938Y212842D01*
X283961Y212915D01*
X284187Y213253D01*
X284276Y213699D01*
Y214781D01*
X284187Y215227D01*
X283935Y215604D01*
X283558Y215857D01*
X283112Y215945D01*
X280258D01*
X279813Y215857D01*
X279453Y215617D01*
X274569D01*
Y216112D01*
X273376D01*
Y223500D01*
X273272Y224027D01*
X272973Y224473D01*
X263473Y233973D01*
X263027Y234272D01*
X262500Y234377D01*
X226899D01*
Y236553D01*
D02*
G37*
G36*
X397311Y210382D02*
X394811D01*
Y208382D01*
X397311D01*
Y210382D01*
D02*
G37*
G36*
X373689D02*
X371189D01*
Y208382D01*
X373689D01*
Y210382D01*
D02*
G37*
G36*
X370189D02*
X367689D01*
Y208382D01*
X370189D01*
Y210382D01*
D02*
G37*
G36*
X393811D02*
X391311D01*
Y208382D01*
X393811D01*
Y210382D01*
D02*
G37*
G36*
X297500Y209819D02*
X295031D01*
Y208326D01*
X294706Y208185D01*
X294531Y208146D01*
X294187Y208376D01*
X293742Y208465D01*
X290888D01*
X290442Y208376D01*
X290065Y208124D01*
X289813Y207747D01*
X289724Y207301D01*
Y206448D01*
X289720Y206427D01*
X289724Y206407D01*
Y206219D01*
X289813Y205773D01*
X289883Y205669D01*
Y202569D01*
X287081D01*
Y197432D01*
X292612D01*
Y202569D01*
X292310D01*
Y205055D01*
X293742D01*
X294187Y205143D01*
X294531Y205373D01*
X294706Y205334D01*
X295031Y205194D01*
Y203488D01*
X297500D01*
Y206654D01*
Y209819D01*
D02*
G37*
G36*
X261500D02*
X259032D01*
Y208326D01*
X258706Y208185D01*
X258531Y208146D01*
X258187Y208376D01*
X257742Y208465D01*
X254888D01*
X254443Y208376D01*
X254065Y208124D01*
X253813Y207747D01*
X253724Y207301D01*
Y206219D01*
X253813Y205773D01*
X253944Y205577D01*
Y202569D01*
X251235D01*
Y197432D01*
X256765D01*
Y202569D01*
X256371D01*
Y205055D01*
X257742D01*
X258187Y205143D01*
X258531Y205373D01*
X258706Y205334D01*
X259032Y205194D01*
Y203488D01*
X261500D01*
Y206654D01*
Y209819D01*
D02*
G37*
G36*
X226512Y213000D02*
X220181D01*
Y210968D01*
X220181Y210531D01*
X220181Y210032D01*
Y208000D01*
X226512D01*
Y210032D01*
X226512Y210469D01*
X226512Y210968D01*
Y213000D01*
D02*
G37*
G36*
X274969Y209819D02*
X272500D01*
Y207154D01*
X274969D01*
Y209819D01*
D02*
G37*
G36*
X238968D02*
X236500D01*
Y207154D01*
X238968D01*
Y209819D01*
D02*
G37*
G36*
X271500D02*
X269032D01*
Y207154D01*
X271500D01*
Y209819D01*
D02*
G37*
G36*
X235500D02*
X233032D01*
Y207154D01*
X235500D01*
Y209819D01*
D02*
G37*
G36*
X397311Y207382D02*
X394811D01*
Y205382D01*
X397311D01*
Y207382D01*
D02*
G37*
G36*
X393811D02*
X391311D01*
Y205382D01*
X393811D01*
Y207382D01*
D02*
G37*
G36*
X373689D02*
X371189D01*
Y205382D01*
X373689D01*
Y207382D01*
D02*
G37*
G36*
X370189D02*
X367689D01*
Y205382D01*
X370189D01*
Y207382D01*
D02*
G37*
G36*
X226899Y228553D02*
X221762D01*
Y221447D01*
X226899D01*
Y223623D01*
X232930D01*
X234624Y221930D01*
Y216112D01*
X233432D01*
Y210581D01*
X238568D01*
Y212864D01*
X240879D01*
Y207500D01*
X240878Y207500D01*
X240964Y207071D01*
X241207Y206707D01*
X242085Y205829D01*
X242085Y205829D01*
X242449Y205586D01*
X242878Y205501D01*
X243365D01*
X243435Y205396D01*
X243813Y205143D01*
X244258Y205055D01*
X247112D01*
X247557Y205143D01*
X247935Y205396D01*
X248187Y205773D01*
X248276Y206219D01*
Y207301D01*
X248187Y207747D01*
X247961Y208085D01*
X247938Y208157D01*
X247988Y208690D01*
X248223Y208847D01*
X248564Y209357D01*
X248684Y209959D01*
Y210000D01*
X245685D01*
Y211000D01*
X248684D01*
Y211041D01*
X248564Y211643D01*
X248223Y212153D01*
X247988Y212310D01*
X247938Y212842D01*
X247961Y212915D01*
X248187Y213253D01*
X248276Y213699D01*
Y214781D01*
X248187Y215227D01*
X247935Y215604D01*
X247557Y215857D01*
X247112Y215945D01*
X244258D01*
X243813Y215857D01*
X243453Y215617D01*
X238568D01*
Y216112D01*
X237376D01*
Y222500D01*
X237272Y223027D01*
X236973Y223473D01*
X236973Y223473D01*
X234473Y225973D01*
X234027Y226272D01*
X233500Y226377D01*
X226899D01*
Y228553D01*
D02*
G37*
G36*
X226512Y207000D02*
X223847D01*
Y204532D01*
X226512D01*
Y207000D01*
D02*
G37*
G36*
X222847D02*
X220181D01*
Y204532D01*
X222847D01*
Y207000D01*
D02*
G37*
G36*
X274969Y206154D02*
X272500D01*
Y203488D01*
X274969D01*
Y206154D01*
D02*
G37*
G36*
X271500D02*
X269032D01*
Y203488D01*
X271500D01*
Y206154D01*
D02*
G37*
G36*
X238968D02*
X236500D01*
Y203488D01*
X238968D01*
Y206154D01*
D02*
G37*
G36*
X235500D02*
X233032D01*
Y203488D01*
X235500D01*
Y206154D01*
D02*
G37*
G36*
X360212Y231068D02*
X354681D01*
Y225932D01*
X356233D01*
Y208406D01*
X345268Y197441D01*
X344806Y197633D01*
Y200268D01*
X344806Y200268D01*
X344720Y200697D01*
X344477Y201061D01*
X344477Y201061D01*
X344000Y201539D01*
Y203755D01*
X344673Y204205D01*
X345099Y204842D01*
X345658D01*
X346083Y204205D01*
X346907Y203655D01*
X347878Y203461D01*
X348850Y203655D01*
X349674Y204205D01*
X350224Y205029D01*
X350417Y206000D01*
X350224Y206972D01*
X349674Y207795D01*
X349351Y208010D01*
X349503Y208510D01*
X350368D01*
Y213490D01*
X345389D01*
Y213213D01*
X345335Y213195D01*
X344889Y213100D01*
X344336Y213524D01*
X343633Y213815D01*
X343378Y213849D01*
Y211000D01*
X342378D01*
Y213849D01*
X342124Y213815D01*
X341421Y213524D01*
X340817Y213061D01*
X340628Y212815D01*
X340128D01*
X339939Y213061D01*
X339336Y213524D01*
X338633Y213815D01*
X338378Y213849D01*
Y211000D01*
X337878D01*
Y210500D01*
X335030D01*
X335063Y210246D01*
X335354Y209543D01*
X335817Y208939D01*
X336319Y208554D01*
X336396Y208004D01*
X336083Y207795D01*
X335658Y207158D01*
X335099D01*
X334674Y207795D01*
X333850Y208345D01*
X332878Y208539D01*
X331907Y208345D01*
X331083Y207795D01*
X330658Y207158D01*
X330099D01*
X329674Y207795D01*
X329360Y208004D01*
X329438Y208554D01*
X329939Y208939D01*
X330403Y209543D01*
X330694Y210246D01*
X330727Y210500D01*
X327878D01*
X325030D01*
X325063Y210246D01*
X325354Y209543D01*
X325817Y208939D01*
X326319Y208554D01*
X326396Y208004D01*
X326083Y207795D01*
X325533Y206972D01*
X325340Y206000D01*
X325533Y205029D01*
X326083Y204205D01*
X326907Y203655D01*
X327878Y203461D01*
X328088Y203503D01*
X328335Y203042D01*
X323607Y198315D01*
X323364Y197951D01*
X323278Y197522D01*
X323278Y197521D01*
Y182100D01*
X323278Y182100D01*
X323364Y181671D01*
X323607Y181307D01*
X324660Y180254D01*
X324660Y180254D01*
X325024Y180011D01*
X325453Y179926D01*
X325453Y179926D01*
X333404D01*
Y179857D01*
X336932D01*
X336940Y179801D01*
X336506Y179322D01*
X323965D01*
X322722Y180565D01*
Y192200D01*
X322722Y192200D01*
X322636Y192629D01*
X322393Y192993D01*
X322393Y192993D01*
X320093Y195293D01*
X319729Y195536D01*
X319300Y195622D01*
X319300Y195622D01*
X316765D01*
Y197069D01*
X311235D01*
Y192469D01*
X310835D01*
Y190000D01*
X317165D01*
Y192469D01*
X316765D01*
Y193378D01*
X318835D01*
X320479Y191735D01*
Y180100D01*
X320478Y180100D01*
X320564Y179671D01*
X320807Y179307D01*
X322707Y177407D01*
X322707Y177407D01*
X323071Y177164D01*
X323500Y177078D01*
X323500Y177078D01*
X337735D01*
Y175526D01*
X342387D01*
X342578Y175064D01*
X341535Y174022D01*
X297365D01*
X284417Y186970D01*
X284608Y187432D01*
X285419D01*
Y192569D01*
X279888D01*
Y187432D01*
X281218D01*
X281563Y187116D01*
X281648Y186687D01*
X281891Y186323D01*
X296107Y172107D01*
X296107Y172107D01*
X296471Y171864D01*
X296900Y171778D01*
X296900Y171778D01*
X342000D01*
X342000Y171778D01*
X342429Y171864D01*
X342793Y172107D01*
X345693Y175007D01*
X345936Y175371D01*
X345967Y175526D01*
X346022D01*
Y179194D01*
X346381Y179358D01*
X346859Y179107D01*
Y173445D01*
X342535Y169122D01*
X294465D01*
X278622Y184965D01*
Y204535D01*
X279381Y205294D01*
X279586D01*
X279813Y205143D01*
X280258Y205055D01*
X283112D01*
X283558Y205143D01*
X283935Y205396D01*
X284187Y205773D01*
X284276Y206219D01*
Y207301D01*
X284187Y207747D01*
X283961Y208085D01*
X283938Y208157D01*
X283988Y208690D01*
X284224Y208847D01*
X284564Y209357D01*
X284684Y209959D01*
Y210000D01*
X278686D01*
Y209959D01*
X278806Y209357D01*
X279147Y208847D01*
X279382Y208690D01*
X279432Y208157D01*
X279409Y208085D01*
X279183Y207747D01*
X278916Y207538D01*
X278487Y207452D01*
X278123Y207209D01*
X278123Y207209D01*
X276707Y205793D01*
X276464Y205429D01*
X276378Y205000D01*
X276378Y205000D01*
Y194430D01*
X275879Y194279D01*
X275758Y194458D01*
X275758Y194458D01*
X274858Y195358D01*
X274465Y195622D01*
X274112Y195692D01*
Y197069D01*
X270986D01*
Y197994D01*
X271264Y198410D01*
X271387Y199028D01*
X271264Y199646D01*
X270914Y200170D01*
X270390Y200521D01*
X269898Y200619D01*
X267414Y203103D01*
Y212900D01*
X267321Y213365D01*
X267058Y213758D01*
X267058Y213758D01*
X266158Y214658D01*
X265764Y214921D01*
X265300Y215014D01*
X265300Y215014D01*
X264568D01*
Y216112D01*
X259432D01*
Y215454D01*
X258665D01*
X258565Y215604D01*
X258187Y215857D01*
X257742Y215945D01*
X254888D01*
X254443Y215857D01*
X254065Y215604D01*
X253813Y215227D01*
X253724Y214781D01*
Y213699D01*
X253813Y213253D01*
X254065Y212876D01*
X254443Y212624D01*
X254888Y212535D01*
X257742D01*
X258187Y212624D01*
X258565Y212876D01*
X258665Y213026D01*
X259432D01*
Y210581D01*
X264568D01*
X264986Y210382D01*
Y210312D01*
X264968Y209819D01*
X264486Y209819D01*
X262500D01*
Y206654D01*
Y203488D01*
X264968Y203488D01*
X264986Y202995D01*
Y202600D01*
X264986Y202600D01*
X265078Y202135D01*
X265342Y201742D01*
X268181Y198902D01*
X268279Y198410D01*
X268558Y197994D01*
Y195878D01*
X268558Y195878D01*
X268581Y195761D01*
Y192469D01*
X268181D01*
Y190000D01*
X271346D01*
Y189500D01*
X271847D01*
Y186531D01*
X273686D01*
Y185403D01*
X270873Y182590D01*
X270257Y182681D01*
X269894Y183156D01*
X269192Y183694D01*
X268376Y184032D01*
X267500Y184147D01*
X266624Y184032D01*
X265808Y183694D01*
X265107Y183156D01*
X264569Y182455D01*
X264230Y181638D01*
X264115Y180762D01*
X264230Y179886D01*
X264569Y179070D01*
X265107Y178369D01*
X265808Y177831D01*
X266624Y177493D01*
X267500Y177377D01*
X268376Y177493D01*
X269192Y177831D01*
X269894Y178369D01*
X270431Y179070D01*
X270630Y179548D01*
X270762D01*
X270762Y179548D01*
X271227Y179641D01*
X271620Y179904D01*
X275758Y184042D01*
X275758Y184042D01*
X275914Y184274D01*
X276442Y184181D01*
X276464Y184071D01*
X276707Y183707D01*
X293207Y167207D01*
X293207Y167207D01*
X293571Y166964D01*
X294000Y166878D01*
X343000D01*
X343000Y166878D01*
X343429Y166964D01*
X343793Y167207D01*
X348774Y172188D01*
X348774Y172188D01*
X349017Y172552D01*
X349102Y172981D01*
Y179857D01*
X350352D01*
Y181825D01*
Y185739D01*
X356236D01*
X356236Y185739D01*
X356701Y185831D01*
X357094Y186094D01*
X360888Y189888D01*
X365069D01*
Y191904D01*
X368089D01*
Y191018D01*
X373289D01*
Y191904D01*
X391711D01*
Y191018D01*
X396911D01*
Y195218D01*
X391711D01*
Y194332D01*
X373289D01*
Y195218D01*
X368089D01*
Y194332D01*
X365069D01*
Y195419D01*
X359931D01*
Y192365D01*
X355733Y188167D01*
X347981D01*
X347864Y188143D01*
X346422D01*
Y188543D01*
X346022D01*
Y189985D01*
X346045Y190102D01*
Y194785D01*
X358305Y207045D01*
X358305Y207045D01*
X358568Y207439D01*
X358660Y207903D01*
Y225932D01*
X360212D01*
Y231068D01*
D02*
G37*
G36*
X365069Y202112D02*
X359931D01*
Y200560D01*
X358188D01*
X357772Y200839D01*
X357154Y200962D01*
X356535Y200839D01*
X356011Y200489D01*
X355661Y199965D01*
X355538Y199346D01*
X355661Y198728D01*
X356011Y198204D01*
X356535Y197854D01*
X357154Y197731D01*
X357772Y197854D01*
X358188Y198133D01*
X359931D01*
Y196581D01*
X365069D01*
Y202112D01*
D02*
G37*
G36*
X286319Y202969D02*
X283653D01*
Y200500D01*
X286319D01*
Y202969D01*
D02*
G37*
G36*
X282653D02*
X279988D01*
Y200500D01*
X282653D01*
Y202969D01*
D02*
G37*
G36*
X250472D02*
X247807D01*
Y200500D01*
X250472D01*
Y202969D01*
D02*
G37*
G36*
X246807D02*
X244142D01*
Y200500D01*
X246807D01*
Y202969D01*
D02*
G37*
G36*
X286319Y199500D02*
X283653D01*
Y197031D01*
X286319D01*
Y199500D01*
D02*
G37*
G36*
X282653D02*
X279988D01*
Y197031D01*
X282653D01*
Y199500D01*
D02*
G37*
G36*
X250472D02*
X247807D01*
Y197031D01*
X250472D01*
Y199500D01*
D02*
G37*
G36*
X246807D02*
X244142D01*
Y197031D01*
X246807D01*
Y199500D01*
D02*
G37*
G36*
X310072Y197069D02*
X304542D01*
Y191931D01*
Y186932D01*
X310072D01*
Y191931D01*
Y197069D01*
D02*
G37*
G36*
X267419D02*
X261888D01*
Y191931D01*
Y186932D01*
X267419D01*
Y191931D01*
Y197069D01*
D02*
G37*
G36*
X317165Y189000D02*
X314500D01*
Y186531D01*
X317165D01*
Y189000D01*
D02*
G37*
G36*
X313500D02*
X310835D01*
Y186531D01*
X313500D01*
Y189000D01*
D02*
G37*
G36*
X270847D02*
X268181D01*
Y186531D01*
X270847D01*
Y189000D01*
D02*
G37*
G36*
X238000Y184485D02*
Y181262D01*
X241223D01*
X241159Y181743D01*
X240781Y182656D01*
X240179Y183441D01*
X239394Y184043D01*
X238480Y184421D01*
X238000Y184485D01*
D02*
G37*
G36*
X237000D02*
X236520Y184421D01*
X235606Y184043D01*
X234821Y183441D01*
X234219Y182656D01*
X233841Y181743D01*
X233777Y181262D01*
X237000D01*
Y184485D01*
D02*
G37*
G36*
X241223Y180262D02*
X238000D01*
Y177040D01*
X238480Y177103D01*
X239394Y177481D01*
X240179Y178084D01*
X240781Y178868D01*
X241159Y179782D01*
X241223Y180262D01*
D02*
G37*
G36*
X237000D02*
X233777D01*
X233841Y179782D01*
X234219Y178868D01*
X234821Y178084D01*
X235606Y177481D01*
X236520Y177103D01*
X237000Y177040D01*
Y180262D01*
D02*
G37*
%LPD*%
G36*
X338477Y198963D02*
X338385Y198500D01*
X338390Y198476D01*
X338042Y198128D01*
X337799Y197764D01*
X337714Y197335D01*
X337714Y197335D01*
Y190193D01*
X337714Y190193D01*
X337735Y190085D01*
Y188543D01*
X337335D01*
Y188143D01*
X336714D01*
Y190965D01*
X336992Y191382D01*
X337115Y192000D01*
X336992Y192618D01*
X336642Y193142D01*
X336118Y193492D01*
X335500Y193615D01*
X334882Y193492D01*
X334465Y193214D01*
X332068D01*
Y196112D01*
X327904D01*
X327712Y196574D01*
X330534Y199395D01*
X331096Y199250D01*
X331358Y198858D01*
X331882Y198508D01*
X332500Y198385D01*
X333118Y198508D01*
X333642Y198858D01*
X333656Y198878D01*
X335552D01*
X335552Y198878D01*
X335982Y198964D01*
X336346Y199207D01*
X336601Y199463D01*
X338182D01*
X338477Y198963D01*
D02*
G37*
D10*
X347981Y172981D02*
Y181047D01*
X343000Y168000D02*
X347981Y172981D01*
X294000Y168000D02*
X343000D01*
X277500Y184500D02*
X294000Y168000D01*
X305738Y180762D02*
X310653D01*
X301932Y184568D02*
X305738Y180762D01*
X301932Y184568D02*
Y189400D01*
X210500Y209500D02*
X212500Y207500D01*
X216653D01*
X194500Y209500D02*
X210500D01*
X208327Y215673D02*
Y234674D01*
Y215673D02*
X210500Y213500D01*
X216653D01*
X242000Y207500D02*
Y214240D01*
X243102Y214102D02*
X245685D01*
X242878Y206622D02*
X245685D01*
X206653Y236347D02*
X208327Y234674D01*
X282684Y187116D02*
X296900Y172900D01*
X282684Y187116D02*
Y189969D01*
X282653Y190000D02*
X282684Y189969D01*
X296900Y172900D02*
X342000D01*
X301932Y189400D02*
Y214200D01*
X291446Y189400D02*
X301932D01*
X323500Y178200D02*
X338835D01*
X338926Y178109D01*
Y177898D02*
Y178109D01*
X321600Y180100D02*
X323500Y178200D01*
X321600Y180100D02*
Y192200D01*
X319300Y194500D02*
X321600Y192200D01*
X314000Y194500D02*
X319300D01*
X277500Y184500D02*
Y205000D01*
X342000Y172900D02*
X344900Y175800D01*
Y177829D01*
X344831Y177898D02*
X344900Y177829D01*
X335776Y184984D02*
X340894D01*
X329000Y184988D02*
X335772D01*
X335552Y200000D02*
X336137Y200584D01*
X340863D01*
X342084Y199363D01*
X342878Y201074D02*
Y206000D01*
Y201074D02*
X343684Y200268D01*
Y196974D02*
Y200268D01*
X342878Y196168D02*
X343684Y196974D01*
X338835Y190193D02*
Y197335D01*
X340000Y198500D01*
X342084Y197637D02*
Y199363D01*
X340894Y196447D02*
X342084Y197637D01*
X340894Y190102D02*
Y196447D01*
X342878Y190122D02*
Y196168D01*
X338835Y190193D02*
X338926Y190102D01*
X326484Y183016D02*
X335776D01*
X326000Y183500D02*
X326484Y183016D01*
X326000Y183500D02*
Y196448D01*
X324400Y197522D02*
X332878Y206000D01*
X324400Y182100D02*
Y197522D01*
Y182100D02*
X325453Y181047D01*
X326000Y196448D02*
X331637Y202084D01*
X332500Y200000D02*
X335552D01*
X331637Y202084D02*
X333963D01*
X337878Y206000D01*
X325453Y181047D02*
X335776D01*
X335772Y184988D02*
X335776Y184984D01*
X278916Y206416D02*
X281341D01*
X277500Y205000D02*
X278916Y206416D01*
X242000Y207500D02*
X242878Y206622D01*
X307307Y189500D02*
Y194500D01*
X264653Y189500D02*
Y194500D01*
X281341Y206416D02*
X281685Y206760D01*
X340894Y184984D02*
X341878Y184000D01*
X192000Y212000D02*
X194500Y209500D01*
X192000Y212000D02*
Y224000D01*
X194307Y226307D01*
X198000D01*
Y229654D02*
X203314D01*
X198000D02*
Y233000D01*
X203314D01*
Y236347D02*
X206653D01*
D17*
X207000Y257669D02*
X241331D01*
X201307Y263362D02*
Y272000D01*
Y263362D02*
X207000Y257669D01*
X292315Y214200D02*
X301932D01*
X304000Y216268D02*
Y245500D01*
X301932Y214200D02*
X304000Y216268D01*
X297500Y252000D02*
X304000Y245500D01*
X260000Y252000D02*
X297500D01*
X318000Y245500D02*
X327500D01*
X334500Y252500D01*
X374315D01*
X378847Y257031D01*
Y262000D01*
X247000Y252000D02*
X260000D01*
X241331Y257669D02*
X247000Y252000D01*
X378847Y432000D02*
Y442000D01*
Y422000D02*
Y432000D01*
Y412000D02*
Y422000D01*
Y402000D02*
Y412000D01*
Y392000D02*
Y402000D01*
Y382000D02*
Y392000D01*
Y372000D02*
Y382000D01*
Y362000D02*
Y372000D01*
Y352000D02*
Y362000D01*
Y342000D02*
Y352000D01*
Y332000D02*
Y342000D01*
Y322000D02*
Y332000D01*
Y312000D02*
Y322000D01*
Y302000D02*
Y312000D01*
Y292000D02*
Y302000D01*
Y282000D02*
Y292000D01*
Y272000D02*
Y282000D01*
Y262000D02*
Y272000D01*
X201307Y432000D02*
Y442000D01*
Y422000D02*
Y432000D01*
Y412000D02*
Y422000D01*
Y362000D02*
Y412000D01*
Y352000D02*
Y362000D01*
Y342000D02*
Y352000D01*
Y332000D02*
Y342000D01*
Y322000D02*
Y332000D01*
Y312000D02*
Y322000D01*
Y302000D02*
Y312000D01*
Y292000D02*
Y302000D01*
Y282000D02*
Y292000D01*
Y272000D02*
Y282000D01*
D20*
X256315Y214240D02*
X262006D01*
X274900Y184900D02*
Y193600D01*
X270762Y180762D02*
X274900Y184900D01*
X267500Y180762D02*
X270762D01*
X344831Y195288D02*
X357447Y207903D01*
Y228500D01*
X356236Y186953D02*
X362401Y193118D01*
X347981Y186953D02*
X356236D01*
X329500Y193347D02*
X330847Y192000D01*
X335500Y187173D02*
Y192000D01*
X330847D02*
X335500D01*
Y187173D02*
X335720Y186953D01*
X266200Y202600D02*
X269772Y199028D01*
Y195878D02*
Y199028D01*
Y195878D02*
X271150Y194500D01*
X271346D01*
X266200Y202600D02*
Y212900D01*
X265300Y213800D02*
X266200Y212900D01*
X262446Y213800D02*
X265300D01*
X262006Y214240D02*
X262446Y213800D01*
X271346Y194500D02*
X274000D01*
X274900Y193600D01*
X335720Y186953D02*
X335776D01*
X255157Y201020D02*
Y206289D01*
X362401Y193118D02*
X370689D01*
X357154Y199346D02*
X362500D01*
X344831Y190102D02*
Y195288D01*
X370189Y193118D02*
X393811D01*
X291096Y200219D02*
Y206427D01*
D21*
X272000Y213347D02*
Y223500D01*
X262500Y233000D02*
X272000Y223500D01*
X224331Y233000D02*
X262500D01*
X236000Y213347D02*
Y222500D01*
X233500Y225000D02*
X236000Y222500D01*
X224331Y225000D02*
X233500D01*
X242000Y214240D02*
X245685D01*
X236894D02*
X242000D01*
X236000Y213347D02*
X236894Y214240D01*
X272000Y213347D02*
X272894Y214240D01*
X281685D01*
X254000Y199862D02*
X255157Y201020D01*
Y206289D02*
X255490Y206622D01*
X289878Y199000D02*
X291096Y200219D01*
X289846Y199000D02*
X289878D01*
X291096Y206427D02*
X291429Y206760D01*
X292315D01*
X255490Y206622D02*
X256315D01*
D39*
X394311Y207882D02*
D03*
Y193118D02*
D03*
X370689D02*
D03*
Y207882D02*
D03*
D40*
X224331Y233000D02*
D03*
X215669D02*
D03*
X224331Y225000D02*
D03*
X215669D02*
D03*
D41*
X272000Y213347D02*
D03*
Y206653D02*
D03*
X329500Y193347D02*
D03*
Y186653D02*
D03*
X298000Y206653D02*
D03*
Y213347D02*
D03*
X236000Y206653D02*
D03*
Y213347D02*
D03*
X262000Y206653D02*
D03*
Y213347D02*
D03*
X362500Y199346D02*
D03*
Y192654D02*
D03*
X215500Y240154D02*
D03*
Y246847D02*
D03*
D42*
X289347Y190000D02*
D03*
X282653D02*
D03*
X283154Y200000D02*
D03*
X289846D02*
D03*
X254000D02*
D03*
X247307D02*
D03*
X350753Y228500D02*
D03*
X357447D02*
D03*
X314000Y189500D02*
D03*
X307307D02*
D03*
X314000Y194500D02*
D03*
X307307D02*
D03*
X216653Y207500D02*
D03*
X223346D02*
D03*
X216653Y213500D02*
D03*
X223346D02*
D03*
X271346Y194500D02*
D03*
X264653D02*
D03*
X271346Y189500D02*
D03*
X264653D02*
D03*
X208000Y442000D02*
D03*
X201307D02*
D03*
X208000Y432000D02*
D03*
X201307D02*
D03*
X208000Y422000D02*
D03*
X201307D02*
D03*
X208000Y412000D02*
D03*
X201307D02*
D03*
X208000Y362000D02*
D03*
X201307D02*
D03*
X208000Y352000D02*
D03*
X201307D02*
D03*
X208000Y342000D02*
D03*
X201307D02*
D03*
X208000Y332000D02*
D03*
X201307D02*
D03*
X208000Y322000D02*
D03*
X201307D02*
D03*
X208000Y312000D02*
D03*
X201307D02*
D03*
X208000Y302000D02*
D03*
X201307D02*
D03*
X208000Y292000D02*
D03*
X201307D02*
D03*
X208000Y282000D02*
D03*
X201307D02*
D03*
X208000Y272000D02*
D03*
X201307D02*
D03*
X215307Y442000D02*
D03*
X222000D02*
D03*
X215307Y432000D02*
D03*
X222000D02*
D03*
X215307Y422000D02*
D03*
X222000D02*
D03*
X215307Y412000D02*
D03*
X222000D02*
D03*
X215307Y362000D02*
D03*
X222000D02*
D03*
X215307Y352000D02*
D03*
X222000D02*
D03*
X215307Y342000D02*
D03*
X222000D02*
D03*
X215307Y332000D02*
D03*
X222000D02*
D03*
X215307Y322000D02*
D03*
X222000D02*
D03*
X215307Y312000D02*
D03*
X222000D02*
D03*
X215307Y302000D02*
D03*
X222000D02*
D03*
X215307Y292000D02*
D03*
X222000D02*
D03*
X215307Y282000D02*
D03*
X222000D02*
D03*
X215307Y272000D02*
D03*
X222000D02*
D03*
X358154Y442000D02*
D03*
X364846D02*
D03*
X358154Y432000D02*
D03*
X364846D02*
D03*
X358154Y422000D02*
D03*
X364846D02*
D03*
X358154Y412000D02*
D03*
X364846D02*
D03*
X358154Y402000D02*
D03*
X364846D02*
D03*
X358154Y392000D02*
D03*
X364846D02*
D03*
X358154Y382000D02*
D03*
X364846D02*
D03*
X358154Y372000D02*
D03*
X364846D02*
D03*
X358154Y362000D02*
D03*
X364846D02*
D03*
X358154Y352000D02*
D03*
X364846D02*
D03*
X358154Y342000D02*
D03*
X364846D02*
D03*
X358154Y332000D02*
D03*
X364846D02*
D03*
X358154Y322000D02*
D03*
X364846D02*
D03*
X358154Y312000D02*
D03*
X364846D02*
D03*
X358154Y302000D02*
D03*
X364846D02*
D03*
X358154Y292000D02*
D03*
X364846D02*
D03*
X358154Y282000D02*
D03*
X364846D02*
D03*
X358154Y272000D02*
D03*
X364846D02*
D03*
X358154Y262000D02*
D03*
X364846D02*
D03*
X372153Y382000D02*
D03*
X378847D02*
D03*
X372153Y372000D02*
D03*
X378847D02*
D03*
X372153Y362000D02*
D03*
X378847D02*
D03*
X372153Y352000D02*
D03*
X378847D02*
D03*
X372153Y342000D02*
D03*
X378847D02*
D03*
X372153Y332000D02*
D03*
X378847D02*
D03*
X372153Y322000D02*
D03*
X378847D02*
D03*
X372153Y312000D02*
D03*
X378847D02*
D03*
X372153Y302000D02*
D03*
X378847D02*
D03*
X372153Y292000D02*
D03*
X378847D02*
D03*
X372153Y392000D02*
D03*
X378847D02*
D03*
X372153Y402000D02*
D03*
X378847D02*
D03*
X372153Y412000D02*
D03*
X378847D02*
D03*
X372153Y422000D02*
D03*
X378847D02*
D03*
X372153Y432000D02*
D03*
X378847D02*
D03*
X372153Y442000D02*
D03*
X378847D02*
D03*
X372153Y282000D02*
D03*
X378847D02*
D03*
X372153Y272000D02*
D03*
X378847D02*
D03*
X372153Y262000D02*
D03*
X378847D02*
D03*
D43*
X335776Y186953D02*
D03*
Y184984D02*
D03*
Y183016D02*
D03*
Y181047D02*
D03*
X347981D02*
D03*
Y183016D02*
D03*
Y184984D02*
D03*
Y186953D02*
D03*
D44*
X338926Y177898D02*
D03*
X340894D02*
D03*
X342863D02*
D03*
X344831D02*
D03*
Y190102D02*
D03*
X342863D02*
D03*
X340894D02*
D03*
X338926D02*
D03*
D45*
X341878Y184000D02*
D03*
D46*
X292315Y206760D02*
D03*
Y214240D02*
D03*
X281685Y206760D02*
D03*
Y210500D02*
D03*
Y214240D02*
D03*
X256315Y206760D02*
D03*
Y214240D02*
D03*
X245685Y206760D02*
D03*
Y210500D02*
D03*
Y214240D02*
D03*
D47*
X203314Y239693D02*
X215362D01*
X216138Y233000D02*
Y239032D01*
Y225468D02*
Y233000D01*
X215669Y225000D02*
X216138Y225468D01*
D48*
X350753Y228500D02*
X350877Y228623D01*
Y236877D01*
X351000Y237000D01*
X318000D02*
X351000D01*
X308500Y246500D02*
X318000Y237000D01*
X308500Y388500D02*
X312000Y392000D01*
X308500Y388500D02*
X308500Y246500D01*
X312000Y392000D02*
X320000D01*
Y442000D02*
X358000D01*
X364693D02*
X372000D01*
X320000Y432000D02*
X358000D01*
X364693D02*
X372000D01*
X320000Y422000D02*
X358000D01*
X364693D02*
X372000D01*
X364693Y412000D02*
X372000D01*
X320000D02*
X358000D01*
X320000Y402000D02*
X358000D01*
X364693D02*
X372000D01*
X320000Y392000D02*
X358000D01*
X364693D02*
X372000D01*
X320000Y382000D02*
X358000D01*
X364693D02*
X372000D01*
X364693Y372000D02*
X372000D01*
X320000D02*
X358000D01*
X320000Y362000D02*
X358000D01*
X364693D02*
X372000D01*
X320000Y352000D02*
X358000D01*
X364693D02*
X372000D01*
X320000Y342000D02*
X358000D01*
X364693D02*
X372000D01*
X364693Y332000D02*
X372000D01*
X320000D02*
X358000D01*
X320000Y322000D02*
X358000D01*
X364693D02*
X372000D01*
X320000Y312000D02*
X358000D01*
X364693D02*
X372000D01*
X320000Y302000D02*
X358000D01*
X364693D02*
X372000D01*
X364693Y292000D02*
X372000D01*
X320000D02*
X358000D01*
X320000Y282000D02*
X358000D01*
X364693D02*
X372000D01*
X320000Y272000D02*
X358000D01*
X364693D02*
X372000D01*
X320000Y262000D02*
X358000D01*
X364693D02*
X372000D01*
X222000Y362000D02*
X260000D01*
X208000D02*
X215307D01*
X222000Y352000D02*
X260000D01*
X208000D02*
X215307D01*
X222000Y342000D02*
X260000D01*
X208000D02*
X215307D01*
X208000Y332000D02*
X215307D01*
X222000D02*
X260000D01*
X222000Y322000D02*
X260000D01*
X208000D02*
X215307D01*
X222000Y312000D02*
X260000D01*
X208000D02*
X215307D01*
X222000Y302000D02*
X260000D01*
X208000D02*
X215307D01*
X208000Y292000D02*
X215307D01*
X222000D02*
X260000D01*
X222000Y282000D02*
X260000D01*
X208000D02*
X215307D01*
X222000Y272000D02*
X260000D01*
X208000D02*
X215307D01*
X208000Y412000D02*
X215307D01*
X222000D02*
X260000D01*
X208000Y422000D02*
X215307D01*
X222000D02*
X260000D01*
X208000Y432000D02*
X215307D01*
X222000D02*
X260000D01*
X222000Y442000D02*
X260000D01*
X208000D02*
X215307D01*
D49*
X320000Y252000D02*
D03*
Y262000D02*
D03*
Y272000D02*
D03*
Y282000D02*
D03*
Y292000D02*
D03*
Y302000D02*
D03*
Y312000D02*
D03*
Y322000D02*
D03*
Y332000D02*
D03*
Y342000D02*
D03*
Y352000D02*
D03*
Y362000D02*
D03*
Y372000D02*
D03*
Y382000D02*
D03*
Y392000D02*
D03*
Y402000D02*
D03*
Y412000D02*
D03*
Y422000D02*
D03*
Y432000D02*
D03*
Y442000D02*
D03*
X260000Y252000D02*
D03*
Y262000D02*
D03*
Y272000D02*
D03*
Y282000D02*
D03*
Y292000D02*
D03*
Y302000D02*
D03*
Y312000D02*
D03*
Y322000D02*
D03*
Y332000D02*
D03*
Y342000D02*
D03*
Y352000D02*
D03*
Y362000D02*
D03*
Y372000D02*
D03*
Y382000D02*
D03*
Y392000D02*
D03*
Y402000D02*
D03*
Y412000D02*
D03*
Y422000D02*
D03*
Y432000D02*
D03*
D50*
Y442000D02*
D03*
D51*
X347878Y211000D02*
D03*
D52*
Y206000D02*
D03*
X342878Y211000D02*
D03*
Y206000D02*
D03*
X337878Y211000D02*
D03*
Y206000D02*
D03*
X332878D02*
D03*
X327878Y211000D02*
D03*
Y206000D02*
D03*
D53*
X267500Y180762D02*
D03*
X237500D02*
D03*
X351000Y237000D02*
D03*
X310653Y180762D02*
D03*
D54*
X186149Y248355D02*
D03*
Y214299D02*
D03*
D55*
X199456D02*
D03*
Y248355D02*
D03*
D56*
X198000Y243040D02*
D03*
Y239693D02*
D03*
Y236347D02*
D03*
Y233000D02*
D03*
Y229654D02*
D03*
Y226307D02*
D03*
Y222961D02*
D03*
Y219614D02*
D03*
X203314D02*
D03*
Y222961D02*
D03*
Y226307D02*
D03*
Y229654D02*
D03*
Y233000D02*
D03*
Y236347D02*
D03*
Y239693D02*
D03*
Y243040D02*
D03*
D57*
X177000Y205500D02*
D03*
Y215500D02*
D03*
Y225500D02*
D03*
Y235500D02*
D03*
Y245500D02*
D03*
Y255500D02*
D03*
X316000Y200000D02*
D03*
X306000D02*
D03*
X291000Y195000D02*
D03*
X281000D02*
D03*
X231000Y190000D02*
D03*
X241000D02*
D03*
X250000D02*
D03*
X309500Y397500D02*
D03*
X299500D02*
D03*
X289500D02*
D03*
X279500D02*
D03*
X269500D02*
D03*
X314500Y267500D02*
D03*
X299500D02*
D03*
X289500D02*
D03*
X279500D02*
D03*
X269500D02*
D03*
X249500D02*
D03*
X239500D02*
D03*
X229500D02*
D03*
X219500D02*
D03*
X209500D02*
D03*
Y247500D02*
D03*
X219500D02*
D03*
X229500D02*
D03*
X239500D02*
D03*
X249500D02*
D03*
X269500D02*
D03*
Y237500D02*
D03*
X259500D02*
D03*
X249500D02*
D03*
X239500D02*
D03*
Y227500D02*
D03*
X249500D02*
D03*
X259500D02*
D03*
X279500D02*
D03*
X289500D02*
D03*
X299500D02*
D03*
X329500D02*
D03*
X319500D02*
D03*
X309500D02*
D03*
Y237500D02*
D03*
X279500D02*
D03*
X289500D02*
D03*
Y247500D02*
D03*
X279500D02*
D03*
Y259500D02*
D03*
X271000Y185000D02*
D03*
X298000Y201500D02*
D03*
X229500Y213500D02*
D03*
Y207000D02*
D03*
X236000Y201500D02*
D03*
X262000Y202000D02*
D03*
X272000Y201500D02*
D03*
X332500Y175500D02*
D03*
X317500Y182000D02*
D03*
X313500Y207000D02*
D03*
X286900Y214860D02*
D03*
X281000Y219500D02*
D03*
X286000D02*
D03*
X334500Y196000D02*
D03*
X340000Y198500D02*
D03*
X335500Y192000D02*
D03*
X332500Y200000D02*
D03*
X292500Y210500D02*
D03*
X301000Y219500D02*
D03*
X296000D02*
D03*
X291000D02*
D03*
X251200Y218500D02*
D03*
X276000Y219500D02*
D03*
X266000Y218500D02*
D03*
X261000D02*
D03*
X269772Y199028D02*
D03*
X339713Y186165D02*
D03*
X344044D02*
D03*
X339713Y181835D02*
D03*
X344044D02*
D03*
X242100Y200100D02*
D03*
X265900Y199200D02*
D03*
X256000Y218500D02*
D03*
X256300Y210500D02*
D03*
X241500Y218000D02*
D03*
X276400Y210500D02*
D03*
X286500Y179500D02*
D03*
X296000Y181500D02*
D03*
X383000Y209000D02*
D03*
X352500Y182900D02*
D03*
X349000Y195500D02*
D03*
X345200Y201700D02*
D03*
X357154Y199346D02*
D03*
X304000Y245500D02*
D03*
X318000D02*
D03*
X286900Y205860D02*
D03*
Y208860D02*
D03*
Y211860D02*
D03*
X250900Y214900D02*
D03*
Y211900D02*
D03*
Y208900D02*
D03*
Y205900D02*
D03*
M02*
